<svg width="967" height="966" viewBox="0 0 967 966" fill="none" xmlns="http://www.w3.org/2000/svg">
  <path d="M850 696.411C850 781.23 781.24 849.99 696.421 849.99C611.601 849.99 542.841 781.231 542.841 696.411C542.841 657.398 557.389 621.784 581.353 594.694L581.335 594.694C581.335 594.694 611.471 556.798 611.471 483C611.471 405.922 581.388 371.37 581.333 371.307L581.355 371.307C557.389 344.217 542.841 308.601 542.841 269.587C542.841 184.768 611.601 116.008 696.42 116.008C781.239 116.008 850 184.768 850 269.587C850 308.601 835.452 344.217 811.486 371.307L811.501 371.307C811.497 371.31 811.468 371.339 811.413 371.39C808.724 374.424 805.916 377.351 802.998 380.164C788.191 396.832 759.238 435.496 759.238 483C759.238 530.497 788.184 569.157 802.993 585.829C805.915 588.645 808.726 591.575 811.418 594.613C811.475 594.666 811.503 594.694 811.503 594.694L811.488 594.694C835.453 621.784 850 657.399 850 696.411Z" fill="#FFCE2E"/>
  <path d="M552.816 751.061C552.709 750.809 482.755 586.473 443.117 534.857C396.188 473.749 226.869 350.68 226.703 350.559L413.697 216.356C413.762 216.507 473.204 354.693 544.839 439.12C600.686 504.939 760.558 556.791 760.558 556.791L552.816 751.061Z" fill="#FFA608"/>
  <path d="M423.17 696.411C423.17 781.23 354.41 849.99 269.591 849.99C184.771 849.99 116.011 781.231 116.011 696.411C116.011 657.398 130.559 621.784 154.523 594.694L154.506 594.694C154.506 594.694 184.643 556.798 184.643 483C184.643 405.985 154.609 371.426 154.505 371.307L154.525 371.307C130.559 344.217 116.011 308.601 116.011 269.587C116.011 184.768 184.771 116.008 269.591 116.008C354.41 116.008 423.17 184.768 423.17 269.587C423.17 308.601 408.622 344.217 384.656 371.307L384.673 371.307C384.67 371.309 384.637 371.341 384.573 371.4C381.892 374.427 379.09 377.345 376.181 380.15C361.378 396.811 332.409 435.483 332.409 483C332.409 530.504 361.363 569.167 376.17 585.836C379.087 588.649 381.896 591.574 384.584 594.608C384.641 594.662 384.671 594.692 384.674 594.694L384.658 594.694C408.623 621.784 423.17 657.399 423.17 696.411Z" fill="#FFCE2E"/>
  <circle cx="696.421" cy="696.411" r="153.579" transform="rotate(90 696.421 696.411)" fill="#FFA608"/>
</svg>
