<svg width="313" height="48" viewBox="0 0 313 48" fill="none" xmlns="http://www.w3.org/2000/svg">
<path d="M47.2939 37.8955C47.2939 43.4181 42.8637 47.8945 37.3984 47.8945C31.9332 47.8945 27.503 43.418 27.5029 37.8955C27.5029 35.3546 28.4423 33.0365 29.9873 31.2725L29.9834 31.2725C29.998 31.2538 31.9248 28.7867 31.9248 24C31.9248 19.006 30.0057 16.7536 29.9834 16.7275L29.9873 16.7275C28.4423 14.9635 27.5029 12.6454 27.5029 10.1045C27.503 4.58191 31.9332 0.104564 37.3984 0.104492C42.8637 0.104492 47.2939 4.58186 47.2939 10.1045C47.2939 12.6452 46.3554 14.9636 44.8105 16.7275L44.8135 16.7275C44.8121 16.7288 44.8042 16.7364 44.79 16.75C44.6291 16.9326 44.4617 17.109 44.2881 17.2793C43.341 18.3505 41.4463 20.8829 41.4463 24C41.4463 27.1171 43.341 29.6495 44.2881 30.7207C44.462 30.8913 44.6308 31.067 44.792 31.25C44.8056 31.263 44.8122 31.2713 44.8135 31.2725L44.8105 31.2725C46.3553 33.0364 47.2939 35.3548 47.2939 37.8955Z" fill="#FFCE2E"/>
<path d="M28.1457 41.4541C28.1457 41.4541 23.6333 30.7395 21.0773 27.3762C18.0629 23.41 7.21289 15.4353 7.13325 15.3768L19.1811 6.63883C19.1811 6.63883 23.0132 15.6432 27.6315 21.1433C31.2301 25.4288 41.5313 28.8051 41.5313 28.8051L28.1457 41.4541Z" fill="#FFA608"/>
<path d="M19.792 37.8955C19.7919 43.4181 15.3608 47.8945 9.89551 47.8945C4.43043 47.8943 8.43116e-05 43.4179 -1.6519e-06 37.8955C-1.54198e-06 35.3545 0.940206 33.0365 2.48535 31.2725L2.48047 31.2725C2.48047 31.2725 4.42186 28.805 4.42187 24C4.42187 18.9905 2.49101 16.7398 2.48047 16.7275L2.48535 16.7275C0.940172 14.9635 -5.47035e-07 12.6456 -4.37114e-07 10.1045C2.08439e-05 4.582 4.4304 0.104712 9.89551 0.104492C15.3608 0.104492 19.792 4.58186 19.792 10.1045C19.792 12.6453 18.8525 14.9635 17.3076 16.7275L17.3115 16.7275C17.3115 16.7275 17.3018 16.737 17.2832 16.7549C17.1222 16.9374 16.955 17.114 16.7812 17.2842C15.8328 18.3582 13.9434 20.8876 13.9434 24C13.9434 27.1118 15.8326 29.6405 16.7812 30.7148C16.955 30.885 17.1222 31.0616 17.2832 31.2441C17.3021 31.2623 17.3115 31.2725 17.3115 31.2725L17.3076 31.2725C18.8525 33.0365 19.792 35.3547 19.792 37.8955Z" fill="#FFCE2E"/>
<ellipse cx="37.3986" cy="37.8951" rx="9.99964" ry="9.89582" transform="rotate(90 37.3986 37.8951)" fill="#FFA608"/>
<path d="M293.508 11.617V19.1682H307.774C310.805 19.1682 312.007 21.7028 312.007 23.815C312.007 25.9272 310.857 28.3035 307.774 28.3035H293.508V36.3827C293.508 37.65 293.822 37.914 295.024 37.914H308.767C311.85 37.914 313 40.2903 313 42.4553C313 44.6203 311.798 47.155 308.767 47.155H290.948C284.677 47.155 282.795 44.8843 282.795 38.8117V9.18796C282.795 3.11535 284.677 0.844727 290.948 0.844727H308.245C311.275 0.844727 312.477 3.37938 312.477 5.5444C312.477 7.70941 311.328 10.0857 308.245 10.0857H295.024C293.822 10.0857 293.508 10.3497 293.508 11.617Z" fill="#FFCE2E"/>
<path d="M258.857 11.617V19.1682H273.123C276.154 19.1682 277.356 21.7028 277.356 23.815C277.356 25.9272 276.207 28.3035 273.123 28.3035H258.857V36.3827C258.857 37.65 259.171 37.914 260.373 37.914H274.116C277.199 37.914 278.349 40.2903 278.349 42.4553C278.349 44.6203 277.147 47.155 274.116 47.155H256.297C250.026 47.155 248.145 44.8843 248.145 38.8117V9.18796C248.145 3.11535 250.026 0.844727 256.297 0.844727H273.594C276.625 0.844727 277.827 3.37938 277.827 5.5444C277.827 7.70941 276.677 10.0857 273.594 10.0857H260.373C259.171 10.0857 258.857 10.3497 258.857 11.617Z" fill="#FFCE2E"/>
<path d="M240.797 47.1551H224.963C218.692 47.1551 216.811 44.8845 216.811 38.8119V5.38614C216.811 1.84819 219.424 0 222.246 0C225.067 0 227.68 1.84819 227.68 5.38614V36.3828C227.68 37.6502 227.994 37.9142 229.196 37.9142H240.797C243.88 37.9142 245.03 40.2904 245.03 42.4554C245.03 44.6205 243.828 47.1551 240.797 47.1551Z" fill="#FFCE2E"/>
<path d="M211.835 27.934V33.0033C211.835 43.7228 204.363 48 195.427 48C186.386 48 177.293 43.5116 177.293 31.9472V16.0528C177.293 4.38284 186.386 0 195.583 0C200.391 0 204.624 1.10891 206.662 2.58746C208.804 4.11881 209.85 6.65346 208.595 8.87129C207.55 10.7195 205.617 11.4587 203.84 11.1419C202.638 10.9307 201.75 10.3498 200.966 10.033C199.712 9.55775 197.883 9.34653 195.583 9.34653C191.925 9.34653 187.954 11.67 187.954 16.5281V31.4719C187.954 36.33 191.664 38.6535 195.427 38.6535C198.98 38.6535 202.272 36.9109 202.272 33.1617V30.3102C202.272 29.2541 202.063 29.0957 201.07 29.0957H199.346C196.315 29.0957 195.165 26.7723 195.165 24.6601C195.165 22.5479 196.367 20.066 199.346 20.066H204.101C210.268 20.066 211.835 22.0198 211.835 27.934Z" fill="#FFCE2E"/>
<path d="M173.102 27.934V33.0033C173.102 43.7228 165.629 48 156.693 48C147.653 48 138.56 43.5116 138.56 31.9472V16.0528C138.56 4.38284 147.653 0 156.85 0C161.658 0 165.89 1.10891 167.929 2.58746C170.071 4.11881 171.116 6.65346 169.862 8.87129C168.817 10.7195 166.883 11.4587 165.107 11.1419C163.905 10.9307 163.016 10.3498 162.232 10.033C160.978 9.55775 159.149 9.34653 156.85 9.34653C153.192 9.34653 149.22 11.67 149.22 16.5281V31.4719C149.22 36.33 152.931 38.6535 156.693 38.6535C160.247 38.6535 163.539 36.9109 163.539 33.1617V30.3102C163.539 29.2541 163.33 29.0957 162.337 29.0957H160.613C157.582 29.0957 156.432 26.7723 156.432 24.6601C156.432 22.5479 157.634 20.066 160.613 20.066H165.368C171.534 20.066 173.102 22.0198 173.102 27.934Z" fill="#FFCE2E"/>
<path d="M99.3672 31.8944V16.1056C99.3672 3.9604 109.035 0 116.873 0C124.555 0 134.379 3.9604 134.379 16.1056V31.8944C134.379 44.0396 124.555 48 116.873 48C109.192 48 99.3672 44.0396 99.3672 31.8944ZM123.719 32.2112V15.7888C123.719 11.1419 120.688 9.0297 116.873 9.0297C113.059 9.0297 110.028 11.1419 110.028 15.7888V32.2112C110.028 36.4356 113.059 38.9703 116.873 38.9703C120.688 38.9703 123.719 36.4356 123.719 32.2112Z" fill="#FFCE2E"/>
<path d="M89.6658 0C92.1742 0 94.4212 1.79538 94.4212 5.0165V42.7195C94.4212 45.9406 91.6516 47.5776 89.3 47.7888C86.7917 48 83.5518 47.0495 82.4544 44.7261L69.7036 18.1122V47.1551H60.1929V5.38614C60.1929 2.11221 63.0148 0.369638 65.4186 0.105612C67.9269 -0.158417 71.0101 0.844886 72.1597 3.16832L84.9104 29.571V5.0165C84.9104 1.79538 87.1575 0 89.6658 0Z" fill="#FFCE2E"/>
</svg>
