<svg width="24" height="24" viewBox="0 0 24 24" fill="none" xmlns="http://www.w3.org/2000/svg">
<g clip-path="url(#clip0_2650_348)">
<path d="M24 6.64209V18.0001C24.0001 18.9183 23.6492 19.8019 23.0193 20.47C22.3893 21.1381 21.5279 21.5402 20.6112 21.5941L20.4 21.6001H3.6C2.68175 21.6001 1.79818 21.2493 1.13009 20.6194C0.461992 19.9894 0.059871 19.128 0.00600014 18.2113L0 18.0001V6.64209L11.334 14.1985L11.4732 14.2777C11.6372 14.3578 11.8174 14.3995 12 14.3995C12.1826 14.3995 12.3628 14.3578 12.5268 14.2777L12.666 14.1985L24 6.64209Z" fill="#585346"/>
<path d="M20.4002 2.3999C21.6962 2.3999 22.8326 3.0839 23.4662 4.1123L12.0002 11.7563L0.53418 4.1123C0.83513 3.62369 1.24853 3.2141 1.73991 2.91769C2.23128 2.62128 2.7864 2.44663 3.35898 2.4083L3.60018 2.3999H20.4002Z" fill="#585346"/>
</g>
<defs>
<clipPath id="clip0_2650_348">
<rect width="24" height="24" fill="white"/>
</clipPath>
</defs>
</svg>
