<svg width="410" height="244" viewBox="0 0 410 244" fill="none" xmlns="http://www.w3.org/2000/svg">
<path d="M0 20C0 8.95431 8.95431 0 20 0H390C401.046 0 410 8.95431 410 20V224C410 235.046 401.046 244 390 244H20C8.95431 244 0 235.046 0 224V20Z" fill="white"/>
<path d="M390 242V244H20V242H390ZM408 224V20C408 10.0589 399.941 2 390 2H20C10.0589 2 2 10.0589 2 20V224C2 233.941 10.0589 242 20 242V244L19.4834 243.993C8.84814 243.724 0.276492 235.152 0.00683594 224.517L0 224V20C2.79059e-06 9.12703 8.67646 0.280844 19.4834 0.00683594L20 0H390L390.517 0.00683594C401.324 0.280847 410 9.12703 410 20V224L409.993 224.517C409.724 235.152 401.152 243.724 390.517 243.993L390 244V242C399.941 242 408 233.941 408 224Z" fill="#111111"/>
<path d="M379.983 220.66V222H38.0171V220.66H379.983ZM394.398 208.6V34.4C394.398 27.7394 387.944 22.34 379.983 22.34H38.0171C30.0557 22.34 23.6017 27.7394 23.6017 34.4V208.6C23.6017 215.261 30.0557 220.66 38.0171 220.66V222L37.6034 221.995C29.0861 221.815 22.2214 216.072 22.0055 208.946L22 208.6V34.4C22 27.1151 28.9486 21.1882 37.6034 21.0046L38.0171 21H379.983L380.397 21.0046C389.051 21.1882 396 27.1151 396 34.4V208.6L395.995 208.946C395.779 216.072 388.914 221.815 380.397 221.995L379.983 222V220.66C387.944 220.66 394.398 215.261 394.398 208.6Z" fill="#111111"/>
<path d="M38.0171 220.66H379.983C387.944 220.66 394.398 215.261 394.398 208.6V34.4C394.398 27.7394 387.944 22.34 379.983 22.34H38.0171C30.0557 22.34 23.6017 27.7394 23.6017 34.4V208.6C23.6017 215.261 30.0557 220.66 38.0171 220.66Z" fill="white"/>
<path d="M158 47C158 42.5817 161.582 39 166 39H353C357.418 39 361 42.5817 361 47V151C361 155.418 357.418 159 353 159H166C161.582 159 158 155.418 158 151V47Z" fill="#DDDDDD"/>
<path d="M353 157V159H166V157H353ZM359 151V47C359 43.6863 356.314 41 353 41H166C162.686 41 160 43.6863 160 47V151C160 154.314 162.686 157 166 157V159L165.588 158.989C161.498 158.782 158.218 155.502 158.011 151.412L158 151V47C158 42.7199 161.361 39.2252 165.588 39.0107L166 39H353L353.412 39.0107C357.639 39.2252 361 42.7199 361 47V151L360.989 151.412C360.782 155.502 357.502 158.782 353.412 158.989L353 159V157C356.314 157 359 154.314 359 151Z" fill="#111111"/>
<path d="M60 62.2524V221.252H59V62.2524H60Z" fill="#111111"/>
<path d="M18 35C18 27.268 24.268 21 32 21H60V222H32C24.268 222 18 215.732 18 208V35Z" fill="#2C2D35"/>
<path d="M18 208V35C18 27.3888 24.0737 21.1965 31.6387 21.0049L32 21H60V222H32V220.5H58.5V22.5H32C25.0964 22.5 19.5 28.0964 19.5 35V208C19.5 214.904 25.0964 220.5 32 220.5V222L31.6387 221.995C24.1938 221.807 18.1935 215.806 18.0049 208.361L18 208Z" fill="#111111"/>
<path d="M46.2163 42.0086C46.2163 46.4316 42.81 50.0171 38.6081 50.0171C34.4063 50.0171 31 46.4316 31 42.0086C31 37.5856 34.4063 34 38.6081 34C42.81 34 46.2163 37.5856 46.2163 42.0086Z" fill="#FF554D"/>
<path d="M44.6146 42.0086C44.6146 38.3917 41.849 35.6017 38.6081 35.6017C35.3673 35.6017 32.6017 38.3917 32.6017 42.0086C32.6017 45.6254 35.3673 48.4154 38.6081 48.4154V50.0171C34.4063 50.0171 31 46.4316 31 42.0086C31 37.5856 34.4063 34 38.6081 34C42.81 34 46.2163 37.5856 46.2163 42.0086C46.2163 46.4316 42.81 50.0171 38.6081 50.0171V48.4154C41.849 48.4154 44.6146 45.6254 44.6146 42.0086Z" fill="#111111"/>
<path d="M46 65.5168C46 69.659 42.6421 73.0168 38.5 73.0168C34.3579 73.0168 31 69.659 31 65.5168C31 61.3747 34.3579 58.0168 38.5 58.0168C42.6421 58.0168 46 61.3747 46 65.5168Z" fill="#FEB42A"/>
<path d="M44.5 65.5168C44.5 62.2031 41.8137 59.5168 38.5 59.5168C35.1863 59.5168 32.5 62.2031 32.5 65.5168C32.5 68.8306 35.1863 71.5168 38.5 71.5168V73.0168C34.3579 73.0168 31 69.659 31 65.5168C31 61.3747 34.3579 58.0168 38.5 58.0168C42.6421 58.0168 46 61.3747 46 65.5168C46 69.659 42.6421 73.0168 38.5 73.0168V71.5168C41.8137 71.5168 44.5 68.8306 44.5 65.5168Z" fill="#111111"/>
<path d="M46.2163 89.0257C46.2163 93.4487 42.81 97.0342 38.6081 97.0342C34.4063 97.0342 31 93.4487 31 89.0257C31 84.6026 34.4063 81.0171 38.6081 81.0171C42.81 81.0171 46.2163 84.6026 46.2163 89.0257Z" fill="#25C138"/>
<path d="M44.6146 89.0257C44.6146 85.4088 41.849 82.6188 38.6081 82.6188C35.3673 82.6188 32.6017 85.4088 32.6017 89.0257C32.6017 92.6425 35.3673 95.4325 38.6081 95.4325V97.0342C34.4063 97.0342 31 93.4487 31 89.0257C31 84.6026 34.4063 81.0171 38.6081 81.0171C42.81 81.0171 46.2163 84.6026 46.2163 89.0257C46.2163 93.4487 42.81 97.0342 38.6081 97.0342V95.4325C41.849 95.4325 44.6146 92.6425 44.6146 89.0257Z" fill="#111111"/>
<path d="M73 47C73 42.5817 76.5817 39 81 39H120C124.418 39 128 42.5817 128 47V66C128 70.4183 124.418 74 120 74H81C76.5817 74 73 70.4183 73 66V47Z" fill="#F2F2F2"/>
<path d="M120 72V74H81V72H120ZM126 66V47C126 43.6863 123.314 41 120 41H81C77.6863 41 75 43.6863 75 47V66C75 69.3137 77.6863 72 81 72V74L80.5879 73.9893C76.4976 73.7817 73.2183 70.5024 73.0107 66.4121L73 66V47C73 42.7199 76.3611 39.2252 80.5879 39.0107L81 39H120L120.412 39.0107C124.639 39.2252 128 42.7199 128 47V66L127.989 66.4121C127.782 70.5024 124.502 73.7817 120.412 73.9893L120 74V72C123.314 72 126 69.3137 126 66Z" fill="#111111"/>
<path d="M73 91C73 86.5817 76.5817 83 81 83H120C124.418 83 128 86.5817 128 91V110C128 114.418 124.418 118 120 118H81C76.5817 118 73 114.418 73 110V91Z" fill="#F2F2F2"/>
<path d="M120 116V118H81V116H120ZM126 110V91C126 87.6863 123.314 85 120 85H81C77.6863 85 75 87.6863 75 91V110C75 113.314 77.6863 116 81 116V118L80.5879 117.989C76.4976 117.782 73.2183 114.502 73.0107 110.412L73 110V91C73 86.7199 76.3611 83.2252 80.5879 83.0107L81 83H120L120.412 83.0107C124.639 83.2252 128 86.7199 128 91V110L127.989 110.412C127.782 114.502 124.502 117.782 120.412 117.989L120 118V116C123.314 116 126 113.314 126 110Z" fill="#111111"/>
<path d="M73 135C73 130.582 76.5817 127 81 127H120C124.418 127 128 130.582 128 135V154C128 158.418 124.418 162 120 162H81C76.5817 162 73 158.418 73 154V135Z" fill="#F2F2F2"/>
<path d="M120 160V162H81V160H120ZM126 154V135C126 131.686 123.314 129 120 129H81C77.6863 129 75 131.686 75 135V154C75 157.314 77.6863 160 81 160V162L80.5879 161.989C76.4976 161.782 73.2183 158.502 73.0107 154.412L73 154V135C73 130.72 76.3611 127.225 80.5879 127.011L81 127H120L120.412 127.011C124.639 127.225 128 130.72 128 135V154L127.989 154.412C127.782 158.502 124.502 161.782 120.412 161.989L120 162V160C123.314 160 126 157.314 126 154Z" fill="#111111"/>
<path d="M73 179C73 174.582 76.5817 171 81 171H120C124.418 171 128 174.582 128 179V198C128 202.418 124.418 206 120 206H81C76.5817 206 73 202.418 73 198V179Z" fill="#F2F2F2"/>
<path d="M120 204V206H81V204H120ZM126 198V179C126 175.686 123.314 173 120 173H81C77.6863 173 75 175.686 75 179V198C75 201.314 77.6863 204 81 204V206L80.5879 205.989C76.4976 205.782 73.2183 202.502 73.0107 198.412L73 198V179C73 174.72 76.3611 171.225 80.5879 171.011L81 171H120L120.412 171.011C124.639 171.225 128 174.72 128 179V198L127.989 198.412C127.782 202.502 124.502 205.782 120.412 205.989L120 206V204C123.314 204 126 201.314 126 198Z" fill="#111111"/>
<path d="M173 60C173 57.7909 174.791 56 177 56H274.5C276.709 56 278.5 57.7909 278.5 60V66.5C278.5 68.7091 276.709 70.5 274.5 70.5H177C174.791 70.5 173 68.7091 173 66.5V60Z" fill="#ABABAB"/>
<path d="M274.5 68.5V70.5H177V68.5H274.5ZM276.5 66.5V60C276.5 58.8954 275.605 58 274.5 58H177C175.895 58 175 58.8954 175 60V66.5C175 67.6046 175.895 68.5 177 68.5V70.5L176.794 70.4951C174.749 70.3913 173.109 68.7512 173.005 66.7061L173 66.5V60C173 57.86 174.681 56.1121 176.794 56.0049L177 56H274.5L274.706 56.0049C276.819 56.1121 278.5 57.86 278.5 60V66.5L278.495 66.7061C278.391 68.7512 276.751 70.3913 274.706 70.4951L274.5 70.5V68.5C275.605 68.5 276.5 67.6046 276.5 66.5Z" fill="#111111"/>
<path d="M173 93C173 90.7909 174.791 89 177 89H257.5C259.709 89 261.5 90.7909 261.5 93V96C261.5 98.2091 259.709 100 257.5 100H177C174.791 100 173 98.2091 173 96V93Z" fill="#F2F2F2"/>
<path d="M257.5 98V100H177V98H257.5ZM259.5 96V93C259.5 91.8954 258.605 91 257.5 91H177C175.895 91 175 91.8954 175 93V96C175 97.1046 175.895 98 177 98V100L176.794 99.9951C174.749 99.8913 173.109 98.2512 173.005 96.2061L173 96V93C173 90.86 174.681 89.1121 176.794 89.0049L177 89H257.5L257.706 89.0049C259.819 89.1121 261.5 90.86 261.5 93V96L261.495 96.2061C261.391 98.2512 259.751 99.8913 257.706 99.9951L257.5 100V98C258.605 98 259.5 97.1046 259.5 96Z" fill="#111111"/>
<path d="M173 109C173 106.791 174.791 105 177 105H240C242.209 105 244 106.791 244 109V112C244 114.209 242.209 116 240 116H177C174.791 116 173 114.209 173 112V109Z" fill="#F2F2F2"/>
<path d="M240 114V116H177V114H240ZM242 112V109C242 107.895 241.105 107 240 107H177C175.895 107 175 107.895 175 109V112C175 113.105 175.895 114 177 114V116L176.794 115.995C174.749 115.891 173.109 114.251 173.005 112.206L173 112V109C173 106.86 174.681 105.112 176.794 105.005L177 105H240L240.206 105.005C242.319 105.112 244 106.86 244 109V112L243.995 112.206C243.891 114.251 242.251 115.891 240.206 115.995L240 116V114C241.105 114 242 113.105 242 112Z" fill="#111111"/>
<path d="M173 126C173 123.791 174.791 122 177 122H249C251.209 122 253 123.791 253 126V129C253 131.209 251.209 133 249 133H177C174.791 133 173 131.209 173 129V126Z" fill="#F2F2F2"/>
<path d="M249 131V133H177V131H249ZM251 129V126C251 124.895 250.105 124 249 124H177C175.895 124 175 124.895 175 126V129C175 130.105 175.895 131 177 131V133L176.794 132.995C174.749 132.891 173.109 131.251 173.005 129.206L173 129V126C173 123.86 174.681 122.112 176.794 122.005L177 122H249L249.206 122.005C251.319 122.112 253 123.86 253 126V129L252.995 129.206C252.891 131.251 251.251 132.891 249.206 132.995L249 133V131C250.105 131 251 130.105 251 129Z" fill="#111111"/>
<path d="M158 178C158 173.582 161.582 170 166 170H353C357.418 170 361 173.582 361 178V200C361 204.418 357.418 208 353 208H166C161.582 208 158 204.418 158 200V178Z" fill="#ABABAB"/>
<path d="M353 206V208H166V206H353ZM359 200V178C359 174.686 356.314 172 353 172H166C162.686 172 160 174.686 160 178V200C160 203.314 162.686 206 166 206V208L165.588 207.989C161.498 207.782 158.218 204.502 158.011 200.412L158 200V178C158 173.72 161.361 170.225 165.588 170.011L166 170H353L353.412 170.011C357.639 170.225 361 173.72 361 178V200L360.989 200.412C360.782 204.502 357.502 207.782 353.412 207.989L353 208V206C356.314 206 359 203.314 359 200Z" fill="#111111"/>
<path d="M390 1C400.493 1 409 9.50659 409 20V32H316C305.507 32 297 23.4934 297 13V1H390Z" fill="#ADE975" stroke="#111111" stroke-width="2"/>
<path d="M375.428 15.9079H376.548C377.434 15.9079 378.214 15.9032 378.886 15.8939C379.567 15.8752 380.197 15.8426 380.776 15.7959C381.364 15.7492 381.956 15.6792 382.554 15.5859L382.736 17.0419C382.12 17.1352 381.508 17.2099 380.902 17.2659C380.304 17.3126 379.656 17.3452 378.956 17.3639C378.256 17.3732 377.453 17.3779 376.548 17.3779H375.428V15.9079ZM375.428 10.9799H381.672V12.4639H377.276V16.4959H375.428V10.9799ZM376.702 13.4439H381.294V14.8859H376.702V13.4439ZM383.632 10.0979H385.494V17.9379H383.632V10.0979ZM381.112 18.1339C382.026 18.1339 382.815 18.2319 383.478 18.4279C384.14 18.6239 384.649 18.9039 385.004 19.2679C385.368 19.6319 385.55 20.0752 385.55 20.5979C385.55 21.3819 385.153 21.9886 384.36 22.4179C383.566 22.8472 382.484 23.0619 381.112 23.0619C379.74 23.0619 378.657 22.8472 377.864 22.4179C377.08 21.9886 376.688 21.3819 376.688 20.5979C376.688 19.8232 377.08 19.2212 377.864 18.7919C378.657 18.3532 379.74 18.1339 381.112 18.1339ZM381.112 19.5479C380.552 19.5479 380.08 19.5852 379.698 19.6599C379.315 19.7346 379.026 19.8512 378.83 20.0099C378.634 20.1686 378.536 20.3646 378.536 20.5979C378.536 20.8312 378.634 21.0272 378.83 21.1859C379.026 21.3352 379.315 21.4472 379.698 21.5219C380.08 21.5966 380.552 21.6339 381.112 21.6339C381.681 21.6339 382.152 21.5966 382.526 21.5219C382.908 21.4472 383.198 21.3352 383.394 21.1859C383.599 21.0272 383.702 20.8312 383.702 20.5979C383.702 20.3646 383.599 20.1686 383.394 20.0099C383.198 19.8512 382.908 19.7346 382.526 19.6599C382.152 19.5852 381.681 19.5479 381.112 19.5479Z" fill="#111111"/>
<path d="M368.457 11.9879H371.649V13.4719H368.457V11.9879ZM370.823 10.0979H372.699V16.6779H370.823V10.0979ZM364.131 17.2099H372.699V20.7099H365.993V22.3339H364.145V19.3659H370.851V18.6519H364.131V17.2099ZM364.145 21.4659H373.063V22.9219H364.145V21.4659ZM364.803 10.5039H366.315V11.4419C366.315 12.2446 366.184 13.0052 365.923 13.7239C365.671 14.4426 365.279 15.0679 364.747 15.5999C364.215 16.1226 363.534 16.5146 362.703 16.7759L361.751 15.3199C362.47 15.0959 363.053 14.7879 363.501 14.3959C363.949 13.9946 364.276 13.5372 364.481 13.0239C364.696 12.5106 364.803 11.9832 364.803 11.4419V10.5039ZM365.181 10.5039H366.679V11.4419C366.679 11.8152 366.735 12.1886 366.847 12.5619C366.968 12.9352 367.146 13.2852 367.379 13.6119C367.612 13.9386 367.911 14.2279 368.275 14.4799C368.648 14.7319 369.087 14.9372 369.591 15.0959L368.639 16.5239C367.855 16.2719 367.206 15.8939 366.693 15.3899C366.18 14.8859 365.797 14.2932 365.545 13.6119C365.302 12.9306 365.181 12.2072 365.181 11.4419V10.5039Z" fill="#111111"/>
<path d="M355.676 14.018H358.168V15.516H355.676V14.018ZM353.842 11.064H355.76C355.76 12.2867 355.574 13.374 355.2 14.326C354.827 15.278 354.211 16.1087 353.352 16.818C352.494 17.518 351.336 18.1013 349.88 18.568L349.152 17.126C350.067 16.8367 350.828 16.51 351.434 16.146C352.041 15.782 352.517 15.3807 352.862 14.942C353.217 14.494 353.469 14.0133 353.618 13.5C353.768 12.9773 353.842 12.4173 353.842 11.82V11.064ZM349.838 11.064H355.046V12.562H349.838V11.064ZM354.052 13.598V14.872L349.432 15.208L349.18 13.766L354.052 13.598ZM357.944 10.084H359.82V19.66H357.944V10.084ZM351.336 21.34H360.156V22.838H351.336V21.34ZM351.336 18.736H353.212V22.32H351.336V18.736Z" fill="#111111"/>
<path d="M333.285 11.036H340.887V12.38H333.285V11.036ZM337.079 12.688C337.732 12.688 338.297 12.7673 338.773 12.926C339.258 13.0847 339.636 13.3087 339.907 13.598C340.178 13.8873 340.313 14.228 340.313 14.62C340.313 15.0213 340.178 15.3667 339.907 15.656C339.636 15.9453 339.258 16.174 338.773 16.342C338.297 16.5007 337.732 16.58 337.079 16.58C336.435 16.58 335.87 16.5007 335.385 16.342C334.909 16.174 334.536 15.9453 334.265 15.656C334.004 15.3667 333.873 15.0213 333.873 14.62C333.873 14.228 334.004 13.8873 334.265 13.598C334.536 13.3087 334.909 13.0847 335.385 12.926C335.87 12.7673 336.435 12.688 337.079 12.688ZM337.079 13.92C336.65 13.92 336.3 13.9807 336.029 14.102C335.768 14.214 335.637 14.3867 335.637 14.62C335.637 14.8533 335.768 15.0353 336.029 15.166C336.3 15.2873 336.65 15.348 337.079 15.348C337.518 15.348 337.868 15.2873 338.129 15.166C338.4 15.0353 338.535 14.8533 338.535 14.62C338.535 14.3867 338.4 14.214 338.129 14.102C337.868 13.9807 337.518 13.92 337.079 13.92ZM336.155 10H338.031V11.722H336.155V10ZM336.155 15.88H338.031V17.686H336.155V15.88ZM341.783 10.098H343.645V18.89H341.783V10.098ZM334.685 19.38H343.645V23.062H341.783V20.822H334.685V19.38ZM333.131 18.624L332.921 17.21C333.705 17.21 334.55 17.2053 335.455 17.196C336.37 17.1867 337.303 17.1587 338.255 17.112C339.216 17.056 340.136 16.972 341.013 16.86L341.153 18.12C340.238 18.2693 339.31 18.3813 338.367 18.456C337.424 18.5307 336.505 18.5773 335.609 18.596C334.722 18.6147 333.896 18.624 333.131 18.624Z" fill="#111111"/>
<path d="M328.904 10.084H330.766V23.048H328.904V10.084ZM325.082 11.428H326.916C326.916 12.4173 326.818 13.3647 326.622 14.27C326.435 15.166 326.118 16.0107 325.67 16.804C325.231 17.5973 324.625 18.3347 323.85 19.016C323.085 19.688 322.128 20.304 320.98 20.864L320 19.394C321.251 18.7873 322.245 18.12 322.982 17.392C323.729 16.6547 324.265 15.824 324.592 14.9C324.919 13.9667 325.082 12.9213 325.082 11.764V11.428ZM320.7 11.428H325.95V12.912H320.7V11.428Z" fill="#111111"/>
<circle cx="33.5" cy="212.5" r="17.5" fill="#111111"/>
<path d="M26 220.5C26 218.291 27.7909 216.5 30 216.5H33.9999V220.5C33.9999 222.709 32.2091 224.5 30 224.5C27.7909 224.5 26 222.709 26 220.5Z" fill="#24CB71"/>
<path d="M34 200.5V208.5H38C40.2091 208.5 41.9999 206.709 41.9999 204.5C41.9999 202.291 40.2091 200.5 38 200.5H34Z" fill="#FF7237"/>
<path d="M37.9668 216.5C40.1759 216.5 41.9667 214.709 41.9667 212.5C41.9667 210.291 40.1759 208.5 37.9668 208.5C35.7576 208.5 33.9668 210.291 33.9668 212.5C33.9668 214.709 35.7576 216.5 37.9668 216.5Z" fill="#00B6FF"/>
<path d="M26 204.5C26 206.709 27.7909 208.5 30 208.5H33.9999V200.5H30C27.7909 200.5 26 202.291 26 204.5Z" fill="#FF3737"/>
<path d="M26 212.5C26 214.709 27.7909 216.5 30 216.5H33.9999V208.5H30C27.7909 208.5 26 210.291 26 212.5Z" fill="#874FFF"/>
</svg>
