<svg width="410" height="244" viewBox="0 0 410 244" fill="none" xmlns="http://www.w3.org/2000/svg">
<path d="M0 20C0 8.95431 8.95431 0 20 0H390C401.046 0 410 8.95431 410 20V224C410 235.046 401.046 244 390 244H20C8.95431 244 0 235.046 0 224V20Z" fill="white"/>
<path d="M390 242V244H20V242H390ZM408 224V20C408 10.0589 399.941 2 390 2H20C10.0589 2 2 10.0589 2 20V224C2 233.941 10.0589 242 20 242V244L19.4834 243.993C8.84814 243.724 0.276492 235.152 0.00683594 224.517L0 224V20C2.79059e-06 9.12703 8.67646 0.280844 19.4834 0.00683594L20 0H390L390.517 0.00683594C401.324 0.280847 410 9.12703 410 20V224L409.993 224.517C409.724 235.152 401.152 243.724 390.517 243.993L390 244V242C399.941 242 408 233.941 408 224Z" fill="#111111"/>
<path d="M18 157.687H392V188.687H18V157.687Z" fill="white"/>
<path d="M18 62.6526H392V94.6868H18V62.6526Z" fill="white"/>
<path d="M375.983 220.66V222H34.0171V220.66H375.983ZM390.398 208.6V34.4C390.398 27.7394 383.944 22.34 375.983 22.34H34.0171C26.0557 22.34 19.6017 27.7394 19.6017 34.4V208.6C19.6017 215.261 26.0557 220.66 34.0171 220.66V222L33.6034 221.995C25.0861 221.815 18.2214 216.072 18.0055 208.946L18 208.6V34.4C18 27.1151 24.9486 21.1882 33.6034 21.0046L34.0171 21H375.983L376.397 21.0046C385.051 21.1882 392 27.1151 392 34.4V208.6L391.995 208.946C391.779 216.072 384.914 221.815 376.397 221.995L375.983 222V220.66C383.944 220.66 390.398 215.261 390.398 208.6Z" fill="#111111"/>
<path d="M18 124.687H392V157.687H18V124.687Z" fill="white"/>
<path d="M392 125.687V157.687H18V125.687H392ZM19.6017 156.407H390.398V126.967H19.6017V156.407Z" fill="#111111"/>
<path d="M18 94.687H392V125.687H18V94.687Z" fill="white"/>
<path d="M392 94.687V126.687H18V94.687H392ZM19.6017 125.407H390.398V95.967H19.6017V125.407Z" fill="#111111"/>
<path d="M18 188.687H392V208.487C392 215.777 384.829 221.687 375.983 221.687H34.0171C25.1711 221.687 18 215.777 18 208.487V188.687Z" fill="white"/>
<path d="M375.983 220.6V222H34.0171V220.6H375.983ZM390.398 208V188.4H19.6017V208C19.6017 214.959 26.0557 220.6 34.0171 220.6V222L33.6034 221.995C25.0861 221.806 18.2214 215.806 18.0055 208.362L18 208V187H392V208L391.995 208.362C391.779 215.806 384.914 221.806 376.397 221.995L375.983 222V220.6C383.944 220.6 390.398 214.959 390.398 208Z" fill="#111111"/>
<path d="M18 34.2258C18 26.9214 25.1711 21 34.0171 21H375.983C384.829 21 392 26.9214 392 34.2258V62H18V34.2258Z" fill="#1E1E1E"/>
<path d="M390.398 34.5484C390.398 27.8141 383.944 22.3548 375.983 22.3548H34.0171C26.0557 22.3548 19.6017 27.8141 19.6017 34.5484V61.6452H390.398V34.5484ZM392 63H18V34.5484C18 27.1828 24.9486 21.1902 33.6034 21.0046L34.0171 21H375.983L376.397 21.0046C385.051 21.1902 392 27.1828 392 34.5484V63Z" fill="#111111"/>
<path d="M49.2339 45.8264C49.2339 50.2494 45.8276 53.835 41.6257 53.835C37.4239 53.835 34.0176 50.2494 34.0176 45.8264C34.0176 41.4034 37.4239 37.8179 41.6257 37.8179C45.8276 37.8179 49.2339 41.4034 49.2339 45.8264Z" fill="#FF554D"/>
<path d="M47.6321 45.8264C47.6321 42.2096 44.8665 39.4196 41.6257 39.4196C38.3849 39.4196 35.6193 42.2096 35.6193 45.8264C35.6193 49.4433 38.3849 52.2333 41.6257 52.2333V53.835C37.4239 53.835 34.0176 50.2494 34.0176 45.8264C34.0176 41.4034 37.4239 37.8179 41.6257 37.8179C45.8276 37.8179 49.2339 41.4034 49.2339 45.8264C49.2339 50.2494 45.8276 53.835 41.6257 53.835V52.2333C44.8665 52.2333 47.6321 49.4433 47.6321 45.8264Z" fill="#111111"/>
<path d="M74.0601 45.8264C74.0601 50.2494 70.4745 53.835 66.0515 53.835C61.6285 53.835 58.043 50.2494 58.043 45.8264C58.043 41.4034 61.6285 37.8179 66.0515 37.8179C70.4745 37.8179 74.0601 41.4034 74.0601 45.8264Z" fill="#FEB42A"/>
<path d="M72.4584 45.8264C72.4584 42.288 69.5899 39.4196 66.0515 39.4196C62.5131 39.4196 59.6447 42.288 59.6447 45.8264C59.6447 49.3648 62.5131 52.2333 66.0515 52.2333V53.835C61.6285 53.835 58.043 50.2494 58.043 45.8264C58.043 41.4034 61.6285 37.8179 66.0515 37.8179C70.4745 37.8179 74.0601 41.4034 74.0601 45.8264C74.0601 50.2494 70.4745 53.835 66.0515 53.835V52.2333C69.5899 52.2333 72.4584 49.3648 72.4584 45.8264Z" fill="#111111"/>
<path d="M98.0854 45.8264C98.0854 50.2494 94.6791 53.835 90.4773 53.835C86.2754 53.835 82.8691 50.2494 82.8691 45.8264C82.8691 41.4034 86.2754 37.8179 90.4773 37.8179C94.6791 37.8179 98.0854 41.4034 98.0854 45.8264Z" fill="#25C138"/>
<path d="M96.4837 45.8264C96.4837 42.2096 93.7181 39.4196 90.4773 39.4196C87.2364 39.4196 84.4709 42.2096 84.4709 45.8264C84.4709 49.4433 87.2364 52.2333 90.4773 52.2333V53.835C86.2754 53.835 82.8691 50.2494 82.8691 45.8264C82.8691 41.4034 86.2754 37.8179 90.4773 37.8179C94.6791 37.8179 98.0854 41.4034 98.0854 45.8264C98.0854 50.2494 94.6791 53.835 90.4773 53.835V52.2333C93.7181 52.2333 96.4837 49.4433 96.4837 45.8264Z" fill="#111111"/>
<path d="M75 62.2524V221.252H74V62.2524H75Z" fill="#111111"/>
<path d="M237 62.2524V221.252H236V62.2524H237Z" fill="#111111"/>
<path d="M298.9 62.2524V221.252H296.9V62.2524H298.9Z" fill="#111111"/>
<path d="M108.669 83.5389H106.138L106.01 82.8662C105.401 83.4428 104.536 83.8112 103.575 83.8112H103.223C101.894 83.8112 99.9395 83.0904 99.9395 80.4316C99.9395 77.8528 101.781 77.084 103.864 77.084H105.513C105.481 75.6905 104.809 75.4342 104.04 75.4342C103.671 75.4342 103.351 75.4983 102.967 75.6104C102.71 75.6905 102.502 75.8026 102.214 75.9308C101.637 76.2191 100.788 75.9948 100.5 75.3541C100.196 74.7135 100.452 74.0568 101.013 73.6403C101.862 73.0156 103.207 72.7754 104.296 72.7754C106.619 72.7754 108.669 73.5923 108.669 77.5004V83.5389ZM105.513 80.1753V79.4385H104.056C103.447 79.4385 103.111 79.7428 103.111 80.4156C103.111 81.0883 103.447 81.3446 104.008 81.3446H104.232C104.825 81.3446 105.513 80.9922 105.513 80.1753Z" fill="black"/>
<path d="M99.3742 83.5391H95.8504L95.0976 80.7842H91.2535L90.5007 83.5391H87.041L91.1574 70.5653C91.4457 69.6683 92.3587 69.2358 93.2236 69.2358C94.0405 69.2358 94.9214 69.7003 95.1937 70.5653L99.3742 83.5391ZM93.1756 73.6886L91.9903 78.0773H94.3608L93.1756 73.6886Z" fill="black"/>
<path d="M110.026 88.2803C110.468 88.2803 110.827 88.6388 110.827 89.0811C110.827 89.5234 110.468 89.882 110.026 89.882H86.8009C86.3586 89.882 86 89.5234 86 89.0811C86 88.6388 86.3586 88.2803 86.8009 88.2803H110.026Z" fill="#111111"/>
<path d="M354.881 78.6699C354.881 84.4198 350.22 89.0811 344.47 89.0811C338.72 89.0811 334.059 84.4198 334.059 78.6699C334.059 72.92 338.72 68.2588 344.47 68.2588C350.22 68.2588 354.881 72.92 354.881 78.6699Z" fill="#111111"/>
<path d="M343.082 81.8735C343.698 82.9413 345.24 82.9413 345.856 81.8735L347.937 78.2696C348.553 77.2018 347.783 75.867 346.55 75.867H342.388C341.155 75.867 340.385 77.2018 341.001 78.2696L343.082 81.8735Z" fill="white"/>
<path d="M268 78.5C270.761 78.5 273 76.2614 273 73.5C273 70.7386 270.761 68.5 268 68.5C265.239 68.5 263 70.7386 263 73.5C263 76.2614 265.239 78.5 268 78.5Z" fill="#111111"/>
<path d="M272 73.5C272 71.2909 270.209 69.5 268 69.5C265.791 69.5 264 71.2909 264 73.5C264 75.7091 265.791 77.5 268 77.5C270.209 77.5 272 75.7091 272 73.5ZM274 73.5C274 76.8137 271.314 79.5 268 79.5C264.686 79.5 262 76.8137 262 73.5C262 70.1863 264.686 67.5 268 67.5C271.314 67.5 274 70.1863 274 73.5Z" fill="#111111"/>
<path d="M275 86.5C275 84.6435 274.263 82.8626 272.95 81.5498C271.719 80.319 270.077 79.5945 268.347 79.5088L268 79.5C266.143 79.5 264.363 80.2371 263.05 81.5498C261.737 82.8626 261 84.6435 261 86.5C261 87.0523 260.552 87.5 260 87.5C259.448 87.5 259 87.0523 259 86.5C259 84.1131 259.948 81.8236 261.636 80.1357C263.324 78.4479 265.613 77.5 268 77.5C270.387 77.5 272.676 78.4479 274.364 80.1357C276.052 81.8236 277 84.1131 277 86.5C277 87.0523 276.552 87.5 276 87.5C275.448 87.5 275 87.0523 275 86.5Z" fill="#111111"/>
<path d="M268 78.5C265.878 78.5 263.843 79.3429 262.343 80.8431C260.843 82.3434 260 84.3783 260 86.5H276C276 84.3783 275.157 82.3434 273.657 80.8431C272.157 79.3429 270.122 78.5 268 78.5Z" fill="#111111"/>
<path d="M268 77.5C270.387 77.5 272.676 78.4479 274.364 80.1357C276.052 81.8236 277 84.1131 277 86.5C277 86.7652 276.895 87.0195 276.707 87.207C276.519 87.3946 276.265 87.5 276 87.5H260C259.735 87.5 259.481 87.3946 259.293 87.207C259.105 87.0195 259 86.7652 259 86.5C259 84.1131 259.948 81.8236 261.636 80.1357C263.324 78.4479 265.613 77.5 268 77.5ZM268 79.5C266.143 79.5 264.363 80.2371 263.05 81.5498C261.975 82.6245 261.288 84.0133 261.073 85.5H274.927C274.712 84.0133 274.025 82.6245 272.95 81.5498C271.637 80.2371 269.857 79.5 268 79.5Z" fill="#111111"/>
<path d="M56.8223 86.6789V88.2806H39.2034V86.6789H56.8223ZM58.424 85.0772V72.2635C58.424 71.4341 57.7935 70.7523 56.9857 70.6704L56.8223 70.6618H39.2034C38.374 70.6618 37.6922 71.2922 37.6103 72.1L37.6017 72.2635V85.0772C37.6017 85.9618 38.3188 86.6789 39.2034 86.6789V88.2806L39.0384 88.2767C37.4005 88.1936 36.087 86.8801 36.0039 85.2422L36 85.0772V72.2635C36 70.5496 37.3459 69.1498 39.0384 69.064L39.2034 69.0601H56.8223L56.9873 69.064C58.6798 69.1498 60.0257 70.5496 60.0257 72.2635V85.0772L60.0218 85.2422C59.9387 86.8801 58.6252 88.1936 56.9873 88.2767L56.8223 88.2806V86.6789C57.7069 86.6789 58.424 85.9618 58.424 85.0772Z" fill="#111111"/>
<path d="M40.0039 68.6594C40.0039 67.5536 40.9003 66.6572 42.006 66.6572V66.6572C43.1118 66.6572 44.0082 67.5536 44.0082 68.6594V70.6615H40.0039V68.6594Z" fill="#111111"/>
<path d="M40.8047 75.8673C40.8047 75.2038 41.3425 74.666 42.006 74.666H54.0188C54.6823 74.666 55.2201 75.2038 55.2201 75.8673V75.8673C55.2201 76.5308 54.6823 77.0686 54.0188 77.0686H42.006C41.3425 77.0686 40.8047 76.5308 40.8047 75.8673V75.8673Z" fill="#111111"/>
<path d="M40.8047 81.4733C40.8047 80.8098 41.3425 80.272 42.006 80.272H50.0145C50.678 80.272 51.2158 80.8098 51.2158 81.4733V81.4733C51.2158 82.1367 50.678 82.6745 50.0145 82.6745H42.006C41.3425 82.6745 40.8047 82.1367 40.8047 81.4733V81.4733Z" fill="#111111"/>
<path d="M52.0156 68.6594C52.0156 67.5536 52.912 66.6572 54.0178 66.6572V66.6572C55.1235 66.6572 56.0199 67.5536 56.0199 68.6594V70.6615H52.0156V68.6594Z" fill="#111111"/>
<path d="M146.679 107.448H144.583V108.2C144.583 109.032 144.535 109.8 144.423 110.52C146.679 111.288 148.151 112.984 147.895 117.16H144.903C145.159 115.096 144.679 113.88 143.703 113.256C142.903 115.208 141.607 116.504 140.055 117.16C139.367 117.448 138.439 117.272 138.087 116.632C137.767 116.056 137.911 115.288 138.535 114.904C140.455 113.736 141.495 112.024 141.495 108.152V107.448H139.335C138.407 107.448 138.023 106.76 138.023 106.12C138.023 105.48 138.391 104.76 139.335 104.76H141.415V104.568C141.415 103.56 141.975 103 143.031 103C144.087 103 144.631 103.576 144.631 104.568V104.76H146.679C147.623 104.76 147.959 105.48 147.959 106.12C147.959 106.76 147.607 107.448 146.679 107.448ZM152.263 108.648H152.839C153.815 108.648 154.103 109.4 154.103 110.04C154.103 110.696 153.799 111.432 152.839 111.432H152.263V118.072H149.063V104.632C149.063 103.592 149.815 103.048 150.663 103.048C151.511 103.048 152.263 103.592 152.263 104.632V108.648Z" fill="black"/>
<path d="M123.687 108.92C125.751 108.696 127.815 107.576 128.119 106.024H124.167C123.207 106.024 122.823 105.368 122.823 104.712C122.823 104.072 123.191 103.384 124.167 103.384H135.239C136.215 103.384 136.583 104.072 136.583 104.712C136.583 105.368 136.199 106.024 135.239 106.024H131.351C131.319 106.328 131.255 106.616 131.175 106.888C134.183 106.712 136.631 108.376 136.887 111.528H133.719C133.271 109.864 131.607 108.936 129.799 109.144C128.343 110.632 126.103 111.544 124.119 111.544C123.143 111.544 122.519 111 122.519 110.152C122.519 109.496 122.999 108.984 123.687 108.92ZM123.559 112.088H135.847C136.807 112.088 137.191 112.744 137.191 113.4C137.191 114.072 136.791 114.712 135.847 114.712H131.335V118.152H128.071V114.712H123.559C122.615 114.712 122.215 114.072 122.215 113.4C122.215 112.744 122.599 112.088 123.559 112.088Z" fill="black"/>
<path d="M117.661 104.424C117.901 103.768 118.397 103.432 119.069 103.432C119.997 103.432 120.669 103.992 120.669 105.048V117.72H117.469V108.392H116.125C115.229 108.392 114.477 107.928 114.477 107.048C114.477 106.312 114.989 105.832 115.629 105.736C116.493 105.624 117.357 105.272 117.661 104.424Z" fill="black"/>
<path d="M102.104 110.424H105.512V104.632C105.512 103.592 106.264 103.048 107.112 103.048C107.96 103.048 108.712 103.592 108.712 104.632V112.312H105.512V112.04H102.104C101.56 112.04 101.128 111.784 101.128 111.24C101.128 110.712 101.544 110.424 102.104 110.424ZM101.576 107.608H97.2716C95.7516 107.608 94.6796 106.888 94.6796 105.528V105.48C94.6796 104.12 95.7516 103.4 97.2716 103.4H101.576C103.096 103.4 104.12 104.12 104.12 105.48V105.528C104.12 106.888 103.096 107.608 101.576 107.608ZM97.7516 105.496V105.512C97.7516 105.752 97.9116 105.928 98.2956 105.928H100.52C100.904 105.928 101.048 105.752 101.048 105.512V105.496C101.048 105.256 100.904 105.08 100.52 105.08H98.2956C97.9116 105.08 97.7516 105.256 97.7516 105.496ZM97.2876 112.232V110.072H95.2876C94.5836 110.072 94.1836 109.8 94.1836 109.128C94.1836 108.472 94.5676 108.168 95.2876 108.168H103.848C104.568 108.168 104.952 108.472 104.952 109.128C104.952 109.8 104.552 110.072 103.848 110.072H100.312V112.232H97.2876ZM98.8076 116.44H108.232C108.872 116.44 109.144 116.808 109.144 117.288C109.144 117.736 108.888 118.072 108.232 118.072H97.2236C95.7676 118.072 95.0796 117.448 95.0796 116.424V116.168C95.0796 115.272 95.7676 114.6 97.2236 114.6H105.48V114.424C105.48 114.28 105.432 114.136 105.224 114.136H96.1356C95.5116 114.136 95.2556 113.816 95.2556 113.336C95.2556 112.888 95.5276 112.552 96.1356 112.552H107.048C108.328 112.552 108.728 112.968 108.728 114.104V115.992H98.8076C98.6156 115.992 98.5196 116.104 98.5196 116.216V116.232C98.5196 116.36 98.6156 116.44 98.8076 116.44Z" fill="black"/>
<path d="M87.4959 108.648H88.1839C91.1119 108.648 93.0319 110.104 93.0319 113.144C93.0319 116.536 90.9359 117.976 88.1199 117.976C86.4879 117.976 84.9039 117.432 84.1519 116.552C83.6559 115.976 83.6879 115.032 84.2319 114.552C84.6799 114.152 85.3519 114.152 85.7679 114.344C86.1199 114.504 86.3439 114.664 86.5839 114.792C86.8399 114.92 87.2399 115.064 87.9439 115.064C89.0959 115.064 89.8959 114.44 89.8959 113.144C89.8959 111.96 89.1759 111.352 87.6879 111.352H86.3919C84.5039 111.352 83.9439 110.76 84.0399 108.952L84.1839 106.088C84.2799 104.28 84.6319 103.688 86.5199 103.688H91.3679C92.2799 103.688 92.6319 104.44 92.6319 105.08C92.6319 105.72 92.2959 106.424 91.3679 106.424H87.5759C87.2879 106.424 87.1919 106.456 87.1759 106.76L87.1119 108.312C87.0959 108.616 87.2079 108.648 87.4959 108.648Z" fill="black"/>
<path d="M149.628 137.448H147.532V138.2C147.532 139.032 147.484 139.8 147.372 140.52C149.628 141.288 151.1 142.984 150.844 147.16H147.852C148.108 145.096 147.628 143.88 146.652 143.256C145.852 145.208 144.556 146.504 143.004 147.16C142.316 147.448 141.388 147.272 141.036 146.632C140.716 146.056 140.86 145.288 141.484 144.904C143.404 143.736 144.444 142.024 144.444 138.152V137.448H142.284C141.356 137.448 140.972 136.76 140.972 136.12C140.972 135.48 141.34 134.76 142.284 134.76H144.364V134.568C144.364 133.56 144.924 133 145.98 133C147.036 133 147.58 133.576 147.58 134.568V134.76H149.628C150.572 134.76 150.908 135.48 150.908 136.12C150.908 136.76 150.556 137.448 149.628 137.448ZM155.212 138.648H155.788C156.764 138.648 157.052 139.4 157.052 140.04C157.052 140.696 156.748 141.432 155.788 141.432H155.212V148.072H152.012V134.632C152.012 133.592 152.764 133.048 153.612 133.048C154.46 133.048 155.212 133.592 155.212 134.632V138.648Z" fill="black"/>
<path d="M126.636 138.92C128.7 138.696 130.764 137.576 131.068 136.024H127.116C126.156 136.024 125.772 135.368 125.772 134.712C125.772 134.072 126.14 133.384 127.116 133.384H138.188C139.164 133.384 139.532 134.072 139.532 134.712C139.532 135.368 139.148 136.024 138.188 136.024H134.3C134.268 136.328 134.204 136.616 134.124 136.888C137.132 136.712 139.58 138.376 139.836 141.528H136.668C136.22 139.864 134.556 138.936 132.748 139.144C131.292 140.632 129.052 141.544 127.068 141.544C126.092 141.544 125.468 141 125.468 140.152C125.468 139.496 125.948 138.984 126.636 138.92ZM126.508 142.088H138.796C139.756 142.088 140.14 142.744 140.14 143.4C140.14 144.072 139.74 144.712 138.796 144.712H134.284V148.152H131.02V144.712H126.508C125.564 144.712 125.164 144.072 125.164 143.4C125.164 142.744 125.548 142.088 126.508 142.088Z" fill="black"/>
<path d="M124.019 147.72H116.979C115.779 147.72 114.995 147.032 114.995 145.832V145.656C114.995 143.512 115.635 142.696 116.979 141.464L119.651 139C120.291 138.424 120.627 137.992 120.627 137.384C120.627 136.68 120.019 136.344 119.443 136.344C118.659 136.344 118.275 136.68 117.955 137.032C117.731 137.288 117.427 137.592 117.123 137.672C116.691 137.8 116.099 137.752 115.635 137.368C115.059 136.904 115.059 136.04 115.427 135.432C116.243 134.104 117.715 133.432 119.699 133.432C121.955 133.432 123.891 134.68 123.891 137.064C123.891 138.856 122.899 139.88 121.571 141.176L119.523 143.16C118.835 143.832 118.371 144.008 118.371 144.6V144.712C118.371 144.872 118.435 144.952 118.611 144.952H124.019V147.72Z" fill="black"/>
<path d="M102.303 140.424H105.711V134.632C105.711 133.592 106.463 133.048 107.311 133.048C108.159 133.048 108.911 133.592 108.911 134.632V142.312H105.711V142.04H102.303C101.759 142.04 101.327 141.784 101.327 141.24C101.327 140.712 101.743 140.424 102.303 140.424ZM101.775 137.608H97.4708C95.9508 137.608 94.8788 136.888 94.8788 135.528V135.48C94.8788 134.12 95.9508 133.4 97.4708 133.4H101.775C103.295 133.4 104.319 134.12 104.319 135.48V135.528C104.319 136.888 103.295 137.608 101.775 137.608ZM97.9508 135.496V135.512C97.9508 135.752 98.1108 135.928 98.4948 135.928H100.719C101.103 135.928 101.247 135.752 101.247 135.512V135.496C101.247 135.256 101.103 135.08 100.719 135.08H98.4948C98.1108 135.08 97.9508 135.256 97.9508 135.496ZM97.4868 142.232V140.072H95.4868C94.7828 140.072 94.3828 139.8 94.3828 139.128C94.3828 138.472 94.7668 138.168 95.4868 138.168H104.047C104.767 138.168 105.151 138.472 105.151 139.128C105.151 139.8 104.751 140.072 104.047 140.072H100.511V142.232H97.4868ZM99.0068 146.44H108.431C109.071 146.44 109.343 146.808 109.343 147.288C109.343 147.736 109.087 148.072 108.431 148.072H97.4228C95.9668 148.072 95.2788 147.448 95.2788 146.424V146.168C95.2788 145.272 95.9668 144.6 97.4228 144.6H105.679V144.424C105.679 144.28 105.631 144.136 105.423 144.136H96.3348C95.7108 144.136 95.4548 143.816 95.4548 143.336C95.4548 142.888 95.7268 142.552 96.3348 142.552H107.247C108.527 142.552 108.927 142.968 108.927 144.104V145.992H99.0068C98.8148 145.992 98.7188 146.104 98.7188 146.216V146.232C98.7188 146.36 98.8148 146.44 99.0068 146.44Z" fill="black"/>
<path d="M87.6951 138.648H88.3831C91.3111 138.648 93.2311 140.104 93.2311 143.144C93.2311 146.536 91.1351 147.976 88.3191 147.976C86.6871 147.976 85.1031 147.432 84.3511 146.552C83.8551 145.976 83.8871 145.032 84.4311 144.552C84.8791 144.152 85.5511 144.152 85.9671 144.344C86.3191 144.504 86.5431 144.664 86.7831 144.792C87.0391 144.92 87.4391 145.064 88.1431 145.064C89.2951 145.064 90.0951 144.44 90.0951 143.144C90.0951 141.96 89.3751 141.352 87.8871 141.352H86.5911C84.7031 141.352 84.1431 140.76 84.2391 138.952L84.3831 136.088C84.4791 134.28 84.8311 133.688 86.7191 133.688H91.5671C92.4791 133.688 92.8311 134.44 92.8311 135.08C92.8311 135.72 92.4951 136.424 91.5671 136.424H87.7751C87.4871 136.424 87.3911 136.456 87.3751 136.76L87.3111 138.312C87.2951 138.616 87.4071 138.648 87.6951 138.648Z" fill="black"/>
<path d="M149.366 168.448H147.27V169.2C147.27 170.032 147.222 170.8 147.11 171.52C149.366 172.288 150.838 173.984 150.582 178.16H147.59C147.846 176.096 147.366 174.88 146.39 174.256C145.59 176.208 144.294 177.504 142.742 178.16C142.054 178.448 141.126 178.272 140.774 177.632C140.454 177.056 140.598 176.288 141.222 175.904C143.142 174.736 144.182 173.024 144.182 169.152V168.448H142.022C141.094 168.448 140.71 167.76 140.71 167.12C140.71 166.48 141.078 165.76 142.022 165.76H144.102V165.568C144.102 164.56 144.662 164 145.718 164C146.774 164 147.318 164.576 147.318 165.568V165.76H149.366C150.31 165.76 150.646 166.48 150.646 167.12C150.646 167.76 150.294 168.448 149.366 168.448ZM154.95 169.648H155.526C156.502 169.648 156.79 170.4 156.79 171.04C156.79 171.696 156.486 172.432 155.526 172.432H154.95V179.072H151.75V165.632C151.75 164.592 152.502 164.048 153.35 164.048C154.198 164.048 154.95 164.592 154.95 165.632V169.648Z" fill="black"/>
<path d="M126.374 169.92C128.438 169.696 130.502 168.576 130.806 167.024H126.854C125.894 167.024 125.51 166.368 125.51 165.712C125.51 165.072 125.878 164.384 126.854 164.384H137.926C138.902 164.384 139.27 165.072 139.27 165.712C139.27 166.368 138.886 167.024 137.926 167.024H134.038C134.006 167.328 133.942 167.616 133.862 167.888C136.87 167.712 139.318 169.376 139.574 172.528H136.406C135.958 170.864 134.294 169.936 132.486 170.144C131.03 171.632 128.79 172.544 126.806 172.544C125.83 172.544 125.206 172 125.206 171.152C125.206 170.496 125.686 169.984 126.374 169.92ZM126.246 173.088H138.534C139.494 173.088 139.878 173.744 139.878 174.4C139.878 175.072 139.478 175.712 138.534 175.712H134.022V179.152H130.758V175.712H126.246C125.302 175.712 124.902 175.072 124.902 174.4C124.902 173.744 125.286 173.088 126.246 173.088Z" fill="black"/>
<path d="M122.78 167.856L120.316 170.288C122.252 170.512 123.756 171.952 123.756 174.32C123.756 177.36 121.532 178.976 118.684 178.976C117.26 178.976 115.676 178.464 114.924 177.456C114.492 176.864 114.556 176.032 115.1 175.552C115.548 175.152 116.044 175.136 116.508 175.296C116.86 175.424 117.116 175.632 117.388 175.792C117.676 175.952 118.092 176.064 118.668 176.064C119.852 176.064 120.62 175.36 120.62 174.208C120.62 172.992 119.724 172.384 118.396 172.384H117.532C116.908 172.384 116.46 171.984 116.348 171.536C116.204 170.96 116.332 170.512 116.876 169.984L119.532 167.36H116.188C115.244 167.36 114.876 166.656 114.876 166.032C114.876 165.424 115.26 164.688 116.188 164.688H121.484C123.212 164.688 123.868 166.8 122.78 167.856Z" fill="black"/>
<path d="M102.104 171.424H105.512V165.632C105.512 164.592 106.264 164.048 107.112 164.048C107.96 164.048 108.712 164.592 108.712 165.632V173.312H105.512V173.04H102.104C101.56 173.04 101.128 172.784 101.128 172.24C101.128 171.712 101.544 171.424 102.104 171.424ZM101.576 168.608H97.2716C95.7516 168.608 94.6796 167.888 94.6796 166.528V166.48C94.6796 165.12 95.7516 164.4 97.2716 164.4H101.576C103.096 164.4 104.12 165.12 104.12 166.48V166.528C104.12 167.888 103.096 168.608 101.576 168.608ZM97.7516 166.496V166.512C97.7516 166.752 97.9116 166.928 98.2956 166.928H100.52C100.904 166.928 101.048 166.752 101.048 166.512V166.496C101.048 166.256 100.904 166.08 100.52 166.08H98.2956C97.9116 166.08 97.7516 166.256 97.7516 166.496ZM97.2876 173.232V171.072H95.2876C94.5836 171.072 94.1836 170.8 94.1836 170.128C94.1836 169.472 94.5676 169.168 95.2876 169.168H103.848C104.568 169.168 104.952 169.472 104.952 170.128C104.952 170.8 104.552 171.072 103.848 171.072H100.312V173.232H97.2876ZM98.8076 177.44H108.232C108.872 177.44 109.144 177.808 109.144 178.288C109.144 178.736 108.888 179.072 108.232 179.072H97.2236C95.7676 179.072 95.0796 178.448 95.0796 177.424V177.168C95.0796 176.272 95.7676 175.6 97.2236 175.6H105.48V175.424C105.48 175.28 105.432 175.136 105.224 175.136H96.1356C95.5116 175.136 95.2556 174.816 95.2556 174.336C95.2556 173.888 95.5276 173.552 96.1356 173.552H107.048C108.328 173.552 108.728 173.968 108.728 175.104V176.992H98.8076C98.6156 176.992 98.5196 177.104 98.5196 177.216V177.232C98.5196 177.36 98.6156 177.44 98.8076 177.44Z" fill="black"/>
<path d="M87.4959 169.648H88.1839C91.1119 169.648 93.0319 171.104 93.0319 174.144C93.0319 177.536 90.9359 178.976 88.1199 178.976C86.4879 178.976 84.9039 178.432 84.1519 177.552C83.6559 176.976 83.6879 176.032 84.2319 175.552C84.6799 175.152 85.3519 175.152 85.7679 175.344C86.1199 175.504 86.3439 175.664 86.5839 175.792C86.8399 175.92 87.2399 176.064 87.9439 176.064C89.0959 176.064 89.8959 175.44 89.8959 174.144C89.8959 172.96 89.1759 172.352 87.6879 172.352H86.3919C84.5039 172.352 83.9439 171.76 84.0399 169.952L84.1839 167.088C84.2799 165.28 84.6319 164.688 86.5199 164.688H91.3679C92.2799 164.688 92.6319 165.44 92.6319 166.08C92.6319 166.72 92.2959 167.424 91.3679 167.424H87.5759C87.2879 167.424 87.1919 167.456 87.1759 167.76L87.1119 169.312C87.0959 169.616 87.2079 169.648 87.4959 169.648Z" fill="black"/>
<path d="M150.147 200.448H148.051V201.2C148.051 202.032 148.003 202.8 147.891 203.52C150.147 204.288 151.619 205.984 151.363 210.16H148.371C148.627 208.096 148.147 206.88 147.171 206.256C146.371 208.208 145.075 209.504 143.523 210.16C142.835 210.448 141.907 210.272 141.555 209.632C141.235 209.056 141.379 208.288 142.003 207.904C143.923 206.736 144.963 205.024 144.963 201.152V200.448H142.803C141.875 200.448 141.491 199.76 141.491 199.12C141.491 198.48 141.859 197.76 142.803 197.76H144.883V197.568C144.883 196.56 145.443 196 146.499 196C147.555 196 148.099 196.576 148.099 197.568V197.76H150.147C151.091 197.76 151.427 198.48 151.427 199.12C151.427 199.76 151.075 200.448 150.147 200.448ZM155.731 201.648H156.307C157.283 201.648 157.571 202.4 157.571 203.04C157.571 203.696 157.267 204.432 156.307 204.432H155.731V211.072H152.531V197.632C152.531 196.592 153.283 196.048 154.131 196.048C154.979 196.048 155.731 196.592 155.731 197.632V201.648Z" fill="black"/>
<path d="M127.156 201.92C129.22 201.696 131.284 200.576 131.588 199.024H127.636C126.676 199.024 126.292 198.368 126.292 197.712C126.292 197.072 126.66 196.384 127.636 196.384H138.708C139.684 196.384 140.052 197.072 140.052 197.712C140.052 198.368 139.668 199.024 138.708 199.024H134.82C134.788 199.328 134.724 199.616 134.644 199.888C137.652 199.712 140.1 201.376 140.356 204.528H137.188C136.74 202.864 135.076 201.936 133.268 202.144C131.812 203.632 129.572 204.544 127.588 204.544C126.612 204.544 125.988 204 125.988 203.152C125.988 202.496 126.468 201.984 127.156 201.92ZM127.028 205.088H139.316C140.276 205.088 140.66 205.744 140.66 206.4C140.66 207.072 140.26 207.712 139.316 207.712H134.804V211.152H131.54V207.712H127.028C126.084 207.712 125.684 207.072 125.684 206.4C125.684 205.744 126.068 205.088 127.028 205.088Z" fill="black"/>
<path d="M118.46 205.888H120.364V200.832C120.364 199.84 121.116 199.392 121.852 199.392C122.588 199.392 123.324 199.84 123.324 200.832V205.888H124.764V208.512H123.324V210.72H120.364V208.512H116.924C114.988 208.512 114.236 207.408 114.684 205.776L116.876 197.744C117.148 196.768 117.804 196.336 118.62 196.432C119.468 196.528 120.156 197.232 119.932 198.208L117.996 205.44C117.9 205.792 118.028 205.888 118.46 205.888Z" fill="black"/>
<path d="M102.104 203.424H105.512V197.632C105.512 196.592 106.264 196.048 107.112 196.048C107.96 196.048 108.712 196.592 108.712 197.632V205.312H105.512V205.04H102.104C101.56 205.04 101.128 204.784 101.128 204.24C101.128 203.712 101.544 203.424 102.104 203.424ZM101.576 200.608H97.2716C95.7516 200.608 94.6796 199.888 94.6796 198.528V198.48C94.6796 197.12 95.7516 196.4 97.2716 196.4H101.576C103.096 196.4 104.12 197.12 104.12 198.48V198.528C104.12 199.888 103.096 200.608 101.576 200.608ZM97.7516 198.496V198.512C97.7516 198.752 97.9116 198.928 98.2956 198.928H100.52C100.904 198.928 101.048 198.752 101.048 198.512V198.496C101.048 198.256 100.904 198.08 100.52 198.08H98.2956C97.9116 198.08 97.7516 198.256 97.7516 198.496ZM97.2876 205.232V203.072H95.2876C94.5836 203.072 94.1836 202.8 94.1836 202.128C94.1836 201.472 94.5676 201.168 95.2876 201.168H103.848C104.568 201.168 104.952 201.472 104.952 202.128C104.952 202.8 104.552 203.072 103.848 203.072H100.312V205.232H97.2876ZM98.8076 209.44H108.232C108.872 209.44 109.144 209.808 109.144 210.288C109.144 210.736 108.888 211.072 108.232 211.072H97.2236C95.7676 211.072 95.0796 210.448 95.0796 209.424V209.168C95.0796 208.272 95.7676 207.6 97.2236 207.6H105.48V207.424C105.48 207.28 105.432 207.136 105.224 207.136H96.1356C95.5116 207.136 95.2556 206.816 95.2556 206.336C95.2556 205.888 95.5276 205.552 96.1356 205.552H107.048C108.328 205.552 108.728 205.968 108.728 207.104V208.992H98.8076C98.6156 208.992 98.5196 209.104 98.5196 209.216V209.232C98.5196 209.36 98.6156 209.44 98.8076 209.44Z" fill="black"/>
<path d="M87.4959 201.648H88.1839C91.1119 201.648 93.0319 203.104 93.0319 206.144C93.0319 209.536 90.9359 210.976 88.1199 210.976C86.4879 210.976 84.9039 210.432 84.1519 209.552C83.6559 208.976 83.6879 208.032 84.2319 207.552C84.6799 207.152 85.3519 207.152 85.7679 207.344C86.1199 207.504 86.3439 207.664 86.5839 207.792C86.8399 207.92 87.2399 208.064 87.9439 208.064C89.0959 208.064 89.8959 207.44 89.8959 206.144C89.8959 204.96 89.1759 204.352 87.6879 204.352H86.3919C84.5039 204.352 83.9439 203.76 84.0399 201.952L84.1839 199.088C84.2799 197.28 84.6319 196.688 86.5199 196.688H91.3679C92.2799 196.688 92.6319 197.44 92.6319 198.08C92.6319 198.72 92.2959 199.424 91.3679 199.424H87.5759C87.2879 199.424 87.1919 199.456 87.1759 199.76L87.1119 201.312C87.0959 201.616 87.2079 201.648 87.4959 201.648Z" fill="black"/>
<path d="M45 109L45.2041 109.011C46.2128 109.113 47 109.964 47 111C47 112.036 46.2128 112.887 45.2041 112.989L45 113H35C33.8954 113 33 112.105 33 111C33 109.895 33.8954 109 35 109H45Z" fill="black"/>
<path d="M45 139L45.2041 139.011C46.2128 139.113 47 139.964 47 141C47 142.036 46.2128 142.887 45.2041 142.989L45 143H35C33.8954 143 33 142.105 33 141C33 139.895 33.8954 139 35 139H45Z" fill="black"/>
<path d="M45 170L45.2041 170.011C46.2128 170.113 47 170.964 47 172C47 173.036 46.2128 173.887 45.2041 173.989L45 174H35C33.8954 174 33 173.105 33 172C33 170.895 33.8954 170 35 170H45Z" fill="black"/>
<path d="M45 202L45.2041 202.011C46.2128 202.113 47 202.964 47 204C47 205.036 46.2128 205.887 45.2041 205.989L45 206H35C33.8954 206 33 205.105 33 204C33 202.895 33.8954 202 35 202H45Z" fill="black"/>
<path d="M62 109L62.2041 109.011C63.2128 109.113 64 109.964 64 111C64 112.036 63.2128 112.887 62.2041 112.989L62 113H52C50.8954 113 50 112.105 50 111C50 109.895 50.8954 109 52 109H62Z" fill="black"/>
<path d="M62 139L62.2041 139.011C63.2128 139.113 64 139.964 64 141C64 142.036 63.2128 142.887 62.2041 142.989L62 143H52C50.8954 143 50 142.105 50 141C50 139.895 50.8954 139 52 139H62Z" fill="black"/>
<path d="M62 170L62.2041 170.011C63.2128 170.113 64 170.964 64 172C64 173.036 63.2128 173.887 62.2041 173.989L62 174H52C50.8954 174 50 173.105 50 172C50 170.895 50.8954 170 52 170H62Z" fill="black"/>
<path d="M62 202L62.2041 202.011C63.2128 202.113 64 202.964 64 204C64 205.036 63.2128 205.887 62.2041 205.989L62 206H52C50.8954 206 50 205.105 50 204C50 202.895 50.8954 202 52 202H62Z" fill="black"/>
<path d="M278 111C278 116.523 273.523 121 268 121C262.477 121 258 116.523 258 111C258 105.477 262.477 101 268 101C273.523 101 278 105.477 278 111Z" fill="#F9CE95"/>
<path d="M276 111C276 106.582 272.418 103 268 103C263.582 103 260 106.582 260 111C260 115.418 263.582 119 268 119V121C262.477 121 258 116.523 258 111C258 105.477 262.477 101 268 101C273.523 101 278 105.477 278 111C278 116.523 273.523 121 268 121V119C272.418 119 276 115.418 276 111Z" fill="#111111"/>
<path d="M264.5 109L264.505 108.897C264.556 108.393 264.982 108 265.5 108C266.018 108 266.444 108.393 266.495 108.897L266.5 109L266.5 110C266.5 110.552 266.052 111 265.5 111C264.948 111 264.5 110.552 264.5 110L264.5 109Z" fill="black"/>
<path d="M269.5 109L269.505 108.897C269.556 108.393 269.982 108 270.5 108C271.018 108 271.444 108.393 271.495 108.897L271.5 109L271.5 110C271.5 110.552 271.052 111 270.5 111C269.948 111 269.5 110.552 269.5 110L269.5 109Z" fill="black"/>
<path d="M278 141C278 146.523 273.523 151 268 151C262.477 151 258 146.523 258 141C258 135.477 262.477 131 268 131C273.523 131 278 135.477 278 141Z" fill="#F9CE95"/>
<path d="M276 141C276 136.582 272.418 133 268 133C263.582 133 260 136.582 260 141C260 145.418 263.582 149 268 149V151C262.477 151 258 146.523 258 141C258 135.477 262.477 131 268 131C273.523 131 278 135.477 278 141C278 146.523 273.523 151 268 151V149C272.418 149 276 145.418 276 141Z" fill="#111111"/>
<path d="M264.5 139L264.505 138.897C264.556 138.393 264.982 138 265.5 138C266.018 138 266.444 138.393 266.495 138.897L266.5 139L266.5 140C266.5 140.552 266.052 141 265.5 141C264.948 141 264.5 140.552 264.5 140L264.5 139Z" fill="black"/>
<path d="M269.5 139L269.505 138.897C269.556 138.393 269.982 138 270.5 138C271.018 138 271.444 138.393 271.495 138.897L271.5 139L271.5 140C271.5 140.552 271.052 141 270.5 141C269.948 141 269.5 140.552 269.5 140L269.5 139Z" fill="black"/>
<path d="M278 172C278 177.523 273.523 182 268 182C262.477 182 258 177.523 258 172C258 166.477 262.477 162 268 162C273.523 162 278 166.477 278 172Z" fill="#F9CE95"/>
<path d="M276 172C276 167.582 272.418 164 268 164C263.582 164 260 167.582 260 172C260 176.418 263.582 180 268 180V182C262.477 182 258 177.523 258 172C258 166.477 262.477 162 268 162C273.523 162 278 166.477 278 172C278 177.523 273.523 182 268 182V180C272.418 180 276 176.418 276 172Z" fill="#111111"/>
<path d="M264.5 170L264.505 169.897C264.556 169.393 264.982 169 265.5 169C266.018 169 266.444 169.393 266.495 169.897L266.5 170L266.5 171C266.5 171.552 266.052 172 265.5 172C264.948 172 264.5 171.552 264.5 171L264.5 170Z" fill="black"/>
<path d="M269.5 170L269.505 169.897C269.556 169.393 269.982 169 270.5 169C271.018 169 271.444 169.393 271.495 169.897L271.5 170L271.5 171C271.5 171.552 271.052 172 270.5 172C269.948 172 269.5 171.552 269.5 171L269.5 170Z" fill="black"/>
<path d="M278 204C278 209.523 273.523 214 268 214C262.477 214 258 209.523 258 204C258 198.477 262.477 194 268 194C273.523 194 278 198.477 278 204Z" fill="#F9CE95"/>
<path d="M276 204C276 199.582 272.418 196 268 196C263.582 196 260 199.582 260 204C260 208.418 263.582 212 268 212V214C262.477 214 258 209.523 258 204C258 198.477 262.477 194 268 194C273.523 194 278 198.477 278 204C278 209.523 273.523 214 268 214V212C272.418 212 276 208.418 276 204Z" fill="#111111"/>
<path d="M264.5 202L264.505 201.897C264.556 201.393 264.982 201 265.5 201C266.018 201 266.444 201.393 266.495 201.897L266.5 202L266.5 203C266.5 203.552 266.052 204 265.5 204C264.948 204 264.5 203.552 264.5 203L264.5 202Z" fill="black"/>
<path d="M269.5 202L269.505 201.897C269.556 201.393 269.982 201 270.5 201C271.018 201 271.444 201.393 271.495 201.897L271.5 202L271.5 203C271.5 203.552 271.052 204 270.5 204C269.948 204 269.5 203.552 269.5 203L269.5 202Z" fill="black"/>
<path d="M314 104C314 101.791 315.791 100 318 100H369C371.209 100 373 101.791 373 104V117C373 119.209 371.209 121 369 121H318C315.791 121 314 119.209 314 117V104Z" fill="#12EB53"/>
<path d="M369 119V121H318V119H369ZM371 117V104C371 102.895 370.105 102 369 102H318C316.964 102 316.113 102.787 316.011 103.796L316 104V117C316 118.105 316.895 119 318 119V121L317.794 120.995C315.749 120.891 314.109 119.251 314.005 117.206L314 117V104C314 101.86 315.681 100.112 317.794 100.005L318 100H369L369.206 100.005C371.319 100.112 373 101.86 373 104V117L372.995 117.206C372.891 119.251 371.251 120.891 369.206 120.995L369 121V119C370.105 119 371 118.105 371 117Z" fill="#111111"/>
<path d="M314 135C314 132.791 315.791 131 318 131H369C371.209 131 373 132.791 373 135V148C373 150.209 371.209 152 369 152H318C315.791 152 314 150.209 314 148V135Z" fill="#48A8FC"/>
<path d="M369 150V152H318V150H369ZM371 148V135C371 133.895 370.105 133 369 133H318C316.964 133 316.113 133.787 316.011 134.796L316 135V148C316 149.105 316.895 150 318 150V152L317.794 151.995C315.749 151.891 314.109 150.251 314.005 148.206L314 148V135C314 132.86 315.681 131.112 317.794 131.005L318 131H369L369.206 131.005C371.319 131.112 373 132.86 373 135V148L372.995 148.206C372.891 150.251 371.251 151.891 369.206 151.995L369 152V150C370.105 150 371 149.105 371 148Z" fill="#111111"/>
<path d="M314 166C314 163.791 315.791 162 318 162H369C371.209 162 373 163.791 373 166V179C373 181.209 371.209 183 369 183H318C315.791 183 314 181.209 314 179V166Z" fill="#D9D9D9"/>
<path d="M369 181V183H318V181H369ZM371 179V166C371 164.895 370.105 164 369 164H318C316.964 164 316.113 164.787 316.011 165.796L316 166V179C316 180.105 316.895 181 318 181V183L317.794 182.995C315.749 182.891 314.109 181.251 314.005 179.206L314 179V166C314 163.86 315.681 162.112 317.794 162.005L318 162H369L369.206 162.005C371.319 162.112 373 163.86 373 166V179L372.995 179.206C372.891 181.251 371.251 182.891 369.206 182.995L369 183V181C370.105 181 371 180.105 371 179Z" fill="#111111"/>
<path d="M314 197C314 194.791 315.791 193 318 193H369C371.209 193 373 194.791 373 197V210C373 212.209 371.209 214 369 214H318C315.791 214 314 212.209 314 210V197Z" fill="#D9D9D9"/>
<path d="M369 212V214H318V212H369ZM371 210V197C371 195.895 370.105 195 369 195H318C316.964 195 316.113 195.787 316.011 196.796L316 197V210C316 211.105 316.895 212 318 212V214L317.794 213.995C315.749 213.891 314.109 212.251 314.005 210.206L314 210V197C314 194.86 315.681 193.112 317.794 193.005L318 193H369L369.206 193.005C371.319 193.112 373 194.86 373 197V210L372.995 210.206C372.891 212.251 371.251 213.891 369.206 213.995L369 214V212C370.105 212 371 211.105 371 210Z" fill="#111111"/>
<path d="M390 1C400.493 1 409 9.50659 409 20V32H316C305.507 32 297 23.4934 297 13V1H390Z" fill="#8AB5FF" stroke="#111111" stroke-width="2"/>
<path d="M377.668 15.9221H378.788C379.675 15.9221 380.454 15.9174 381.126 15.9081C381.807 15.8894 382.437 15.8567 383.016 15.8101C383.604 15.7634 384.197 15.6934 384.794 15.6001L384.976 17.0561C384.36 17.1494 383.749 17.2241 383.142 17.2801C382.545 17.3267 381.896 17.3594 381.196 17.3781C380.496 17.3874 379.693 17.3921 378.788 17.3921H377.668V15.9221ZM377.668 10.9941H383.912V12.4781H379.516V16.5101H377.668V10.9941ZM378.942 13.4581H383.534V14.9001H378.942V13.4581ZM385.872 10.1121H387.734V17.9521H385.872V10.1121ZM383.352 18.1481C384.267 18.1481 385.055 18.2461 385.718 18.4421C386.381 18.6381 386.889 18.9181 387.244 19.2821C387.608 19.6461 387.79 20.0894 387.79 20.6121C387.79 21.3961 387.393 22.0027 386.6 22.4321C385.807 22.8614 384.724 23.0761 383.352 23.0761C381.98 23.0761 380.897 22.8614 380.104 22.4321C379.32 22.0027 378.928 21.3961 378.928 20.6121C378.928 19.8374 379.32 19.2354 380.104 18.8061C380.897 18.3674 381.98 18.1481 383.352 18.1481ZM383.352 19.5621C382.792 19.5621 382.321 19.5994 381.938 19.6741C381.555 19.7487 381.266 19.8654 381.07 20.0241C380.874 20.1827 380.776 20.3787 380.776 20.6121C380.776 20.8454 380.874 21.0414 381.07 21.2001C381.266 21.3494 381.555 21.4614 381.938 21.5361C382.321 21.6107 382.792 21.6481 383.352 21.6481C383.921 21.6481 384.393 21.6107 384.766 21.5361C385.149 21.4614 385.438 21.3494 385.634 21.2001C385.839 21.0414 385.942 20.8454 385.942 20.6121C385.942 20.3787 385.839 20.1827 385.634 20.0241C385.438 19.8654 385.149 19.7487 384.766 19.6741C384.393 19.5994 383.921 19.5621 383.352 19.5621Z" fill="#111111"/>
<path d="M369.185 14.4661H371.341V15.9781H369.185V14.4661ZM366.427 11.2321H367.841V13.4021C367.841 14.1395 367.79 14.8628 367.687 15.5721C367.584 16.2815 367.416 16.9488 367.183 17.5741C366.959 18.1995 366.66 18.7641 366.287 19.2681C365.923 19.7628 365.48 20.1688 364.957 20.4861L363.837 19.0861C364.322 18.7968 364.728 18.4421 365.055 18.0221C365.382 17.6021 365.648 17.1401 365.853 16.6361C366.058 16.1321 366.203 15.6095 366.287 15.0681C366.38 14.5175 366.427 13.9621 366.427 13.4021V11.2321ZM366.833 11.2321H368.219V13.3181C368.219 13.8501 368.256 14.3775 368.331 14.9001C368.415 15.4228 368.546 15.9221 368.723 16.3981C368.9 16.8741 369.134 17.3128 369.423 17.7141C369.722 18.1155 370.095 18.4608 370.543 18.7501L369.521 20.2061C369.017 19.8888 368.588 19.4875 368.233 19.0021C367.888 18.5075 367.612 17.9521 367.407 17.3361C367.202 16.7201 367.052 16.0715 366.959 15.3901C366.875 14.7088 366.833 14.0181 366.833 13.3181V11.2321ZM373.441 10.0981H375.219V23.0621H373.441V10.0981ZM370.809 10.3081H372.545V22.4881H370.809V10.3081Z" fill="#111111"/>
<path d="M349.412 13.9902H358.442V15.2502H349.412V13.9902ZM349.412 10.2942H358.33V11.5542H351.26V14.6062H349.412V10.2942ZM350.728 12.1562H358.05V13.3742H350.728V12.1562ZM352.884 16.4682H354.732V18.3302H352.884V16.4682ZM347.998 15.8102H359.66V17.1822H347.998V15.8102ZM349.3 17.8822H358.26V21.0182H351.162V22.3342H349.314V19.7862H356.426V19.1702H349.3V17.8822ZM349.314 21.6762H358.61V22.9922H349.314V21.6762Z" fill="#111111"/>
<path d="M338.403 12.9681H341.651V14.4661H338.403V12.9681ZM335.421 10.6441C336.074 10.6441 336.658 10.7794 337.171 11.0501C337.694 11.3114 338.104 11.6754 338.403 12.1421C338.702 12.5994 338.851 13.1314 338.851 13.7381C338.851 14.3354 338.702 14.8674 338.403 15.3341C338.104 15.8007 337.694 16.1694 337.171 16.4401C336.658 16.7014 336.074 16.8321 335.421 16.8321C334.777 16.8321 334.194 16.7014 333.671 16.4401C333.158 16.1694 332.752 15.8007 332.453 15.3341C332.154 14.8674 332.005 14.3354 332.005 13.7381C332.005 13.1314 332.154 12.5994 332.453 12.1421C332.752 11.6754 333.158 11.3114 333.671 11.0501C334.194 10.7794 334.777 10.6441 335.421 10.6441ZM335.421 12.1841C335.104 12.1841 334.819 12.2447 334.567 12.3661C334.324 12.4874 334.133 12.6647 333.993 12.8981C333.853 13.1314 333.783 13.4114 333.783 13.7381C333.783 14.0554 333.853 14.3307 333.993 14.5641C334.133 14.7974 334.324 14.9747 334.567 15.0961C334.819 15.2174 335.104 15.2781 335.421 15.2781C335.738 15.2781 336.018 15.2174 336.261 15.0961C336.513 14.9747 336.709 14.7974 336.849 14.5641C336.989 14.3307 337.059 14.0554 337.059 13.7381C337.059 13.4114 336.989 13.1314 336.849 12.8981C336.709 12.6647 336.513 12.4874 336.261 12.3661C336.018 12.2447 335.738 12.1841 335.421 12.1841ZM340.825 10.1121H342.701V17.0701H340.825V10.1121ZM334.091 17.6441H335.939V18.8621H340.853V17.6441H342.701V22.9361H334.091V17.6441ZM335.939 20.2901V21.4521H340.853V20.2901H335.939Z" fill="#111111"/>
<path d="M326.294 12.87H328.66V14.354H326.294V12.87ZM326.266 15.418H328.632V16.902H326.266V15.418ZM319 11.19H326.126V12.66H319V11.19ZM322.64 13.052C323.237 13.052 323.765 13.15 324.222 13.346C324.679 13.542 325.039 13.8173 325.3 14.172C325.561 14.5267 325.692 14.9373 325.692 15.404C325.692 15.8613 325.561 16.2673 325.3 16.622C325.039 16.9767 324.679 17.252 324.222 17.448C323.765 17.644 323.237 17.742 322.64 17.742C322.052 17.742 321.529 17.644 321.072 17.448C320.615 17.252 320.255 16.9767 319.994 16.622C319.733 16.2673 319.602 15.8613 319.602 15.404C319.602 14.9373 319.733 14.5267 319.994 14.172C320.255 13.8173 320.615 13.542 321.072 13.346C321.529 13.15 322.052 13.052 322.64 13.052ZM322.64 14.41C322.248 14.41 321.931 14.4987 321.688 14.676C321.455 14.844 321.338 15.0867 321.338 15.404C321.338 15.7213 321.455 15.9687 321.688 16.146C321.931 16.314 322.248 16.398 322.64 16.398C323.032 16.398 323.349 16.314 323.592 16.146C323.835 15.9687 323.956 15.7213 323.956 15.404C323.956 15.0867 323.835 14.844 323.592 14.676C323.349 14.4987 323.032 14.41 322.64 14.41ZM321.716 10H323.592V12.212H321.716V10ZM327.946 10.112H329.822V17.826H327.946V10.112ZM321.142 18.316H322.976V19.254H327.974V18.316H329.822V22.936H321.142V18.316ZM322.976 20.626V21.494H327.974V20.626H322.976Z" fill="#111111"/>
<circle cx="33.5" cy="212.5" r="17.5" fill="#111111"/>
<path d="M25.6001 203.848L36.3272 203.056C37.6449 202.943 37.9834 203.019 38.812 203.622L42.2362 206.034C42.801 206.449 42.989 206.562 42.989 207.013V220.243C42.989 221.072 42.6879 221.563 41.6339 221.638L29.1769 222.392C28.3859 222.43 28.0092 222.317 27.595 221.789L25.0733 218.51C24.6211 217.906 24.4336 217.455 24.4336 216.926V205.167C24.4336 204.489 24.7347 203.923 25.6001 203.848Z" fill="white"/>
<path fill-rule="evenodd" clip-rule="evenodd" d="M36.3272 203.056L25.6001 203.849C24.7347 203.923 24.4336 204.489 24.4336 205.167V216.926C24.4336 217.454 24.6211 217.906 25.0733 218.51L27.595 221.789C28.0092 222.317 28.3859 222.43 29.1769 222.392L41.6341 221.638C42.6873 221.563 42.9892 221.072 42.9892 220.244V207.014C42.9892 206.585 42.82 206.462 42.3217 206.096L38.812 203.622C37.9836 203.019 37.6449 202.943 36.3272 203.056V203.056ZM29.4586 206.797C28.4414 206.865 28.2107 206.881 27.6329 206.411L26.1642 205.243C26.015 205.092 26.09 204.903 26.4661 204.866L36.7783 204.112C37.6443 204.036 38.0953 204.338 38.4339 204.602L40.2026 205.883C40.2782 205.922 40.4662 206.147 40.24 206.147L29.5904 206.788L29.4586 206.797ZM28.2727 220.13V208.899C28.2727 208.409 28.4233 208.183 28.8743 208.145L41.106 207.428C41.5209 207.391 41.7083 207.655 41.7083 208.144V219.301C41.7083 219.791 41.6327 220.206 40.9556 220.244L29.2506 220.922C28.5734 220.959 28.2729 220.734 28.2729 220.13H28.2727ZM39.8271 209.501C39.9021 209.841 39.8271 210.18 39.4878 210.219L38.9237 210.331V218.623C38.4338 218.886 37.9828 219.037 37.606 219.037C37.0036 219.037 36.8532 218.848 36.402 218.284L32.7128 212.479V218.095L33.8799 218.359C33.8799 218.359 33.8799 219.038 32.9383 219.038L30.3424 219.188C30.2668 219.037 30.3424 218.66 30.6055 218.585L31.2834 218.397V210.972L30.3426 210.896C30.267 210.557 30.455 210.067 30.9824 210.029L33.7676 209.841L37.6061 215.721V210.519L36.6277 210.407C36.5521 209.992 36.8532 209.69 37.2293 209.653L39.8271 209.501Z" fill="black"/>
</svg>
