<svg width="410" height="244" viewBox="0 0 410 244" fill="none" xmlns="http://www.w3.org/2000/svg">
<path d="M0 20C0 8.95431 8.95431 0 20 0H390C401.046 0 410 8.95431 410 20V224C410 235.046 401.046 244 390 244H20C8.95431 244 0 235.046 0 224V20Z" fill="white"/>
<path d="M375.983 220.66V222H34.0171V220.66H375.983ZM390.398 208.6V34.4C390.398 27.7394 383.944 22.34 375.983 22.34H34.0171C26.0557 22.34 19.6017 27.7394 19.6017 34.4V208.6C19.6017 215.261 26.0557 220.66 34.0171 220.66V222L33.6034 221.995C25.0861 221.815 18.2214 216.072 18.0055 208.946L18 208.6V34.4C18 27.1151 24.9486 21.1882 33.6034 21.0046L34.0171 21H375.983L376.397 21.0046C385.051 21.1882 392 27.1151 392 34.4V208.6L391.995 208.946C391.779 216.072 384.914 221.815 376.397 221.995L375.983 222V220.66C383.944 220.66 390.398 215.261 390.398 208.6Z" fill="#111111"/>
<path d="M34.0171 220.66H375.983C383.944 220.66 390.398 215.261 390.398 208.6V34.4C390.398 27.7394 383.944 22.34 375.983 22.34H34.0171C26.0557 22.34 19.6017 27.7394 19.6017 34.4V208.6C19.6017 215.261 26.0557 220.66 34.0171 220.66Z" fill="white"/>
<path d="M18 34.2258C18 26.9214 25.1711 21 34.0171 21H375.983C384.829 21 392 26.9214 392 34.2258V62H18V34.2258Z" fill="#FFCE2E"/>
<path d="M390.398 34.5484C390.398 27.8141 383.944 22.3548 375.983 22.3548H34.0171C26.0557 22.3548 19.6017 27.8141 19.6017 34.5484V61.6452H390.398V34.5484ZM392 63H18V34.5484C18 27.1828 24.9486 21.1902 33.6034 21.0046L34.0171 21H375.983L376.397 21.0046C385.051 21.1902 392 27.1828 392 34.5484V63Z" fill="#111111"/>
<path d="M49.2339 45.8264C49.2339 50.2494 45.8276 53.835 41.6257 53.835C37.4239 53.835 34.0176 50.2494 34.0176 45.8264C34.0176 41.4034 37.4239 37.8179 41.6257 37.8179C45.8276 37.8179 49.2339 41.4034 49.2339 45.8264Z" fill="#FF554D"/>
<path d="M47.6321 45.8264C47.6321 42.2096 44.8665 39.4196 41.6257 39.4196C38.3849 39.4196 35.6193 42.2096 35.6193 45.8264C35.6193 49.4433 38.3849 52.2333 41.6257 52.2333V53.835C37.4239 53.835 34.0176 50.2494 34.0176 45.8264C34.0176 41.4034 37.4239 37.8179 41.6257 37.8179C45.8276 37.8179 49.2339 41.4034 49.2339 45.8264C49.2339 50.2494 45.8276 53.835 41.6257 53.835V52.2333C44.8665 52.2333 47.6321 49.4433 47.6321 45.8264Z" fill="#111111"/>
<path d="M74.0601 45.8264C74.0601 50.2494 70.4745 53.835 66.0515 53.835C61.6285 53.835 58.043 50.2494 58.043 45.8264C58.043 41.4034 61.6285 37.8179 66.0515 37.8179C70.4745 37.8179 74.0601 41.4034 74.0601 45.8264Z" fill="#FEB42A"/>
<path d="M72.4584 45.8264C72.4584 42.288 69.5899 39.4196 66.0515 39.4196C62.5131 39.4196 59.6447 42.288 59.6447 45.8264C59.6447 49.3648 62.5131 52.2333 66.0515 52.2333V53.835C61.6285 53.835 58.043 50.2494 58.043 45.8264C58.043 41.4034 61.6285 37.8179 66.0515 37.8179C70.4745 37.8179 74.0601 41.4034 74.0601 45.8264C74.0601 50.2494 70.4745 53.835 66.0515 53.835V52.2333C69.5899 52.2333 72.4584 49.3648 72.4584 45.8264Z" fill="#111111"/>
<path d="M98.0854 45.8264C98.0854 50.2494 94.6791 53.835 90.4773 53.835C86.2754 53.835 82.8691 50.2494 82.8691 45.8264C82.8691 41.4034 86.2754 37.8179 90.4773 37.8179C94.6791 37.8179 98.0854 41.4034 98.0854 45.8264Z" fill="#25C138"/>
<path d="M96.4837 45.8264C96.4837 42.2096 93.7181 39.4196 90.4773 39.4196C87.2364 39.4196 84.4709 42.2096 84.4709 45.8264C84.4709 49.4433 87.2364 52.2333 90.4773 52.2333V53.835C86.2754 53.835 82.8691 50.2494 82.8691 45.8264C82.8691 41.4034 86.2754 37.8179 90.4773 37.8179C94.6791 37.8179 98.0854 41.4034 98.0854 45.8264C98.0854 50.2494 94.6791 53.835 90.4773 53.835V52.2333C93.7181 52.2333 96.4837 49.4433 96.4837 45.8264Z" fill="#111111"/>
<path d="M156 92V185.5" stroke="black" stroke-width="2" stroke-linecap="round"/>
<g clip-path="url(#clip0_2931_3205)">
<path d="M40.25 99.8433L40.6247 98.7793L40.9987 99.8433H40.25Z" fill="black"/>
<path fill-rule="evenodd" clip-rule="evenodd" d="M48.75 92H35.25C34.5593 92 34 92.56 34 93.25V106.75C34 107.441 34.56 108 35.25 108H48.75C49.4407 108 50 107.44 50 106.75V93.25C50 92.5593 49.44 92 48.75 92ZM42 104.5C41.6053 104.5 41.2204 104.473 40.8453 104.42C40.4707 104.684 38.3033 106.206 38.0987 106.235C38.0987 106.235 38.0153 106.267 37.944 106.225C37.8727 106.183 37.8853 106.073 37.8853 106.073C37.9059 105.931 38.4078 104.197 38.5338 103.762L38.5467 103.717C36.7167 102.811 35.5 101.205 35.5 99.3753C35.5 96.5447 38.41 94.25 42 94.25C45.59 94.25 48.5 96.5447 48.5 99.3753C48.5 102.206 45.59 104.5 42 104.5Z" fill="#F9DD06"/>
<path d="M39.3667 98.578H38.7813V100.806C38.7813 101.003 38.6133 101.164 38.406 101.164C38.1987 101.164 38.0313 101.004 38.0313 100.806V98.578H37.446C37.3533 98.5712 37.2667 98.5295 37.2035 98.4614C37.1403 98.3934 37.1051 98.3039 37.1051 98.211C37.1051 98.1181 37.1403 98.0286 37.2035 97.9606C37.2667 97.8925 37.3533 97.8508 37.446 97.844H39.366C39.4587 97.8508 39.5453 97.8925 39.6085 97.9606C39.6717 98.0286 39.7069 98.1181 39.7069 98.211C39.7069 98.3039 39.6717 98.3934 39.6085 98.4614C39.5453 98.5295 39.4593 98.5712 39.3667 98.578Z" fill="black"/>
<path fill-rule="evenodd" clip-rule="evenodd" d="M41.124 98.2147C41.0607 98.0347 40.8687 97.8493 40.624 97.844C40.38 97.8493 40.188 98.0347 40.1247 98.214L39.228 100.575C39.114 100.928 39.2133 101.06 39.3167 101.108C39.3917 101.141 39.4727 101.159 39.5547 101.159C39.7113 101.159 39.8307 101.096 39.8667 100.994L40.0527 100.507H41.196L41.382 100.994C41.418 101.096 41.5373 101.159 41.694 101.159C41.7761 101.158 41.8571 101.141 41.932 101.107C42.0353 101.06 42.1347 100.929 42.0207 100.574L41.124 98.2147ZM40.6247 98.7793L40.25 99.8433H40.9987L40.6247 98.7793Z" fill="black"/>
<path d="M44.1867 100.765C44.1842 100.858 44.1451 100.947 44.0778 101.011C44.0105 101.076 43.9205 101.111 43.8273 101.109H42.6247C42.5314 101.111 42.4412 101.076 42.3738 101.012C42.3063 100.947 42.2671 100.859 42.2647 100.765V98.2187C42.2647 98.012 42.4367 97.844 42.648 97.844C42.8593 97.844 43.0307 98.012 43.0307 98.2187V100.422H43.8273C44.0253 100.422 44.1867 100.576 44.1867 100.765Z" fill="black"/>
<path d="M46.6907 100.549C46.7205 100.589 46.7423 100.633 46.7548 100.681C46.7673 100.729 46.7702 100.778 46.7633 100.827C46.7564 100.876 46.74 100.923 46.7149 100.965C46.6899 101.008 46.6567 101.045 46.6173 101.074C46.5525 101.123 46.4734 101.15 46.392 101.15C46.3338 101.15 46.2764 101.137 46.2243 101.111C46.1722 101.085 46.1269 101.047 46.092 101.001L45.2127 99.836L45.0827 99.966V100.784C45.0825 100.883 45.043 100.979 44.9728 101.049C44.9026 101.119 44.8074 101.159 44.708 101.159C44.6085 101.159 44.513 101.12 44.4426 101.049C44.3722 100.979 44.3327 100.884 44.3327 100.784V98.2187C44.3367 98.1219 44.378 98.0305 44.4479 97.9635C44.5178 97.8966 44.6109 97.8591 44.7077 97.8591C44.8045 97.8591 44.8975 97.8966 44.9674 97.9635C45.0373 98.0305 45.0786 98.1219 45.0827 98.2187V99.0253L46.1293 97.9787C46.1846 97.9244 46.2592 97.8942 46.3367 97.8947C46.43 97.8947 46.5247 97.9353 46.5953 98.006C46.6594 98.0693 46.6985 98.1535 46.7053 98.2433C46.7087 98.2851 46.7031 98.3272 46.6888 98.3666C46.6745 98.4061 46.652 98.442 46.6227 98.472L45.768 99.326L46.6907 100.549Z" fill="black"/>
<path fill-rule="evenodd" clip-rule="evenodd" d="M42 104.5C41.6053 104.5 41.2204 104.473 40.8453 104.42C40.4707 104.684 38.3033 106.206 38.0987 106.235C38.0987 106.235 38.0153 106.267 37.944 106.225C37.8727 106.183 37.8853 106.073 37.8853 106.073C37.9059 105.931 38.4078 104.197 38.5338 103.762L38.5467 103.717C36.7167 102.811 35.5 101.205 35.5 99.3753C35.5 96.5447 38.41 94.25 42 94.25C45.59 94.25 48.5 96.5447 48.5 99.3753C48.5 102.206 45.59 104.5 42 104.5ZM38.7813 98.578H39.3667C39.4593 98.5712 39.5453 98.5295 39.6085 98.4614C39.6717 98.3934 39.7069 98.3039 39.7069 98.211C39.7069 98.1181 39.6717 98.0286 39.6085 97.9606C39.5453 97.8925 39.4587 97.8508 39.366 97.844H37.446C37.3533 97.8508 37.2667 97.8925 37.2035 97.9606C37.1403 98.0286 37.1051 98.1181 37.1051 98.211C37.1051 98.3039 37.1403 98.3934 37.2035 98.4614C37.2667 98.5295 37.3533 98.5712 37.446 98.578H38.0313V100.806C38.0313 101.004 38.1987 101.164 38.406 101.164C38.6133 101.164 38.7813 101.003 38.7813 100.806V98.578ZM46.7548 100.681C46.7423 100.633 46.7205 100.589 46.6907 100.549L45.768 99.326L46.6227 98.472C46.652 98.442 46.6745 98.4061 46.6888 98.3666C46.7031 98.3272 46.7087 98.2851 46.7053 98.2433C46.6985 98.1535 46.6594 98.0693 46.5953 98.006C46.5247 97.9353 46.43 97.8947 46.3367 97.8947C46.2592 97.8942 46.1846 97.9244 46.1293 97.9787L45.0827 99.0253V98.2187C45.0786 98.1219 45.0373 98.0305 44.9674 97.9635C44.8975 97.8966 44.8045 97.8591 44.7077 97.8591C44.6109 97.8591 44.5178 97.8966 44.4479 97.9635C44.378 98.0305 44.3367 98.1219 44.3327 98.2187V100.784C44.3327 100.884 44.3722 100.979 44.4426 101.049C44.513 101.12 44.6085 101.159 44.708 101.159C44.8074 101.159 44.9026 101.119 44.9728 101.049C45.043 100.979 45.0825 100.883 45.0827 100.784V99.966L45.2127 99.836L46.092 101.001C46.1269 101.047 46.1722 101.085 46.2243 101.111C46.2764 101.137 46.3338 101.15 46.392 101.15C46.4734 101.15 46.5525 101.123 46.6173 101.074C46.6567 101.045 46.6899 101.008 46.7149 100.965C46.74 100.923 46.7564 100.876 46.7633 100.827C46.7702 100.778 46.7673 100.729 46.7548 100.681ZM40.624 97.844C40.8687 97.8493 41.0607 98.0347 41.124 98.2147L42.0207 100.574C42.1347 100.929 42.0353 101.06 41.932 101.107C41.8571 101.141 41.7761 101.158 41.694 101.159C41.5373 101.159 41.418 101.096 41.382 100.994L41.196 100.507H40.0527L39.8667 100.994C39.8307 101.096 39.7113 101.159 39.5547 101.159C39.4727 101.159 39.3917 101.141 39.3167 101.108C39.2133 101.06 39.114 100.928 39.228 100.575L40.1247 98.214C40.188 98.0347 40.38 97.8493 40.624 97.844ZM44.0778 101.011C44.1451 100.947 44.1842 100.858 44.1867 100.765C44.1867 100.576 44.0253 100.422 43.8273 100.422H43.0307V98.2187C43.0307 98.012 42.8593 97.844 42.648 97.844C42.4367 97.844 42.2647 98.012 42.2647 98.2187V100.765C42.2671 100.859 42.3063 100.947 42.3738 101.012C42.4412 101.076 42.5314 101.111 42.6247 101.109H43.8273C43.9205 101.111 44.0105 101.076 44.0778 101.011Z" fill="#F9DD06"/>
</g>
<rect x="36" y="94" width="12" height="12" rx="4" fill="#F9DD06"/>
<path fill-rule="evenodd" clip-rule="evenodd" d="M42 102.25C41.8027 102.25 41.6102 102.237 41.4227 102.21C41.2353 102.342 40.1517 103.103 40.0493 103.117C40.0493 103.117 40.0077 103.134 39.972 103.113C39.9363 103.092 39.9427 103.036 39.9427 103.036C39.9529 102.966 40.2039 102.099 40.2669 101.881L40.2733 101.859C39.3583 101.405 38.75 100.602 38.75 99.6877C38.75 98.2723 40.205 97.125 42 97.125C43.795 97.125 45.25 98.2723 45.25 99.6877C45.25 101.103 43.795 102.25 42 102.25ZM40.3907 99.289H40.6833C40.7297 99.2856 40.7726 99.2648 40.8043 99.2307C40.8359 99.1967 40.8534 99.152 40.8534 99.1055C40.8534 99.059 40.8359 99.0143 40.8043 98.9803C40.7726 98.9462 40.7293 98.9254 40.683 98.922H39.723C39.6767 98.9254 39.6334 98.9462 39.6017 98.9803C39.5701 99.0143 39.5526 99.059 39.5526 99.1055C39.5526 99.152 39.5701 99.1967 39.6017 99.2307C39.6334 99.2648 39.6767 99.2856 39.723 99.289H40.0157V100.403C40.0157 100.502 40.0993 100.582 40.203 100.582C40.3067 100.582 40.3907 100.502 40.3907 100.403V99.289ZM44.3774 100.341C44.3712 100.317 44.3603 100.294 44.3453 100.275L43.884 99.663L44.3113 99.236C44.326 99.221 44.3373 99.203 44.3444 99.1833C44.3515 99.1636 44.3544 99.1426 44.3527 99.1217C44.3492 99.0768 44.3297 99.0346 44.2977 99.003C44.2623 98.9677 44.215 98.9473 44.1683 98.9473C44.1296 98.9471 44.0923 98.9622 44.0647 98.9893L43.5413 99.5127V99.1093C43.5393 99.061 43.5186 99.0153 43.4837 98.9818C43.4488 98.9483 43.4022 98.9296 43.3538 98.9296C43.3054 98.9296 43.2589 98.9483 43.224 98.9818C43.189 99.0153 43.1684 99.061 43.1663 99.1093V100.392C43.1663 100.442 43.1861 100.49 43.2213 100.525C43.2565 100.56 43.3042 100.58 43.354 100.58C43.4037 100.579 43.4513 100.56 43.4864 100.524C43.5215 100.489 43.5412 100.442 43.5413 100.392V99.983L43.6063 99.918L44.046 100.5C44.0635 100.524 44.0861 100.542 44.1122 100.555C44.1382 100.568 44.1669 100.575 44.196 100.575C44.2367 100.575 44.2763 100.562 44.3087 100.537C44.3284 100.522 44.3449 100.504 44.3575 100.483C44.37 100.461 44.3782 100.438 44.3817 100.414C44.3851 100.389 44.3836 100.364 44.3774 100.341ZM41.312 98.922C41.4343 98.9247 41.5303 99.0173 41.562 99.1073L42.0103 100.287C42.0673 100.464 42.0177 100.53 41.966 100.554C41.9285 100.57 41.888 100.579 41.847 100.58C41.7687 100.58 41.709 100.548 41.691 100.497L41.598 100.254H41.0263L40.9333 100.497C40.9153 100.548 40.8557 100.58 40.7773 100.58C40.7363 100.579 40.6958 100.571 40.6583 100.554C40.6067 100.53 40.557 100.464 40.614 100.287L41.0623 99.107C41.094 99.0173 41.19 98.9247 41.312 98.922ZM43.0389 100.506C43.0725 100.473 43.0921 100.429 43.0933 100.383C43.0933 100.288 43.0127 100.211 42.9137 100.211H42.5153V99.1093C42.5153 99.006 42.4297 98.922 42.324 98.922C42.2183 98.922 42.1323 99.006 42.1323 99.1093V100.383C42.1336 100.429 42.1532 100.474 42.1869 100.506C42.2206 100.538 42.2657 100.556 42.3123 100.555H42.9137C42.9602 100.555 43.0052 100.538 43.0389 100.506Z" fill="black"/>
<path d="M41.125 99.9217L41.3123 99.3897L41.4993 99.9217H41.125Z" fill="black"/>
<path fill-rule="evenodd" clip-rule="evenodd" d="M45.375 96H38.625C38.2797 96 38 96.28 38 96.625V103.375C38 103.72 38.28 104 38.625 104H45.375C45.7203 104 46 103.72 46 103.375V96.625C46 96.2797 45.72 96 45.375 96ZM42 102.25C41.8027 102.25 41.6102 102.237 41.4227 102.21C41.2353 102.342 40.1517 103.103 40.0493 103.117C40.0493 103.117 40.0077 103.134 39.972 103.113C39.9363 103.092 39.9427 103.036 39.9427 103.036C39.9529 102.966 40.2039 102.099 40.2669 101.881L40.2733 101.859C39.3583 101.405 38.75 100.602 38.75 99.6877C38.75 98.2723 40.205 97.125 42 97.125C43.795 97.125 45.25 98.2723 45.25 99.6877C45.25 101.103 43.795 102.25 42 102.25Z" fill="#F9DD06"/>
<path d="M40.6833 99.289H40.3907V100.403C40.3907 100.502 40.3067 100.582 40.203 100.582C40.0993 100.582 40.0157 100.502 40.0157 100.403V99.289H39.723C39.6767 99.2856 39.6334 99.2648 39.6017 99.2307C39.5701 99.1967 39.5526 99.152 39.5526 99.1055C39.5526 99.059 39.5701 99.0143 39.6017 98.9803C39.6334 98.9462 39.6767 98.9254 39.723 98.922H40.683C40.7293 98.9254 40.7726 98.9462 40.8043 98.9803C40.8359 99.0143 40.8534 99.059 40.8534 99.1055C40.8534 99.152 40.8359 99.1967 40.8043 99.2307C40.7726 99.2648 40.7297 99.2856 40.6833 99.289Z" fill="black"/>
<path fill-rule="evenodd" clip-rule="evenodd" d="M41.562 99.1073C41.5303 99.0173 41.4343 98.9247 41.312 98.922C41.19 98.9247 41.094 99.0173 41.0623 99.107L40.614 100.287C40.557 100.464 40.6067 100.53 40.6583 100.554C40.6958 100.571 40.7363 100.579 40.7773 100.58C40.8557 100.58 40.9153 100.548 40.9333 100.497L41.0263 100.254H41.598L41.691 100.497C41.709 100.548 41.7687 100.58 41.847 100.58C41.888 100.579 41.9285 100.57 41.966 100.554C42.0177 100.53 42.0673 100.464 42.0103 100.287L41.562 99.1073ZM41.3123 99.3897L41.125 99.9217H41.4993L41.3123 99.3897Z" fill="black"/>
<path d="M43.0933 100.383C43.0921 100.429 43.0725 100.473 43.0389 100.506C43.0052 100.538 42.9602 100.555 42.9137 100.555H42.3123C42.2657 100.556 42.2206 100.538 42.1869 100.506C42.1532 100.474 42.1336 100.429 42.1323 100.383V99.1093C42.1323 99.006 42.2183 98.922 42.324 98.922C42.4297 98.922 42.5153 99.006 42.5153 99.1093V100.211H42.9137C43.0127 100.211 43.0933 100.288 43.0933 100.383Z" fill="black"/>
<path d="M44.3453 100.275C44.3603 100.294 44.3712 100.317 44.3774 100.341C44.3836 100.364 44.3851 100.389 44.3817 100.414C44.3782 100.438 44.37 100.461 44.3575 100.483C44.3449 100.504 44.3284 100.522 44.3087 100.537C44.2763 100.562 44.2367 100.575 44.196 100.575C44.1669 100.575 44.1382 100.568 44.1122 100.555C44.0861 100.542 44.0635 100.524 44.046 100.5L43.6063 99.918L43.5413 99.983V100.392C43.5412 100.442 43.5215 100.489 43.4864 100.524C43.4513 100.56 43.4037 100.579 43.354 100.58C43.3042 100.58 43.2565 100.56 43.2213 100.525C43.1861 100.49 43.1663 100.442 43.1663 100.392V99.1093C43.1684 99.061 43.189 99.0153 43.224 98.9818C43.2589 98.9483 43.3054 98.9296 43.3538 98.9296C43.4022 98.9296 43.4488 98.9483 43.4837 98.9818C43.5186 99.0153 43.5393 99.061 43.5413 99.1093V99.5127L44.0647 98.9893C44.0923 98.9622 44.1296 98.9471 44.1683 98.9473C44.215 98.9473 44.2623 98.9677 44.2977 99.003C44.3297 99.0346 44.3492 99.0768 44.3527 99.1217C44.3544 99.1426 44.3515 99.1636 44.3444 99.1833C44.3373 99.203 44.326 99.221 44.3113 99.236L43.884 99.663L44.3453 100.275Z" fill="black"/>
<path d="M138.106 107.008H134.49L132.346 103.264L131.45 104.192V107.008H128.25V94.32C128.25 93.264 129.034 92.72 129.866 92.72C130.698 92.72 131.45 93.264 131.45 94.32V100.08L134.282 96.768C134.81 96.144 135.834 96 136.506 96.512C137.178 97.024 137.242 98.128 136.682 98.72L134.49 101.024L138.106 107.008Z" fill="black"/>
<path d="M123.188 107.008V94.32C123.188 93.216 123.94 92.72 124.836 92.72C125.732 92.72 126.484 93.216 126.484 94.32V107.008H123.188Z" fill="black"/>
<path d="M121.511 107.008H118.983L118.855 106.336C118.247 106.912 117.383 107.28 116.423 107.28H116.071C114.743 107.28 112.791 106.56 112.791 103.904C112.791 101.328 114.631 100.56 116.711 100.56H118.359C118.327 99.1679 117.655 98.9119 116.887 98.9119C116.519 98.9119 116.199 98.9759 115.815 99.0879C115.559 99.1679 115.351 99.2799 115.063 99.4079C114.487 99.6959 113.639 99.4719 113.351 98.8319C113.047 98.1919 113.303 97.5359 113.863 97.1199C114.711 96.4959 116.055 96.2559 117.143 96.2559C119.463 96.2559 121.511 97.0719 121.511 100.976V107.008ZM118.359 103.648V102.912H116.903C116.295 102.912 115.959 103.216 115.959 103.888C115.959 104.56 116.295 104.816 116.855 104.816H117.079C117.671 104.816 118.359 104.464 118.359 103.648Z" fill="black"/>
<path d="M110.1 107.008H106.772V95.776H104.324C103.396 95.776 103.028 95.008 103.028 94.352C103.028 93.696 103.38 92.976 104.324 92.976H112.548C113.492 92.976 113.844 93.696 113.844 94.352C113.844 95.008 113.476 95.776 112.548 95.776H110.1V107.008Z" fill="black"/>
<path d="M94.791 102.832V100.672C94.791 97.2319 97.255 96.2399 99.431 96.2399C101.559 96.2399 104.071 97.2319 104.071 100.672V102.832C104.071 106.272 101.559 107.264 99.431 107.264C97.303 107.264 94.791 106.272 94.791 102.832ZM100.855 102.976V100.528C100.855 99.3919 100.119 98.9439 99.431 98.9439C98.743 98.9439 98.007 99.3919 98.007 100.528V102.976C98.007 104.112 98.743 104.56 99.431 104.56C100.119 104.56 100.855 104.112 100.855 102.976Z" fill="black"/>
<path d="M93.3548 107.008H90.8268L90.6988 106.336C90.0908 106.912 89.2268 107.28 88.2668 107.28H87.9148C86.5868 107.28 84.6348 106.56 84.6348 103.904C84.6348 101.328 86.4748 100.56 88.5548 100.56H90.2028C90.1708 99.1679 89.4988 98.9119 88.7308 98.9119C88.3628 98.9119 88.0428 98.9759 87.6588 99.0879C87.4028 99.1679 87.1948 99.2799 86.9068 99.4079C86.3308 99.6959 85.4828 99.4719 85.1948 98.8319C84.8908 98.1919 85.1468 97.5359 85.7068 97.1199C86.5548 96.4959 87.8988 96.2559 88.9868 96.2559C91.3068 96.2559 93.3548 97.0719 93.3548 100.976V107.008ZM90.2028 103.648V102.912H88.7468C88.1388 102.912 87.8028 103.216 87.8028 103.888C87.8028 104.56 88.1388 104.816 88.6988 104.816H88.9228C89.5148 104.816 90.2028 104.464 90.2028 103.648Z" fill="black"/>
<path d="M84.8716 107.008H81.2556L79.1116 103.264L78.2156 104.192V107.008H75.0156V94.32C75.0156 93.264 75.7996 92.72 76.6316 92.72C77.4636 92.72 78.2156 93.264 78.2156 94.32V100.08L81.0476 96.768C81.5756 96.144 82.5996 96 83.2716 96.512C83.9436 97.024 84.0076 98.128 83.4476 98.72L81.2556 101.024L84.8716 107.008Z" fill="black"/>
<path d="M73.3391 107.008H70.8111L70.6831 106.336C70.0751 106.912 69.2111 107.28 68.2511 107.28H67.8991C66.5711 107.28 64.6191 106.56 64.6191 103.904C64.6191 101.328 66.4591 100.56 68.5391 100.56H70.1871C70.1551 99.1679 69.4831 98.9119 68.7151 98.9119C68.3471 98.9119 68.0271 98.9759 67.6431 99.0879C67.3871 99.1679 67.1791 99.2799 66.8911 99.4079C66.3151 99.6959 65.4671 99.4719 65.1791 98.8319C64.8751 98.1919 65.1311 97.5359 65.6911 97.1199C66.5391 96.4959 67.8831 96.2559 68.9711 96.2559C71.2911 96.2559 73.3391 97.0719 73.3391 100.976V107.008ZM70.1871 103.648V102.912H68.7311C68.1231 102.912 67.7871 103.216 67.7871 103.888C67.7871 104.56 68.1231 104.816 68.6831 104.816H68.9071C69.4991 104.816 70.1871 104.464 70.1871 103.648Z" fill="black"/>
<path d="M64.856 107.008H61.24L59.096 103.264L58.2 104.192V107.008H55V94.32C55 93.264 55.784 92.72 56.616 92.72C57.448 92.72 58.2 93.264 58.2 94.32V100.08L61.032 96.768C61.56 96.144 62.584 96 63.256 96.512C63.928 97.024 63.992 98.128 63.432 98.72L61.24 101.024L64.856 107.008Z" fill="black"/>
<path d="M129.378 142.864H126.13V133.696C126.13 132.64 126.898 132.096 127.746 132.096C128.37 132.096 128.962 132.4 129.218 132.976C129.826 132.4 130.61 132.096 131.458 132.096C132.434 132.096 133.378 132.416 134.05 133.216C134.706 132.528 135.634 132.096 136.93 132.096C138.962 132.096 140.738 133.136 140.738 136.48V142.864H137.442V136.288C137.442 135.2 136.754 134.832 136.226 134.832C135.698 134.832 134.994 135.2 134.994 136.288V142.864H131.826V136.288C131.826 135.2 131.138 134.832 130.61 134.832C130.098 134.832 129.378 135.184 129.378 136.208V142.864Z" fill="black"/>
<path d="M124.453 142.864H121.925L121.797 142.192C121.189 142.768 120.325 143.136 119.365 143.136H119.013C117.685 143.136 115.733 142.416 115.733 139.76C115.733 137.184 117.573 136.416 119.653 136.416H121.301C121.269 135.024 120.597 134.768 119.829 134.768C119.461 134.768 119.141 134.832 118.757 134.944C118.501 135.024 118.293 135.136 118.005 135.264C117.429 135.552 116.581 135.328 116.293 134.688C115.989 134.048 116.245 133.392 116.805 132.976C117.653 132.352 118.997 132.112 120.085 132.112C122.405 132.112 124.453 132.928 124.453 136.832V142.864ZM121.301 139.504V138.768H119.845C119.237 138.768 118.901 139.072 118.901 139.744C118.901 140.416 119.237 140.672 119.797 140.672H120.021C120.613 140.672 121.301 140.32 121.301 139.504Z" fill="black"/>
<path d="M111.487 142.864H108.239V133.696C108.239 132.64 109.007 132.096 109.855 132.096C110.479 132.096 111.071 132.4 111.343 132.992C111.935 132.432 112.687 132.096 113.471 132.096C113.711 132.096 113.983 132.128 114.223 132.224C114.831 132.48 115.183 133.12 115.071 133.872C114.959 134.624 114.383 135.104 113.679 135.104C113.455 135.104 113.167 135.088 112.943 135.104C112.063 135.168 111.535 135.664 111.487 136.464V142.864Z" fill="black"/>
<path d="M106.56 133.696V142.272C106.56 144.032 105.824 146.208 101.52 146.384C100.928 146.416 99.7275 146.256 99.1995 145.952C98.7195 145.664 98.4795 144.976 98.6875 144.416C98.8795 143.904 99.4075 143.568 99.9515 143.648C100.416 143.712 100.928 143.792 101.52 143.792C102.88 143.792 103.472 143.072 103.472 142.352V141.984C102.912 142.544 102.144 142.864 101.168 142.864C99.0555 142.864 97.3115 141.856 97.3115 138.512V136.512C97.3115 133.136 99.0715 132.096 101.184 132.096C101.984 132.096 102.864 132.4 103.472 132.992C103.728 132.4 104.32 132.096 104.96 132.096C105.808 132.096 106.56 132.64 106.56 133.696ZM100.608 136.288V138.8C100.608 139.888 101.408 140.256 101.968 140.256C102.512 140.256 103.344 139.904 103.344 138.88V136.208C103.344 135.184 102.512 134.832 101.968 134.832C101.408 134.832 100.608 135.2 100.608 136.288Z" fill="black"/>
<path d="M95.8753 142.864H93.3473L93.2193 142.192C92.6113 142.768 91.7473 143.136 90.7873 143.136H90.4353C89.1073 143.136 87.1553 142.416 87.1553 139.76C87.1553 137.184 88.9953 136.416 91.0753 136.416H92.7233C92.6913 135.024 92.0193 134.768 91.2513 134.768C90.8833 134.768 90.5633 134.832 90.1793 134.944C89.9233 135.024 89.7153 135.136 89.4273 135.264C88.8513 135.552 88.0033 135.328 87.7153 134.688C87.4113 134.048 87.6673 133.392 88.2273 132.976C89.0753 132.352 90.4193 132.112 91.5073 132.112C93.8273 132.112 95.8753 132.928 95.8753 136.832V142.864ZM92.7233 139.504V138.768H91.2673C90.6593 138.768 90.3233 139.072 90.3233 139.744C90.3233 140.416 90.6593 140.672 91.2193 140.672H91.4433C92.0353 140.672 92.7233 140.32 92.7233 139.504Z" fill="black"/>
<path d="M80.9223 139.84V135.328H80.3943C79.3863 135.328 78.9863 134.688 78.9863 134.016C78.9863 133.36 79.3703 132.672 80.3943 132.672H80.9223V130.736C80.9223 129.648 81.7063 129.152 82.5063 129.152C83.3063 129.152 84.0903 129.648 84.0903 130.736V132.672H85.0343C86.0583 132.672 86.4423 133.36 86.4423 134.016C86.4423 134.688 86.0423 135.328 85.0343 135.328H84.0903V139.776C84.0903 140.256 84.3303 140.368 84.6023 140.384C84.8423 140.4 84.9863 140.32 85.3063 140.32C85.8343 140.32 86.2823 140.672 86.3943 141.2C86.5383 141.856 86.2663 142.432 85.8183 142.72C85.4503 142.96 84.8263 143.12 84.2823 143.12C82.1543 143.12 80.9223 142.256 80.9223 139.84Z" fill="black"/>
<path d="M73.7164 135.232C73.7164 135.584 74.0204 135.776 74.6764 136L75.9404 136.432C77.7964 137.072 78.5804 138.112 78.5804 139.648C78.5804 142.192 76.5964 143.12 74.2604 143.12C73.1724 143.12 71.8124 142.928 70.9644 142.128C70.4364 141.632 70.1644 140.864 70.6124 140.192C70.8364 139.856 71.2204 139.696 71.6364 139.696C72.1164 139.696 72.4364 139.888 72.6764 140.08C73.0764 140.384 73.7324 140.576 74.3564 140.576C74.9804 140.576 75.3484 140.336 75.3484 139.936C75.3484 139.536 75.0444 139.312 73.8604 138.896L72.7564 138.512C71.0444 137.92 70.4044 136.72 70.4044 135.376C70.4044 133.408 72.0524 132.096 74.5164 132.096C75.7964 132.096 76.7084 132.416 77.3164 132.784C77.9564 133.168 78.4044 133.84 78.1804 134.576C77.9884 135.184 77.5084 135.424 76.9804 135.424C76.7244 135.424 76.4044 135.312 76.2764 135.216C75.7804 134.816 75.2524 134.64 74.5644 134.64C73.9724 134.64 73.7164 134.912 73.7164 135.232Z" fill="black"/>
<path d="M63.1904 142.864H59.9424V133.696C59.9424 132.64 60.7104 132.096 61.5584 132.096C62.1824 132.096 62.7744 132.4 63.0464 132.976C63.6704 132.4 64.5344 132.096 65.3824 132.096C67.4144 132.096 69.0304 133.104 69.0304 136.48V142.864H65.7344V136.288C65.7344 135.2 65.0144 134.832 64.4704 134.832C63.9264 134.832 63.1904 135.2 63.1904 136.288V142.864Z" fill="black"/>
<path d="M54.8643 130.048C54.8643 128.992 55.6323 128.576 56.5283 128.576C57.4243 128.576 58.1923 128.992 58.1923 130.048C58.1923 131.104 57.4243 131.52 56.5283 131.52C55.6323 131.52 54.8643 131.104 54.8643 130.048ZM54.8803 142.864V133.808C54.8803 132.704 55.6323 132.208 56.5283 132.208C57.4243 132.208 58.1763 132.704 58.1763 133.808V142.864H54.8803Z" fill="black"/>
<g clip-path="url(#clip1_2931_3205)">
<path d="M46.25 128H37.75C35.6789 128 34 129.679 34 131.75V140.25C34 142.321 35.6789 144 37.75 144H46.25C48.3211 144 50 142.321 50 140.25V131.75C50 129.679 48.3211 128 46.25 128Z" fill="url(#paint0_radial_2931_3205)"/>
<path d="M46.25 128H37.75C35.6789 128 34 129.679 34 131.75V140.25C34 142.321 35.6789 144 37.75 144H46.25C48.3211 144 50 142.321 50 140.25V131.75C50 129.679 48.3211 128 46.25 128Z" fill="url(#paint1_radial_2931_3205)"/>
<path fill-rule="evenodd" clip-rule="evenodd" d="M44.5868 132.664C44.5868 132.25 44.9228 131.914 45.3368 131.914C45.7509 131.914 46.0868 132.25 46.0868 132.664C46.0868 133.078 45.7509 133.414 45.3368 133.414C44.9228 133.414 44.5868 133.078 44.5868 132.664ZM38.7909 136C38.7909 134.228 40.2281 132.79 42.0006 132.79C43.7731 132.79 45.2098 134.228 45.2098 136C45.2098 137.773 43.7731 139.209 42.0006 139.209C40.2281 139.209 38.7909 137.773 38.7909 136ZM44.0839 136C44.0839 134.849 43.1511 133.917 42.0006 133.917C40.8499 133.917 39.9173 134.849 39.9173 136C39.9173 137.151 40.85 138.083 42.0006 138.083C43.1511 138.083 44.0839 137.151 44.0839 136Z" fill="white"/>
</g>
<g clip-path="url(#clip2_2931_3205)">
<rect width="16" height="16" transform="translate(34 166.603)" fill="#FF0000"/>
<path d="M49.647 170.745C49.5552 170.406 49.3762 170.097 49.1277 169.848C48.8793 169.6 48.5701 169.421 48.2309 169.329C46.9891 168.99 41.9919 168.99 41.9919 168.99C41.9919 168.99 36.9945 169.001 35.753 169.339C35.4138 169.431 35.1046 169.61 34.8562 169.858C34.6077 170.107 34.4287 170.416 34.3369 170.755C33.9613 172.962 33.8156 176.323 34.3472 178.441C34.439 178.78 34.618 179.089 34.8664 179.338C35.1149 179.586 35.4241 179.765 35.7633 179.857C37.0049 180.196 42.0022 180.196 42.0022 180.196C42.0022 180.196 46.9995 180.196 48.2411 179.857C48.5803 179.765 48.8895 179.586 49.138 179.338C49.3864 179.089 49.5654 178.78 49.6572 178.441C50.0532 176.232 50.1754 172.872 49.6469 170.745" fill="#FF0000"/>
<path d="M40.4014 176.994L44.547 174.593L40.4014 172.192V176.994Z" fill="white"/>
</g>
<path d="M119.478 180.932C117.062 180.932 114.55 179.844 114.55 176.388V174.34C114.55 170.932 117.062 169.908 119.11 169.908C121.334 169.908 123.526 170.772 123.526 175.332C123.526 175.604 123.494 176.052 123.446 176.324H117.718V176.34C117.718 177.86 118.774 178.228 119.542 178.228C120.326 178.228 120.662 178.164 121.094 178.02C121.334 177.94 121.574 177.812 121.846 177.78C122.39 177.716 122.902 177.908 123.11 178.388C123.446 179.172 123.062 179.844 122.294 180.292C121.782 180.596 120.646 180.932 119.478 180.932ZM119.126 172.5C118.422 172.5 117.734 172.852 117.718 174.228H120.422C120.47 172.852 119.83 172.5 119.126 172.5Z" fill="black"/>
<path d="M106.506 180.676H103.962V167.988C103.962 166.932 104.73 166.388 105.578 166.388C106.426 166.388 107.21 166.932 107.21 167.988V170.66C107.77 170.196 108.49 169.908 109.37 169.908C111.482 169.908 113.274 170.948 113.274 174.324V176.532C113.274 179.908 111.482 180.948 109.37 180.948C108.202 180.948 107.29 180.452 106.666 179.636L106.506 180.676ZM109.978 176.756V174.1C109.978 173.012 109.162 172.644 108.602 172.644C108.058 172.644 107.21 172.996 107.21 174.02V176.756C107.21 177.844 108.042 178.212 108.602 178.212C109.162 178.212 109.978 177.844 109.978 176.756Z" fill="black"/>
<path d="M96.7642 180.932C94.7322 180.932 93.1162 179.924 93.1162 176.548V171.508C93.1162 170.404 93.8682 169.908 94.7642 169.908C95.6602 169.908 96.4122 170.404 96.4122 171.508V176.74C96.4122 177.828 97.1322 178.196 97.6762 178.196C98.2042 178.196 98.9562 177.844 98.9562 176.82V171.492C98.9562 170.404 99.6922 169.908 100.572 169.908C101.468 169.908 102.204 170.404 102.204 171.492V180.676H99.6602L99.4842 179.62C98.8922 180.436 97.9162 180.932 96.7642 180.932Z" fill="black"/>
<path d="M86.7231 177.652V173.14H86.1951C85.1871 173.14 84.7871 172.5 84.7871 171.828C84.7871 171.172 85.1711 170.484 86.1951 170.484H86.7231V168.548C86.7231 167.46 87.5071 166.964 88.3071 166.964C89.1071 166.964 89.8911 167.46 89.8911 168.548V170.484H90.8351C91.8591 170.484 92.2431 171.172 92.2431 171.828C92.2431 172.5 91.8431 173.14 90.8351 173.14H89.8911V177.588C89.8911 178.068 90.1311 178.18 90.4031 178.196C90.6431 178.212 90.7871 178.132 91.1071 178.132C91.6351 178.132 92.0831 178.484 92.1951 179.012C92.3391 179.668 92.0671 180.244 91.6191 180.532C91.2511 180.772 90.6271 180.932 90.0831 180.932C87.9551 180.932 86.7231 180.068 86.7231 177.652Z" fill="black"/>
<path d="M78.7017 180.932C76.6697 180.932 75.0537 179.924 75.0537 176.548V171.508C75.0537 170.404 75.8057 169.908 76.7017 169.908C77.5977 169.908 78.3497 170.404 78.3497 171.508V176.74C78.3497 177.828 79.0697 178.196 79.6137 178.196C80.1417 178.196 80.8937 177.844 80.8937 176.82V171.492C80.8937 170.404 81.6297 169.908 82.5097 169.908C83.4057 169.908 84.1417 170.404 84.1417 171.492V180.676H81.5977L81.4217 179.62C80.8297 180.436 79.8537 180.932 78.7017 180.932Z" fill="black"/>
<path d="M64.3311 176.5V174.34C64.3311 170.9 66.7951 169.908 68.9711 169.908C71.0991 169.908 73.6111 170.9 73.6111 174.34V176.5C73.6111 179.94 71.0991 180.932 68.9711 180.932C66.8431 180.932 64.3311 179.94 64.3311 176.5ZM70.3951 176.644V174.196C70.3951 173.06 69.6591 172.612 68.9711 172.612C68.2831 172.612 67.5471 173.06 67.5471 174.196V176.644C67.5471 177.78 68.2831 178.228 68.9711 178.228C69.6591 178.228 70.3951 177.78 70.3951 176.644Z" fill="black"/>
<path d="M62.9365 170.052C63.7685 170.356 64.2005 171.252 63.8005 172.196L60.4405 179.892C59.4645 182.148 57.7685 183.076 55.5445 182.756C54.6165 182.628 54.1525 181.876 54.2485 181.172C54.3605 180.452 54.8885 179.86 55.8325 180.036C56.4885 180.164 57.1605 179.956 57.4165 179.476V179.46L54.1525 172.196C53.7365 171.268 54.2165 170.356 55.0485 170.052C55.8805 169.748 56.8725 169.956 57.2405 170.964L59.0805 175.94L60.7765 170.964C61.1285 169.956 62.1045 169.748 62.9365 170.052Z" fill="black"/>
<mask id="path-47-inside-1_2931_3205" fill="white">
<path d="M173 92H317V108H173V92Z"/>
</mask>
<path d="M173 92H317V108H173V92Z" fill="#478EFF"/>
<path d="M173 92V90.5H171.5V92H173ZM317 92H320V90.5H317V92ZM317 108V109.5H320V108H317ZM173 108H171.5V109.5H173V108ZM173 92V93.5H317V92V90.5H173V92ZM317 92H314V108H317H320V92H317ZM317 108V106.5H173V108V109.5H317V108ZM173 108H174.5V92H173H171.5V108H173Z" fill="#111111" mask="url(#path-47-inside-1_2931_3205)"/>
<mask id="path-49-inside-2_2931_3205" fill="white">
<path d="M173 130H257V146H173V130Z"/>
</mask>
<path d="M173 130H257V146H173V130Z" fill="#478EFF"/>
<path d="M173 130V128.5H171.5V130H173ZM257 130H260V128.5H257V130ZM257 146V147.5H260V146H257ZM173 146H171.5V147.5H173V146ZM173 130V131.5H257V130V128.5H173V130ZM257 130H254V146H257H260V130H257ZM257 146V144.5H173V146V147.5H257V146ZM173 146H174.5V130H173H171.5V146H173Z" fill="#111111" mask="url(#path-49-inside-2_2931_3205)"/>
<mask id="path-51-inside-3_2931_3205" fill="white">
<path d="M173 168H244V184H173V168Z"/>
</mask>
<path d="M173 168H244V184H173V168Z" fill="#478EFF"/>
<path d="M173 168V166.5H171.5V168H173ZM244 168H247V166.5H244V168ZM244 184V185.5H247V184H244ZM173 184H171.5V185.5H173V184ZM173 168V169.5H244V168V166.5H173V168ZM244 168H241V184H244H247V168H244ZM244 184V182.5H173V184V185.5H244V184ZM173 184H174.5V168H173H171.5V184H173Z" fill="#111111" mask="url(#path-51-inside-3_2931_3205)"/>
<path d="M324.153 83.7739C324.637 83.4285 325.314 83.4989 325.715 83.9547L325.789 84.0488C326.112 84.5006 326.073 85.1202 325.695 85.5271L325.609 85.6105L321.015 89.6532L321.007 89.6606L320.997 89.6676L320.943 89.7122L320.932 89.7199L320.921 89.7285C320.467 90.0521 319.844 90.0111 319.437 89.6286L319.359 89.5486L319.359 89.5477C318.931 89.0611 318.979 88.3207 319.465 87.8928L319.465 87.8919L324.059 83.8492L324.153 83.7739Z" fill="#F85947" stroke="black" stroke-linecap="round"/>
<path d="M315.594 82.7839C315.659 82.1935 316.162 81.7345 316.77 81.7399L316.89 81.7477C317.442 81.8089 317.876 82.2521 317.928 82.8043L317.933 82.9238L317.895 87.2387L317.895 87.2395C317.89 87.8471 317.423 88.3415 316.832 88.3966L316.712 88.4018L316.712 88.4023C316.064 88.3965 315.542 87.8673 315.548 87.2188L315.587 82.9035L315.594 82.7839Z" fill="#F85947" stroke="black" stroke-linecap="round"/>
<path d="M325.71 91.7736C326.287 91.9155 326.676 92.4742 326.591 93.0765L326.568 93.1945C326.435 93.7335 325.939 94.1063 325.385 94.0849L325.266 94.0745L320.993 93.4725L320.992 93.4729C320.39 93.3879 319.961 92.8606 319.984 92.2671L319.994 92.1479L319.994 92.147C320.084 91.5063 320.677 91.0579 321.319 91.1482L325.593 91.751L325.71 91.7736Z" fill="#F85947" stroke="black" stroke-linecap="round"/>
<path d="M390 242V244H20V242H390ZM408 224V20C408 10.0589 399.941 2 390 2H20C10.0589 2 2 10.0589 2 20V224C2 233.941 10.0589 242 20 242V244L19.4834 243.993C8.84814 243.724 0.276492 235.152 0.00683594 224.517L0 224V20C2.79059e-06 9.12703 8.67646 0.280844 19.4834 0.00683594L20 0H390L390.517 0.00683594C401.324 0.280847 410 9.12703 410 20V224L409.993 224.517C409.724 235.152 401.152 243.724 390.517 243.993L390 244V242C399.941 242 408 233.941 408 224Z" fill="#111111"/>
<path d="M390 1C400.493 1 409 9.50659 409 20V32H316C305.507 32 297 23.4934 297 13V1H390Z" fill="#FFCE2E" stroke="#111111" stroke-width="2"/>
<path d="M370.779 10.5742H372.627V12.1142H375.175V10.5742H377.009V16.2442H370.779V10.5742ZM372.627 13.5002V14.8022H375.175V13.5002H372.627ZM378.745 10.0142H380.607V16.5942H378.745V10.0142ZM379.865 12.4922H382.315V14.0182H379.865V12.4922ZM372.053 17.0842H380.607V20.6262H373.915V22.1522H372.067V19.2962H378.773V18.5122H372.053V17.0842ZM372.067 21.4382H380.985V22.8942H372.067V21.4382Z" fill="#111111"/>
<path d="M366.861 10H368.625V22.964H366.861V10ZM365.209 14.886H367.365V16.384H365.209V14.886ZM361.345 11.596H363.137C363.137 12.5107 363.058 13.3787 362.899 14.2C362.75 15.0213 362.498 15.8007 362.143 16.538C361.788 17.266 361.308 17.9473 360.701 18.582C360.104 19.2073 359.352 19.786 358.447 20.318L357.369 19.016C358.349 18.4373 359.128 17.8027 359.707 17.112C360.295 16.412 360.715 15.642 360.967 14.802C361.219 13.9527 361.345 13.01 361.345 11.974V11.596ZM358.013 11.596H361.891V13.08H358.013V11.596ZM363.977 10.336H365.727V22.404H363.977V10.336Z" fill="#111111"/>
<path d="M344.414 10.7142C344.993 10.7142 345.506 10.8402 345.954 11.0922C346.402 11.3442 346.752 11.6988 347.004 12.1562C347.256 12.6042 347.382 13.1222 347.382 13.7102C347.382 14.3075 347.256 14.8348 347.004 15.2922C346.752 15.7402 346.402 16.0948 345.954 16.3562C345.506 16.6082 344.993 16.7342 344.414 16.7342C343.845 16.7342 343.336 16.6082 342.888 16.3562C342.44 16.0948 342.09 15.7402 341.838 15.2922C341.586 14.8348 341.46 14.3075 341.46 13.7102C341.46 13.1128 341.586 12.5948 341.838 12.1562C342.09 11.7082 342.44 11.3582 342.888 11.1062C343.336 10.8448 343.845 10.7142 344.414 10.7142ZM344.414 12.2122C344.162 12.2122 343.938 12.2728 343.742 12.3942C343.546 12.5062 343.397 12.6742 343.294 12.8982C343.191 13.1222 343.14 13.3928 343.14 13.7102C343.14 14.0368 343.191 14.3122 343.294 14.5362C343.397 14.7508 343.546 14.9188 343.742 15.0402C343.938 15.1615 344.162 15.2222 344.414 15.2222C344.666 15.2222 344.89 15.1615 345.086 15.0402C345.282 14.9188 345.431 14.7508 345.534 14.5362C345.646 14.3122 345.702 14.0368 345.702 13.7102C345.702 13.3928 345.646 13.1222 345.534 12.8982C345.431 12.6742 345.282 12.5062 345.086 12.3942C344.89 12.2728 344.666 12.2122 344.414 12.2122ZM350.686 10.0142H352.464V17.0562H350.686V10.0142ZM349.188 12.7162H351.232V14.2142H349.188V12.7162ZM347.956 10.2522H349.692V16.9722H347.956V10.2522ZM343.658 17.6022H345.492V18.7642H350.63V17.6022H352.464V22.8382H343.658V17.6022ZM345.492 20.2062V21.3402H350.63V20.2062H345.492Z" fill="#111111"/>
<path d="M340.668 11.0728L337.387 23.2631H335.562L338.844 11.0728H340.668Z" fill="#111111"/>
<path d="M332.534 10.0142H334.298V17.9802H332.534V10.0142ZM330.056 10.2382H331.792V17.9522H330.056V10.2382ZM328.152 16.3422H330.756V17.5602H328.152V16.3422ZM325.534 15.4322H327.312V17.9102H325.534V15.4322ZM323.168 16.1882L323 14.8022C323.42 14.8022 323.896 14.8022 324.428 14.8022C324.969 14.7928 325.534 14.7788 326.122 14.7602C326.71 14.7322 327.293 14.6948 327.872 14.6482C328.46 14.6015 329.015 14.5362 329.538 14.4522L329.664 15.6842C328.955 15.8428 328.203 15.9595 327.41 16.0342C326.626 16.0995 325.861 16.1415 325.114 16.1602C324.377 16.1788 323.728 16.1882 323.168 16.1882ZM325.072 18.4002H326.92V19.2542H332.464V18.4002H334.298V22.8382H325.072V18.4002ZM326.92 20.6262V21.3962H332.464V20.6262H326.92ZM326.36 10.4342C327.209 10.4342 327.895 10.6115 328.418 10.9662C328.941 11.3208 329.202 11.7922 329.202 12.3802C329.202 12.9682 328.941 13.4395 328.418 13.7942C327.895 14.1488 327.209 14.3262 326.36 14.3262C325.52 14.3262 324.839 14.1488 324.316 13.7942C323.793 13.4395 323.532 12.9682 323.532 12.3802C323.532 11.7922 323.793 11.3208 324.316 10.9662C324.839 10.6115 325.52 10.4342 326.36 10.4342ZM326.36 11.7082C326.005 11.7082 325.721 11.7642 325.506 11.8762C325.291 11.9882 325.184 12.1562 325.184 12.3802C325.184 12.6042 325.291 12.7722 325.506 12.8842C325.721 12.9962 326.005 13.0522 326.36 13.0522C326.715 13.0522 326.999 12.9962 327.214 12.8842C327.429 12.7722 327.536 12.6042 327.536 12.3802C327.536 12.1562 327.429 11.9882 327.214 11.8762C326.999 11.7642 326.715 11.7082 326.36 11.7082Z" fill="#111111"/>
<circle cx="60.5" cy="212.5" r="17.5" fill="#111111"/>
<g clip-path="url(#clip3_2931_3205)">
<mask id="mask0_2931_3205" style="mask-type:luminance" maskUnits="userSpaceOnUse" x="49" y="206" width="22" height="13">
<path d="M49 206H71V218.764H49V206Z" fill="white"/>
</mask>
<g mask="url(#mask0_2931_3205)">
<path fill-rule="evenodd" clip-rule="evenodd" d="M60 206C57.0667 206 55.2333 207.418 54.5 210.255C55.6 208.836 56.8833 208.305 58.35 208.659C59.1868 208.861 59.7849 209.449 60.4469 210.098C61.5253 211.157 62.7736 212.382 65.5 212.382C68.4333 212.382 70.2667 210.964 71 208.127C69.9 209.545 68.6167 210.077 67.15 209.723C66.3132 209.521 65.7151 208.933 65.0531 208.284C63.9747 207.225 62.7264 206 60 206ZM54.5 212.382C51.5667 212.382 49.7333 213.8 49 216.636C50.1 215.218 51.3833 214.686 52.85 215.041C53.6868 215.243 54.2849 215.83 54.9469 216.48C56.0253 217.538 57.2736 218.764 60 218.764C62.9333 218.764 64.7667 217.345 65.5 214.509C64.4 215.927 63.1167 216.459 61.65 216.105C60.8132 215.902 60.2151 215.315 59.5531 214.665C58.4747 213.607 57.2264 212.382 54.5 212.382Z" fill="#38BDF8"/>
</g>
</g>
<circle cx="33.5" cy="212.5" r="17.5" fill="#111111"/>
<g clip-path="url(#clip4_2931_3205)">
<path d="M33.5002 214.282C34.6324 214.282 35.5502 213.364 35.5502 212.232C35.5502 211.1 34.6324 210.182 33.5002 210.182C32.368 210.182 31.4502 211.1 31.4502 212.232C31.4502 213.364 32.368 214.282 33.5002 214.282Z" fill="#61DAFB"/>
<path d="M33.5 216.432C39.5751 216.432 44.5 214.551 44.5 212.232C44.5 209.912 39.5751 208.032 33.5 208.032C27.4249 208.032 22.5 209.912 22.5 212.232C22.5 214.551 27.4249 216.432 33.5 216.432Z" stroke="#61DAFB"/>
<path d="M29.8631 214.332C32.9006 219.593 36.9916 222.918 39.0004 221.758C41.0092 220.598 40.1753 215.393 37.1377 210.132C34.1001 204.871 30.0092 201.546 28.0004 202.705C25.9916 203.865 26.8255 209.071 29.8631 214.332Z" stroke="#61DAFB"/>
<path d="M29.8631 210.132C26.8255 215.393 25.9916 220.598 28.0004 221.758C30.0092 222.918 34.1001 219.593 37.1377 214.332C40.1753 209.07 41.0092 203.865 39.0004 202.705C36.9916 201.546 32.9006 204.87 29.8631 210.132Z" stroke="#61DAFB"/>
</g>
<circle cx="141.5" cy="212.5" r="17.5" fill="#111111"/>
<g clip-path="url(#clip5_2931_3205)">
<path d="M141.5 200.961L152.5 220.014H130.5L141.5 200.961Z" fill="white"/>
</g>
<circle cx="87.5" cy="212.5" r="17.5" fill="#111111"/>
<g clip-path="url(#clip6_2931_3205)">
<path d="M95.9997 219.497C96.0071 220.87 94.9038 221.989 93.5365 221.996C93.4348 221.997 93.3324 221.991 93.2315 221.979C91.9626 221.79 91.0331 220.682 91.0642 219.395V204.601C91.0339 203.312 91.9659 202.204 93.2356 202.017C94.5939 201.858 95.8243 202.834 95.9833 204.197C95.9948 204.297 96.0005 204.398 95.9997 204.499V219.497Z" fill="#F9AB00"/>
<path d="M80.4681 217.045C81.8313 217.045 82.9363 218.154 82.9363 219.523C82.9363 220.891 81.8313 222 80.4681 222C79.105 222 78 220.891 78 219.523C78 218.154 79.105 217.045 80.4681 217.045ZM86.9619 209.538C85.5921 209.614 84.5298 210.766 84.5618 212.143V218.796C84.5618 220.602 85.3536 221.698 86.5135 221.932C87.8521 222.204 89.1562 221.336 89.4276 219.992C89.4612 219.828 89.4776 219.661 89.4768 219.493V212.028C89.4792 210.654 88.3726 209.54 87.0045 209.537C86.9906 209.537 86.9758 209.537 86.9619 209.538Z" fill="#E37400"/>
</g>
<circle cx="114.5" cy="212.5" r="17.5" fill="#111111"/>
<path d="M106.713 218.988L106.851 218.795L113.367 206.434L113.381 206.303L110.509 200.908C110.456 200.809 110.374 200.73 110.274 200.68C110.173 200.631 110.06 200.614 109.95 200.633C109.84 200.652 109.738 200.704 109.659 200.784C109.581 200.863 109.529 200.966 109.512 201.076L106.713 218.988Z" fill="#FFC24A"/>
<path d="M106.794 218.841L106.898 218.638L113.347 206.405L110.482 200.989C110.435 200.895 110.358 200.818 110.264 200.771C110.17 200.724 110.063 200.709 109.959 200.728C109.855 200.747 109.76 200.799 109.689 200.876C109.617 200.953 109.572 201.052 109.561 201.156L106.794 218.841Z" fill="#FFA712"/>
<path d="M115.474 210.383L117.613 208.189L115.473 204.11C115.426 204.022 115.356 203.949 115.271 203.898C115.185 203.846 115.088 203.819 114.988 203.819C114.888 203.819 114.791 203.846 114.705 203.898C114.62 203.949 114.55 204.022 114.503 204.11L113.359 206.289V206.475L115.474 210.383Z" fill="#F4BD62"/>
<path d="M115.436 210.294L117.516 208.165L115.436 204.2C115.402 204.114 115.344 204.04 115.269 203.986C115.194 203.933 115.105 203.902 115.013 203.898C114.92 203.894 114.829 203.917 114.749 203.964C114.67 204.01 114.605 204.079 114.564 204.162L113.415 206.379L113.381 206.492L115.436 210.294Z" fill="#FFA50E"/>
<path d="M106.714 218.988L106.776 218.925L107.003 218.833L115.339 210.528L115.445 210.24L113.366 206.277L106.714 218.988Z" fill="#F6820C"/>
<path d="M115.741 223.177L123.288 218.969L121.132 205.7C121.116 205.606 121.075 205.519 121.013 205.447C120.951 205.375 120.871 205.322 120.781 205.293C120.69 205.264 120.594 205.26 120.502 205.282C120.409 205.305 120.325 205.352 120.258 205.419L106.713 218.988L114.215 223.176C114.448 223.306 114.711 223.374 114.978 223.374C115.245 223.374 115.507 223.306 115.741 223.176" fill="#FDE068"/>
<path d="M123.219 218.934L121.08 205.765C121.076 205.675 121.046 205.589 120.993 205.517C120.94 205.445 120.867 205.39 120.783 205.359C120.699 205.328 120.608 205.323 120.521 205.344C120.434 205.366 120.355 205.412 120.294 205.478L106.794 218.962L114.213 223.106C114.444 223.235 114.705 223.303 114.97 223.303C115.235 223.303 115.495 223.235 115.727 223.106L123.219 218.934Z" fill="#FCCA3F"/>
<path d="M115.741 223.05C115.508 223.18 115.246 223.249 114.978 223.249C114.711 223.249 114.449 223.18 114.216 223.05L106.775 218.924L106.713 218.988L114.215 223.176C114.448 223.306 114.711 223.374 114.978 223.374C115.245 223.374 115.507 223.306 115.741 223.176L123.288 218.969L123.269 218.855L115.741 223.05Z" fill="#EEAB37"/>
<defs>
<radialGradient id="paint0_radial_2931_3205" cx="0" cy="0" r="1" gradientUnits="userSpaceOnUse" gradientTransform="translate(38.25 145.232) rotate(-90) scale(15.8572 14.7484)">
<stop stop-color="#FFDD55"/>
<stop offset="0.1" stop-color="#FFDD55"/>
<stop offset="0.5" stop-color="#FF543E"/>
<stop offset="1" stop-color="#C837AB"/>
</radialGradient>
<radialGradient id="paint1_radial_2931_3205" cx="0" cy="0" r="1" gradientUnits="userSpaceOnUse" gradientTransform="translate(31.3199 129.153) rotate(78.681) scale(7.08825 29.218)">
<stop stop-color="#3771C8"/>
<stop offset="0.128" stop-color="#3771C8"/>
<stop offset="1" stop-color="#6600FF" stop-opacity="0"/>
</radialGradient>
<clipPath id="clip0_2931_3205">
<rect x="34" y="92" width="16" height="16" rx="4" fill="white"/>
</clipPath>
<clipPath id="clip1_2931_3205">
<rect width="16" height="16" fill="white" transform="translate(34 128)"/>
</clipPath>
<clipPath id="clip2_2931_3205">
<rect x="34" y="166.603" width="16" height="16" rx="4" fill="white"/>
</clipPath>
<clipPath id="clip3_2931_3205">
<rect width="22" height="13" fill="white" transform="translate(49 206)"/>
</clipPath>
<clipPath id="clip4_2931_3205">
<rect width="23" height="20.4635" fill="white" transform="translate(22 202)"/>
</clipPath>
<clipPath id="clip5_2931_3205">
<rect width="22" height="22" fill="white" transform="translate(130.5 199.5)"/>
</clipPath>
<clipPath id="clip6_2931_3205">
<rect width="18" height="20" fill="white" transform="translate(78 202)"/>
</clipPath>
</defs>
</svg>
