<svg width="410" height="244" viewBox="0 0 410 244" fill="none" xmlns="http://www.w3.org/2000/svg">
<path d="M0 20C0 8.95431 8.95431 0 20 0H390C401.046 0 410 8.95431 410 20V224C410 235.046 401.046 244 390 244H20C8.95431 244 0 235.046 0 224V20Z" fill="white"/>
<path d="M390 242V244H20V242H390ZM408 224V20C408 10.0589 399.941 2 390 2H20C10.0589 2 2 10.0589 2 20V224C2 233.941 10.0589 242 20 242V244L19.4834 243.993C8.84814 243.724 0.276492 235.152 0.00683594 224.517L0 224V20C2.79059e-06 9.12703 8.67646 0.280844 19.4834 0.00683594L20 0H390L390.517 0.00683594C401.324 0.280847 410 9.12703 410 20V224L409.993 224.517C409.724 235.152 401.152 243.724 390.517 243.993L390 244V242C399.941 242 408 233.941 408 224Z" fill="#111111"/>
<path d="M266 157.844H392V188.844H266V157.844Z" fill="white"/>
<path d="M266 63H392V95H266V63Z" fill="white"/>
<path d="M375.983 220.66V222H34.0171V220.66H375.983ZM390.398 208.6V34.4C390.398 27.7394 383.944 22.34 375.983 22.34H34.0171C26.0557 22.34 19.6017 27.7394 19.6017 34.4V208.6C19.6017 215.261 26.0557 220.66 34.0171 220.66V222L33.6034 221.995C25.0861 221.815 18.2214 216.072 18.0055 208.946L18 208.6V34.4C18 27.1151 24.9486 21.1882 33.6034 21.0046L34.0171 21H375.983L376.397 21.0046C385.051 21.1882 392 27.1151 392 34.4V208.6L391.995 208.946C391.779 216.072 384.914 221.815 376.397 221.995L375.983 222V220.66C383.944 220.66 390.398 215.261 390.398 208.6Z" fill="#111111"/>
<path d="M34.0171 220.66H375.983C383.944 220.66 390.398 215.261 390.398 208.6V34.4C390.398 27.7394 383.944 22.34 375.983 22.34H34.0171C26.0557 22.34 19.6017 27.7394 19.6017 34.4V208.6C19.6017 215.261 26.0557 220.66 34.0171 220.66Z" fill="white"/>
<path d="M60 62.2524V221.252H59V62.2524H60Z" fill="#111111"/>
<path d="M18 35C18 27.268 24.268 21 32 21H60V222H32C24.268 222 18 215.732 18 208V35Z" fill="#2C2D35"/>
<path d="M18 208V35C18 27.3888 24.0737 21.1965 31.6387 21.0049L32 21H60V222H32V220.5H58.5V22.5H32C25.0964 22.5 19.5 28.0964 19.5 35V208C19.5 214.904 25.0964 220.5 32 220.5V222L31.6387 221.995C24.1938 221.807 18.1935 215.806 18.0049 208.361L18 208Z" fill="#111111"/>
<path d="M46.2163 42.0086C46.2163 46.4316 42.81 50.0171 38.6081 50.0171C34.4063 50.0171 31 46.4316 31 42.0086C31 37.5856 34.4063 34 38.6081 34C42.81 34 46.2163 37.5856 46.2163 42.0086Z" fill="#FF554D"/>
<path d="M44.6146 42.0086C44.6146 38.3917 41.849 35.6017 38.6081 35.6017C35.3673 35.6017 32.6017 38.3917 32.6017 42.0086C32.6017 45.6254 35.3673 48.4154 38.6081 48.4154V50.0171C34.4063 50.0171 31 46.4316 31 42.0086C31 37.5856 34.4063 34 38.6081 34C42.81 34 46.2163 37.5856 46.2163 42.0086C46.2163 46.4316 42.81 50.0171 38.6081 50.0171V48.4154C41.849 48.4154 44.6146 45.6254 44.6146 42.0086Z" fill="#111111"/>
<path d="M46 65.5168C46 69.659 42.6421 73.0168 38.5 73.0168C34.3579 73.0168 31 69.659 31 65.5168C31 61.3747 34.3579 58.0168 38.5 58.0168C42.6421 58.0168 46 61.3747 46 65.5168Z" fill="#FEB42A"/>
<path d="M44.5 65.5168C44.5 62.2031 41.8137 59.5168 38.5 59.5168C35.1863 59.5168 32.5 62.2031 32.5 65.5168C32.5 68.8306 35.1863 71.5168 38.5 71.5168V73.0168C34.3579 73.0168 31 69.659 31 65.5168C31 61.3747 34.3579 58.0168 38.5 58.0168C42.6421 58.0168 46 61.3747 46 65.5168C46 69.659 42.6421 73.0168 38.5 73.0168V71.5168C41.8137 71.5168 44.5 68.8306 44.5 65.5168Z" fill="#111111"/>
<path d="M46.2163 89.0257C46.2163 93.4487 42.81 97.0342 38.6081 97.0342C34.4063 97.0342 31 93.4487 31 89.0257C31 84.6026 34.4063 81.0171 38.6081 81.0171C42.81 81.0171 46.2163 84.6026 46.2163 89.0257Z" fill="#25C138"/>
<path d="M44.6146 89.0257C44.6146 85.4088 41.849 82.6188 38.6081 82.6188C35.3673 82.6188 32.6017 85.4088 32.6017 89.0257C32.6017 92.6425 35.3673 95.4325 38.6081 95.4325V97.0342C34.4063 97.0342 31 93.4487 31 89.0257C31 84.6026 34.4063 81.0171 38.6081 81.0171C42.81 81.0171 46.2163 84.6026 46.2163 89.0257C46.2163 93.4487 42.81 97.0342 38.6081 97.0342V95.4325C41.849 95.4325 44.6146 92.6425 44.6146 89.0257Z" fill="#111111"/>
<path d="M90 68.6522C90 62.7691 94.7201 58 100.543 58H215.457C221.28 58 226 62.7691 226 68.6522V145.348C226 151.231 221.28 156 215.457 156H100.543C94.7201 156 90 151.231 90 145.348V68.6522Z" fill="white"/>
<path d="M215.457 154.402V156H100.543V154.402H215.457ZM224.419 145.348V68.6522C224.419 63.6516 220.407 59.5978 215.457 59.5978H100.543C95.5935 59.5978 91.5814 63.6516 91.5814 68.6522V145.348C91.5814 150.348 95.5935 154.402 100.543 154.402V156L100 155.986C94.6094 155.71 90.2867 151.343 90.0134 145.896L90 145.348V68.6522C90 62.953 94.4297 58.2988 100 58.0135L100.543 58H215.457L216 58.0135C221.57 58.2988 226 62.953 226 68.6522V145.348L225.987 145.896C225.713 151.343 221.391 155.71 216 155.986L215.457 156V154.402C220.407 154.402 224.419 150.348 224.419 145.348Z" fill="#111111"/>
<path d="M236 103.457C236 98.7864 239.786 95 244.457 95H264.543C269.214 95 273 98.7864 273 103.457V123.543C273 128.214 269.214 132 264.543 132H244.457C239.786 132 236 128.214 236 123.543V103.457Z" fill="#F2F2F2"/>
<path d="M264.543 130.414V132H244.457V130.414H264.543ZM271.414 123.543V103.457C271.414 99.6622 268.338 96.5857 264.543 96.5857H244.457C240.662 96.5857 237.586 99.6622 237.586 103.457V123.543C237.586 127.338 240.662 130.414 244.457 130.414V132L244.021 131.989C239.698 131.769 236.231 128.302 236.011 123.979L236 123.543V103.457C236 98.9325 239.553 95.2381 244.021 95.0114L244.457 95H264.543L264.979 95.0114C269.447 95.2381 273 98.9325 273 103.457V123.543L272.989 123.979C272.769 128.302 269.302 131.769 264.979 131.989L264.543 132V130.414C268.338 130.414 271.414 127.338 271.414 123.543Z" fill="#111111"/>
<path d="M277 103.457C277 98.7864 280.786 95 285.457 95H305.543C310.214 95 314 98.7864 314 103.457V123.543C314 128.214 310.214 132 305.543 132H285.457C280.786 132 277 128.214 277 123.543V103.457Z" fill="#A6A6A6"/>
<path d="M305.543 130.414V132H285.457V130.414H305.543ZM312.414 123.543V103.457C312.414 99.6622 309.338 96.5857 305.543 96.5857H285.457C281.662 96.5857 278.586 99.6622 278.586 103.457V123.543C278.586 127.338 281.662 130.414 285.457 130.414V132L285.021 131.989C280.698 131.769 277.231 128.302 277.011 123.979L277 123.543V103.457C277 98.9325 280.553 95.2381 285.021 95.0114L285.457 95H305.543L305.979 95.0114C310.447 95.2381 314 98.9325 314 103.457V123.543L313.989 123.979C313.769 128.302 310.302 131.769 305.979 131.989L305.543 132V130.414C309.338 130.414 312.414 127.338 312.414 123.543Z" fill="#111111"/>
<path d="M318 103.457C318 98.7864 321.786 95 326.457 95H346.543C351.214 95 355 98.7864 355 103.457V123.543C355 128.214 351.214 132 346.543 132H326.457C321.786 132 318 128.214 318 123.543V103.457Z" fill="#595959"/>
<path d="M346.543 130.414V132H326.457V130.414H346.543ZM353.414 123.543V103.457C353.414 99.6622 350.338 96.5857 346.543 96.5857H326.457C322.662 96.5857 319.586 99.6622 319.586 103.457V123.543C319.586 127.338 322.662 130.414 326.457 130.414V132L326.021 131.989C321.698 131.769 318.231 128.302 318.011 123.979L318 123.543V103.457C318 98.9325 321.553 95.2381 326.021 95.0114L326.457 95H346.543L346.979 95.0114C351.447 95.2381 355 98.9325 355 103.457V123.543L354.989 123.979C354.769 128.302 351.302 131.769 346.979 131.989L346.543 132V130.414C350.338 130.414 353.414 127.338 353.414 123.543Z" fill="#111111"/>
<path d="M160.231 141.201C160.231 137.486 163.243 134.474 166.958 134.474H202.576C206.291 134.474 209.303 137.486 209.303 141.201V141.201C209.303 144.916 206.291 147.928 202.576 147.928H166.958C163.243 147.928 160.231 144.916 160.231 141.201V141.201Z" fill="#FFCE2E"/>
<path d="M202.576 146.344V147.928H166.958V146.344H202.576ZM207.719 141.201C207.718 138.36 205.416 136.058 202.576 136.058H166.958C164.118 136.058 161.815 138.36 161.815 141.201C161.815 144.041 164.118 146.344 166.958 146.344V147.928L166.613 147.919C163.173 147.745 160.414 144.987 160.24 141.547L160.231 141.201C160.232 137.602 163.058 134.662 166.613 134.482L166.958 134.474H202.576L202.922 134.482C206.476 134.663 209.302 137.602 209.302 141.201L209.294 141.547C209.12 144.987 206.362 147.744 202.922 147.919L202.576 147.928V146.344C205.416 146.344 207.719 144.041 207.719 141.201Z" fill="#111111"/>
<path d="M170.943 141.201C170.943 140.327 171.652 139.618 172.526 139.618H197.006C197.88 139.618 198.589 140.327 198.589 141.201V141.201C198.589 142.075 197.88 142.784 197.006 142.784H172.526C171.652 142.784 170.943 142.075 170.943 141.201V141.201Z" fill="white" fill-opacity="0.5"/>
<path d="M106.893 141.201C106.893 137.486 109.904 134.474 113.619 134.474H149.237C152.952 134.474 155.964 137.486 155.964 141.201V141.201C155.964 144.916 152.952 147.928 149.237 147.928H113.619C109.904 147.928 106.893 144.916 106.893 141.201V141.201Z" fill="#DDDDDD"/>
<path d="M149.237 146.344V147.928H113.619V146.344H149.237ZM154.38 141.201C154.38 138.36 152.077 136.058 149.237 136.058H113.619C110.779 136.058 108.476 138.36 108.476 141.201C108.476 144.041 110.779 146.344 113.619 146.344V147.928L113.274 147.919C109.834 147.745 107.075 144.987 106.901 141.547L106.893 141.201C106.893 137.602 109.719 134.662 113.274 134.482L113.619 134.474H149.237L149.583 134.482C153.137 134.663 155.963 137.602 155.964 141.201L155.955 141.547C155.781 144.987 153.023 147.744 149.583 147.919L149.237 147.928V146.344C152.078 146.344 154.38 144.041 154.38 141.201Z" fill="#111111"/>
<path d="M117.605 141.201C117.605 140.327 118.314 139.618 119.188 139.618H143.668C144.543 139.618 145.251 140.327 145.251 141.201V141.201C145.251 142.075 144.543 142.784 143.668 142.784H119.188C118.314 142.784 117.605 142.075 117.605 141.201V141.201Z" fill="white" fill-opacity="0.5"/>
<path d="M116.395 80.6295C116.395 78.8802 117.813 77.4622 119.562 77.4622H196.766C198.515 77.4622 199.933 78.8802 199.933 80.6295V85.7764C199.933 87.5257 198.515 88.9437 196.766 88.9437H119.562C117.813 88.9437 116.395 87.5257 116.395 85.7764V80.6295Z" fill="#ABABAB"/>
<path d="M196.766 87.3601V88.9437H119.562V87.3601H196.766ZM198.349 85.7764V80.6295C198.349 79.7549 197.64 79.0458 196.766 79.0458H119.562C118.687 79.0458 117.978 79.7549 117.978 80.6295V85.7764C117.978 86.651 118.687 87.3601 119.562 87.3601V88.9437L119.399 88.9399C117.779 88.8577 116.481 87.559 116.398 85.9396L116.395 85.7764V80.6295C116.395 78.9349 117.725 77.5509 119.399 77.466L119.562 77.4622H196.766L196.929 77.466C198.602 77.5509 199.933 78.9349 199.933 80.6295V85.7764L199.929 85.9396C199.847 87.559 198.548 88.8577 196.929 88.9399L196.766 88.9437V87.3601C197.64 87.3601 198.349 86.651 198.349 85.7764Z" fill="#111111"/>
<path d="M128.008 116.79C128.008 115.041 129.426 113.623 131.175 113.623H185.152C186.901 113.623 188.319 115.041 188.319 116.79V119.165C188.319 120.915 186.901 122.333 185.152 122.333H131.175C129.426 122.333 128.008 120.915 128.008 119.165V116.79Z" fill="#F2F2F2"/>
<path d="M185.152 120.749V122.333H131.175V120.749H185.152ZM186.735 119.165V116.79C186.735 115.915 186.026 115.206 185.152 115.206H131.175C130.301 115.206 129.591 115.915 129.591 116.79V119.165C129.591 120.04 130.301 120.749 131.175 120.749V122.333L131.012 122.329C129.393 122.247 128.094 120.948 128.012 119.329L128.008 119.165V116.79C128.008 115.095 129.339 113.711 131.012 113.626L131.175 113.623H185.152L185.315 113.626C186.988 113.711 188.319 115.095 188.319 116.79V119.165L188.315 119.329C188.233 120.948 186.934 122.247 185.315 122.329L185.152 122.333V120.749C186.026 120.749 186.735 120.04 186.735 119.165Z" fill="#111111"/>
<path d="M135.398 103.857C135.398 102.107 136.816 100.689 138.566 100.689H178.685C180.435 100.689 181.853 102.107 181.853 103.857V106.232C181.853 107.981 180.435 109.399 178.685 109.399H138.566C136.816 109.399 135.398 107.981 135.398 106.232V103.857Z" fill="#F2F2F2"/>
<path d="M178.685 107.816V109.399H138.566V107.816H178.685ZM180.269 106.232V103.857C180.269 102.982 179.56 102.273 178.685 102.273H138.566C137.691 102.273 136.982 102.982 136.982 103.857V106.232C136.982 107.107 137.691 107.816 138.566 107.816V109.399L138.403 109.396C136.783 109.313 135.484 108.015 135.402 106.395L135.398 106.232V103.857C135.398 102.162 136.729 100.778 138.403 100.693L138.566 100.689H178.685L178.848 100.693C180.522 100.778 181.853 102.162 181.853 103.857V106.232L181.849 106.395C181.767 108.015 180.468 109.313 178.848 109.396L178.685 109.399V107.816C179.56 107.816 180.269 107.107 180.269 106.232Z" fill="#111111"/>
<path d="M211.076 65L214.5 68.8045L217.924 65L219 66.1955L215.576 70L219 73.8045L217.924 75L214.5 71.1955L211.076 75L210 73.8045L213.424 70L210 66.1955L211.076 65Z" fill="#111111"/>
<path d="M235.697 149.255C235.697 144.59 239.479 140.809 244.143 140.809H346.554C351.219 140.809 355 144.59 355 149.255V184.096C355 188.76 351.219 192.542 346.554 192.542H244.143C239.479 192.542 235.697 188.76 235.697 184.096V149.255Z" fill="white"/>
<path d="M346.554 190.958V192.542H244.143V190.958H346.554ZM353.416 184.096V149.255C353.416 145.465 350.344 142.393 346.554 142.393H244.143C240.353 142.393 237.281 145.465 237.281 149.255V184.096C237.281 187.886 240.353 190.958 244.143 190.958V192.542L243.708 192.531C239.39 192.311 235.928 188.849 235.709 184.531L235.697 184.096V149.255C235.697 144.736 239.246 141.047 243.708 140.82L244.143 140.809H346.554L346.989 140.82C351.451 141.047 355 144.736 355 149.255V184.096L354.989 184.531C354.77 188.849 351.307 192.311 346.989 192.531L346.554 192.542V190.958C350.344 190.958 353.416 187.886 353.416 184.096Z" fill="#111111"/>
<path d="M243.088 156.645C243.088 151.981 246.869 148.199 251.534 148.199H271.594C276.259 148.199 280.04 151.981 280.04 156.645V176.705C280.04 181.37 276.259 185.151 271.594 185.151H251.534C246.869 185.151 243.088 181.37 243.088 176.705V156.645Z" fill="#F2F2F2"/>
<path d="M271.594 183.568V185.151H251.534V183.568H271.594ZM278.456 176.705V156.645C278.456 152.855 275.384 149.783 271.594 149.783H251.534C247.744 149.783 244.672 152.855 244.672 156.645V176.705C244.672 180.495 247.744 183.568 251.534 183.568V185.151L251.099 185.14C246.781 184.921 243.318 181.459 243.099 177.14L243.088 176.705V156.645C243.088 152.127 246.637 148.437 251.099 148.211L251.534 148.199H271.594L272.029 148.211C276.491 148.437 280.04 152.127 280.04 156.645V176.705L280.029 177.14C279.81 181.459 276.347 184.921 272.029 185.14L271.594 185.151V183.568C275.384 183.568 278.456 180.495 278.456 176.705Z" fill="#111111"/>
<path d="M287.431 156.646C287.431 154.896 288.849 153.478 290.598 153.478H344.971C346.72 153.478 348.138 154.896 348.138 156.646V161.793C348.138 163.542 346.72 164.96 344.971 164.96H290.598C288.849 164.96 287.431 163.542 287.431 161.793V156.646Z" fill="#ABABAB"/>
<path d="M344.971 163.376V164.96H290.598V163.376H344.971ZM346.554 161.793V156.646C346.554 155.771 345.845 155.062 344.971 155.062H290.598C289.723 155.062 289.014 155.771 289.014 156.646V161.793C289.014 162.667 289.723 163.376 290.598 163.376V164.96L290.435 164.956C288.815 164.874 287.517 163.575 287.435 161.956L287.431 161.793V156.646C287.431 154.951 288.761 153.567 290.435 153.482L290.598 153.478H344.971L345.134 153.482C346.807 153.567 348.138 154.951 348.138 156.646V161.793L348.134 161.956C348.052 163.575 346.753 164.874 345.134 164.956L344.971 164.96V163.376C345.845 163.376 346.554 162.667 346.554 161.793Z" fill="#111111"/>
<path d="M287.431 172.482C287.431 170.733 288.849 169.315 290.598 169.315H326.494C328.244 169.315 329.662 170.733 329.662 172.482V174.858C329.662 176.607 328.244 178.025 326.494 178.025H290.598C288.849 178.025 287.431 176.607 287.431 174.858V172.482Z" fill="#F2F2F2"/>
<path d="M326.494 176.441V178.025H290.598V176.441H326.494ZM328.078 174.858V172.482C328.078 171.608 327.369 170.899 326.494 170.899H290.598C289.723 170.899 289.014 171.608 289.014 172.482V174.858C289.014 175.732 289.723 176.441 290.598 176.441V178.025L290.435 178.021C288.815 177.939 287.517 176.64 287.435 175.021L287.431 174.858V172.482C287.431 170.788 288.761 169.404 290.435 169.319L290.598 169.315H326.494L326.658 169.319C328.331 169.404 329.662 170.788 329.662 172.482V174.858L329.658 175.021C329.576 176.64 328.277 177.939 326.658 178.021L326.494 178.025V176.441C327.369 176.441 328.078 175.732 328.078 174.858Z" fill="#111111"/>
<path d="M235.697 66.9045C235.697 62.2398 239.479 58.4583 244.143 58.4583H346.554C351.219 58.4583 355 62.2398 355 66.9045V78.518C355 83.1827 351.219 86.9642 346.554 86.9642H244.143C239.479 86.9642 235.697 83.1827 235.697 78.518V66.9045Z" fill="white"/>
<path d="M346.554 85.3806V86.9642H244.143V85.3806H346.554ZM353.416 78.518V66.9045C353.416 63.1144 350.344 60.0419 346.554 60.0419H244.143C240.353 60.0419 237.281 63.1144 237.281 66.9045V78.518C237.281 82.3081 240.353 85.3806 244.143 85.3806V86.9642L243.708 86.9529C239.39 86.7337 235.928 83.2715 235.709 78.9531L235.697 78.518V66.9045C235.697 62.3857 239.246 58.696 243.708 58.4696L244.143 58.4583H346.554L346.989 58.4696C351.451 58.696 355 62.3857 355 66.9045V78.518L354.989 78.9531C354.77 83.2715 351.307 86.7337 346.989 86.9529L346.554 86.9642V85.3806C350.344 85.3806 353.416 82.3081 353.416 78.518Z" fill="#111111"/>
<path d="M258.097 72.1923C258.097 76.862 254.501 80.6476 250.065 80.6476C245.628 80.6476 242.032 76.862 242.032 72.1923C242.032 67.5226 245.628 63.7371 250.065 63.7371C254.501 63.7371 258.097 67.5226 258.097 72.1923Z" fill="#0BAB38"/>
<path d="M256.406 72.1923C256.406 68.3738 253.486 65.4281 250.065 65.4281C246.643 65.4281 243.723 68.3738 243.723 72.1923C243.723 76.0109 246.643 78.9565 250.065 78.9565V80.6476C245.628 80.6476 242.032 76.862 242.032 72.1923C242.032 67.5226 245.628 63.7371 250.065 63.7371C254.501 63.7371 258.097 67.5226 258.097 72.1923C258.097 76.862 254.501 80.6476 250.065 80.6476V78.9565C253.486 78.9565 256.406 76.0109 256.406 72.1923Z" fill="#111111"/>
<path d="M248.894 75.1464L246.709 72.961L247.705 71.965L248.894 73.158L252.371 69.6775L253.367 70.6734L248.894 75.1464Z" fill="#111111"/>
<path d="M320.321 74.0964H317.736V67.1029C317.736 66.2794 318.357 65.8486 319.028 65.8486C319.687 65.8486 320.321 66.2921 320.321 67.1029V74.0964ZM317.673 75.9714C317.673 75.1859 318.18 74.6918 319.028 74.6918C319.877 74.6918 320.384 75.1986 320.384 75.9714C320.384 76.7443 319.877 77.251 319.028 77.251C318.18 77.251 317.673 76.7569 317.673 75.9714Z" fill="black"/>
<path d="M312.828 71.1189C312.828 71.3977 313.069 71.5497 313.588 71.7271L314.589 72.0691C316.059 72.5759 316.679 73.3994 316.679 74.6157C316.679 76.6301 315.108 77.3649 313.259 77.3649C312.397 77.3649 311.32 77.2129 310.649 76.5794C310.231 76.1867 310.015 75.5785 310.37 75.0464C310.547 74.7804 310.852 74.6537 311.181 74.6537C311.561 74.6537 311.814 74.8057 312.004 74.9577C312.321 75.1985 312.841 75.3505 313.335 75.3505C313.829 75.3505 314.12 75.1604 314.12 74.8437C314.12 74.527 313.88 74.3496 312.942 74.0202L312.068 73.7161C310.712 73.2474 310.205 72.2972 310.205 71.233C310.205 69.6746 311.51 68.6357 313.461 68.6357C314.475 68.6357 315.197 68.8891 315.679 69.1805C316.185 69.4846 316.54 70.0167 316.363 70.5995C316.211 71.0809 315.831 71.271 315.413 71.271C315.21 71.271 314.956 71.1823 314.855 71.1063C314.462 70.7895 314.044 70.6502 313.499 70.6502C313.031 70.6502 312.828 70.8655 312.828 71.1189Z" fill="black"/>
<path d="M305.639 71.1189C305.639 71.3977 305.88 71.5497 306.4 71.7271L307.401 72.0691C308.87 72.5759 309.491 73.3994 309.491 74.6157C309.491 76.6301 307.92 77.3649 306.07 77.3649C305.209 77.3649 304.132 77.2129 303.46 76.5794C303.042 76.1867 302.827 75.5785 303.182 75.0464C303.359 74.7804 303.663 74.6537 303.992 74.6537C304.373 74.6537 304.626 74.8057 304.816 74.9577C305.133 75.1985 305.652 75.3505 306.146 75.3505C306.64 75.3505 306.932 75.1604 306.932 74.8437C306.932 74.527 306.691 74.3496 305.754 74.0202L304.879 73.7161C303.524 73.2474 303.017 72.2972 303.017 71.233C303.017 69.6746 304.322 68.6357 306.273 68.6357C307.287 68.6357 308.009 68.8891 308.49 69.1805C308.997 69.4846 309.352 70.0167 309.174 70.5995C309.022 71.0809 308.642 71.271 308.224 71.271C308.021 71.271 307.768 71.1823 307.667 71.1063C307.274 70.7895 306.856 70.6502 306.311 70.6502C305.842 70.6502 305.639 70.8655 305.639 71.1189Z" fill="black"/>
<path d="M298.853 77.3649C296.94 77.3649 294.951 76.5034 294.951 73.7668V72.1451C294.951 69.4466 296.94 68.6357 298.562 68.6357C300.323 68.6357 302.059 69.3199 302.059 72.9306C302.059 73.146 302.033 73.5008 301.995 73.7161H297.46V73.7288C297.46 74.9324 298.296 75.2238 298.904 75.2238C299.525 75.2238 299.791 75.1731 300.133 75.0591C300.323 74.9957 300.513 74.8944 300.728 74.869C301.159 74.8184 301.565 74.9704 301.729 75.3505C301.995 75.9713 301.691 76.5034 301.083 76.8581C300.678 77.0989 299.778 77.3649 298.853 77.3649ZM298.575 70.6882C298.017 70.6882 297.472 70.9669 297.46 72.0565H299.601C299.639 70.9669 299.132 70.6882 298.575 70.6882Z" fill="black"/>
<path d="M290.077 72.1325V73.8682C290.077 74.9451 290.735 75.1985 291.318 75.1985C291.736 75.1985 292.002 75.1478 292.332 74.9957C292.509 74.9071 292.712 74.7804 292.953 74.7424C293.32 74.679 293.7 74.8057 293.915 75.1604C294.27 75.7432 293.953 76.44 293.358 76.8075C292.889 77.0989 292.167 77.3649 291.318 77.3649C289.481 77.3649 287.467 76.5794 287.467 73.8555V72.1451C287.467 69.4846 289.481 68.6357 291.23 68.6357C292.129 68.6357 292.801 68.8765 293.206 69.1298C293.801 69.4973 294.118 70.1561 293.789 70.7262C293.548 71.1443 293.168 71.233 292.763 71.1823C292.535 71.1569 292.344 71.0556 292.154 70.9669C291.901 70.8529 291.711 70.8022 291.318 70.8022C290.761 70.8022 290.077 71.0556 290.077 72.1325Z" fill="black"/>
<path d="M282.591 72.1325V73.8682C282.591 74.9451 283.25 75.1985 283.833 75.1985C284.251 75.1985 284.517 75.1478 284.846 74.9957C285.024 74.9071 285.227 74.7804 285.467 74.7424C285.835 74.679 286.215 74.8057 286.43 75.1604C286.785 75.7432 286.468 76.44 285.873 76.8075C285.404 77.0989 284.682 77.3649 283.833 77.3649C281.996 77.3649 279.981 76.5794 279.981 73.8555V72.1451C279.981 69.4846 281.996 68.6357 283.744 68.6357C284.644 68.6357 285.315 68.8765 285.721 69.1298C286.316 69.4973 286.633 70.1561 286.303 70.7262C286.063 71.1443 285.683 71.233 285.277 71.1823C285.049 71.1569 284.859 71.0556 284.669 70.9669C284.416 70.8529 284.226 70.8022 283.833 70.8022C283.275 70.8022 282.591 71.0556 282.591 72.1325Z" fill="black"/>
<path d="M274.471 77.3649C272.862 77.3649 271.582 76.5667 271.582 73.8935V69.9027C271.582 69.0285 272.177 68.6357 272.887 68.6357C273.596 68.6357 274.192 69.0285 274.192 69.9027V74.0455C274.192 74.9071 274.762 75.1985 275.193 75.1985C275.611 75.1985 276.206 74.9197 276.206 74.1089V69.89C276.206 69.0285 276.789 68.6357 277.486 68.6357C278.195 68.6357 278.778 69.0285 278.778 69.89V77.1622H276.764L276.624 76.326C276.156 76.9722 275.383 77.3649 274.471 77.3649Z" fill="black"/>
<path d="M266.84 71.1189C266.84 71.3977 267.08 71.5497 267.6 71.7271L268.601 72.0691C270.07 72.5759 270.691 73.3994 270.691 74.6157C270.691 76.6301 269.12 77.3649 267.27 77.3649C266.409 77.3649 265.332 77.2129 264.661 76.5794C264.242 76.1867 264.027 75.5785 264.382 75.0464C264.559 74.7804 264.863 74.6537 265.193 74.6537C265.573 74.6537 265.826 74.8057 266.016 74.9577C266.333 75.1985 266.852 75.3505 267.346 75.3505C267.841 75.3505 268.132 75.1604 268.132 74.8437C268.132 74.527 267.891 74.3496 266.954 74.0202L266.08 73.7161C264.724 73.2474 264.217 72.2972 264.217 71.233C264.217 69.6746 265.522 68.6357 267.473 68.6357C268.487 68.6357 269.209 68.8891 269.69 69.1805C270.197 69.4846 270.552 70.0167 270.374 70.5995C270.222 71.0809 269.842 71.271 269.424 71.271C269.222 71.271 268.968 71.1823 268.867 71.1063C268.474 70.7895 268.056 70.6502 267.511 70.6502C267.042 70.6502 266.84 70.8655 266.84 71.1189Z" fill="black"/>
<path d="M90 172.482C90 167.817 93.7815 164.036 98.4462 164.036H218.277C222.942 164.036 226.723 167.817 226.723 172.482V184.096C226.723 188.76 222.942 192.542 218.277 192.542H98.4462C93.7815 192.542 90 188.76 90 184.096V172.482Z" fill="white"/>
<path d="M218.277 190.958V192.542H98.4462V190.958H218.277ZM225.139 184.096V172.482C225.139 168.692 222.067 165.62 218.277 165.62H98.4462C94.6561 165.62 91.5837 168.692 91.5837 172.482V184.096C91.5837 187.886 94.6561 190.958 98.4462 190.958V192.542L98.0111 192.531C93.6927 192.311 90.2305 188.849 90.0113 184.531L90 184.096V172.482C90 167.963 93.5486 164.274 98.0111 164.047L98.4462 164.036H218.277L218.712 164.047C223.175 164.274 226.723 167.963 226.723 172.482V184.096L226.712 184.531C226.493 188.849 223.03 192.311 218.712 192.531L218.277 192.542V190.958C222.067 190.958 225.139 187.886 225.139 184.096Z" fill="#111111"/>
<path fill-rule="evenodd" clip-rule="evenodd" d="M208.677 181.418L203.7 176.441L204.944 175.197L209.299 179.552L213.654 175.197L214.898 176.441L209.921 181.418C209.756 181.583 209.533 181.676 209.299 181.676C209.066 181.676 208.842 181.583 208.677 181.418Z" fill="#111111"/>
<path d="M125.511 184.451H122.547V176.084C122.547 175.12 123.248 174.624 124.022 174.624C124.591 174.624 125.131 174.901 125.365 175.427C125.92 174.901 126.635 174.624 127.409 174.624C128.3 174.624 129.162 174.916 129.775 175.646C130.373 175.018 131.22 174.624 132.403 174.624C134.258 174.624 135.878 175.573 135.878 178.625V184.451H132.87V178.45C132.87 177.457 132.243 177.121 131.761 177.121C131.279 177.121 130.636 177.457 130.636 178.45V184.451H127.745V178.45C127.745 177.457 127.117 177.121 126.635 177.121C126.168 177.121 125.511 177.442 125.511 178.377V184.451Z" fill="black"/>
<path d="M117.47 184.685C115.265 184.685 112.973 183.692 112.973 180.538V178.669C112.973 175.559 115.265 174.624 117.134 174.624C119.164 174.624 121.164 175.413 121.164 179.574C121.164 179.822 121.135 180.231 121.091 180.479H115.864V180.494C115.864 181.881 116.828 182.217 117.528 182.217C118.244 182.217 118.551 182.159 118.945 182.027C119.164 181.954 119.383 181.837 119.631 181.808C120.128 181.75 120.595 181.925 120.785 182.363C121.091 183.079 120.741 183.692 120.04 184.101C119.573 184.378 118.536 184.685 117.47 184.685ZM117.149 176.99C116.506 176.99 115.878 177.311 115.864 178.567H118.332C118.375 177.311 117.791 176.99 117.149 176.99Z" fill="black"/>
<path d="M107.284 181.691V177.574H106.803C105.883 177.574 105.518 176.99 105.518 176.376C105.518 175.778 105.868 175.15 106.803 175.15H107.284V173.383C107.284 172.39 108 171.937 108.73 171.937C109.46 171.937 110.176 172.39 110.176 173.383V175.15H111.037C111.972 175.15 112.322 175.778 112.322 176.376C112.322 176.99 111.957 177.574 111.037 177.574H110.176V181.633C110.176 182.071 110.395 182.173 110.643 182.188C110.862 182.202 110.993 182.129 111.285 182.129C111.767 182.129 112.176 182.451 112.278 182.932C112.41 183.531 112.161 184.057 111.753 184.32C111.417 184.539 110.847 184.685 110.351 184.685C108.409 184.685 107.284 183.896 107.284 181.691Z" fill="black"/>
<path d="M101.613 172.755C101.613 171.791 102.314 171.412 103.132 171.412C103.95 171.412 104.65 171.791 104.65 172.755C104.65 173.719 103.95 174.098 103.132 174.098C102.314 174.098 101.613 173.719 101.613 172.755ZM101.628 184.451V176.186C101.628 175.179 102.314 174.726 103.132 174.726C103.95 174.726 104.636 175.179 104.636 176.186V184.451H101.628Z" fill="black"/>
<path d="M390 1C400.493 1 409 9.50659 409 20V32H316C305.507 32 297 23.4934 297 13V1H390Z" fill="#ADE975" stroke="#111111" stroke-width="2"/>
<path d="M375.428 15.9079H376.548C377.434 15.9079 378.214 15.9032 378.886 15.8939C379.567 15.8752 380.197 15.8426 380.776 15.7959C381.364 15.7492 381.956 15.6792 382.554 15.5859L382.736 17.0419C382.12 17.1352 381.508 17.2099 380.902 17.2659C380.304 17.3126 379.656 17.3452 378.956 17.3639C378.256 17.3732 377.453 17.3779 376.548 17.3779H375.428V15.9079ZM375.428 10.9799H381.672V12.4639H377.276V16.4959H375.428V10.9799ZM376.702 13.4439H381.294V14.8859H376.702V13.4439ZM383.632 10.0979H385.494V17.9379H383.632V10.0979ZM381.112 18.1339C382.026 18.1339 382.815 18.2319 383.478 18.4279C384.14 18.6239 384.649 18.9039 385.004 19.2679C385.368 19.6319 385.55 20.0752 385.55 20.5979C385.55 21.3819 385.153 21.9886 384.36 22.4179C383.566 22.8472 382.484 23.0619 381.112 23.0619C379.74 23.0619 378.657 22.8472 377.864 22.4179C377.08 21.9886 376.688 21.3819 376.688 20.5979C376.688 19.8232 377.08 19.2212 377.864 18.7919C378.657 18.3532 379.74 18.1339 381.112 18.1339ZM381.112 19.5479C380.552 19.5479 380.08 19.5852 379.698 19.6599C379.315 19.7346 379.026 19.8512 378.83 20.0099C378.634 20.1686 378.536 20.3646 378.536 20.5979C378.536 20.8312 378.634 21.0272 378.83 21.1859C379.026 21.3352 379.315 21.4472 379.698 21.5219C380.08 21.5966 380.552 21.6339 381.112 21.6339C381.681 21.6339 382.152 21.5966 382.526 21.5219C382.908 21.4472 383.198 21.3352 383.394 21.1859C383.599 21.0272 383.702 20.8312 383.702 20.5979C383.702 20.3646 383.599 20.1686 383.394 20.0099C383.198 19.8512 382.908 19.7346 382.526 19.6599C382.152 19.5852 381.681 19.5479 381.112 19.5479Z" fill="#111111"/>
<path d="M368.457 11.9879H371.649V13.4719H368.457V11.9879ZM370.823 10.0979H372.699V16.6779H370.823V10.0979ZM364.131 17.2099H372.699V20.7099H365.993V22.3339H364.145V19.3659H370.851V18.6519H364.131V17.2099ZM364.145 21.4659H373.063V22.9219H364.145V21.4659ZM364.803 10.5039H366.315V11.4419C366.315 12.2446 366.184 13.0052 365.923 13.7239C365.671 14.4426 365.279 15.0679 364.747 15.5999C364.215 16.1226 363.534 16.5146 362.703 16.7759L361.751 15.3199C362.47 15.0959 363.053 14.7879 363.501 14.3959C363.949 13.9946 364.276 13.5372 364.481 13.0239C364.696 12.5106 364.803 11.9832 364.803 11.4419V10.5039ZM365.181 10.5039H366.679V11.4419C366.679 11.8152 366.735 12.1886 366.847 12.5619C366.968 12.9352 367.146 13.2852 367.379 13.6119C367.612 13.9386 367.911 14.2279 368.275 14.4799C368.648 14.7319 369.087 14.9372 369.591 15.0959L368.639 16.5239C367.855 16.2719 367.206 15.8939 366.693 15.3899C366.18 14.8859 365.797 14.2932 365.545 13.6119C365.302 12.9306 365.181 12.2072 365.181 11.4419V10.5039Z" fill="#111111"/>
<path d="M355.676 14.018H358.168V15.516H355.676V14.018ZM353.842 11.064H355.76C355.76 12.2867 355.574 13.374 355.2 14.326C354.827 15.278 354.211 16.1087 353.352 16.818C352.494 17.518 351.336 18.1013 349.88 18.568L349.152 17.126C350.067 16.8367 350.828 16.51 351.434 16.146C352.041 15.782 352.517 15.3807 352.862 14.942C353.217 14.494 353.469 14.0133 353.618 13.5C353.768 12.9773 353.842 12.4173 353.842 11.82V11.064ZM349.838 11.064H355.046V12.562H349.838V11.064ZM354.052 13.598V14.872L349.432 15.208L349.18 13.766L354.052 13.598ZM357.944 10.084H359.82V19.66H357.944V10.084ZM351.336 21.34H360.156V22.838H351.336V21.34ZM351.336 18.736H353.212V22.32H351.336V18.736Z" fill="#111111"/>
<path d="M333.285 11.036H340.887V12.38H333.285V11.036ZM337.079 12.688C337.732 12.688 338.297 12.7673 338.773 12.926C339.258 13.0847 339.636 13.3087 339.907 13.598C340.178 13.8873 340.313 14.228 340.313 14.62C340.313 15.0213 340.178 15.3667 339.907 15.656C339.636 15.9453 339.258 16.174 338.773 16.342C338.297 16.5007 337.732 16.58 337.079 16.58C336.435 16.58 335.87 16.5007 335.385 16.342C334.909 16.174 334.536 15.9453 334.265 15.656C334.004 15.3667 333.873 15.0213 333.873 14.62C333.873 14.228 334.004 13.8873 334.265 13.598C334.536 13.3087 334.909 13.0847 335.385 12.926C335.87 12.7673 336.435 12.688 337.079 12.688ZM337.079 13.92C336.65 13.92 336.3 13.9807 336.029 14.102C335.768 14.214 335.637 14.3867 335.637 14.62C335.637 14.8533 335.768 15.0353 336.029 15.166C336.3 15.2873 336.65 15.348 337.079 15.348C337.518 15.348 337.868 15.2873 338.129 15.166C338.4 15.0353 338.535 14.8533 338.535 14.62C338.535 14.3867 338.4 14.214 338.129 14.102C337.868 13.9807 337.518 13.92 337.079 13.92ZM336.155 10H338.031V11.722H336.155V10ZM336.155 15.88H338.031V17.686H336.155V15.88ZM341.783 10.098H343.645V18.89H341.783V10.098ZM334.685 19.38H343.645V23.062H341.783V20.822H334.685V19.38ZM333.131 18.624L332.921 17.21C333.705 17.21 334.55 17.2053 335.455 17.196C336.37 17.1867 337.303 17.1587 338.255 17.112C339.216 17.056 340.136 16.972 341.013 16.86L341.153 18.12C340.238 18.2693 339.31 18.3813 338.367 18.456C337.424 18.5307 336.505 18.5773 335.609 18.596C334.722 18.6147 333.896 18.624 333.131 18.624Z" fill="#111111"/>
<path d="M328.904 10.084H330.766V23.048H328.904V10.084ZM325.082 11.428H326.916C326.916 12.4173 326.818 13.3647 326.622 14.27C326.435 15.166 326.118 16.0107 325.67 16.804C325.231 17.5973 324.625 18.3347 323.85 19.016C323.085 19.688 322.128 20.304 320.98 20.864L320 19.394C321.251 18.7873 322.245 18.12 322.982 17.392C323.729 16.6547 324.265 15.824 324.592 14.9C324.919 13.9667 325.082 12.9213 325.082 11.764V11.428ZM320.7 11.428H325.95V12.912H320.7V11.428Z" fill="#111111"/>
<circle cx="33.5" cy="212.5" r="17.5" fill="#111111"/>
<path d="M26 220.5C26 218.291 27.7909 216.5 30 216.5H33.9999V220.5C33.9999 222.709 32.2091 224.5 30 224.5C27.7909 224.5 26 222.709 26 220.5Z" fill="#24CB71"/>
<path d="M34 200.5V208.5H38C40.2091 208.5 41.9999 206.709 41.9999 204.5C41.9999 202.291 40.2091 200.5 38 200.5H34Z" fill="#FF7237"/>
<path d="M37.9668 216.5C40.1759 216.5 41.9667 214.709 41.9667 212.5C41.9667 210.291 40.1759 208.5 37.9668 208.5C35.7576 208.5 33.9668 210.291 33.9668 212.5C33.9668 214.709 35.7576 216.5 37.9668 216.5Z" fill="#00B6FF"/>
<path d="M26 204.5C26 206.709 27.7909 208.5 30 208.5H33.9999V200.5H30C27.7909 200.5 26 202.291 26 204.5Z" fill="#FF3737"/>
<path d="M26 212.5C26 214.709 27.7909 216.5 30 216.5H33.9999V208.5H30C27.7909 208.5 26 210.291 26 212.5Z" fill="#874FFF"/>
</svg>
