<svg width="410" height="244" viewBox="0 0 410 244" fill="none" xmlns="http://www.w3.org/2000/svg">
<path d="M0 20C0 8.95431 8.95431 0 20 0H390C401.046 0 410 8.95431 410 20V224C410 235.046 401.046 244 390 244H20C8.95431 244 0 235.046 0 224V20Z" fill="white"/>
<path d="M390 242V244H20V242H390ZM408 224V20C408 10.0589 399.941 2 390 2H20C10.0589 2 2 10.0589 2 20V224C2 233.941 10.0589 242 20 242V244L19.4834 243.993C8.84814 243.724 0.276492 235.152 0.00683594 224.517L0 224V20C2.79059e-06 9.12703 8.67646 0.280844 19.4834 0.00683594L20 0H390L390.517 0.00683594C401.324 0.280847 410 9.12703 410 20V224L409.993 224.517C409.724 235.152 401.152 243.724 390.517 243.993L390 244V242C399.941 242 408 233.941 408 224Z" fill="#111111"/>
<path d="M390 1C400.493 1 409 9.50659 409 20V32H316C305.507 32 297 23.4934 297 13V1H390Z" fill="#ADE975" stroke="#111111" stroke-width="2"/>
<path d="M375.428 15.9081H376.548C377.434 15.9081 378.214 15.9035 378.886 15.8941C379.567 15.8755 380.197 15.8428 380.776 15.7961C381.364 15.7495 381.956 15.6795 382.554 15.5861L382.736 17.0421C382.12 17.1355 381.508 17.2101 380.902 17.2661C380.304 17.3128 379.656 17.3455 378.956 17.3641C378.256 17.3735 377.453 17.3781 376.548 17.3781H375.428V15.9081ZM375.428 10.9801H381.672V12.4641H377.276V16.4961H375.428V10.9801ZM376.702 13.4441H381.294V14.8861H376.702V13.4441ZM383.632 10.0981H385.494V17.9381H383.632V10.0981ZM381.112 18.1341C382.026 18.1341 382.815 18.2321 383.478 18.4281C384.14 18.6241 384.649 18.9041 385.004 19.2681C385.368 19.6321 385.55 20.0755 385.55 20.5981C385.55 21.3821 385.153 21.9888 384.36 22.4181C383.566 22.8475 382.484 23.0621 381.112 23.0621C379.74 23.0621 378.657 22.8475 377.864 22.4181C377.08 21.9888 376.688 21.3821 376.688 20.5981C376.688 19.8235 377.08 19.2215 377.864 18.7921C378.657 18.3535 379.74 18.1341 381.112 18.1341ZM381.112 19.5481C380.552 19.5481 380.08 19.5855 379.698 19.6601C379.315 19.7348 379.026 19.8515 378.83 20.0101C378.634 20.1688 378.536 20.3648 378.536 20.5981C378.536 20.8315 378.634 21.0275 378.83 21.1861C379.026 21.3355 379.315 21.4475 379.698 21.5221C380.08 21.5968 380.552 21.6341 381.112 21.6341C381.681 21.6341 382.152 21.5968 382.526 21.5221C382.908 21.4475 383.198 21.3355 383.394 21.1861C383.599 21.0275 383.702 20.8315 383.702 20.5981C383.702 20.3648 383.599 20.1688 383.394 20.0101C383.198 19.8515 382.908 19.7348 382.526 19.6601C382.152 19.5855 381.681 19.5481 381.112 19.5481Z" fill="#111111"/>
<path d="M368.457 11.9881H371.649V13.4721H368.457V11.9881ZM370.823 10.0981H372.699V16.6781H370.823V10.0981ZM364.131 17.2101H372.699V20.7101H365.993V22.3341H364.145V19.3661H370.851V18.6521H364.131V17.2101ZM364.145 21.4661H373.063V22.9221H364.145V21.4661ZM364.803 10.5041H366.315V11.4421C366.315 12.2448 366.184 13.0055 365.923 13.7241C365.671 14.4428 365.279 15.0681 364.747 15.6001C364.215 16.1228 363.534 16.5148 362.703 16.7761L361.751 15.3201C362.47 15.0961 363.053 14.7881 363.501 14.3961C363.949 13.9948 364.276 13.5375 364.481 13.0241C364.696 12.5108 364.803 11.9835 364.803 11.4421V10.5041ZM365.181 10.5041H366.679V11.4421C366.679 11.8155 366.735 12.1888 366.847 12.5621C366.968 12.9355 367.146 13.2855 367.379 13.6121C367.612 13.9388 367.911 14.2281 368.275 14.4801C368.648 14.7321 369.087 14.9375 369.591 15.0961L368.639 16.5241C367.855 16.2721 367.206 15.8941 366.693 15.3901C366.18 14.8861 365.797 14.2935 365.545 13.6121C365.302 12.9308 365.181 12.2075 365.181 11.4421V10.5041Z" fill="#111111"/>
<path d="M355.676 14.018H358.168V15.516H355.676V14.018ZM353.842 11.064H355.76C355.76 12.2867 355.573 13.374 355.2 14.326C354.827 15.278 354.211 16.1087 353.352 16.818C352.493 17.518 351.336 18.1013 349.88 18.568L349.152 17.126C350.067 16.8367 350.827 16.51 351.434 16.146C352.041 15.782 352.517 15.3807 352.862 14.942C353.217 14.494 353.469 14.0133 353.618 13.5C353.767 12.9773 353.842 12.4173 353.842 11.82V11.064ZM349.838 11.064H355.046V12.562H349.838V11.064ZM354.052 13.598V14.872L349.432 15.208L349.18 13.766L354.052 13.598ZM357.944 10.084H359.82V19.66H357.944V10.084ZM351.336 21.34H360.156V22.838H351.336V21.34ZM351.336 18.736H353.212V22.32H351.336V18.736Z" fill="#111111"/>
<path d="M333.285 11.036H340.887V12.38H333.285V11.036ZM337.079 12.688C337.732 12.688 338.297 12.7673 338.773 12.926C339.258 13.0847 339.636 13.3087 339.907 13.598C340.178 13.8873 340.313 14.228 340.313 14.62C340.313 15.0213 340.178 15.3667 339.907 15.656C339.636 15.9453 339.258 16.174 338.773 16.342C338.297 16.5007 337.732 16.58 337.079 16.58C336.435 16.58 335.87 16.5007 335.385 16.342C334.909 16.174 334.536 15.9453 334.265 15.656C334.004 15.3667 333.873 15.0213 333.873 14.62C333.873 14.228 334.004 13.8873 334.265 13.598C334.536 13.3087 334.909 13.0847 335.385 12.926C335.87 12.7673 336.435 12.688 337.079 12.688ZM337.079 13.92C336.65 13.92 336.3 13.9807 336.029 14.102C335.768 14.214 335.637 14.3867 335.637 14.62C335.637 14.8533 335.768 15.0353 336.029 15.166C336.3 15.2873 336.65 15.348 337.079 15.348C337.518 15.348 337.868 15.2873 338.129 15.166C338.4 15.0353 338.535 14.8533 338.535 14.62C338.535 14.3867 338.4 14.214 338.129 14.102C337.868 13.9807 337.518 13.92 337.079 13.92ZM336.155 10H338.031V11.722H336.155V10ZM336.155 15.88H338.031V17.686H336.155V15.88ZM341.783 10.098H343.645V18.89H341.783V10.098ZM334.685 19.38H343.645V23.062H341.783V20.822H334.685V19.38ZM333.131 18.624L332.921 17.21C333.705 17.21 334.55 17.2053 335.455 17.196C336.37 17.1867 337.303 17.1587 338.255 17.112C339.216 17.056 340.136 16.972 341.013 16.86L341.153 18.12C340.238 18.2693 339.31 18.3813 338.367 18.456C337.424 18.5307 336.505 18.5773 335.609 18.596C334.722 18.6147 333.896 18.624 333.131 18.624Z" fill="#111111"/>
<path d="M328.904 10.084H330.766V23.048H328.904V10.084ZM325.082 11.428H326.916C326.916 12.4173 326.818 13.3647 326.622 14.27C326.435 15.166 326.118 16.0107 325.67 16.804C325.231 17.5973 324.625 18.3347 323.85 19.016C323.085 19.688 322.128 20.304 320.98 20.864L320 19.394C321.251 18.7873 322.245 18.12 322.982 17.392C323.729 16.6547 324.265 15.824 324.592 14.9C324.919 13.9667 325.082 12.9213 325.082 11.764V11.428ZM320.7 11.428H325.95V12.912H320.7V11.428Z" fill="#111111"/>
<circle cx="33.5" cy="212.5" r="17.5" fill="#111111"/>
<path d="M25.6001 203.849L36.3272 203.056C37.6449 202.943 37.9834 203.019 38.812 203.622L42.2362 206.034C42.801 206.449 42.989 206.562 42.989 207.014V220.244C42.989 221.073 42.6879 221.563 41.6339 221.638L29.1769 222.393C28.3859 222.43 28.0092 222.317 27.595 221.789L25.0733 218.51C24.6211 217.907 24.4336 217.455 24.4336 216.927V205.167C24.4336 204.489 24.7347 203.924 25.6001 203.849Z" fill="white"/>
<path fill-rule="evenodd" clip-rule="evenodd" d="M36.3272 203.056L25.6001 203.849C24.7347 203.924 24.4336 204.489 24.4336 205.167V216.927C24.4336 217.455 24.6211 217.906 25.0733 218.51L27.595 221.789C28.0092 222.317 28.3859 222.43 29.1769 222.392L41.6341 221.638C42.6873 221.563 42.9892 221.073 42.9892 220.244V207.014C42.9892 206.585 42.82 206.462 42.3217 206.096L38.812 203.622C37.9836 203.019 37.6449 202.943 36.3272 203.056V203.056ZM29.4586 206.797C28.4414 206.866 28.2107 206.881 27.6329 206.411L26.1642 205.243C26.015 205.092 26.09 204.903 26.4661 204.866L36.7783 204.112C37.6443 204.037 38.0953 204.338 38.4339 204.602L40.2026 205.884C40.2782 205.922 40.4662 206.147 40.24 206.147L29.5904 206.788L29.4586 206.797ZM28.2727 220.131V208.9C28.2727 208.409 28.4233 208.183 28.8743 208.145L41.106 207.429C41.5209 207.391 41.7083 207.655 41.7083 208.145V219.301C41.7083 219.791 41.6327 220.206 40.9556 220.244L29.2506 220.922C28.5734 220.96 28.2729 220.734 28.2729 220.131H28.2727ZM39.8271 209.502C39.9021 209.841 39.8271 210.18 39.4878 210.219L38.9237 210.331V218.623C38.4338 218.887 37.9828 219.037 37.606 219.037C37.0036 219.037 36.8532 218.849 36.402 218.284L32.7128 212.479V218.095L33.8799 218.359C33.8799 218.359 33.8799 219.038 32.9383 219.038L30.3424 219.189C30.2668 219.037 30.3424 218.661 30.6055 218.586L31.2834 218.398V210.973L30.3426 210.896C30.267 210.557 30.455 210.067 30.9824 210.029L33.7676 209.842L37.6061 215.721V210.52L36.6277 210.407C36.5521 209.992 36.8532 209.69 37.2293 209.653L39.8271 209.502Z" fill="black"/>
<circle cx="60.5" cy="212.5" r="17.5" fill="#111111"/>
<mask id="mask0_2752_2516" style="mask-type:luminance" maskUnits="userSpaceOnUse" x="48" y="200" width="25" height="25">
<path d="M72.9999 200.483H48.4834V225H72.9999V200.483Z" fill="white"/>
</mask>
<g mask="url(#mask0_2752_2516)">
<path d="M67.3814 223.979H54.1016C53.255 223.979 52.5693 223.293 52.5693 222.447V203.038C52.5693 202.191 53.255 201.505 54.1016 201.505H63.2953L68.9137 207.124V222.447C68.9137 223.293 68.228 223.979 67.3814 223.979Z" fill="#00AC47"/>
<g filter="url(#filter0_d_2752_2516)">
<path d="M63.2954 201.505L68.9138 207.124H63.2954V201.505Z" fill="#00832D"/>
</g>
<path d="M64.5726 210.188H61.3803H60.1034H56.9112H55.6343V211.465V213.253V214.529V216.317V217.594H56.9112H60.1034H61.3803H64.5726H65.8495V216.317V214.529V213.253V211.465V210.188H64.5726ZM56.9112 211.465H60.1034V213.253H56.9112V211.465ZM56.9112 216.317V214.529H60.1034V216.317H56.9112ZM64.5726 216.317H61.3803V214.529H64.5726V216.317ZM64.5726 213.253H61.3803V211.465H64.5726V213.253Z" fill="white"/>
</g>
<defs>
<filter id="filter0_d_2752_2516" x="57.2954" y="189.505" width="17.6182" height="17.6182" filterUnits="userSpaceOnUse" color-interpolation-filters="sRGB">
<feFlood flood-opacity="0" result="BackgroundImageFix"/>
<feColorMatrix in="SourceAlpha" type="matrix" values="0 0 0 0 0 0 0 0 0 0 0 0 0 0 0 0 0 0 127 0" result="hardAlpha"/>
<feOffset dy="-6"/>
<feGaussianBlur stdDeviation="3"/>
<feComposite in2="hardAlpha" operator="out"/>
<feColorMatrix type="matrix" values="0 0 0 0 0 0 0 0 0 0 0 0 0 0 0 0 0 0 0.1 0"/>
<feBlend mode="normal" in2="BackgroundImageFix" result="effect1_dropShadow_2752_2516"/>
<feBlend mode="normal" in="SourceGraphic" in2="effect1_dropShadow_2752_2516" result="shape"/>
</filter>
</defs>
</svg>
