<svg width="410" height="244" viewBox="0 0 410 244" fill="none" xmlns="http://www.w3.org/2000/svg">
<path d="M0 20C0 8.95431 8.95431 0 20 0H390C401.046 0 410 8.95431 410 20V224C410 235.046 401.046 244 390 244H20C8.95431 244 0 235.046 0 224V20Z" fill="white"/>
<path d="M390 242V244H20V242H390ZM408 224V20C408 10.0589 399.941 2 390 2H20C10.0589 2 2 10.0589 2 20V224C2 233.941 10.0589 242 20 242V244L19.4834 243.993C8.84814 243.724 0.276492 235.152 0.00683594 224.517L0 224V20C2.79059e-06 9.12703 8.67646 0.280844 19.4834 0.00683594L20 0H390L390.517 0.00683594C401.324 0.280847 410 9.12703 410 20V224L409.993 224.517C409.724 235.152 401.152 243.724 390.517 243.993L390 244V242C399.941 242 408 233.941 408 224Z" fill="#111111"/>
<path d="M375.983 220.66V222H34.0171V220.66H375.983ZM390.398 208.6V34.4C390.398 27.7394 383.944 22.34 375.983 22.34H34.0171C26.0557 22.34 19.6017 27.7394 19.6017 34.4V208.6C19.6017 215.261 26.0557 220.66 34.0171 220.66V222L33.6034 221.995C25.0861 221.815 18.2214 216.072 18.0055 208.946L18 208.6V34.4C18 27.1151 24.9486 21.1882 33.6034 21.0046L34.0171 21H375.983L376.397 21.0046C385.051 21.1882 392 27.1151 392 34.4V208.6L391.995 208.946C391.779 216.072 384.914 221.815 376.397 221.995L375.983 222V220.66C383.944 220.66 390.398 215.261 390.398 208.6Z" fill="#111111"/>
<path d="M34.0171 220.66H375.983C383.944 220.66 390.398 215.261 390.398 208.6V34.4C390.398 27.7394 383.944 22.34 375.983 22.34H34.0171C26.0557 22.34 19.6017 27.7394 19.6017 34.4V208.6C19.6017 215.261 26.0557 220.66 34.0171 220.66Z" fill="white"/>
<path d="M18 34.2258C18 26.9214 25.1711 21 34.0171 21H375.983C384.829 21 392 26.9214 392 34.2258V62H18V34.2258Z" fill="#FFCE2E"/>
<path d="M390.398 34.5484C390.398 27.8141 383.944 22.3548 375.983 22.3548H34.0171C26.0557 22.3548 19.6017 27.8141 19.6017 34.5484V61.6452H390.398V34.5484ZM392 63H18V34.5484C18 27.1828 24.9486 21.1902 33.6034 21.0046L34.0171 21H375.983L376.397 21.0046C385.051 21.1902 392 27.1828 392 34.5484V63Z" fill="#111111"/>
<path d="M49.2339 45.8264C49.2339 50.2494 45.8276 53.835 41.6257 53.835C37.4239 53.835 34.0176 50.2494 34.0176 45.8264C34.0176 41.4034 37.4239 37.8179 41.6257 37.8179C45.8276 37.8179 49.2339 41.4034 49.2339 45.8264Z" fill="#FF554D"/>
<path d="M47.6321 45.8264C47.6321 42.2096 44.8665 39.4196 41.6257 39.4196C38.3849 39.4196 35.6193 42.2096 35.6193 45.8264C35.6193 49.4433 38.3849 52.2333 41.6257 52.2333V53.835C37.4239 53.835 34.0176 50.2494 34.0176 45.8264C34.0176 41.4034 37.4239 37.8179 41.6257 37.8179C45.8276 37.8179 49.2339 41.4034 49.2339 45.8264C49.2339 50.2494 45.8276 53.835 41.6257 53.835V52.2333C44.8665 52.2333 47.6321 49.4433 47.6321 45.8264Z" fill="#111111"/>
<path d="M74.0601 45.8264C74.0601 50.2494 70.4745 53.835 66.0515 53.835C61.6285 53.835 58.043 50.2494 58.043 45.8264C58.043 41.4034 61.6285 37.8179 66.0515 37.8179C70.4745 37.8179 74.0601 41.4034 74.0601 45.8264Z" fill="#FEB42A"/>
<path d="M72.4584 45.8264C72.4584 42.288 69.5899 39.4196 66.0515 39.4196C62.5131 39.4196 59.6447 42.288 59.6447 45.8264C59.6447 49.3648 62.5131 52.2333 66.0515 52.2333V53.835C61.6285 53.835 58.043 50.2494 58.043 45.8264C58.043 41.4034 61.6285 37.8179 66.0515 37.8179C70.4745 37.8179 74.0601 41.4034 74.0601 45.8264C74.0601 50.2494 70.4745 53.835 66.0515 53.835V52.2333C69.5899 52.2333 72.4584 49.3648 72.4584 45.8264Z" fill="#111111"/>
<path d="M98.0854 45.8264C98.0854 50.2494 94.6791 53.835 90.4773 53.835C86.2754 53.835 82.8691 50.2494 82.8691 45.8264C82.8691 41.4034 86.2754 37.8179 90.4773 37.8179C94.6791 37.8179 98.0854 41.4034 98.0854 45.8264Z" fill="#25C138"/>
<path d="M96.4837 45.8264C96.4837 42.2096 93.7181 39.4196 90.4773 39.4196C87.2364 39.4196 84.4709 42.2096 84.4709 45.8264C84.4709 49.4433 87.2364 52.2333 90.4773 52.2333V53.835C86.2754 53.835 82.8691 50.2494 82.8691 45.8264C82.8691 41.4034 86.2754 37.8179 90.4773 37.8179C94.6791 37.8179 98.0854 41.4034 98.0854 45.8264C98.0854 50.2494 94.6791 53.835 90.4773 53.835V52.2333C93.7181 52.2333 96.4837 49.4433 96.4837 45.8264Z" fill="#111111"/>
<path d="M34 77C34 74.7909 35.7909 73 38 73H89C91.2091 73 93 74.7909 93 77V90C93 92.2091 91.2091 94 89 94H38C35.7909 94 34 92.2091 34 90V77Z" fill="#D9D9D9"/>
<path d="M89 92V94H38V92H89ZM91 90V77C91 75.8954 90.1046 75 89 75H38C36.9643 75 36.113 75.7872 36.0107 76.7959L36 77V90C36 91.1046 36.8954 92 38 92V94L37.7939 93.9951C35.7488 93.8913 34.1087 92.2512 34.0049 90.2061L34 90V77C34 74.86 35.6806 73.1121 37.7939 73.0049L38 73H89L89.2061 73.0049C91.3194 73.1121 93 74.86 93 77V90L92.9951 90.2061C92.8913 92.2512 91.2512 93.8913 89.2061 93.9951L89 94V92C90.1046 92 91 91.1046 91 90Z" fill="#111111"/>
<path d="M60 81L60.2041 81.0107C61.2128 81.113 62 81.9643 62 83C62 84.0357 61.2128 84.887 60.2041 84.9893L60 85H50C48.8954 85 48 84.1046 48 83C48 81.8954 48.8954 81 50 81H60Z" fill="black"/>
<path d="M121 81L121.204 81.0107C122.213 81.113 123 81.9643 123 83C123 84.0357 122.213 84.887 121.204 84.9893L121 85H111C109.895 85 109 84.1046 109 83C109 81.8954 109.895 81 111 81H121Z" fill="black"/>
<path d="M168 81L168.204 81.0107C169.213 81.113 170 81.9643 170 83C170 84.0357 169.213 84.887 168.204 84.9893L168 85H158C156.895 85 156 84.1046 156 83C156 81.8954 156.895 81 158 81H168Z" fill="black"/>
<path d="M215 81L215.204 81.0107C216.213 81.113 217 81.9643 217 83C217 84.0357 216.213 84.887 215.204 84.9893L215 85H205C203.895 85 203 84.1046 203 83C203 81.8954 203.895 81 205 81H215Z" fill="black"/>
<path d="M77 81L77.2041 81.0107C78.2128 81.113 79 81.9643 79 83C79 84.0357 78.2128 84.887 77.2041 84.9893L77 85H67C65.8954 85 65 84.1046 65 83C65 81.8954 65.8954 81 67 81H77Z" fill="black"/>
<path d="M138 81L138.204 81.0107C139.213 81.113 140 81.9643 140 83C140 84.0357 139.213 84.887 138.204 84.9893L138 85H128C126.895 85 126 84.1046 126 83C126 81.8954 126.895 81 128 81H138Z" fill="black"/>
<path d="M185 81L185.204 81.0107C186.213 81.113 187 81.9643 187 83C187 84.0357 186.213 84.887 185.204 84.9893L185 85H175C173.895 85 173 84.1046 173 83C173 81.8954 173.895 81 175 81H185Z" fill="black"/>
<path d="M232 81L232.204 81.0107C233.213 81.113 234 81.9643 234 83C234 84.0357 233.213 84.887 232.204 84.9893L232 85H222C220.895 85 220 84.1046 220 83C220 81.8954 220.895 81 222 81H232Z" fill="black"/>
<path d="M34 115C34 110.582 37.5817 107 42 107H108C112.418 107 116 110.582 116 115V146.5C116 150.918 112.418 154.5 108 154.5H42C37.5817 154.5 34 150.918 34 146.5V115Z" fill="#F2F2F2"/>
<path d="M108 152.5V154.5H42V152.5H108ZM114 146.5V115C114 111.686 111.314 109 108 109H42C38.6863 109 36 111.686 36 115V146.5C36 149.814 38.6863 152.5 42 152.5V154.5L41.5879 154.489C37.4976 154.282 34.2183 151.002 34.0107 146.912L34 146.5V115C34 110.72 37.3611 107.225 41.5879 107.011L42 107H108L108.412 107.011C112.639 107.225 116 110.72 116 115V146.5L115.989 146.912C115.782 151.002 112.502 154.282 108.412 154.489L108 154.5V152.5C111.314 152.5 114 149.814 114 146.5Z" fill="#111111"/>
<path d="M123 115C123 110.582 126.582 107 131 107H197C201.418 107 205 110.582 205 115V146.5C205 150.918 201.418 154.5 197 154.5H131C126.582 154.5 123 150.918 123 146.5V115Z" fill="#F2F2F2"/>
<path d="M197 152.5V154.5H131V152.5H197ZM203 146.5V115C203 111.686 200.314 109 197 109H131C127.686 109 125 111.686 125 115V146.5C125 149.814 127.686 152.5 131 152.5V154.5L130.588 154.489C126.498 154.282 123.218 151.002 123.011 146.912L123 146.5V115C123 110.72 126.361 107.225 130.588 107.011L131 107H197L197.412 107.011C201.639 107.225 205 110.72 205 115V146.5L204.989 146.912C204.782 151.002 201.502 154.282 197.412 154.489L197 154.5V152.5C200.314 152.5 203 149.814 203 146.5Z" fill="#111111"/>
<path d="M212 115C212 110.582 215.582 107 220 107H286C290.418 107 294 110.582 294 115V146.5C294 150.918 290.418 154.5 286 154.5H220C215.582 154.5 212 150.918 212 146.5V115Z" fill="#F2F2F2"/>
<path d="M286 152.5V154.5H220V152.5H286ZM292 146.5V115C292 111.686 289.314 109 286 109H220C216.686 109 214 111.686 214 115V146.5C214 149.814 216.686 152.5 220 152.5V154.5L219.588 154.489C215.498 154.282 212.218 151.002 212.011 146.912L212 146.5V115C212 110.72 215.361 107.225 219.588 107.011L220 107H286L286.412 107.011C290.639 107.225 294 110.72 294 115V146.5L293.989 146.912C293.782 151.002 290.502 154.282 286.412 154.489L286 154.5V152.5C289.314 152.5 292 149.814 292 146.5Z" fill="#111111"/>
<path d="M34 168C34 163.582 37.5817 160 42 160H108C112.418 160 116 163.582 116 168V199.5C116 203.918 112.418 207.5 108 207.5H42C37.5817 207.5 34 203.918 34 199.5V168Z" fill="#F2F2F2"/>
<path d="M108 205.5V207.5H42V205.5H108ZM114 199.5V168C114 164.686 111.314 162 108 162H42C38.6863 162 36 164.686 36 168V199.5C36 202.814 38.6863 205.5 42 205.5V207.5L41.5879 207.489C37.4976 207.282 34.2183 204.002 34.0107 199.912L34 199.5V168C34 163.72 37.3611 160.225 41.5879 160.011L42 160H108L108.412 160.011C112.639 160.225 116 163.72 116 168V199.5L115.989 199.912C115.782 204.002 112.502 207.282 108.412 207.489L108 207.5V205.5C111.314 205.5 114 202.814 114 199.5Z" fill="#111111"/>
<path d="M123 168C123 163.582 126.582 160 131 160H197C201.418 160 205 163.582 205 168V199.5C205 203.918 201.418 207.5 197 207.5H131C126.582 207.5 123 203.918 123 199.5V168Z" fill="#F2F2F2"/>
<path d="M197 205.5V207.5H131V205.5H197ZM203 199.5V168C203 164.686 200.314 162 197 162H131C127.686 162 125 164.686 125 168V199.5C125 202.814 127.686 205.5 131 205.5V207.5L130.588 207.489C126.498 207.282 123.218 204.002 123.011 199.912L123 199.5V168C123 163.72 126.361 160.225 130.588 160.011L131 160H197L197.412 160.011C201.639 160.225 205 163.72 205 168V199.5L204.989 199.912C204.782 204.002 201.502 207.282 197.412 207.489L197 207.5V205.5C200.314 205.5 203 202.814 203 199.5Z" fill="#111111"/>
<path d="M212 168C212 163.582 215.582 160 220 160H286C290.418 160 294 163.582 294 168V199.5C294 203.918 290.418 207.5 286 207.5H220C215.582 207.5 212 203.918 212 199.5V168Z" fill="#F2F2F2"/>
<path d="M286 205.5V207.5H220V205.5H286ZM292 199.5V168C292 164.686 289.314 162 286 162H220C216.686 162 214 164.686 214 168V199.5C214 202.814 216.686 205.5 220 205.5V207.5L219.588 207.489C215.498 207.282 212.218 204.002 212.011 199.912L212 199.5V168C212 163.72 215.361 160.225 219.588 160.011L220 160H286L286.412 160.011C290.639 160.225 294 163.72 294 168V199.5L293.989 199.912C293.782 204.002 290.502 207.282 286.412 207.489L286 207.5V205.5C289.314 205.5 292 202.814 292 199.5Z" fill="#111111"/>
<path d="M306 115C306 110.582 309.582 107 314 107H367C371.418 107 375 110.582 375 115V199.5C375 203.918 371.418 207.5 367 207.5H314C309.582 207.5 306 203.918 306 199.5V115Z" fill="#48A8FC"/>
<path d="M367 205.5V207.5H314V205.5H367ZM373 199.5V115C373 111.686 370.314 109 367 109H314C310.686 109 308 111.686 308 115V199.5C308 202.814 310.686 205.5 314 205.5V207.5L313.588 207.489C309.498 207.282 306.218 204.002 306.011 199.912L306 199.5V115C306 110.72 309.361 107.225 313.588 107.011L314 107H367L367.412 107.011C371.639 107.225 375 110.72 375 115V199.5L374.989 199.912C374.782 204.002 371.502 207.282 367.412 207.489L367 207.5V205.5C370.314 205.5 373 202.814 373 199.5Z" fill="#111111"/>
<path d="M351.797 148.754C352.686 148.754 353.224 149.325 353.224 150.164V164.514H350.37V157.012H349.279C348.356 157.012 347.785 156.441 347.785 155.585C347.785 154.746 348.339 154.142 349.279 154.142H350.37V150.164C350.37 149.325 350.907 148.754 351.797 148.754ZM355.54 148.754C356.429 148.754 357 149.325 357 150.197V164.514H354.063V150.197C354.063 149.325 354.65 148.754 355.54 148.754ZM346.963 156.928C348.49 157.717 349.984 159.294 349.732 163.507H346.745C347.047 161.795 346.795 160.738 346.241 160.1C345.436 162.383 344.127 163.742 342.717 163.742C341.928 163.742 341.29 163.222 341.29 162.45C341.29 161.997 341.508 161.56 342.029 161.124C343.472 159.899 344.093 157.817 344.093 154.544V152.262H342.784C341.777 152.262 341.357 151.557 341.357 150.869C341.357 150.197 341.76 149.459 342.784 149.459H348.373C349.397 149.459 349.766 150.197 349.766 150.869C349.766 151.557 349.38 152.262 348.373 152.262H347.114V154.494C347.114 155.35 347.064 156.172 346.963 156.928Z" fill="#111111"/>
<path d="M333.083 155.098C331.757 156.475 329.357 157.079 326.504 156.844C325.715 156.777 325.094 156.307 325.144 155.417C325.195 154.628 325.782 154.226 326.588 154.259C329.643 154.427 330.969 153.554 330.969 152.312V152.077C330.969 151.893 330.851 151.792 330.666 151.792H326.806C325.833 151.792 325.43 151.154 325.43 150.499C325.43 149.845 325.816 149.207 326.806 149.207H331.976C333.067 149.207 333.704 149.509 334.006 150.147H336.625C336.742 149.224 337.481 148.754 338.286 148.754C339.176 148.754 339.965 149.325 339.965 150.416V156.877H336.608V155.786H334.275C333.704 155.786 333.268 155.551 333.083 155.098ZM334.275 153.504H336.608V152.43H334.208C334.191 152.816 334.124 153.185 334.023 153.521C334.107 153.504 334.191 153.504 334.275 153.504ZM329.659 162.5H339.461C340.133 162.5 340.418 163.037 340.418 163.541C340.418 164.011 340.149 164.514 339.461 164.514H328.098C326.571 164.514 325.749 163.524 325.749 162.349V161.946C325.749 160.805 326.571 160.033 328.098 160.033H336.574V159.63C336.574 159.429 336.524 159.345 336.306 159.345H326.856C326.202 159.345 325.933 158.875 325.933 158.371C325.933 157.901 326.219 157.381 326.856 157.381H337.984C339.461 157.381 339.982 157.817 339.982 159.11V161.829H329.659C329.424 161.829 329.307 161.963 329.307 162.131V162.215C329.307 162.366 329.424 162.5 329.659 162.5Z" fill="#111111"/>
<path d="M96.3468 130.912H98.1708V125.188C98.1708 124.408 98.7348 124 99.3708 124C100.007 124 100.571 124.408 100.571 125.188V132.988H98.1708V132.604H96.3468C95.7948 132.604 95.4228 132.292 95.4228 131.764C95.4228 131.248 95.7828 130.912 96.3468 130.912ZM95.0028 128.2H92.2068C90.8508 128.2 90.0468 127.408 90.0468 126.244V126.208C90.0468 125.056 90.8508 124.264 92.2068 124.264H95.0028C96.3588 124.264 97.1268 125.056 97.1268 126.208V126.244C97.1268 127.408 96.3588 128.2 95.0028 128.2ZM92.3268 126.22V126.256C92.3268 126.472 92.4828 126.628 92.8188 126.628H94.3668C94.7028 126.628 94.8468 126.472 94.8468 126.256V126.22C94.8468 125.992 94.7028 125.824 94.3668 125.824H92.8188C92.4828 125.824 92.3268 125.992 92.3268 126.22ZM93.2028 133.432H99.9228C100.619 133.432 100.895 133.864 100.895 134.344C100.895 134.836 100.607 135.268 99.9228 135.268H92.2548C90.9108 135.268 90.5508 134.8 90.5508 133.516V132.784C90.5508 132.076 91.1148 131.704 91.7868 131.704C91.9788 131.704 92.1708 131.74 92.3268 131.8V130.528H90.6228C89.9748 130.528 89.6748 130.144 89.6748 129.64C89.6748 129.148 89.9628 128.74 90.6228 128.74H96.8028C97.4628 128.74 97.7508 129.148 97.7508 129.64C97.7508 130.144 97.4508 130.528 96.8028 130.528H94.6548V132.448H92.9388C92.9748 132.556 92.9868 132.664 92.9868 132.784V133.228C92.9868 133.396 93.0348 133.432 93.2028 133.432Z" fill="black"/>
<path d="M85.1455 135.196C83.0695 135.196 81.6055 134.104 81.6055 131.98V127.504C81.6055 125.392 83.0695 124.288 85.1455 124.288C87.2215 124.288 88.6855 125.392 88.6855 127.504V131.98C88.6855 134.104 87.2215 135.196 85.1455 135.196ZM85.1455 133.156C85.7455 133.156 86.2735 132.856 86.2735 132.088V127.396C86.2735 126.652 85.7455 126.328 85.1455 126.328C84.5455 126.328 84.0175 126.652 84.0175 127.396V132.088C84.0175 132.856 84.5455 133.156 85.1455 133.156Z" fill="black"/>
<path d="M76.8603 135.196C74.7843 135.196 73.3203 134.104 73.3203 131.98V127.504C73.3203 125.392 74.7843 124.288 76.8603 124.288C78.9363 124.288 80.4003 125.392 80.4003 127.504V131.98C80.4003 134.104 78.9363 135.196 76.8603 135.196ZM76.8603 133.156C77.4603 133.156 77.9883 132.856 77.9883 132.088V127.396C77.9883 126.652 77.4603 126.328 76.8603 126.328C76.2603 126.328 75.7323 126.652 75.7323 127.396V132.088C75.7323 132.856 76.2603 133.156 76.8603 133.156Z" fill="black"/>
<path d="M68.5752 135.196C66.4992 135.196 65.0352 134.104 65.0352 131.98V127.504C65.0352 125.392 66.4992 124.288 68.5752 124.288C70.6512 124.288 72.1152 125.392 72.1152 127.504V131.98C72.1152 134.104 70.6512 135.196 68.5752 135.196ZM68.5752 133.156C69.1752 133.156 69.7032 132.856 69.7032 132.088V127.396C69.7032 126.652 69.1752 126.328 68.5752 126.328C67.9752 126.328 67.4472 126.652 67.4472 127.396V132.088C67.4472 132.856 67.9752 133.156 68.5752 133.156Z" fill="black"/>
<path d="M62.3292 135.796C62.5932 135.652 62.7612 135.376 62.7612 135.028V135.016C62.0892 134.956 61.6572 134.536 61.6572 133.852C61.6572 133.12 62.1732 132.664 62.9292 132.664C63.6852 132.664 64.2012 133.192 64.2012 133.912V134.02C64.2012 135.412 63.6132 136.276 62.7732 136.6C62.5692 136.672 62.3532 136.72 62.1612 136.696C61.9572 136.672 61.7172 136.564 61.7412 136.24C61.7532 136.048 61.8612 135.928 62.0772 135.88C62.1612 135.856 62.2332 135.844 62.3292 135.796Z" fill="black"/>
<path d="M56.7919 128.2H57.3079C59.5039 128.2 60.9439 129.292 60.9439 131.572C60.9439 134.116 59.3719 135.196 57.2599 135.196C56.0359 135.196 54.8479 134.788 54.2839 134.128C53.9119 133.696 53.9359 132.988 54.3439 132.628C54.6799 132.328 55.1839 132.328 55.4959 132.472C55.7599 132.592 55.9279 132.712 56.1079 132.808C56.2999 132.904 56.5999 133.012 57.1279 133.012C57.9919 133.012 58.5919 132.544 58.5919 131.572C58.5919 130.684 58.0519 130.228 56.9359 130.228H55.9639C54.5479 130.228 54.1279 129.784 54.1999 128.428L54.3079 126.28C54.3799 124.924 54.6439 124.48 56.0599 124.48H59.6959C60.3799 124.48 60.6439 125.044 60.6439 125.524C60.6439 126.004 60.3919 126.532 59.6959 126.532H56.8519C56.6359 126.532 56.5639 126.556 56.5519 126.784L56.5039 127.948C56.4919 128.176 56.5759 128.2 56.7919 128.2Z" fill="black"/>
<path d="M50.388 125.032C50.568 124.54 50.94 124.288 51.444 124.288C52.14 124.288 52.644 124.708 52.644 125.5V135.004H50.244V128.008H49.236C48.564 128.008 48 127.66 48 127C48 126.448 48.384 126.088 48.864 126.016C49.512 125.932 50.16 125.668 50.388 125.032Z" fill="black"/>
<path d="M185.732 130.912H187.556V125.188C187.556 124.408 188.12 124 188.756 124C189.392 124 189.956 124.408 189.956 125.188V132.988H187.556V132.604H185.732C185.18 132.604 184.808 132.292 184.808 131.764C184.808 131.248 185.168 130.912 185.732 130.912ZM184.388 128.2H181.592C180.236 128.2 179.432 127.408 179.432 126.244V126.208C179.432 125.056 180.236 124.264 181.592 124.264H184.388C185.744 124.264 186.512 125.056 186.512 126.208V126.244C186.512 127.408 185.744 128.2 184.388 128.2ZM181.712 126.22V126.256C181.712 126.472 181.868 126.628 182.204 126.628H183.752C184.088 126.628 184.232 126.472 184.232 126.256V126.22C184.232 125.992 184.088 125.824 183.752 125.824H182.204C181.868 125.824 181.712 125.992 181.712 126.22ZM182.588 133.432H189.308C190.004 133.432 190.28 133.864 190.28 134.344C190.28 134.836 189.992 135.268 189.308 135.268H181.64C180.296 135.268 179.936 134.8 179.936 133.516V132.784C179.936 132.076 180.5 131.704 181.172 131.704C181.364 131.704 181.556 131.74 181.712 131.8V130.528H180.008C179.36 130.528 179.06 130.144 179.06 129.64C179.06 129.148 179.348 128.74 180.008 128.74H186.188C186.848 128.74 187.136 129.148 187.136 129.64C187.136 130.144 186.836 130.528 186.188 130.528H184.04V132.448H182.324C182.36 132.556 182.372 132.664 182.372 132.784V133.228C182.372 133.396 182.42 133.432 182.588 133.432Z" fill="black"/>
<path d="M174.53 135.196C172.454 135.196 170.99 134.104 170.99 131.98V127.504C170.99 125.392 172.454 124.288 174.53 124.288C176.606 124.288 178.07 125.392 178.07 127.504V131.98C178.07 134.104 176.606 135.196 174.53 135.196ZM174.53 133.156C175.13 133.156 175.658 132.856 175.658 132.088V127.396C175.658 126.652 175.13 126.328 174.53 126.328C173.93 126.328 173.402 126.652 173.402 127.396V132.088C173.402 132.856 173.93 133.156 174.53 133.156Z" fill="black"/>
<path d="M166.245 135.196C164.169 135.196 162.705 134.104 162.705 131.98V127.504C162.705 125.392 164.169 124.288 166.245 124.288C168.321 124.288 169.785 125.392 169.785 127.504V131.98C169.785 134.104 168.321 135.196 166.245 135.196ZM166.245 133.156C166.845 133.156 167.373 132.856 167.373 132.088V127.396C167.373 126.652 166.845 126.328 166.245 126.328C165.645 126.328 165.117 126.652 165.117 127.396V132.088C165.117 132.856 165.645 133.156 166.245 133.156Z" fill="black"/>
<path d="M157.96 135.196C155.884 135.196 154.42 134.104 154.42 131.98V127.504C154.42 125.392 155.884 124.288 157.96 124.288C160.036 124.288 161.5 125.392 161.5 127.504V131.98C161.5 134.104 160.036 135.196 157.96 135.196ZM157.96 133.156C158.56 133.156 159.088 132.856 159.088 132.088V127.396C159.088 126.652 158.56 126.328 157.96 126.328C157.36 126.328 156.832 126.652 156.832 127.396V132.088C156.832 132.856 157.36 133.156 157.96 133.156Z" fill="black"/>
<path d="M151.714 135.796C151.978 135.652 152.146 135.376 152.146 135.028V135.016C151.474 134.956 151.042 134.536 151.042 133.852C151.042 133.12 151.558 132.664 152.314 132.664C153.07 132.664 153.586 133.192 153.586 133.912V134.02C153.586 135.412 152.998 136.276 152.158 136.6C151.954 136.672 151.738 136.72 151.546 136.696C151.342 136.672 151.102 136.564 151.126 136.24C151.138 136.048 151.246 135.928 151.462 135.88C151.546 135.856 151.618 135.844 151.714 135.796Z" fill="black"/>
<path d="M145.54 131.38H146.968V127.588C146.968 126.844 147.532 126.508 148.084 126.508C148.636 126.508 149.188 126.844 149.188 127.588V131.38H150.268V133.348H149.188V135.004H146.968V133.348H144.388C142.936 133.348 142.372 132.52 142.708 131.296L144.352 125.272C144.556 124.54 145.048 124.216 145.66 124.288C146.296 124.36 146.812 124.888 146.644 125.62L145.192 131.044C145.12 131.308 145.216 131.38 145.54 131.38Z" fill="black"/>
<path d="M141.105 126.856L139.257 128.68C140.709 128.848 141.837 129.928 141.837 131.704C141.837 133.984 140.169 135.196 138.033 135.196C136.965 135.196 135.777 134.812 135.213 134.056C134.889 133.612 134.937 132.988 135.345 132.628C135.681 132.328 136.053 132.316 136.401 132.436C136.665 132.532 136.857 132.688 137.061 132.808C137.277 132.928 137.589 133.012 138.021 133.012C138.909 133.012 139.485 132.484 139.485 131.62C139.485 130.708 138.813 130.252 137.817 130.252H137.169C136.701 130.252 136.365 129.952 136.281 129.616C136.173 129.184 136.269 128.848 136.677 128.452L138.669 126.484H136.161C135.453 126.484 135.177 125.956 135.177 125.488C135.177 125.032 135.465 124.48 136.161 124.48H140.133C141.429 124.48 141.921 126.064 141.105 126.856Z" fill="black"/>
<path d="M275.169 130.912H276.993V125.188C276.993 124.408 277.557 124 278.193 124C278.829 124 279.393 124.408 279.393 125.188V132.988H276.993V132.604H275.169C274.617 132.604 274.245 132.292 274.245 131.764C274.245 131.248 274.605 130.912 275.169 130.912ZM273.825 128.2H271.029C269.673 128.2 268.869 127.408 268.869 126.244V126.208C268.869 125.056 269.673 124.264 271.029 124.264H273.825C275.181 124.264 275.949 125.056 275.949 126.208V126.244C275.949 127.408 275.181 128.2 273.825 128.2ZM271.149 126.22V126.256C271.149 126.472 271.305 126.628 271.641 126.628H273.189C273.525 126.628 273.669 126.472 273.669 126.256V126.22C273.669 125.992 273.525 125.824 273.189 125.824H271.641C271.305 125.824 271.149 125.992 271.149 126.22ZM272.025 133.432H278.745C279.441 133.432 279.717 133.864 279.717 134.344C279.717 134.836 279.429 135.268 278.745 135.268H271.077C269.733 135.268 269.373 134.8 269.373 133.516V132.784C269.373 132.076 269.937 131.704 270.609 131.704C270.801 131.704 270.993 131.74 271.149 131.8V130.528H269.445C268.797 130.528 268.497 130.144 268.497 129.64C268.497 129.148 268.785 128.74 269.445 128.74H275.625C276.285 128.74 276.573 129.148 276.573 129.64C276.573 130.144 276.273 130.528 275.625 130.528H273.477V132.448H271.761C271.797 132.556 271.809 132.664 271.809 132.784V133.228C271.809 133.396 271.857 133.432 272.025 133.432Z" fill="black"/>
<path d="M263.968 135.196C261.892 135.196 260.428 134.104 260.428 131.98V127.504C260.428 125.392 261.892 124.288 263.968 124.288C266.044 124.288 267.508 125.392 267.508 127.504V131.98C267.508 134.104 266.044 135.196 263.968 135.196ZM263.968 133.156C264.568 133.156 265.096 132.856 265.096 132.088V127.396C265.096 126.652 264.568 126.328 263.968 126.328C263.368 126.328 262.84 126.652 262.84 127.396V132.088C262.84 132.856 263.368 133.156 263.968 133.156Z" fill="black"/>
<path d="M255.683 135.196C253.607 135.196 252.143 134.104 252.143 131.98V127.504C252.143 125.392 253.607 124.288 255.683 124.288C257.759 124.288 259.223 125.392 259.223 127.504V131.98C259.223 134.104 257.759 135.196 255.683 135.196ZM255.683 133.156C256.283 133.156 256.811 132.856 256.811 132.088V127.396C256.811 126.652 256.283 126.328 255.683 126.328C255.083 126.328 254.555 126.652 254.555 127.396V132.088C254.555 132.856 255.083 133.156 255.683 133.156Z" fill="black"/>
<path d="M247.397 135.196C245.321 135.196 243.857 134.104 243.857 131.98V127.504C243.857 125.392 245.321 124.288 247.397 124.288C249.473 124.288 250.937 125.392 250.937 127.504V131.98C250.937 134.104 249.473 135.196 247.397 135.196ZM247.397 133.156C247.997 133.156 248.525 132.856 248.525 132.088V127.396C248.525 126.652 247.997 126.328 247.397 126.328C246.797 126.328 246.269 126.652 246.269 127.396V132.088C246.269 132.856 246.797 133.156 247.397 133.156Z" fill="black"/>
<path d="M241.151 135.796C241.415 135.652 241.583 135.376 241.583 135.028V135.016C240.911 134.956 240.479 134.536 240.479 133.852C240.479 133.12 240.995 132.664 241.751 132.664C242.507 132.664 243.023 133.192 243.023 133.912V134.02C243.023 135.412 242.435 136.276 241.595 136.6C241.391 136.672 241.175 136.72 240.983 136.696C240.779 136.672 240.539 136.564 240.563 136.24C240.575 136.048 240.683 135.928 240.899 135.88C240.983 135.856 241.055 135.844 241.151 135.796Z" fill="black"/>
<path d="M235.614 128.2H236.13C238.326 128.2 239.766 129.292 239.766 131.572C239.766 134.116 238.194 135.196 236.082 135.196C234.858 135.196 233.67 134.788 233.106 134.128C232.734 133.696 232.758 132.988 233.166 132.628C233.502 132.328 234.006 132.328 234.318 132.472C234.582 132.592 234.75 132.712 234.93 132.808C235.122 132.904 235.422 133.012 235.95 133.012C236.814 133.012 237.414 132.544 237.414 131.572C237.414 130.684 236.874 130.228 235.758 130.228H234.786C233.37 130.228 232.95 129.784 233.022 128.428L233.13 126.28C233.202 124.924 233.466 124.48 234.882 124.48H238.518C239.202 124.48 239.466 125.044 239.466 125.524C239.466 126.004 239.214 126.532 238.518 126.532H235.674C235.458 126.532 235.386 126.556 235.374 126.784L235.326 127.948C235.314 128.176 235.398 128.2 235.614 128.2Z" fill="black"/>
<path d="M231.768 135.004H226.488C225.588 135.004 225 134.488 225 133.588V133.456C225 131.848 225.48 131.236 226.488 130.312L228.492 128.464C228.972 128.032 229.224 127.708 229.224 127.252C229.224 126.724 228.768 126.472 228.336 126.472C227.748 126.472 227.46 126.724 227.22 126.988C227.052 127.18 226.824 127.408 226.596 127.468C226.272 127.564 225.828 127.528 225.48 127.24C225.048 126.892 225.048 126.244 225.324 125.788C225.936 124.792 227.04 124.288 228.528 124.288C230.22 124.288 231.672 125.224 231.672 127.012C231.672 128.356 230.928 129.124 229.932 130.096L228.396 131.584C227.88 132.088 227.532 132.22 227.532 132.664V132.748C227.532 132.868 227.58 132.928 227.712 132.928H231.768V135.004Z" fill="black"/>
<path d="M186.309 183.912H188.133V178.188C188.133 177.408 188.697 177 189.333 177C189.969 177 190.533 177.408 190.533 178.188V185.988H188.133V185.604H186.309C185.757 185.604 185.385 185.292 185.385 184.764C185.385 184.248 185.745 183.912 186.309 183.912ZM184.965 181.2H182.169C180.813 181.2 180.009 180.408 180.009 179.244V179.208C180.009 178.056 180.813 177.264 182.169 177.264H184.965C186.321 177.264 187.089 178.056 187.089 179.208V179.244C187.089 180.408 186.321 181.2 184.965 181.2ZM182.289 179.22V179.256C182.289 179.472 182.445 179.628 182.781 179.628H184.329C184.665 179.628 184.809 179.472 184.809 179.256V179.22C184.809 178.992 184.665 178.824 184.329 178.824H182.781C182.445 178.824 182.289 178.992 182.289 179.22ZM183.165 186.432H189.885C190.581 186.432 190.857 186.864 190.857 187.344C190.857 187.836 190.569 188.268 189.885 188.268H182.217C180.873 188.268 180.513 187.8 180.513 186.516V185.784C180.513 185.076 181.077 184.704 181.749 184.704C181.941 184.704 182.133 184.74 182.289 184.8V183.528H180.585C179.937 183.528 179.637 183.144 179.637 182.64C179.637 182.148 179.925 181.74 180.585 181.74H186.765C187.425 181.74 187.713 182.148 187.713 182.64C187.713 183.144 187.413 183.528 186.765 183.528H184.617V185.448H182.901C182.937 185.556 182.949 185.664 182.949 185.784V186.228C182.949 186.396 182.997 186.432 183.165 186.432Z" fill="black"/>
<path d="M175.107 188.196C173.031 188.196 171.567 187.104 171.567 184.98V180.504C171.567 178.392 173.031 177.288 175.107 177.288C177.183 177.288 178.647 178.392 178.647 180.504V184.98C178.647 187.104 177.183 188.196 175.107 188.196ZM175.107 186.156C175.707 186.156 176.235 185.856 176.235 185.088V180.396C176.235 179.652 175.707 179.328 175.107 179.328C174.507 179.328 173.979 179.652 173.979 180.396V185.088C173.979 185.856 174.507 186.156 175.107 186.156Z" fill="black"/>
<path d="M166.822 188.196C164.746 188.196 163.282 187.104 163.282 184.98V180.504C163.282 178.392 164.746 177.288 166.822 177.288C168.898 177.288 170.362 178.392 170.362 180.504V184.98C170.362 187.104 168.898 188.196 166.822 188.196ZM166.822 186.156C167.422 186.156 167.95 185.856 167.95 185.088V180.396C167.95 179.652 167.422 179.328 166.822 179.328C166.222 179.328 165.694 179.652 165.694 180.396V185.088C165.694 185.856 166.222 186.156 166.822 186.156Z" fill="black"/>
<path d="M158.537 188.196C156.461 188.196 154.997 187.104 154.997 184.98V180.504C154.997 178.392 156.461 177.288 158.537 177.288C160.613 177.288 162.077 178.392 162.077 180.504V184.98C162.077 187.104 160.613 188.196 158.537 188.196ZM158.537 186.156C159.137 186.156 159.665 185.856 159.665 185.088V180.396C159.665 179.652 159.137 179.328 158.537 179.328C157.937 179.328 157.409 179.652 157.409 180.396V185.088C157.409 185.856 157.937 186.156 158.537 186.156Z" fill="black"/>
<path d="M152.291 188.796C152.555 188.652 152.723 188.376 152.723 188.028V188.016C152.051 187.956 151.619 187.536 151.619 186.852C151.619 186.12 152.135 185.664 152.891 185.664C153.647 185.664 154.163 186.192 154.163 186.912V187.02C154.163 188.412 153.575 189.276 152.735 189.6C152.531 189.672 152.315 189.72 152.123 189.696C151.919 189.672 151.679 189.564 151.703 189.24C151.715 189.048 151.823 188.928 152.039 188.88C152.123 188.856 152.195 188.844 152.291 188.796Z" fill="black"/>
<path d="M149.752 182.484C150.364 182.928 150.784 183.588 150.784 184.488V185.364C150.784 187.32 149.008 188.196 147.172 188.196C145.336 188.196 143.56 187.32 143.56 185.364V184.488C143.56 183.576 143.968 182.928 144.58 182.472C144.076 182.064 143.74 181.512 143.74 180.792V180.072C143.74 178.092 145.42 177.288 147.172 177.288C148.888 177.288 150.604 178.092 150.604 180.072V180.792C150.604 181.512 150.268 182.076 149.752 182.484ZM146.044 180.156V180.684C146.044 181.344 146.512 181.62 147.172 181.62C147.832 181.62 148.3 181.344 148.3 180.684V180.156C148.3 179.496 147.832 179.22 147.172 179.22C146.512 179.22 146.044 179.496 146.044 180.156ZM148.456 185.244V184.464C148.456 183.804 147.976 183.456 147.172 183.456C146.368 183.456 145.888 183.804 145.888 184.464V185.244C145.888 185.904 146.368 186.252 147.172 186.252C147.976 186.252 148.456 185.904 148.456 185.244Z" fill="black"/>
<path d="M137.926 184.38H139.354V180.588C139.354 179.844 139.918 179.508 140.47 179.508C141.022 179.508 141.574 179.844 141.574 180.588V184.38H142.654V186.348H141.574V188.004H139.354V186.348H136.774C135.322 186.348 134.758 185.52 135.094 184.296L136.738 178.272C136.942 177.54 137.434 177.216 138.046 177.288C138.682 177.36 139.198 177.888 139.03 178.62L137.578 184.044C137.506 184.308 137.602 184.38 137.926 184.38Z" fill="black"/>
<path d="M274.009 183.912H275.833V178.188C275.833 177.408 276.397 177 277.033 177C277.669 177 278.233 177.408 278.233 178.188V185.988H275.833V185.604H274.009C273.457 185.604 273.085 185.292 273.085 184.764C273.085 184.248 273.445 183.912 274.009 183.912ZM272.665 181.2H269.869C268.513 181.2 267.709 180.408 267.709 179.244V179.208C267.709 178.056 268.513 177.264 269.869 177.264H272.665C274.021 177.264 274.789 178.056 274.789 179.208V179.244C274.789 180.408 274.021 181.2 272.665 181.2ZM269.989 179.22V179.256C269.989 179.472 270.145 179.628 270.481 179.628H272.029C272.365 179.628 272.509 179.472 272.509 179.256V179.22C272.509 178.992 272.365 178.824 272.029 178.824H270.481C270.145 178.824 269.989 178.992 269.989 179.22ZM270.865 186.432H277.585C278.281 186.432 278.557 186.864 278.557 187.344C278.557 187.836 278.269 188.268 277.585 188.268H269.917C268.573 188.268 268.213 187.8 268.213 186.516V185.784C268.213 185.076 268.777 184.704 269.449 184.704C269.641 184.704 269.833 184.74 269.989 184.8V183.528H268.285C267.637 183.528 267.337 183.144 267.337 182.64C267.337 182.148 267.625 181.74 268.285 181.74H274.465C275.125 181.74 275.413 182.148 275.413 182.64C275.413 183.144 275.113 183.528 274.465 183.528H272.317V185.448H270.601C270.637 185.556 270.649 185.664 270.649 185.784V186.228C270.649 186.396 270.697 186.432 270.865 186.432Z" fill="black"/>
<path d="M262.808 188.196C260.732 188.196 259.268 187.104 259.268 184.98V180.504C259.268 178.392 260.732 177.288 262.808 177.288C264.884 177.288 266.348 178.392 266.348 180.504V184.98C266.348 187.104 264.884 188.196 262.808 188.196ZM262.808 186.156C263.408 186.156 263.936 185.856 263.936 185.088V180.396C263.936 179.652 263.408 179.328 262.808 179.328C262.208 179.328 261.68 179.652 261.68 180.396V185.088C261.68 185.856 262.208 186.156 262.808 186.156Z" fill="black"/>
<path d="M254.522 188.196C252.446 188.196 250.982 187.104 250.982 184.98V180.504C250.982 178.392 252.446 177.288 254.522 177.288C256.598 177.288 258.062 178.392 258.062 180.504V184.98C258.062 187.104 256.598 188.196 254.522 188.196ZM254.522 186.156C255.122 186.156 255.65 185.856 255.65 185.088V180.396C255.65 179.652 255.122 179.328 254.522 179.328C253.922 179.328 253.394 179.652 253.394 180.396V185.088C253.394 185.856 253.922 186.156 254.522 186.156Z" fill="black"/>
<path d="M246.237 188.196C244.161 188.196 242.697 187.104 242.697 184.98V180.504C242.697 178.392 244.161 177.288 246.237 177.288C248.313 177.288 249.777 178.392 249.777 180.504V184.98C249.777 187.104 248.313 188.196 246.237 188.196ZM246.237 186.156C246.837 186.156 247.365 185.856 247.365 185.088V180.396C247.365 179.652 246.837 179.328 246.237 179.328C245.637 179.328 245.109 179.652 245.109 180.396V185.088C245.109 185.856 245.637 186.156 246.237 186.156Z" fill="black"/>
<path d="M239.991 188.796C240.255 188.652 240.423 188.376 240.423 188.028V188.016C239.751 187.956 239.319 187.536 239.319 186.852C239.319 186.12 239.835 185.664 240.591 185.664C241.347 185.664 241.863 186.192 241.863 186.912V187.02C241.863 188.412 241.275 189.276 240.435 189.6C240.231 189.672 240.015 189.72 239.823 189.696C239.619 189.672 239.379 189.564 239.403 189.24C239.415 189.048 239.523 188.928 239.739 188.88C239.823 188.856 239.895 188.844 239.991 188.796Z" fill="black"/>
<path d="M237.452 182.484C238.064 182.928 238.484 183.588 238.484 184.488V185.364C238.484 187.32 236.708 188.196 234.872 188.196C233.036 188.196 231.26 187.32 231.26 185.364V184.488C231.26 183.576 231.668 182.928 232.28 182.472C231.776 182.064 231.44 181.512 231.44 180.792V180.072C231.44 178.092 233.12 177.288 234.872 177.288C236.588 177.288 238.304 178.092 238.304 180.072V180.792C238.304 181.512 237.968 182.076 237.452 182.484ZM233.744 180.156V180.684C233.744 181.344 234.212 181.62 234.872 181.62C235.532 181.62 236 181.344 236 180.684V180.156C236 179.496 235.532 179.22 234.872 179.22C234.212 179.22 233.744 179.496 233.744 180.156ZM236.156 185.244V184.464C236.156 183.804 235.676 183.456 234.872 183.456C234.068 183.456 233.588 183.804 233.588 184.464V185.244C233.588 185.904 234.068 186.252 234.872 186.252C235.676 186.252 236.156 185.904 236.156 185.244Z" fill="black"/>
<path d="M227.628 178.032C227.808 177.54 228.18 177.288 228.684 177.288C229.38 177.288 229.884 177.708 229.884 178.5V188.004H227.484V181.008H226.476C225.804 181.008 225.24 180.66 225.24 180C225.24 179.448 225.624 179.088 226.104 179.016C226.752 178.932 227.4 178.668 227.628 178.032Z" fill="black"/>
<path d="M95.8898 183.912H97.7138V178.188C97.7138 177.408 98.2778 177 98.9138 177C99.5498 177 100.114 177.408 100.114 178.188V185.988H97.7138V185.604H95.8898C95.3378 185.604 94.9658 185.292 94.9658 184.764C94.9658 184.248 95.3258 183.912 95.8898 183.912ZM94.5458 181.2H91.7498C90.3938 181.2 89.5898 180.408 89.5898 179.244V179.208C89.5898 178.056 90.3938 177.264 91.7498 177.264H94.5458C95.9018 177.264 96.6698 178.056 96.6698 179.208V179.244C96.6698 180.408 95.9018 181.2 94.5458 181.2ZM91.8698 179.22V179.256C91.8698 179.472 92.0258 179.628 92.3618 179.628H93.9098C94.2458 179.628 94.3898 179.472 94.3898 179.256V179.22C94.3898 178.992 94.2458 178.824 93.9098 178.824H92.3618C92.0258 178.824 91.8698 178.992 91.8698 179.22ZM92.7458 186.432H99.4658C100.162 186.432 100.438 186.864 100.438 187.344C100.438 187.836 100.15 188.268 99.4658 188.268H91.7978C90.4538 188.268 90.0938 187.8 90.0938 186.516V185.784C90.0938 185.076 90.6578 184.704 91.3298 184.704C91.5218 184.704 91.7138 184.74 91.8698 184.8V183.528H90.1658C89.5178 183.528 89.2178 183.144 89.2178 182.64C89.2178 182.148 89.5058 181.74 90.1658 181.74H96.3458C97.0058 181.74 97.2938 182.148 97.2938 182.64C97.2938 183.144 96.9938 183.528 96.3458 183.528H94.1978V185.448H92.4818C92.5178 185.556 92.5298 185.664 92.5298 185.784V186.228C92.5298 186.396 92.5778 186.432 92.7458 186.432Z" fill="black"/>
<path d="M84.6884 188.196C82.6124 188.196 81.1484 187.104 81.1484 184.98V180.504C81.1484 178.392 82.6124 177.288 84.6884 177.288C86.7644 177.288 88.2284 178.392 88.2284 180.504V184.98C88.2284 187.104 86.7644 188.196 84.6884 188.196ZM84.6884 186.156C85.2884 186.156 85.8164 185.856 85.8164 185.088V180.396C85.8164 179.652 85.2884 179.328 84.6884 179.328C84.0884 179.328 83.5604 179.652 83.5604 180.396V185.088C83.5604 185.856 84.0884 186.156 84.6884 186.156Z" fill="black"/>
<path d="M76.4033 188.196C74.3273 188.196 72.8633 187.104 72.8633 184.98V180.504C72.8633 178.392 74.3273 177.288 76.4033 177.288C78.4793 177.288 79.9433 178.392 79.9433 180.504V184.98C79.9433 187.104 78.4793 188.196 76.4033 188.196ZM76.4033 186.156C77.0033 186.156 77.5313 185.856 77.5313 185.088V180.396C77.5313 179.652 77.0033 179.328 76.4033 179.328C75.8033 179.328 75.2753 179.652 75.2753 180.396V185.088C75.2753 185.856 75.8033 186.156 76.4033 186.156Z" fill="black"/>
<path d="M68.1181 188.196C66.0421 188.196 64.5781 187.104 64.5781 184.98V180.504C64.5781 178.392 66.0421 177.288 68.1181 177.288C70.1941 177.288 71.6581 178.392 71.6581 180.504V184.98C71.6581 187.104 70.1941 188.196 68.1181 188.196ZM68.1181 186.156C68.7181 186.156 69.2461 185.856 69.2461 185.088V180.396C69.2461 179.652 68.7181 179.328 68.1181 179.328C67.5181 179.328 66.9901 179.652 66.9901 180.396V185.088C66.9901 185.856 67.5181 186.156 68.1181 186.156Z" fill="black"/>
<path d="M61.8722 188.796C62.1362 188.652 62.3042 188.376 62.3042 188.028V188.016C61.6322 187.956 61.2002 187.536 61.2002 186.852C61.2002 186.12 61.7162 185.664 62.4722 185.664C63.2282 185.664 63.7442 186.192 63.7442 186.912V187.02C63.7442 188.412 63.1562 189.276 62.3162 189.6C62.1122 189.672 61.8962 189.72 61.7042 189.696C61.5002 189.672 61.2602 189.564 61.2842 189.24C61.2962 189.048 61.4042 188.928 61.6202 188.88C61.7042 188.856 61.7762 188.844 61.8722 188.796Z" fill="black"/>
<path d="M59.8879 179.856L58.0398 181.68C59.4919 181.848 60.6199 182.928 60.6199 184.704C60.6199 186.984 58.9518 188.196 56.8158 188.196C55.7478 188.196 54.5599 187.812 53.9958 187.056C53.6718 186.612 53.7198 185.988 54.1278 185.628C54.4638 185.328 54.8358 185.316 55.1838 185.436C55.4478 185.532 55.6398 185.688 55.8438 185.808C56.0598 185.928 56.3718 186.012 56.8038 186.012C57.6918 186.012 58.2679 185.484 58.2679 184.62C58.2679 183.708 57.5958 183.252 56.5998 183.252H55.9519C55.4839 183.252 55.1478 182.952 55.0638 182.616C54.9558 182.184 55.0518 181.848 55.4598 181.452L57.4519 179.484H54.9438C54.2358 179.484 53.9598 178.956 53.9598 178.488C53.9598 178.032 54.2478 177.48 54.9438 177.48H58.9159C60.2119 177.48 60.7039 179.064 59.8879 179.856Z" fill="black"/>
<path d="M50.388 178.032C50.568 177.54 50.94 177.288 51.444 177.288C52.14 177.288 52.644 177.708 52.644 178.5V188.004H50.244V181.008H49.236C48.564 181.008 48 180.66 48 180C48 179.448 48.384 179.088 48.864 179.016C49.512 178.932 50.16 178.668 50.388 178.032Z" fill="black"/>
<path d="M390 1C400.493 1 409 9.50659 409 20V32H316C305.507 32 297 23.4934 297 13V1H390Z" fill="#FFCE2E" stroke="#111111" stroke-width="2"/>
<path d="M370.779 10.5742H372.627V12.1142H375.175V10.5742H377.009V16.2442H370.779V10.5742ZM372.627 13.5002V14.8022H375.175V13.5002H372.627ZM378.745 10.0142H380.607V16.5942H378.745V10.0142ZM379.865 12.4922H382.315V14.0182H379.865V12.4922ZM372.053 17.0842H380.607V20.6262H373.915V22.1522H372.067V19.2962H378.773V18.5122H372.053V17.0842ZM372.067 21.4382H380.985V22.8942H372.067V21.4382Z" fill="#111111"/>
<path d="M366.861 10H368.625V22.964H366.861V10ZM365.209 14.886H367.365V16.384H365.209V14.886ZM361.345 11.596H363.137C363.137 12.5107 363.058 13.3787 362.899 14.2C362.75 15.0213 362.498 15.8007 362.143 16.538C361.788 17.266 361.308 17.9473 360.701 18.582C360.104 19.2073 359.352 19.786 358.447 20.318L357.369 19.016C358.349 18.4373 359.128 17.8027 359.707 17.112C360.295 16.412 360.715 15.642 360.967 14.802C361.219 13.9527 361.345 13.01 361.345 11.974V11.596ZM358.013 11.596H361.891V13.08H358.013V11.596ZM363.977 10.336H365.727V22.404H363.977V10.336Z" fill="#111111"/>
<path d="M344.414 10.7142C344.993 10.7142 345.506 10.8402 345.954 11.0922C346.402 11.3442 346.752 11.6988 347.004 12.1562C347.256 12.6042 347.382 13.1222 347.382 13.7102C347.382 14.3075 347.256 14.8348 347.004 15.2922C346.752 15.7402 346.402 16.0948 345.954 16.3562C345.506 16.6082 344.993 16.7342 344.414 16.7342C343.845 16.7342 343.336 16.6082 342.888 16.3562C342.44 16.0948 342.09 15.7402 341.838 15.2922C341.586 14.8348 341.46 14.3075 341.46 13.7102C341.46 13.1128 341.586 12.5948 341.838 12.1562C342.09 11.7082 342.44 11.3582 342.888 11.1062C343.336 10.8448 343.845 10.7142 344.414 10.7142ZM344.414 12.2122C344.162 12.2122 343.938 12.2728 343.742 12.3942C343.546 12.5062 343.397 12.6742 343.294 12.8982C343.191 13.1222 343.14 13.3928 343.14 13.7102C343.14 14.0368 343.191 14.3122 343.294 14.5362C343.397 14.7508 343.546 14.9188 343.742 15.0402C343.938 15.1615 344.162 15.2222 344.414 15.2222C344.666 15.2222 344.89 15.1615 345.086 15.0402C345.282 14.9188 345.431 14.7508 345.534 14.5362C345.646 14.3122 345.702 14.0368 345.702 13.7102C345.702 13.3928 345.646 13.1222 345.534 12.8982C345.431 12.6742 345.282 12.5062 345.086 12.3942C344.89 12.2728 344.666 12.2122 344.414 12.2122ZM350.686 10.0142H352.464V17.0562H350.686V10.0142ZM349.188 12.7162H351.232V14.2142H349.188V12.7162ZM347.956 10.2522H349.692V16.9722H347.956V10.2522ZM343.658 17.6022H345.492V18.7642H350.63V17.6022H352.464V22.8382H343.658V17.6022ZM345.492 20.2062V21.3402H350.63V20.2062H345.492Z" fill="#111111"/>
<path d="M340.668 11.0728L337.387 23.2631H335.562L338.844 11.0728H340.668Z" fill="#111111"/>
<path d="M332.534 10.0142H334.298V17.9802H332.534V10.0142ZM330.056 10.2382H331.792V17.9522H330.056V10.2382ZM328.152 16.3422H330.756V17.5602H328.152V16.3422ZM325.534 15.4322H327.312V17.9102H325.534V15.4322ZM323.168 16.1882L323 14.8022C323.42 14.8022 323.896 14.8022 324.428 14.8022C324.969 14.7928 325.534 14.7788 326.122 14.7602C326.71 14.7322 327.293 14.6948 327.872 14.6482C328.46 14.6015 329.015 14.5362 329.538 14.4522L329.664 15.6842C328.955 15.8428 328.203 15.9595 327.41 16.0342C326.626 16.0995 325.861 16.1415 325.114 16.1602C324.377 16.1788 323.728 16.1882 323.168 16.1882ZM325.072 18.4002H326.92V19.2542H332.464V18.4002H334.298V22.8382H325.072V18.4002ZM326.92 20.6262V21.3962H332.464V20.6262H326.92ZM326.36 10.4342C327.209 10.4342 327.895 10.6115 328.418 10.9662C328.941 11.3208 329.202 11.7922 329.202 12.3802C329.202 12.9682 328.941 13.4395 328.418 13.7942C327.895 14.1488 327.209 14.3262 326.36 14.3262C325.52 14.3262 324.839 14.1488 324.316 13.7942C323.793 13.4395 323.532 12.9682 323.532 12.3802C323.532 11.7922 323.793 11.3208 324.316 10.9662C324.839 10.6115 325.52 10.4342 326.36 10.4342ZM326.36 11.7082C326.005 11.7082 325.721 11.7642 325.506 11.8762C325.291 11.9882 325.184 12.1562 325.184 12.3802C325.184 12.6042 325.291 12.7722 325.506 12.8842C325.721 12.9962 326.005 13.0522 326.36 13.0522C326.715 13.0522 326.999 12.9962 327.214 12.8842C327.429 12.7722 327.536 12.6042 327.536 12.3802C327.536 12.1562 327.429 11.9882 327.214 11.8762C326.999 11.7642 326.715 11.7082 326.36 11.7082Z" fill="#111111"/>
<circle cx="60.5" cy="212.5" r="17.5" fill="#111111"/>
<g clip-path="url(#clip0_2752_2545)">
<mask id="mask0_2752_2545" style="mask-type:luminance" maskUnits="userSpaceOnUse" x="49" y="206" width="22" height="13">
<path d="M49 206H71V218.764H49V206Z" fill="white"/>
</mask>
<g mask="url(#mask0_2752_2545)">
<path fill-rule="evenodd" clip-rule="evenodd" d="M60 206C57.0667 206 55.2333 207.418 54.5 210.255C55.6 208.836 56.8833 208.305 58.35 208.659C59.1868 208.861 59.7849 209.449 60.4469 210.098C61.5253 211.157 62.7736 212.382 65.5 212.382C68.4333 212.382 70.2667 210.964 71 208.127C69.9 209.545 68.6167 210.077 67.15 209.723C66.3132 209.521 65.7151 208.933 65.0531 208.284C63.9747 207.225 62.7264 206 60 206ZM54.5 212.382C51.5667 212.382 49.7333 213.8 49 216.636C50.1 215.218 51.3833 214.686 52.85 215.041C53.6868 215.243 54.2849 215.83 54.9469 216.48C56.0253 217.538 57.2736 218.764 60 218.764C62.9333 218.764 64.7667 217.345 65.5 214.509C64.4 215.927 63.1167 216.459 61.65 216.105C60.8132 215.902 60.2151 215.315 59.5531 214.665C58.4747 213.607 57.2264 212.382 54.5 212.382Z" fill="#38BDF8"/>
</g>
</g>
<circle cx="33.5" cy="212.5" r="17.5" fill="#111111"/>
<g clip-path="url(#clip1_2752_2545)">
<path d="M33.5002 214.282C34.6324 214.282 35.5502 213.364 35.5502 212.232C35.5502 211.099 34.6324 210.182 33.5002 210.182C32.368 210.182 31.4502 211.099 31.4502 212.232C31.4502 213.364 32.368 214.282 33.5002 214.282Z" fill="#61DAFB"/>
<path d="M33.5 216.432C39.5751 216.432 44.5 214.551 44.5 212.232C44.5 209.912 39.5751 208.032 33.5 208.032C27.4249 208.032 22.5 209.912 22.5 212.232C22.5 214.551 27.4249 216.432 33.5 216.432Z" stroke="#61DAFB"/>
<path d="M29.8631 214.332C32.9006 219.593 36.9916 222.918 39.0004 221.758C41.0092 220.598 40.1753 215.393 37.1377 210.132C34.1001 204.871 30.0092 201.546 28.0004 202.705C25.9916 203.865 26.8255 209.071 29.8631 214.332Z" stroke="#61DAFB"/>
<path d="M29.8631 210.132C26.8255 215.393 25.9916 220.598 28.0004 221.758C30.0092 222.918 34.1001 219.593 37.1377 214.332C40.1753 209.07 41.0092 203.865 39.0004 202.705C36.9916 201.546 32.9006 204.87 29.8631 210.132Z" stroke="#61DAFB"/>
</g>
<circle cx="87.5" cy="212.5" r="17.5" fill="#111111"/>
<path d="M89.1116 223.185C88.5503 223.906 87.4124 223.511 87.3989 222.591L87.2012 209.138H96.0761C97.6836 209.138 98.5802 211.031 97.5806 212.314L89.1116 223.185Z" fill="url(#paint0_linear_2752_2545)"/>
<path d="M89.1057 223.195C88.5445 223.915 87.4066 223.521 87.393 222.601L87.1953 209.148H96.0703C97.6778 209.148 98.5743 211.04 97.5747 212.323L89.1057 223.195Z" fill="url(#paint1_linear_2752_2545)" fill-opacity="0.2"/>
<path d="M85.4966 201.548C86.0579 200.828 87.1958 201.222 87.2093 202.142L87.296 215.595H78.5321C76.9245 215.595 76.028 213.703 77.0276 212.42L85.4966 201.548Z" fill="#3ECF8E"/>
<circle cx="114.5" cy="212.5" r="17.5" fill="#111111"/>
<g clip-path="url(#clip2_2752_2545)">
<path d="M114.5 200.961L125.5 220.014H103.5L114.5 200.961Z" fill="white"/>
</g>
<defs>
<linearGradient id="paint0_linear_2752_2545" x1="87.2012" y1="212.121" x2="95.1334" y2="215.385" gradientUnits="userSpaceOnUse">
<stop stop-color="#249361"/>
<stop offset="1" stop-color="#3ECF8E"/>
</linearGradient>
<linearGradient id="paint1_linear_2752_2545" x1="83.6983" y1="207.25" x2="87.4037" y2="214.094" gradientUnits="userSpaceOnUse">
<stop/>
<stop offset="1" stop-opacity="0"/>
</linearGradient>
<clipPath id="clip0_2752_2545">
<rect width="22" height="13" fill="white" transform="translate(49 206)"/>
</clipPath>
<clipPath id="clip1_2752_2545">
<rect width="23" height="20.4635" fill="white" transform="translate(22 202)"/>
</clipPath>
<clipPath id="clip2_2752_2545">
<rect width="22" height="22" fill="white" transform="translate(103.5 199.5)"/>
</clipPath>
</defs>
</svg>
