<svg width="410" height="244" viewBox="0 0 410 244" fill="none" xmlns="http://www.w3.org/2000/svg">
<path d="M0 20C0 8.95431 8.95431 0 20 0H390C401.046 0 410 8.95431 410 20V224C410 235.046 401.046 244 390 244H20C8.95431 244 0 235.046 0 224V20Z" fill="white"/>
<path d="M390 242V244H20V242H390ZM408 224V20C408 10.0589 399.941 2 390 2H20C10.0589 2 2 10.0589 2 20V224C2 233.941 10.0589 242 20 242V244L19.4834 243.993C8.84814 243.724 0.276492 235.152 0.00683594 224.517L0 224V20C2.79059e-06 9.12703 8.67646 0.280844 19.4834 0.00683594L20 0H390L390.517 0.00683594C401.324 0.280847 410 9.12703 410 20V224L409.993 224.517C409.724 235.152 401.152 243.724 390.517 243.993L390 244V242C399.941 242 408 233.941 408 224Z" fill="#111111"/>
<path d="M390 1C400.493 1 409 9.50659 409 20V32H316C305.507 32 297 23.4934 297 13V1H390Z" fill="#FFCE2E" stroke="#111111" stroke-width="2"/>
<path d="M370.78 10.5742H372.628V12.1142H375.176V10.5742H377.01V16.2442H370.78V10.5742ZM372.628 13.5002V14.8022H375.176V13.5002H372.628ZM378.746 10.0142H380.608V16.5942H378.746V10.0142ZM379.866 12.4922H382.316V14.0182H379.866V12.4922ZM372.054 17.0842H380.608V20.6262H373.916V22.1522H372.068V19.2962H378.774V18.5122H372.054V17.0842ZM372.068 21.4382H380.986V22.8942H372.068V21.4382Z" fill="#111111"/>
<path d="M366.861 10H368.625V22.964H366.861V10ZM365.209 14.886H367.365V16.384H365.209V14.886ZM361.345 11.596H363.137C363.137 12.5107 363.057 13.3787 362.899 14.2C362.749 15.0213 362.497 15.8007 362.143 16.538C361.788 17.266 361.307 17.9473 360.701 18.582C360.103 19.2073 359.352 19.786 358.447 20.318L357.369 19.016C358.349 18.4373 359.128 17.8027 359.707 17.112C360.295 16.412 360.715 15.642 360.967 14.802C361.219 13.9527 361.345 13.01 361.345 11.974V11.596ZM358.013 11.596H361.891V13.08H358.013V11.596ZM363.977 10.336H365.727V22.404H363.977V10.336Z" fill="#111111"/>
<path d="M344.414 10.7142C344.993 10.7142 345.506 10.8402 345.954 11.0922C346.402 11.3442 346.752 11.6988 347.004 12.1562C347.256 12.6042 347.382 13.1222 347.382 13.7102C347.382 14.3075 347.256 14.8348 347.004 15.2922C346.752 15.7402 346.402 16.0948 345.954 16.3562C345.506 16.6082 344.993 16.7342 344.414 16.7342C343.845 16.7342 343.336 16.6082 342.888 16.3562C342.44 16.0948 342.09 15.7402 341.838 15.2922C341.586 14.8348 341.46 14.3075 341.46 13.7102C341.46 13.1128 341.586 12.5948 341.838 12.1562C342.09 11.7082 342.44 11.3582 342.888 11.1062C343.336 10.8448 343.845 10.7142 344.414 10.7142ZM344.414 12.2122C344.162 12.2122 343.938 12.2728 343.742 12.3942C343.546 12.5062 343.397 12.6742 343.294 12.8982C343.191 13.1222 343.14 13.3928 343.14 13.7102C343.14 14.0368 343.191 14.3122 343.294 14.5362C343.397 14.7508 343.546 14.9188 343.742 15.0402C343.938 15.1615 344.162 15.2222 344.414 15.2222C344.666 15.2222 344.89 15.1615 345.086 15.0402C345.282 14.9188 345.431 14.7508 345.534 14.5362C345.646 14.3122 345.702 14.0368 345.702 13.7102C345.702 13.3928 345.646 13.1222 345.534 12.8982C345.431 12.6742 345.282 12.5062 345.086 12.3942C344.89 12.2728 344.666 12.2122 344.414 12.2122ZM350.686 10.0142H352.464V17.0562H350.686V10.0142ZM349.188 12.7162H351.232V14.2142H349.188V12.7162ZM347.956 10.2522H349.692V16.9722H347.956V10.2522ZM343.658 17.6022H345.492V18.7642H350.63V17.6022H352.464V22.8382H343.658V17.6022ZM345.492 20.2062V21.3402H350.63V20.2062H345.492Z" fill="#111111"/>
<path d="M340.668 11.0728L337.387 23.2631H335.562L338.844 11.0728H340.668Z" fill="#111111"/>
<path d="M332.534 10.0142H334.298V17.9802H332.534V10.0142ZM330.056 10.2382H331.792V17.9522H330.056V10.2382ZM328.152 16.3422H330.756V17.5602H328.152V16.3422ZM325.534 15.4322H327.312V17.9102H325.534V15.4322ZM323.168 16.1882L323 14.8022C323.42 14.8022 323.896 14.8022 324.428 14.8022C324.969 14.7928 325.534 14.7788 326.122 14.7602C326.71 14.7322 327.293 14.6948 327.872 14.6482C328.46 14.6015 329.015 14.5362 329.538 14.4522L329.664 15.6842C328.955 15.8428 328.203 15.9595 327.41 16.0342C326.626 16.0995 325.861 16.1415 325.114 16.1602C324.377 16.1788 323.728 16.1882 323.168 16.1882ZM325.072 18.4002H326.92V19.2542H332.464V18.4002H334.298V22.8382H325.072V18.4002ZM326.92 20.6262V21.3962H332.464V20.6262H326.92ZM326.36 10.4342C327.209 10.4342 327.895 10.6115 328.418 10.9662C328.941 11.3208 329.202 11.7922 329.202 12.3802C329.202 12.9682 328.941 13.4395 328.418 13.7942C327.895 14.1488 327.209 14.3262 326.36 14.3262C325.52 14.3262 324.839 14.1488 324.316 13.7942C323.793 13.4395 323.532 12.9682 323.532 12.3802C323.532 11.7922 323.793 11.3208 324.316 10.9662C324.839 10.6115 325.52 10.4342 326.36 10.4342ZM326.36 11.7082C326.005 11.7082 325.721 11.7642 325.506 11.8762C325.291 11.9882 325.184 12.1562 325.184 12.3802C325.184 12.6042 325.291 12.7722 325.506 12.8842C325.721 12.9962 326.005 13.0522 326.36 13.0522C326.715 13.0522 326.999 12.9962 327.214 12.8842C327.429 12.7722 327.536 12.6042 327.536 12.3802C327.536 12.1562 327.429 11.9882 327.214 11.8762C326.999 11.7642 326.715 11.7082 326.36 11.7082Z" fill="#111111"/>
<circle cx="60.5" cy="212.5" r="17.5" fill="#111111"/>
<g clip-path="url(#clip0_2752_2545)">
<mask id="mask0_2752_2545" style="mask-type:luminance" maskUnits="userSpaceOnUse" x="49" y="206" width="22" height="13">
<path d="M49 206H71V218.764H49V206Z" fill="white"/>
</mask>
<g mask="url(#mask0_2752_2545)">
<path fill-rule="evenodd" clip-rule="evenodd" d="M60 206C57.0667 206 55.2333 207.418 54.5 210.255C55.6 208.836 56.8833 208.305 58.35 208.659C59.1868 208.861 59.7849 209.449 60.4469 210.098C61.5253 211.157 62.7736 212.382 65.5 212.382C68.4333 212.382 70.2667 210.964 71 208.127C69.9 209.545 68.6167 210.077 67.15 209.723C66.3132 209.521 65.7151 208.933 65.0531 208.284C63.9747 207.225 62.7264 206 60 206ZM54.5 212.382C51.5667 212.382 49.7333 213.8 49 216.636C50.1 215.218 51.3833 214.686 52.85 215.041C53.6868 215.243 54.2849 215.83 54.9469 216.48C56.0253 217.538 57.2736 218.764 60 218.764C62.9333 218.764 64.7667 217.345 65.5 214.509C64.4 215.927 63.1167 216.459 61.65 216.105C60.8132 215.902 60.2151 215.315 59.5531 214.665C58.4747 213.607 57.2264 212.382 54.5 212.382Z" fill="#38BDF8"/>
</g>
</g>
<circle cx="33.5" cy="212.5" r="17.5" fill="#111111"/>
<g clip-path="url(#clip1_2752_2545)">
<path d="M33.5002 214.282C34.6324 214.282 35.5502 213.364 35.5502 212.232C35.5502 211.099 34.6324 210.182 33.5002 210.182C32.368 210.182 31.4502 211.099 31.4502 212.232C31.4502 213.364 32.368 214.282 33.5002 214.282Z" fill="#61DAFB"/>
<path d="M33.5 216.432C39.5751 216.432 44.5 214.551 44.5 212.232C44.5 209.912 39.5751 208.032 33.5 208.032C27.4249 208.032 22.5 209.912 22.5 212.232C22.5 214.551 27.4249 216.432 33.5 216.432Z" stroke="#61DAFB"/>
<path d="M29.8626 214.332C32.9002 219.593 36.9911 222.918 38.9999 221.758C41.0087 220.598 40.1748 215.393 37.1372 210.132C34.0996 204.871 30.0087 201.546 27.9999 202.705C25.9911 203.865 26.825 209.071 29.8626 214.332Z" stroke="#61DAFB"/>
<path d="M29.8626 210.132C26.825 215.393 25.9911 220.598 27.9999 221.758C30.0087 222.918 34.0996 219.593 37.1372 214.332C40.1748 209.071 41.0087 203.865 38.9999 202.706C36.9911 201.546 32.9002 204.871 29.8626 210.132Z" stroke="#61DAFB"/>
</g>
<circle cx="87.5" cy="212.5" r="17.5" fill="#111111"/>
<path d="M89.1106 223.185C88.5494 223.906 87.4115 223.511 87.3979 222.591L87.2002 209.138H96.0752C97.6827 209.138 98.5792 211.031 97.5796 212.314L89.1106 223.185Z" fill="url(#paint0_linear_2752_2545)"/>
<path d="M89.1057 223.195C88.5445 223.916 87.4066 223.521 87.393 222.601L87.1953 209.148H96.0703C97.6778 209.148 98.5743 211.04 97.5747 212.324L89.1057 223.195Z" fill="url(#paint1_linear_2752_2545)" fill-opacity="0.2"/>
<path d="M85.4962 201.548C86.0574 200.827 87.1953 201.222 87.2088 202.142L87.2955 215.595H78.5316C76.924 215.595 76.0275 213.703 77.0271 212.419L85.4962 201.548Z" fill="#3ECF8E"/>
<defs>
<linearGradient id="paint0_linear_2752_2545" x1="87.2002" y1="212.121" x2="95.1324" y2="215.385" gradientUnits="userSpaceOnUse">
<stop stop-color="#249361"/>
<stop offset="1" stop-color="#3ECF8E"/>
</linearGradient>
<linearGradient id="paint1_linear_2752_2545" x1="83.6983" y1="207.251" x2="87.4037" y2="214.094" gradientUnits="userSpaceOnUse">
<stop/>
<stop offset="1" stop-opacity="0"/>
</linearGradient>
<clipPath id="clip0_2752_2545">
<rect width="22" height="13" fill="white" transform="translate(49 206)"/>
</clipPath>
<clipPath id="clip1_2752_2545">
<rect width="23" height="20.4635" fill="white" transform="translate(22 202)"/>
</clipPath>
</defs>
</svg>
