<svg width="410" height="244" viewBox="0 0 410 244" fill="none" xmlns="http://www.w3.org/2000/svg">
<path d="M0 20C0 8.95431 8.95431 0 20 0H390C401.046 0 410 8.95431 410 20V224C410 235.046 401.046 244 390 244H20C8.95431 244 0 235.046 0 224V20Z" fill="white"/>
<path d="M390 242V244H20V242H390ZM408 224V20C408 10.0589 399.941 2 390 2H20C10.0589 2 2 10.0589 2 20V224C2 233.941 10.0589 242 20 242V244L19.4834 243.993C8.84814 243.724 0.276492 235.152 0.00683594 224.517L0 224V20C2.79059e-06 9.12703 8.67646 0.280844 19.4834 0.00683594L20 0H390L390.517 0.00683594C401.324 0.280847 410 9.12703 410 20V224L409.993 224.517C409.724 235.152 401.152 243.724 390.517 243.993L390 244V242C399.941 242 408 233.941 408 224Z" fill="#111111"/>
<path d="M390 1C400.493 1 409 9.50659 409 20V32H316C305.507 32 297 23.4934 297 13V1H390Z" fill="#FFCE2E" stroke="#111111" stroke-width="2"/>
<path d="M370.78 10.5737H372.628V12.1137H375.176V10.5737H377.01V16.2437H370.78V10.5737ZM372.628 13.4997V14.8017H375.176V13.4997H372.628ZM378.746 10.0137H380.608V16.5937H378.746V10.0137ZM379.866 12.4917H382.316V14.0177H379.866V12.4917ZM372.054 17.0837H380.608V20.6257H373.916V22.1517H372.068V19.2957H378.774V18.5117H372.054V17.0837ZM372.068 21.4377H380.986V22.8937H372.068V21.4377Z" fill="#111111"/>
<path d="M366.861 10H368.625V22.964H366.861V10ZM365.209 14.886H367.365V16.384H365.209V14.886ZM361.345 11.596H363.137C363.137 12.5107 363.057 13.3787 362.899 14.2C362.749 15.0213 362.497 15.8007 362.143 16.538C361.788 17.266 361.307 17.9473 360.701 18.582C360.103 19.2073 359.352 19.786 358.447 20.318L357.369 19.016C358.349 18.4373 359.128 17.8027 359.707 17.112C360.295 16.412 360.715 15.642 360.967 14.802C361.219 13.9527 361.345 13.01 361.345 11.974V11.596ZM358.013 11.596H361.891V13.08H358.013V11.596ZM363.977 10.336H365.727V22.404H363.977V10.336Z" fill="#111111"/>
<path d="M344.414 10.7137C344.993 10.7137 345.506 10.8397 345.954 11.0917C346.402 11.3437 346.752 11.6983 347.004 12.1557C347.256 12.6037 347.382 13.1217 347.382 13.7097C347.382 14.307 347.256 14.8343 347.004 15.2917C346.752 15.7397 346.402 16.0943 345.954 16.3557C345.506 16.6077 344.993 16.7337 344.414 16.7337C343.845 16.7337 343.336 16.6077 342.888 16.3557C342.44 16.0943 342.09 15.7397 341.838 15.2917C341.586 14.8343 341.46 14.307 341.46 13.7097C341.46 13.1123 341.586 12.5943 341.838 12.1557C342.09 11.7077 342.44 11.3577 342.888 11.1057C343.336 10.8443 343.845 10.7137 344.414 10.7137ZM344.414 12.2117C344.162 12.2117 343.938 12.2723 343.742 12.3937C343.546 12.5057 343.397 12.6737 343.294 12.8977C343.191 13.1217 343.14 13.3923 343.14 13.7097C343.14 14.0363 343.191 14.3117 343.294 14.5357C343.397 14.7503 343.546 14.9183 343.742 15.0397C343.938 15.161 344.162 15.2217 344.414 15.2217C344.666 15.2217 344.89 15.161 345.086 15.0397C345.282 14.9183 345.431 14.7503 345.534 14.5357C345.646 14.3117 345.702 14.0363 345.702 13.7097C345.702 13.3923 345.646 13.1217 345.534 12.8977C345.431 12.6737 345.282 12.5057 345.086 12.3937C344.89 12.2723 344.666 12.2117 344.414 12.2117ZM350.686 10.0137H352.464V17.0557H350.686V10.0137ZM349.188 12.7157H351.232V14.2137H349.188V12.7157ZM347.956 10.2517H349.692V16.9717H347.956V10.2517ZM343.658 17.6017H345.492V18.7637H350.63V17.6017H352.464V22.8377H343.658V17.6017ZM345.492 20.2057V21.3397H350.63V20.2057H345.492Z" fill="#111111"/>
<path d="M340.668 11.0723L337.387 23.2626H335.562L338.844 11.0723H340.668Z" fill="#111111"/>
<path d="M332.534 10.0137H334.298V17.9797H332.534V10.0137ZM330.056 10.2377H331.792V17.9517H330.056V10.2377ZM328.152 16.3417H330.756V17.5597H328.152V16.3417ZM325.534 15.4317H327.312V17.9097H325.534V15.4317ZM323.168 16.1877L323 14.8017C323.42 14.8017 323.896 14.8017 324.428 14.8017C324.969 14.7923 325.534 14.7783 326.122 14.7597C326.71 14.7317 327.293 14.6943 327.872 14.6477C328.46 14.601 329.015 14.5357 329.538 14.4517L329.664 15.6837C328.955 15.8423 328.203 15.959 327.41 16.0337C326.626 16.099 325.861 16.141 325.114 16.1597C324.377 16.1783 323.728 16.1877 323.168 16.1877ZM325.072 18.3997H326.92V19.2537H332.464V18.3997H334.298V22.8377H325.072V18.3997ZM326.92 20.6257V21.3957H332.464V20.6257H326.92ZM326.36 10.4337C327.209 10.4337 327.895 10.611 328.418 10.9657C328.941 11.3203 329.202 11.7917 329.202 12.3797C329.202 12.9677 328.941 13.439 328.418 13.7937C327.895 14.1483 327.209 14.3257 326.36 14.3257C325.52 14.3257 324.839 14.1483 324.316 13.7937C323.793 13.439 323.532 12.9677 323.532 12.3797C323.532 11.7917 323.793 11.3203 324.316 10.9657C324.839 10.611 325.52 10.4337 326.36 10.4337ZM326.36 11.7077C326.005 11.7077 325.721 11.7637 325.506 11.8757C325.291 11.9877 325.184 12.1557 325.184 12.3797C325.184 12.6037 325.291 12.7717 325.506 12.8837C325.721 12.9957 326.005 13.0517 326.36 13.0517C326.715 13.0517 326.999 12.9957 327.214 12.8837C327.429 12.7717 327.536 12.6037 327.536 12.3797C327.536 12.1557 327.429 11.9877 327.214 11.8757C326.999 11.7637 326.715 11.7077 326.36 11.7077Z" fill="#111111"/>
<circle cx="60.5" cy="212.5" r="17.5" fill="#111111"/>
<g clip-path="url(#clip0_2752_2545)">
<mask id="mask0_2752_2545" style="mask-type:luminance" maskUnits="userSpaceOnUse" x="49" y="206" width="22" height="13">
<path d="M49 206H71V218.764H49V206Z" fill="white"/>
</mask>
<g mask="url(#mask0_2752_2545)">
<path fill-rule="evenodd" clip-rule="evenodd" d="M60 206C57.0667 206 55.2333 207.418 54.5 210.255C55.6 208.836 56.8833 208.305 58.35 208.659C59.1868 208.861 59.7849 209.449 60.4469 210.098C61.5253 211.157 62.7736 212.382 65.5 212.382C68.4333 212.382 70.2667 210.964 71 208.127C69.9 209.545 68.6167 210.077 67.15 209.723C66.3132 209.521 65.7151 208.933 65.0531 208.284C63.9747 207.225 62.7264 206 60 206ZM54.5 212.382C51.5667 212.382 49.7333 213.8 49 216.636C50.1 215.218 51.3833 214.686 52.85 215.041C53.6868 215.243 54.2849 215.83 54.9469 216.48C56.0253 217.538 57.2736 218.764 60 218.764C62.9333 218.764 64.7667 217.345 65.5 214.509C64.4 215.927 63.1167 216.459 61.65 216.105C60.8132 215.902 60.2151 215.315 59.5531 214.665C58.4747 213.607 57.2264 212.382 54.5 212.382Z" fill="#38BDF8"/>
</g>
</g>
<circle cx="33.5" cy="212.5" r="17.5" fill="#111111"/>
<g clip-path="url(#clip1_2752_2545)">
<path d="M33.5002 214.282C34.6324 214.282 35.5502 213.364 35.5502 212.232C35.5502 211.099 34.6324 210.182 33.5002 210.182C32.368 210.182 31.4502 211.099 31.4502 212.232C31.4502 213.364 32.368 214.282 33.5002 214.282Z" fill="#61DAFB"/>
<path d="M33.5 216.432C39.5751 216.432 44.5 214.552 44.5 212.232C44.5 209.913 39.5751 208.032 33.5 208.032C27.4249 208.032 22.5 209.913 22.5 212.232C22.5 214.552 27.4249 216.432 33.5 216.432Z" stroke="#61DAFB"/>
<path d="M29.8626 214.332C32.9002 219.593 36.9911 222.918 38.9999 221.758C41.0087 220.598 40.1748 215.393 37.1372 210.132C34.0996 204.871 30.0087 201.546 27.9999 202.705C25.9911 203.865 26.825 209.071 29.8626 214.332Z" stroke="#61DAFB"/>
<path d="M29.8626 210.132C26.825 215.393 25.9911 220.598 27.9999 221.758C30.0087 222.918 34.0996 219.593 37.1372 214.332C40.1748 209.071 41.0087 203.865 38.9999 202.706C36.9911 201.546 32.9002 204.871 29.8626 210.132Z" stroke="#61DAFB"/>
</g>
<circle cx="87.5" cy="212.5" r="17.5" fill="#111111"/>
<path d="M89.1106 223.186C88.5494 223.906 87.4115 223.512 87.3979 222.592L87.2002 209.139H96.0752C97.6827 209.139 98.5792 211.031 97.5796 212.314L89.1106 223.186Z" fill="url(#paint0_linear_2752_2545)"/>
<path d="M89.1057 223.195C88.5445 223.915 87.4066 223.52 87.393 222.601L87.1953 209.147H96.0703C97.6778 209.147 98.5743 211.04 97.5747 212.323L89.1057 223.195Z" fill="url(#paint1_linear_2752_2545)" fill-opacity="0.2"/>
<path d="M85.4962 201.548C86.0574 200.827 87.1953 201.222 87.2088 202.142L87.2955 215.595H78.5316C76.924 215.595 76.0275 213.703 77.0271 212.419L85.4962 201.548Z" fill="#3ECF8E"/>
<defs>
<linearGradient id="paint0_linear_2752_2545" x1="87.2002" y1="212.122" x2="95.1324" y2="215.385" gradientUnits="userSpaceOnUse">
<stop stop-color="#249361"/>
<stop offset="1" stop-color="#3ECF8E"/>
</linearGradient>
<linearGradient id="paint1_linear_2752_2545" x1="83.6983" y1="207.25" x2="87.4037" y2="214.094" gradientUnits="userSpaceOnUse">
<stop/>
<stop offset="1" stop-opacity="0"/>
</linearGradient>
<clipPath id="clip0_2752_2545">
<rect width="22" height="13" fill="white" transform="translate(49 206)"/>
</clipPath>
<clipPath id="clip1_2752_2545">
<rect width="23" height="20.4635" fill="white" transform="translate(22 202)"/>
</clipPath>
</defs>
</svg>
