<svg width="410" height="244" viewBox="0 0 410 244" fill="none" xmlns="http://www.w3.org/2000/svg">
<path d="M0 20C0 8.95431 8.95431 0 20 0H390C401.046 0 410 8.95431 410 20V224C410 235.046 401.046 244 390 244H20C8.95431 244 0 235.046 0 224V20Z" fill="white"/>
<path d="M390 242V244H20V242H390ZM408 224V20C408 10.0589 399.941 2 390 2H20C10.0589 2 2 10.0589 2 20V224C2 233.941 10.0589 242 20 242V244L19.4834 243.993C8.84814 243.724 0.276492 235.152 0.00683594 224.517L0 224V20C2.79059e-06 9.12703 8.67646 0.280844 19.4834 0.00683594L20 0H390L390.517 0.00683594C401.324 0.280847 410 9.12703 410 20V224L409.993 224.517C409.724 235.152 401.152 243.724 390.517 243.993L390 244V242C399.941 242 408 233.941 408 224Z" fill="#111111"/>
<path d="M390 1C400.493 1 409 9.50659 409 20V32H316C305.507 32 297 23.4934 297 13V1H390Z" fill="#8AB5FF" stroke="#111111" stroke-width="2"/>
<path d="M377.668 15.9221H378.788C379.675 15.9221 380.454 15.9174 381.126 15.9081C381.807 15.8894 382.437 15.8567 383.016 15.8101C383.604 15.7634 384.197 15.6934 384.794 15.6001L384.976 17.0561C384.36 17.1494 383.749 17.2241 383.142 17.2801C382.545 17.3267 381.896 17.3594 381.196 17.3781C380.496 17.3874 379.693 17.3921 378.788 17.3921H377.668V15.9221ZM377.668 10.9941H383.912V12.4781H379.516V16.5101H377.668V10.9941ZM378.942 13.4581H383.534V14.9001H378.942V13.4581ZM385.872 10.1121H387.734V17.9521H385.872V10.1121ZM383.352 18.1481C384.267 18.1481 385.055 18.2461 385.718 18.4421C386.381 18.6381 386.889 18.9181 387.244 19.2821C387.608 19.6461 387.79 20.0894 387.79 20.6121C387.79 21.3961 387.393 22.0027 386.6 22.4321C385.807 22.8614 384.724 23.0761 383.352 23.0761C381.98 23.0761 380.897 22.8614 380.104 22.4321C379.32 22.0027 378.928 21.3961 378.928 20.6121C378.928 19.8374 379.32 19.2354 380.104 18.8061C380.897 18.3674 381.98 18.1481 383.352 18.1481ZM383.352 19.5621C382.792 19.5621 382.321 19.5994 381.938 19.6741C381.555 19.7487 381.266 19.8654 381.07 20.0241C380.874 20.1827 380.776 20.3787 380.776 20.6121C380.776 20.8454 380.874 21.0414 381.07 21.2001C381.266 21.3494 381.555 21.4614 381.938 21.5361C382.321 21.6107 382.792 21.6481 383.352 21.6481C383.921 21.6481 384.393 21.6107 384.766 21.5361C385.149 21.4614 385.438 21.3494 385.634 21.2001C385.839 21.0414 385.942 20.8454 385.942 20.6121C385.942 20.3787 385.839 20.1827 385.634 20.0241C385.438 19.8654 385.149 19.7487 384.766 19.6741C384.393 19.5994 383.921 19.5621 383.352 19.5621Z" fill="#111111"/>
<path d="M369.185 14.4661H371.341V15.9781H369.185V14.4661ZM366.427 11.2321H367.841V13.4021C367.841 14.1395 367.79 14.8628 367.687 15.5721C367.584 16.2815 367.416 16.9488 367.183 17.5741C366.959 18.1995 366.66 18.7641 366.287 19.2681C365.923 19.7628 365.48 20.1688 364.957 20.4861L363.837 19.0861C364.322 18.7968 364.728 18.4421 365.055 18.0221C365.382 17.6021 365.648 17.1401 365.853 16.6361C366.058 16.1321 366.203 15.6095 366.287 15.0681C366.38 14.5175 366.427 13.9621 366.427 13.4021V11.2321ZM366.833 11.2321H368.219V13.3181C368.219 13.8501 368.256 14.3775 368.331 14.9001C368.415 15.4228 368.546 15.9221 368.723 16.3981C368.9 16.8741 369.134 17.3128 369.423 17.7141C369.722 18.1155 370.095 18.4608 370.543 18.7501L369.521 20.2061C369.017 19.8888 368.588 19.4875 368.233 19.0021C367.888 18.5075 367.612 17.9521 367.407 17.3361C367.202 16.7201 367.052 16.0715 366.959 15.3901C366.875 14.7088 366.833 14.0181 366.833 13.3181V11.2321ZM373.441 10.0981H375.219V23.0621H373.441V10.0981ZM370.809 10.3081H372.545V22.4881H370.809V10.3081Z" fill="#111111"/>
<path d="M349.412 13.9902H358.442V15.2502H349.412V13.9902ZM349.412 10.2942H358.33V11.5542H351.26V14.6062H349.412V10.2942ZM350.728 12.1562H358.05V13.3742H350.728V12.1562ZM352.884 16.4682H354.732V18.3302H352.884V16.4682ZM347.998 15.8102H359.66V17.1822H347.998V15.8102ZM349.3 17.8822H358.26V21.0182H351.162V22.3342H349.314V19.7862H356.426V19.1702H349.3V17.8822ZM349.314 21.6762H358.61V22.9922H349.314V21.6762Z" fill="#111111"/>
<path d="M338.403 12.9681H341.651V14.4661H338.403V12.9681ZM335.421 10.6441C336.074 10.6441 336.658 10.7794 337.171 11.0501C337.694 11.3114 338.104 11.6754 338.403 12.1421C338.702 12.5994 338.851 13.1314 338.851 13.7381C338.851 14.3354 338.702 14.8674 338.403 15.3341C338.104 15.8007 337.694 16.1694 337.171 16.4401C336.658 16.7014 336.074 16.8321 335.421 16.8321C334.777 16.8321 334.194 16.7014 333.671 16.4401C333.158 16.1694 332.752 15.8007 332.453 15.3341C332.154 14.8674 332.005 14.3354 332.005 13.7381C332.005 13.1314 332.154 12.5994 332.453 12.1421C332.752 11.6754 333.158 11.3114 333.671 11.0501C334.194 10.7794 334.777 10.6441 335.421 10.6441ZM335.421 12.1841C335.104 12.1841 334.819 12.2447 334.567 12.3661C334.324 12.4874 334.133 12.6647 333.993 12.8981C333.853 13.1314 333.783 13.4114 333.783 13.7381C333.783 14.0554 333.853 14.3307 333.993 14.5641C334.133 14.7974 334.324 14.9747 334.567 15.0961C334.819 15.2174 335.104 15.2781 335.421 15.2781C335.738 15.2781 336.018 15.2174 336.261 15.0961C336.513 14.9747 336.709 14.7974 336.849 14.5641C336.989 14.3307 337.059 14.0554 337.059 13.7381C337.059 13.4114 336.989 13.1314 336.849 12.8981C336.709 12.6647 336.513 12.4874 336.261 12.3661C336.018 12.2447 335.738 12.1841 335.421 12.1841ZM340.825 10.1121H342.701V17.0701H340.825V10.1121ZM334.091 17.6441H335.939V18.8621H340.853V17.6441H342.701V22.9361H334.091V17.6441ZM335.939 20.2901V21.4521H340.853V20.2901H335.939Z" fill="#111111"/>
<path d="M326.294 12.87H328.66V14.354H326.294V12.87ZM326.266 15.418H328.632V16.902H326.266V15.418ZM319 11.19H326.126V12.66H319V11.19ZM322.64 13.052C323.237 13.052 323.765 13.15 324.222 13.346C324.679 13.542 325.039 13.8173 325.3 14.172C325.561 14.5267 325.692 14.9373 325.692 15.404C325.692 15.8613 325.561 16.2673 325.3 16.622C325.039 16.9767 324.679 17.252 324.222 17.448C323.765 17.644 323.237 17.742 322.64 17.742C322.052 17.742 321.529 17.644 321.072 17.448C320.615 17.252 320.255 16.9767 319.994 16.622C319.733 16.2673 319.602 15.8613 319.602 15.404C319.602 14.9373 319.733 14.5267 319.994 14.172C320.255 13.8173 320.615 13.542 321.072 13.346C321.529 13.15 322.052 13.052 322.64 13.052ZM322.64 14.41C322.248 14.41 321.931 14.4987 321.688 14.676C321.455 14.844 321.338 15.0867 321.338 15.404C321.338 15.7213 321.455 15.9687 321.688 16.146C321.931 16.314 322.248 16.398 322.64 16.398C323.032 16.398 323.349 16.314 323.592 16.146C323.835 15.9687 323.956 15.7213 323.956 15.404C323.956 15.0867 323.835 14.844 323.592 14.676C323.349 14.4987 323.032 14.41 322.64 14.41ZM321.716 10H323.592V12.212H321.716V10ZM327.946 10.112H329.822V17.826H327.946V10.112ZM321.142 18.316H322.976V19.254H327.974V18.316H329.822V22.936H321.142V18.316ZM322.976 20.626V21.494H327.974V20.626H322.976Z" fill="#111111"/>
<circle cx="33.5" cy="212.5" r="17.5" fill="#111111"/>
<path d="M25.6001 203.848L36.3272 203.056C37.6449 202.943 37.9834 203.019 38.812 203.622L42.2362 206.034C42.801 206.449 42.989 206.562 42.989 207.013V220.243C42.989 221.072 42.6879 221.563 41.6339 221.638L29.1769 222.392C28.3859 222.43 28.0092 222.317 27.595 221.789L25.0733 218.51C24.6211 217.906 24.4336 217.455 24.4336 216.926V205.167C24.4336 204.489 24.7347 203.923 25.6001 203.848Z" fill="white"/>
<path fill-rule="evenodd" clip-rule="evenodd" d="M36.3272 203.056L25.6001 203.849C24.7347 203.923 24.4336 204.489 24.4336 205.167V216.926C24.4336 217.454 24.6211 217.906 25.0733 218.51L27.595 221.789C28.0092 222.317 28.3859 222.43 29.1769 222.392L41.6341 221.638C42.6873 221.563 42.9892 221.072 42.9892 220.244V207.014C42.9892 206.585 42.82 206.462 42.3217 206.096L38.812 203.622C37.9836 203.019 37.6449 202.943 36.3272 203.056V203.056ZM29.4586 206.797C28.4414 206.865 28.2107 206.881 27.6329 206.411L26.1642 205.243C26.015 205.092 26.09 204.903 26.4661 204.866L36.7783 204.112C37.6443 204.036 38.0953 204.338 38.4339 204.602L40.2026 205.883C40.2782 205.922 40.4662 206.147 40.24 206.147L29.5904 206.788L29.4586 206.797ZM28.2727 220.13V208.899C28.2727 208.409 28.4233 208.183 28.8743 208.145L41.106 207.428C41.5209 207.391 41.7083 207.655 41.7083 208.144V219.301C41.7083 219.791 41.6327 220.206 40.9556 220.244L29.2506 220.922C28.5734 220.959 28.2729 220.734 28.2729 220.13H28.2727ZM39.8271 209.501C39.9021 209.841 39.8271 210.18 39.4878 210.219L38.9237 210.331V218.623C38.4338 218.886 37.9828 219.037 37.606 219.037C37.0036 219.037 36.8532 218.848 36.402 218.284L32.7128 212.479V218.095L33.8799 218.359C33.8799 218.359 33.8799 219.038 32.9383 219.038L30.3424 219.188C30.2668 219.037 30.3424 218.66 30.6055 218.585L31.2834 218.397V210.972L30.3426 210.896C30.267 210.557 30.455 210.067 30.9824 210.029L33.7676 209.841L37.6061 215.721V210.519L36.6277 210.407C36.5521 209.992 36.8532 209.69 37.2293 209.653L39.8271 209.501Z" fill="black"/>
<circle cx="60.5" cy="212.5" r="17.5" fill="#111111"/>
<mask id="mask0_2759_2753" style="mask-type:luminance" maskUnits="userSpaceOnUse" x="48" y="200" width="25" height="25">
<path d="M72.9999 200.483H48.4834V225H72.9999V200.483Z" fill="white"/>
</mask>
<g mask="url(#mask0_2759_2753)">
<path d="M67.3814 223.978H54.1016C53.255 223.978 52.5693 223.293 52.5693 222.446V203.037C52.5693 202.191 53.255 201.505 54.1016 201.505H63.2953L68.9137 207.123V222.446C68.9137 223.293 68.228 223.978 67.3814 223.978Z" fill="#00AC47"/>
<g filter="url(#filter0_d_2759_2753)">
<path d="M63.2949 201.505L68.9133 207.123H63.2949V201.505Z" fill="#00832D"/>
</g>
<path d="M64.5721 210.188H61.3799H60.103H56.9107H55.6338V211.464V213.252V214.529V216.317V217.594H56.9107H60.103H61.3799H64.5721H65.849V216.317V214.529V213.252V211.464V210.188H64.5721ZM56.9107 211.464H60.103V213.252H56.9107V211.464ZM56.9107 216.317V214.529H60.103V216.317H56.9107ZM64.5721 216.317H61.3799V214.529H64.5721V216.317ZM64.5721 213.252H61.3799V211.464H64.5721V213.252Z" fill="white"/>
</g>
<path d="M188 186.618L392.59 186.618V208.523L188 208.523V186.618Z" fill="white"/>
<path d="M188 142.809L392.59 142.809V164.714L188 164.714V142.809Z" fill="#F2F2F2"/>
<path d="M188 164.714L392.59 164.714V186.619L188 186.619V164.714Z" fill="white"/>
<path d="M188 208.523L392.59 208.523V221.666C392.59 226.505 388.667 230.428 383.828 230.428L196.762 230.428C191.923 230.428 188 226.505 188 221.666V208.523Z" fill="white"/>
<path d="M188 107.762C188 102.923 191.923 99 196.762 99L383.828 99C388.667 99 392.59 102.923 392.59 107.762V126.162L188 126.162V107.762Z" fill="#00AC47"/>
<path d="M391.714 107.762C391.714 103.407 388.183 99.8762 383.828 99.8762L196.762 99.8762C192.407 99.8762 188.876 103.407 188.876 107.762V125.286L391.714 125.286V107.762ZM392.59 126.162L188 126.162V107.762C188 102.998 191.801 99.123 196.536 99.003L196.762 99L383.828 99L384.054 99.003C388.789 99.123 392.59 102.998 392.59 107.762V126.162Z" fill="#111111"/>
<path d="M188 126.162L392.59 126.162V142.809L188 142.809V126.162Z" fill="#DDDDDD"/>
<path d="M188.876 126.162V141.933L391.714 141.933V126.162H392.59V142.809L188 142.809V126.162H188.876Z" fill="#111111"/>
<path d="M205.086 112.581C205.086 115 203.223 116.962 200.925 116.962C198.626 116.962 196.763 115 196.763 112.581C196.763 110.161 198.626 108.2 200.925 108.2C203.223 108.2 205.086 110.161 205.086 112.581Z" fill="#FF554D"/>
<path d="M204.21 112.581C204.21 110.602 202.697 109.076 200.925 109.076C199.152 109.076 197.639 110.602 197.639 112.581C197.639 114.559 199.152 116.086 200.925 116.086V116.962C198.626 116.962 196.763 115 196.763 112.581C196.763 110.161 198.626 108.2 200.925 108.2C203.223 108.2 205.086 110.161 205.086 112.581C205.086 115 203.223 116.962 200.925 116.962V116.086C202.697 116.086 204.21 114.559 204.21 112.581Z" fill="#111111"/>
<path d="M218.667 112.581C218.667 115 216.706 116.962 214.286 116.962C211.867 116.962 209.905 115 209.905 112.581C209.905 110.161 211.867 108.2 214.286 108.2C216.706 108.2 218.667 110.161 218.667 112.581Z" fill="#FEB42A"/>
<path d="M217.791 112.581C217.791 110.645 216.222 109.076 214.286 109.076C212.351 109.076 210.781 110.645 210.781 112.581C210.781 114.516 212.351 116.085 214.286 116.085V116.962C211.867 116.962 209.905 115 209.905 112.581C209.905 110.161 211.867 108.2 214.286 108.2C216.706 108.2 218.667 110.161 218.667 112.581C218.667 115 216.706 116.962 214.286 116.962V116.085C216.222 116.085 217.791 114.516 217.791 112.581Z" fill="#111111"/>
<path d="M231.81 112.581C231.81 115 229.947 116.962 227.648 116.962C225.35 116.962 223.486 115 223.486 112.581C223.486 110.161 225.35 108.2 227.648 108.2C229.947 108.2 231.81 110.161 231.81 112.581Z" fill="#25C138"/>
<path d="M230.934 112.581C230.934 110.602 229.421 109.076 227.648 109.076C225.875 109.076 224.363 110.602 224.363 112.581C224.363 114.559 225.875 116.086 227.648 116.086V116.962C225.35 116.962 223.486 115 223.486 112.581C223.486 110.161 225.35 108.2 227.648 108.2C229.947 108.2 231.81 110.161 231.81 112.581C231.81 115 229.947 116.962 227.648 116.962V116.086C229.421 116.086 230.934 114.559 230.934 112.581Z" fill="#111111"/>
<path d="M188.877 165.59H209.467V185.743H188.877V165.59Z" fill="#F2F2F2"/>
<path d="M188.879 186.619H209.467V208.489H188.879V186.619Z" fill="#F2F2F2"/>
<path d="M199.172 154.352L206.4 147.19V161.209H191.943L199.172 154.352Z" fill="#DDDDDD"/>
<path d="M206.4 161.209H191.943L199.172 154.352L206.4 147.19V161.209ZM199.788 154.974L199.782 154.981L199.775 154.988L194.14 160.333H205.524V149.291L199.788 154.974Z" fill="#111111"/>
<path d="M188.877 209.399H209.467V229.552H196.763C192.407 229.552 188.877 226.021 188.877 221.666V209.399Z" fill="#F2F2F2"/>
<path d="M198.765 170.711C198.962 170.172 199.369 169.896 199.921 169.896C200.684 169.896 201.236 170.356 201.236 171.224V181.633H198.607V173.971H197.503C196.767 173.971 196.149 173.59 196.149 172.867C196.149 172.262 196.57 171.868 197.096 171.789C197.805 171.697 198.515 171.408 198.765 170.711Z" fill="black"/>
<path d="M245.413 159.29H242.522L241.904 157.03H238.75L238.132 159.29H235.293L238.671 148.645C238.907 147.909 239.656 147.554 240.366 147.554C241.036 147.554 241.759 147.935 241.983 148.645L245.413 159.29ZM240.327 151.207L239.354 154.809H241.299L240.327 151.207Z" fill="black"/>
<path d="M305.169 151.023V151.181C305.169 152.193 304.762 152.929 303.921 153.402C305.051 153.849 305.564 154.716 305.564 155.926V156.044C305.564 158.462 303.829 159.29 301.489 159.29H299.203C297.625 159.29 297.152 158.725 297.152 157.214V149.84C297.152 148.329 297.625 147.764 299.203 147.764H301.121C303.527 147.764 305.169 148.868 305.169 151.023ZM301.253 149.998H300.201C299.899 149.998 299.82 150.064 299.82 150.379V152.456H301.253C302.12 152.456 302.501 151.956 302.501 151.312V151.142C302.501 150.471 302.12 149.998 301.253 149.998ZM301.647 154.598H299.82V156.675C299.82 156.99 299.899 157.056 300.201 157.056H301.647C302.515 157.056 302.896 156.583 302.896 155.926V155.728C302.896 155.071 302.515 154.598 301.647 154.598Z" fill="black"/>
<path d="M360.996 151.733V155.321C360.996 156.557 361.876 157.174 362.822 157.174C363.427 157.174 363.861 157.082 364.215 156.925C364.413 156.833 364.649 156.688 364.899 156.649C365.372 156.57 365.766 156.714 366.029 157.148C366.358 157.687 366.147 158.278 365.687 158.646C364.965 159.238 363.834 159.501 362.822 159.501C360.549 159.501 358.288 158.344 358.288 155.439V151.615C358.288 148.71 360.549 147.554 362.822 147.554C363.992 147.554 364.899 147.83 365.411 148.198C365.95 148.579 366.213 149.21 365.898 149.762C365.635 150.222 365.149 150.406 364.702 150.327C364.399 150.274 364.176 150.13 363.979 150.051C363.663 149.933 363.361 149.88 362.822 149.88C361.876 149.88 360.996 150.498 360.996 151.733Z" fill="black"/>
<path d="M202.948 203.1H197.165C196.179 203.1 195.535 202.535 195.535 201.549V201.404C195.535 199.643 196.061 198.973 197.165 197.961L199.36 195.937C199.885 195.464 200.161 195.109 200.161 194.61C200.161 194.031 199.662 193.755 199.189 193.755C198.545 193.755 198.229 194.031 197.967 194.32C197.783 194.531 197.533 194.78 197.283 194.846C196.928 194.951 196.442 194.912 196.061 194.596C195.588 194.215 195.588 193.506 195.89 193.006C196.56 191.915 197.769 191.363 199.399 191.363C201.252 191.363 202.843 192.388 202.843 194.347C202.843 195.819 202.028 196.66 200.937 197.724L199.255 199.354C198.689 199.906 198.308 200.051 198.308 200.537V200.629C198.308 200.76 198.361 200.826 198.505 200.826H202.948V203.1Z" fill="black"/>
<path d="M202.094 216.519L200.07 218.516C201.661 218.7 202.896 219.883 202.896 221.828C202.896 224.325 201.069 225.653 198.73 225.653C197.56 225.653 196.259 225.232 195.641 224.404C195.286 223.918 195.339 223.235 195.786 222.84C196.154 222.512 196.561 222.499 196.942 222.63C197.231 222.735 197.442 222.906 197.665 223.037C197.902 223.169 198.243 223.261 198.717 223.261C199.689 223.261 200.32 222.683 200.32 221.736C200.32 220.737 199.584 220.238 198.493 220.238H197.783C197.271 220.238 196.903 219.909 196.811 219.541C196.693 219.068 196.798 218.7 197.245 218.267L199.426 216.111H196.679C195.904 216.111 195.602 215.533 195.602 215.02C195.602 214.521 195.917 213.916 196.679 213.916H201.03C202.449 213.916 202.988 215.651 202.094 216.519Z" fill="black"/>
<path d="M383.828 229.552V230.428L196.762 230.428V229.552L383.828 229.552ZM391.714 221.666V209.4L188.876 209.4V221.666C188.876 226.021 192.407 229.552 196.762 229.552V230.428L196.536 230.425C191.876 230.307 188.121 226.552 188.003 221.893L188 221.666V208.523L392.59 208.523V221.666L392.587 221.893C392.469 226.552 388.713 230.307 384.054 230.425L383.828 230.428V229.552C388.183 229.552 391.714 226.021 391.714 221.666Z" fill="#111111"/>
<path d="M210.344 142.59L210.344 230.209H209.468L209.468 142.59H210.344Z" fill="#111111"/>
<path d="M271.238 142.59V230.209H270.362V142.59H271.238Z" fill="#111111"/>
<path d="M332.134 142.59V230.209H331.258V142.59H332.134Z" fill="#111111"/>
<path d="M392.59 164.714V186.619L188 186.619V164.714L392.59 164.714ZM188.878 185.723L391.711 185.723V165.6L188.878 165.6V185.723Z" fill="#111111"/>
<path d="M392.59 141.962V165.599L188 165.599V141.962L392.59 141.962ZM188.878 164.704L391.711 164.704V142.848L188.878 142.848V164.704Z" fill="#111111"/>
<path d="M392.59 185.723V209.384L188 209.384V185.723L392.59 185.723ZM188.878 208.489L391.711 208.489V186.608L188.878 186.608V208.489Z" fill="#111111"/>
<path d="M16 101.225H215V122.531H16V101.225Z" fill="white"/>
<path d="M16 42.4197H215V59.4646H16V42.4197Z" fill="white"/>
<path d="M206.478 142.985V143.837H24.5225V142.985H206.478ZM214.148 135.315V24.5225C214.148 20.2863 210.714 16.8522 206.478 16.8522H24.5225C20.2863 16.8522 16.8522 20.2863 16.8522 24.5225V135.315C16.8522 139.551 20.2863 142.985 24.5225 142.985V143.837L24.3023 143.834C19.7704 143.719 16.1178 140.067 16.0029 135.535L16 135.315V24.5225C16 19.8892 19.6973 16.1197 24.3023 16.0029L24.5225 16H206.478L206.698 16.0029C211.303 16.1197 215 19.8892 215 24.5225V135.315L214.997 135.535C214.882 140.067 211.23 143.719 206.698 143.834L206.478 143.837V142.985C210.714 142.985 214.148 139.551 214.148 135.315Z" fill="#111111"/>
<path d="M16 79.9187H215V101.225H16V79.9187Z" fill="white"/>
<path d="M215 79.9187V101.225H16V79.9187H215ZM16.8522 100.373H214.148V80.7709H16.8522V100.373Z" fill="#111111"/>
<path d="M16 59.4646H215V80.7708H16V59.4646Z" fill="white"/>
<path d="M215 59.4646V80.7708H16V59.4646H215ZM16.8522 79.9186H214.148V60.3168H16.8522V79.9186Z" fill="#111111"/>
<path d="M16 122.531H215V135.315C215 140.022 211.184 143.837 206.478 143.837H24.5225C19.8156 143.837 16 140.022 16 135.315V122.531Z" fill="white"/>
<path d="M206.478 142.985V143.837H24.5225V142.985H206.478ZM214.148 135.315V123.383H16.8522V135.315C16.8522 139.551 20.2863 142.985 24.5225 142.985V143.837L24.3023 143.834C19.7704 143.719 16.1178 140.067 16.0029 135.535L16 135.315V122.531H215V135.315L214.997 135.535C214.882 140.067 211.23 143.719 206.698 143.834L206.478 143.837V142.985C210.714 142.985 214.148 139.551 214.148 135.315Z" fill="#111111"/>
<path d="M16 24.5225C16 19.8156 19.8156 16 24.5225 16H206.478C211.184 16 215 19.8156 215 24.5225V42.4197H16V24.5225Z" fill="#1E1E1E"/>
<path d="M214.148 24.5225C214.148 20.2863 210.714 16.8522 206.478 16.8522H24.5225C20.2863 16.8522 16.8522 20.2863 16.8522 24.5225V41.5675H214.148V24.5225ZM215 42.4197H16V24.5225C16 19.8892 19.6973 16.1197 24.3023 16.0029L24.5225 16H206.478L206.698 16.0029C211.303 16.1197 215 19.8892 215 24.5225V42.4197Z" fill="#111111"/>
<path d="M32.6188 29.21C32.6188 31.5634 30.8064 33.4712 28.5706 33.4712C26.3349 33.4712 24.5225 31.5634 24.5225 29.21C24.5225 26.8566 26.3349 24.9487 28.5706 24.9487C30.8064 24.9487 32.6188 26.8566 32.6188 29.21Z" fill="#FF554D"/>
<path d="M31.7666 29.21C31.7666 27.2855 30.295 25.801 28.5706 25.801C26.8462 25.801 25.3747 27.2855 25.3747 29.21C25.3747 31.1344 26.8462 32.619 28.5706 32.619V33.4712C26.3349 33.4712 24.5225 31.5634 24.5225 29.21C24.5225 26.8566 26.3349 24.9487 28.5706 24.9487C30.8064 24.9487 32.6188 26.8566 32.6188 29.21C32.6188 31.5634 30.8064 33.4712 28.5706 33.4712V32.619C30.295 32.619 31.7666 31.1344 31.7666 29.21Z" fill="#111111"/>
<path d="M45.8281 29.21C45.8281 31.5634 43.9203 33.4712 41.5669 33.4712C39.2135 33.4712 37.3057 31.5634 37.3057 29.21C37.3057 26.8566 39.2135 24.9487 41.5669 24.9487C43.9203 24.9487 45.8281 26.8566 45.8281 29.21Z" fill="#FEB42A"/>
<path d="M44.9759 29.21C44.9759 27.3272 43.4496 25.801 41.5669 25.801C39.6842 25.801 38.1579 27.3272 38.1579 29.21C38.1579 31.0927 39.6842 32.619 41.5669 32.619V33.4712C39.2135 33.4712 37.3057 31.5634 37.3057 29.21C37.3057 26.8566 39.2135 24.9487 41.5669 24.9487C43.9203 24.9487 45.8281 26.8566 45.8281 29.21C45.8281 31.5634 43.9203 33.4712 41.5669 33.4712V32.619C43.4496 32.619 44.9759 31.0927 44.9759 29.21Z" fill="#111111"/>
<path d="M58.612 29.21C58.612 31.5634 56.7996 33.4712 54.5638 33.4712C52.3281 33.4712 50.5156 31.5634 50.5156 29.21C50.5156 26.8566 52.3281 24.9487 54.5638 24.9487C56.7996 24.9487 58.612 26.8566 58.612 29.21Z" fill="#25C138"/>
<path d="M57.7597 29.21C57.7597 27.2855 56.2882 25.801 54.5638 25.801C52.8394 25.801 51.3679 27.2855 51.3679 29.21C51.3679 31.1344 52.8394 32.619 54.5638 32.619V33.4712C52.3281 33.4712 50.5156 31.5634 50.5156 29.21C50.5156 26.8566 52.3281 24.9487 54.5638 24.9487C56.7996 24.9487 58.612 26.8566 58.612 29.21C58.612 31.5634 56.7996 33.4712 54.5638 33.4712V32.619C56.2882 32.619 57.7597 31.1344 57.7597 29.21Z" fill="#111111"/>
<path d="M66.7087 42.2065V143.624H65.8564V42.2065H66.7087Z" fill="#111111"/>
<path d="M116.139 42.2065V143.624H115.287V42.2065H116.139Z" fill="#111111"/>
<path d="M165.57 42.2065V143.624H164.718V42.2065H165.57Z" fill="#111111"/>
<path d="M46.5979 53.5328H45.2513L45.1831 53.1748C44.8593 53.4816 44.3991 53.6777 43.8877 53.6777H43.7002C42.9929 53.6777 41.9531 53.2941 41.9531 51.8794C41.9531 50.5073 42.9332 50.0982 44.0411 50.0982H44.9189C44.9019 49.3568 44.544 49.2204 44.1349 49.2204C43.9389 49.2204 43.7684 49.2545 43.5639 49.3141C43.4275 49.3568 43.3167 49.4164 43.1633 49.4846C42.8565 49.638 42.4048 49.5187 42.2514 49.1778C42.0895 48.8369 42.2258 48.4875 42.5241 48.2659C42.9758 47.9335 43.6917 47.8057 44.2712 47.8057C45.507 47.8057 46.5979 48.2403 46.5979 50.3198V53.5328ZM44.9189 51.7431V51.351H44.1434C43.8195 51.351 43.6406 51.5129 43.6406 51.8709C43.6406 52.2288 43.8195 52.3652 44.1178 52.3652H44.2372C44.5525 52.3652 44.9189 52.1777 44.9189 51.7431Z" fill="black"/>
<path d="M41.6522 53.5329H39.7772L39.3767 52.0671H37.3313L36.9307 53.5329H35.0898L37.2801 46.6297C37.4335 46.1525 37.9193 45.9224 38.3795 45.9224C38.8142 45.9224 39.2829 46.1695 39.4278 46.6297L41.6522 53.5329ZM38.354 48.2916L37.7233 50.6268H38.9846L38.354 48.2916Z" fill="black"/>
<path d="M47.3199 56.0557C47.5552 56.0557 47.746 56.2464 47.746 56.4818C47.746 56.7171 47.5552 56.9079 47.3199 56.9079H34.9623C34.7269 56.9079 34.5361 56.7171 34.5361 56.4818C34.5361 56.2464 34.7269 56.0557 34.9623 56.0557H47.3199Z" fill="#111111"/>
<path d="M96.5372 50.9422C96.5372 54.0016 94.0571 56.4818 90.9976 56.4818C87.9382 56.4818 85.458 54.0016 85.458 50.9422C85.458 47.8828 87.9382 45.4026 90.9976 45.4026C94.0571 45.4026 96.5372 47.8828 96.5372 50.9422Z" fill="black"/>
<path d="M90.2597 52.6466C90.5877 53.2148 91.4078 53.2148 91.7358 52.6466L92.8429 50.7291C93.1709 50.1609 92.7609 49.4507 92.1048 49.4507H89.8906C89.2346 49.4507 88.8245 50.1609 89.1526 50.7291L90.2597 52.6466Z" fill="white"/>
<path d="M184.958 48.1724C184.958 47.8194 185.244 47.5332 185.597 47.5332H194.546C194.899 47.5332 195.185 47.8194 195.185 48.1724V48.1724C195.185 48.5254 194.899 48.8116 194.546 48.8116H185.597C185.244 48.8116 184.958 48.5254 184.958 48.1724V48.1724Z" fill="#111111"/>
<path d="M184.958 52.4336C184.958 52.0806 185.244 51.7944 185.597 51.7944H194.546C194.899 51.7944 195.185 52.0806 195.185 52.4336V52.4336C195.185 52.7866 194.899 53.0728 194.546 53.0728H185.597C185.244 53.0728 184.958 52.7866 184.958 52.4336V52.4336Z" fill="#111111"/>
<path d="M187.728 55.6296C187.375 55.6296 187.089 55.3435 187.089 54.9905L187.089 46.0418C187.089 45.6888 187.375 45.4027 187.728 45.4027V45.4027C188.081 45.4027 188.367 45.6888 188.367 46.0418L188.367 54.9905C188.367 55.3435 188.081 55.6296 187.728 55.6296V55.6296Z" fill="#111111"/>
<path d="M192.416 55.6296C192.063 55.6296 191.776 55.3435 191.776 54.9905L191.776 46.0418C191.776 45.6888 192.063 45.4027 192.416 45.4027V45.4027C192.769 45.4027 193.055 45.6888 193.055 46.0418L193.055 54.9905C193.055 55.3435 192.769 55.6296 192.416 55.6296V55.6296Z" fill="#111111"/>
<path d="M145.115 55.2036V56.0558H135.741V55.2036H145.115ZM145.968 54.3513V47.5334C145.968 47.092 145.632 46.7293 145.202 46.6857L145.115 46.6811H135.741C135.299 46.6811 134.937 47.0166 134.893 47.4464L134.888 47.5334V54.3513C134.888 54.822 135.27 55.2036 135.741 55.2036V56.0558L135.653 56.0538C134.781 56.0095 134.082 55.3106 134.038 54.4391L134.036 54.3513V47.5334C134.036 46.6214 134.752 45.8766 135.653 45.8309L135.741 45.8289H145.115L145.203 45.8309C146.104 45.8766 146.82 46.6214 146.82 47.5334V54.3513L146.818 54.4391C146.774 55.3106 146.075 56.0095 145.203 56.0538L145.115 56.0558V55.2036C145.586 55.2036 145.968 54.822 145.968 54.3513Z" fill="#111111"/>
<path d="M136.167 45.6158C136.167 45.0275 136.644 44.5505 137.232 44.5505V44.5505C137.821 44.5505 138.298 45.0275 138.298 45.6158V46.6812H136.167V45.6158Z" fill="#111111"/>
<path d="M136.594 49.451C136.594 49.0979 136.88 48.8118 137.233 48.8118H143.625C143.978 48.8118 144.264 49.0979 144.264 49.451V49.451C144.264 49.804 143.978 50.0901 143.625 50.0901H137.233C136.88 50.0901 136.594 49.804 136.594 49.451V49.451Z" fill="#111111"/>
<path d="M136.594 52.4339C136.594 52.0809 136.88 51.7947 137.233 51.7947H141.494C141.847 51.7947 142.133 52.0809 142.133 52.4339V52.4339C142.133 52.7869 141.847 53.0731 141.494 53.0731H137.233C136.88 53.0731 136.594 52.7869 136.594 52.4339V52.4339Z" fill="#111111"/>
<path d="M142.559 45.6158C142.559 45.0275 143.036 44.5505 143.624 44.5505V44.5505C144.212 44.5505 144.689 45.0275 144.689 45.6158V46.6812H142.559V45.6158Z" fill="#111111"/>
<rect width="382" height="236" transform="translate(14 4)" fill="url(#paint0_radial_2759_2753)" fill-opacity="0.01"/>
<path d="M155 122C155 131.889 157.932 141.556 163.427 149.778C168.921 158.001 176.73 164.41 185.866 168.194C195.002 171.978 205.055 172.968 214.754 171.039C224.454 169.11 233.363 164.348 240.355 157.355C247.348 150.363 252.11 141.454 254.039 131.754C255.968 122.055 254.978 112.002 251.194 102.866C247.41 93.7295 241.001 85.9206 232.778 80.4265C224.556 74.9324 214.889 72 205 72C198.434 72 191.932 73.2933 185.866 75.806C179.8 78.3188 174.288 82.0017 169.645 86.6447C160.268 96.0215 155 108.739 155 122ZM223 130.6C224.299 127.918 224.982 124.98 225 122C225 116.696 222.893 111.609 219.142 107.858C215.391 104.107 210.304 102 205 102V112L189.4 97L205 82V92C212.956 92 220.587 95.1607 226.213 100.787C231.839 106.413 235 114.043 235 122C235.01 127.652 233.396 133.189 230.35 137.95M175 122C174.99 116.348 176.604 110.811 179.65 106.05L187 113.4C185.701 116.082 185.018 119.02 185 122C185 127.304 187.107 132.391 190.858 136.142C194.609 139.893 199.696 142 205 142V132L220 147L205 162V152C197.043 152 189.413 148.839 183.787 143.213C178.161 137.587 175 129.956 175 122Z" fill="#FFCE2E"/>
<path d="M205 70C215.285 70 225.338 73.0498 233.89 78.7637C242.441 84.4775 249.106 92.5989 253.042 102.101C256.978 111.602 258.007 122.058 256.001 132.145C253.995 142.232 249.042 151.497 241.77 158.77C234.497 166.042 225.232 170.995 215.145 173.001C205.058 175.007 194.602 173.978 185.101 170.042C175.599 166.106 167.478 159.441 161.764 150.89C156.05 142.338 153 132.285 153 122C153 108.209 158.479 94.9824 168.23 85.2305C173.059 80.4018 178.792 76.5713 185.101 73.958C191.409 71.3448 198.171 70 205 70ZM183 122V121.988L183.013 121.374C183.1 118.787 183.644 116.239 184.616 113.845L180.078 109.307C178.054 113.217 176.992 117.568 177 121.996V122C177 129.426 179.95 136.548 185.201 141.799C190.452 147.05 197.574 150 205 150H207V157.172L217.172 147L207 136.828V144H205C199.165 144 193.569 141.682 189.443 137.557C185.318 133.431 183 127.835 183 122ZM203 86.6963L192.285 97L203 107.303V100H205C210.835 100 216.431 102.318 220.557 106.443C224.682 110.569 227 116.165 227 122V122.012C226.981 125.167 226.281 128.28 224.954 131.14L229.425 135.611C231.772 131.47 233.008 126.781 233 122.004V122L232.991 121.305C232.813 114.131 229.886 107.288 224.799 102.201C219.548 96.9502 212.426 94 205 94H203V86.6963ZM155.009 122.927C155.186 132.492 158.104 141.813 163.427 149.778C168.921 158.001 176.73 164.41 185.866 168.194C194.717 171.86 204.428 172.904 213.844 171.212L214.755 171.039C224.151 169.17 232.805 164.642 239.694 158.004L240.355 157.355C247.13 150.581 251.81 142.008 253.85 132.661L254.039 131.755C255.908 122.359 255.038 112.63 251.541 103.725L251.194 102.866C247.528 94.0154 241.399 86.4098 233.544 80.9482L232.778 80.4268C224.813 75.1044 215.492 72.1861 205.927 72.0088L205 72C198.434 72 191.932 73.2931 185.866 75.8057L185.299 76.0449C179.456 78.5498 174.142 82.1467 169.645 86.6445L169.208 87.0869C160.105 96.4193 155 108.946 155 122L155.009 122.927ZM185 122C185 127.304 187.107 132.392 190.857 136.143C194.491 139.776 199.379 141.867 204.503 141.994L205 142V132L220 147L205 162V152C197.292 152 189.89 149.034 184.32 143.733L183.787 143.213C178.337 137.763 175.2 130.432 175.009 122.745L175 122C174.99 116.348 176.604 110.811 179.65 106.05L187 113.4C185.701 116.082 185.018 119.02 185 122ZM205.745 92.0088C213.432 92.1996 220.763 95.3369 226.213 100.787C231.839 106.413 235 114.044 235 122C235.01 127.652 233.396 133.189 230.35 137.95L222.9 130.7C224.045 128.157 224.983 124.793 225 122C225 116.861 223.023 111.926 219.489 108.213L219.143 107.857C215.392 104.107 210.304 102 205 102V112L189.4 97L205 82V92L205.745 92.0088Z" fill="#111111"/>
<defs>
<filter id="filter0_d_2759_2753" x="57.2949" y="189.505" width="17.6182" height="17.6184" filterUnits="userSpaceOnUse" color-interpolation-filters="sRGB">
<feFlood flood-opacity="0" result="BackgroundImageFix"/>
<feColorMatrix in="SourceAlpha" type="matrix" values="0 0 0 0 0 0 0 0 0 0 0 0 0 0 0 0 0 0 127 0" result="hardAlpha"/>
<feOffset dy="-6"/>
<feGaussianBlur stdDeviation="3"/>
<feComposite in2="hardAlpha" operator="out"/>
<feColorMatrix type="matrix" values="0 0 0 0 0 0 0 0 0 0 0 0 0 0 0 0 0 0 0.1 0"/>
<feBlend mode="normal" in2="BackgroundImageFix" result="effect1_dropShadow_2759_2753"/>
<feBlend mode="normal" in="SourceGraphic" in2="effect1_dropShadow_2759_2753" result="shape"/>
</filter>
<radialGradient id="paint0_radial_2759_2753" cx="0" cy="0" r="1" gradientUnits="userSpaceOnUse" gradientTransform="translate(191 118) rotate(90) scale(118 191)">
<stop stop-color="white"/>
<stop offset="1" stop-color="white" stop-opacity="0"/>
</radialGradient>
</defs>
</svg>
