<svg width="410" height="244" viewBox="0 0 410 244" fill="none" xmlns="http://www.w3.org/2000/svg">
<path d="M0 20C0 8.95431 8.95431 0 20 0H390C401.046 0 410 8.95431 410 20V224C410 235.046 401.046 244 390 244H20C8.95431 244 0 235.046 0 224V20Z" fill="white"/>
<path d="M390 242V244H20V242H390ZM408 224V20C408 10.0589 399.941 2 390 2H20C10.0589 2 2 10.0589 2 20V224C2 233.941 10.0589 242 20 242V244L19.4834 243.993C8.84814 243.724 0.276492 235.152 0.00683594 224.517L0 224V20C2.79059e-06 9.12703 8.67646 0.280844 19.4834 0.00683594L20 0H390L390.517 0.00683594C401.324 0.280847 410 9.12703 410 20V224L409.993 224.517C409.724 235.152 401.152 243.724 390.517 243.993L390 244V242C399.941 242 408 233.941 408 224Z" fill="#111111"/>
<path d="M390 1C400.493 1 409 9.50659 409 20V32H316C305.507 32 297 23.4934 297 13V1H390Z" fill="#8AB5FF" stroke="#111111" stroke-width="2"/>
<path d="M377.668 15.9223H378.788C379.675 15.9223 380.454 15.9176 381.126 15.9083C381.807 15.8896 382.437 15.857 383.016 15.8103C383.604 15.7636 384.197 15.6936 384.794 15.6003L384.976 17.0563C384.36 17.1496 383.749 17.2243 383.142 17.2803C382.545 17.327 381.896 17.3596 381.196 17.3783C380.496 17.3876 379.693 17.3923 378.788 17.3923H377.668V15.9223ZM377.668 10.9943H383.912V12.4783H379.516V16.5103H377.668V10.9943ZM378.942 13.4583H383.534V14.9003H378.942V13.4583ZM385.872 10.1123H387.734V17.9523H385.872V10.1123ZM383.352 18.1483C384.267 18.1483 385.055 18.2463 385.718 18.4423C386.381 18.6383 386.889 18.9183 387.244 19.2823C387.608 19.6463 387.79 20.0896 387.79 20.6123C387.79 21.3963 387.393 22.003 386.6 22.4323C385.807 22.8616 384.724 23.0763 383.352 23.0763C381.98 23.0763 380.897 22.8616 380.104 22.4323C379.32 22.003 378.928 21.3963 378.928 20.6123C378.928 19.8376 379.32 19.2356 380.104 18.8063C380.897 18.3676 381.98 18.1483 383.352 18.1483ZM383.352 19.5623C382.792 19.5623 382.321 19.5996 381.938 19.6743C381.555 19.749 381.266 19.8656 381.07 20.0243C380.874 20.183 380.776 20.379 380.776 20.6123C380.776 20.8456 380.874 21.0416 381.07 21.2003C381.266 21.3496 381.555 21.4616 381.938 21.5363C382.321 21.611 382.792 21.6483 383.352 21.6483C383.921 21.6483 384.393 21.611 384.766 21.5363C385.149 21.4616 385.438 21.3496 385.634 21.2003C385.839 21.0416 385.942 20.8456 385.942 20.6123C385.942 20.379 385.839 20.183 385.634 20.0243C385.438 19.8656 385.149 19.749 384.766 19.6743C384.393 19.5996 383.921 19.5623 383.352 19.5623Z" fill="#111111"/>
<path d="M369.185 14.4657H371.341V15.9777H369.185V14.4657ZM366.427 11.2317H367.841V13.4017C367.841 14.139 367.79 14.8623 367.687 15.5717C367.584 16.281 367.416 16.9483 367.183 17.5737C366.959 18.199 366.66 18.7637 366.287 19.2677C365.923 19.7623 365.48 20.1683 364.957 20.4857L363.837 19.0857C364.322 18.7963 364.728 18.4417 365.055 18.0217C365.382 17.6017 365.648 17.1397 365.853 16.6357C366.058 16.1317 366.203 15.609 366.287 15.0677C366.38 14.517 366.427 13.9617 366.427 13.4017V11.2317ZM366.833 11.2317H368.219V13.3177C368.219 13.8497 368.256 14.377 368.331 14.8997C368.415 15.4223 368.546 15.9217 368.723 16.3977C368.9 16.8737 369.134 17.3123 369.423 17.7137C369.722 18.115 370.095 18.4603 370.543 18.7497L369.521 20.2057C369.017 19.8883 368.588 19.487 368.233 19.0017C367.888 18.507 367.612 17.9517 367.407 17.3357C367.202 16.7197 367.052 16.071 366.959 15.3897C366.875 14.7083 366.833 14.0177 366.833 13.3177V11.2317ZM373.441 10.0977H375.219V23.0617H373.441V10.0977ZM370.809 10.3077H372.545V22.4877H370.809V10.3077Z" fill="#111111"/>
<path d="M349.412 13.9899H358.442V15.2499H349.412V13.9899ZM349.412 10.2939H358.33V11.5539H351.26V14.6059H349.412V10.2939ZM350.728 12.1559H358.05V13.3739H350.728V12.1559ZM352.884 16.4679H354.732V18.3299H352.884V16.4679ZM347.998 15.8099H359.66V17.1819H347.998V15.8099ZM349.3 17.8819H358.26V21.0179H351.162V22.3339H349.314V19.7859H356.426V19.1699H349.3V17.8819ZM349.314 21.6759H358.61V22.9919H349.314V21.6759Z" fill="#111111"/>
<path d="M338.403 12.9683H341.651V14.4663H338.403V12.9683ZM335.421 10.6443C336.074 10.6443 336.658 10.7796 337.171 11.0503C337.694 11.3116 338.104 11.6756 338.403 12.1423C338.702 12.5996 338.851 13.1316 338.851 13.7383C338.851 14.3356 338.702 14.8676 338.403 15.3343C338.104 15.801 337.694 16.1696 337.171 16.4403C336.658 16.7016 336.074 16.8323 335.421 16.8323C334.777 16.8323 334.194 16.7016 333.671 16.4403C333.158 16.1696 332.752 15.801 332.453 15.3343C332.154 14.8676 332.005 14.3356 332.005 13.7383C332.005 13.1316 332.154 12.5996 332.453 12.1423C332.752 11.6756 333.158 11.3116 333.671 11.0503C334.194 10.7796 334.777 10.6443 335.421 10.6443ZM335.421 12.1843C335.104 12.1843 334.819 12.245 334.567 12.3663C334.324 12.4876 334.133 12.665 333.993 12.8983C333.853 13.1316 333.783 13.4116 333.783 13.7383C333.783 14.0556 333.853 14.331 333.993 14.5643C334.133 14.7976 334.324 14.975 334.567 15.0963C334.819 15.2176 335.104 15.2783 335.421 15.2783C335.738 15.2783 336.018 15.2176 336.261 15.0963C336.513 14.975 336.709 14.7976 336.849 14.5643C336.989 14.331 337.059 14.0556 337.059 13.7383C337.059 13.4116 336.989 13.1316 336.849 12.8983C336.709 12.665 336.513 12.4876 336.261 12.3663C336.018 12.245 335.738 12.1843 335.421 12.1843ZM340.825 10.1123H342.701V17.0703H340.825V10.1123ZM334.091 17.6443H335.939V18.8623H340.853V17.6443H342.701V22.9363H334.091V17.6443ZM335.939 20.2903V21.4523H340.853V20.2903H335.939Z" fill="#111111"/>
<path d="M326.294 12.87H328.66V14.354H326.294V12.87ZM326.266 15.418H328.632V16.902H326.266V15.418ZM319 11.19H326.126V12.66H319V11.19ZM322.64 13.052C323.237 13.052 323.765 13.15 324.222 13.346C324.679 13.542 325.039 13.8173 325.3 14.172C325.561 14.5267 325.692 14.9373 325.692 15.404C325.692 15.8613 325.561 16.2673 325.3 16.622C325.039 16.9767 324.679 17.252 324.222 17.448C323.765 17.644 323.237 17.742 322.64 17.742C322.052 17.742 321.529 17.644 321.072 17.448C320.615 17.252 320.255 16.9767 319.994 16.622C319.733 16.2673 319.602 15.8613 319.602 15.404C319.602 14.9373 319.733 14.5267 319.994 14.172C320.255 13.8173 320.615 13.542 321.072 13.346C321.529 13.15 322.052 13.052 322.64 13.052ZM322.64 14.41C322.248 14.41 321.931 14.4987 321.688 14.676C321.455 14.844 321.338 15.0867 321.338 15.404C321.338 15.7213 321.455 15.9687 321.688 16.146C321.931 16.314 322.248 16.398 322.64 16.398C323.032 16.398 323.349 16.314 323.592 16.146C323.835 15.9687 323.956 15.7213 323.956 15.404C323.956 15.0867 323.835 14.844 323.592 14.676C323.349 14.4987 323.032 14.41 322.64 14.41ZM321.716 10H323.592V12.212H321.716V10ZM327.946 10.112H329.822V17.826H327.946V10.112ZM321.142 18.316H322.976V19.254H327.974V18.316H329.822V22.936H321.142V18.316ZM322.976 20.626V21.494H327.974V20.626H322.976Z" fill="#111111"/>
<circle cx="33.5" cy="212.5" r="17.5" fill="#111111"/>
<path d="M25.6001 203.848L36.3272 203.056C37.6449 202.943 37.9834 203.019 38.812 203.621L42.2362 206.034C42.801 206.448 42.989 206.561 42.989 207.013V220.243C42.989 221.072 42.6879 221.563 41.6339 221.638L29.1769 222.392C28.3859 222.429 28.0092 222.316 27.595 221.789L25.0733 218.51C24.6211 217.906 24.4336 217.454 24.4336 216.926V205.166C24.4336 204.488 24.7347 203.923 25.6001 203.848Z" fill="white"/>
<path fill-rule="evenodd" clip-rule="evenodd" d="M36.3272 203.056L25.6001 203.848C24.7347 203.923 24.4336 204.489 24.4336 205.166V216.926C24.4336 217.454 24.6211 217.906 25.0733 218.51L27.595 221.788C28.0092 222.316 28.3859 222.429 29.1769 222.392L41.6341 221.638C42.6873 221.563 42.9892 221.072 42.9892 220.243V207.013C42.9892 206.585 42.82 206.461 42.3217 206.096L38.812 203.621C37.9836 203.019 37.6449 202.943 36.3272 203.056V203.056ZM29.4586 206.797C28.4414 206.865 28.2107 206.881 27.6329 206.411L26.1642 205.243C26.015 205.092 26.09 204.903 26.4661 204.865L36.7783 204.112C37.6443 204.036 38.0953 204.338 38.4339 204.602L40.2026 205.883C40.2782 205.921 40.4662 206.147 40.24 206.147L29.5904 206.788L29.4586 206.797ZM28.2727 220.13V208.899C28.2727 208.409 28.4233 208.182 28.8743 208.144L41.106 207.428C41.5209 207.391 41.7083 207.654 41.7083 208.144V219.3C41.7083 219.791 41.6327 220.206 40.9556 220.243L29.2506 220.922C28.5734 220.959 28.2729 220.734 28.2729 220.13H28.2727ZM39.8271 209.501C39.9021 209.84 39.8271 210.18 39.4878 210.218L38.9237 210.33V218.623C38.4338 218.886 37.9828 219.037 37.606 219.037C37.0036 219.037 36.8532 218.848 36.402 218.283L32.7128 212.479V218.095L33.8799 218.359C33.8799 218.359 33.8799 219.037 32.9383 219.037L30.3424 219.188C30.2668 219.037 30.3424 218.66 30.6055 218.585L31.2834 218.397V210.972L30.3426 210.896C30.267 210.557 30.455 210.067 30.9824 210.029L33.7676 209.841L37.6061 215.721V210.519L36.6277 210.407C36.5521 209.991 36.8532 209.689 37.2293 209.653L39.8271 209.501Z" fill="black"/>
<circle cx="60.5" cy="212.5" r="17.5" fill="#111111"/>
<mask id="mask0_2759_2753" style="mask-type:luminance" maskUnits="userSpaceOnUse" x="48" y="200" width="25" height="25">
<path d="M72.9999 200.483H48.4834V225H72.9999V200.483Z" fill="white"/>
</mask>
<g mask="url(#mask0_2759_2753)">
<path d="M67.3814 223.978H54.1016C53.255 223.978 52.5693 223.293 52.5693 222.446V203.037C52.5693 202.191 53.255 201.505 54.1016 201.505H63.2953L68.9137 207.123V222.446C68.9137 223.293 68.228 223.978 67.3814 223.978Z" fill="#00AC47"/>
<g filter="url(#filter0_d_2759_2753)">
<path d="M63.2954 201.505L68.9138 207.123H63.2954V201.505Z" fill="#00832D"/>
</g>
<path d="M64.5726 210.188H61.3803H60.1034H56.9112H55.6343V211.464V213.252V214.529V216.317V217.594H56.9112H60.1034H61.3803H64.5726H65.8495V216.317V214.529V213.252V211.464V210.188H64.5726ZM56.9112 211.464H60.1034V213.252H56.9112V211.464ZM56.9112 216.317V214.529H60.1034V216.317H56.9112ZM64.5726 216.317H61.3803V214.529H64.5726V216.317ZM64.5726 213.252H61.3803V211.464H64.5726V213.252Z" fill="white"/>
</g>
<defs>
<filter id="filter0_d_2759_2753" x="57.2954" y="189.505" width="17.6182" height="17.6182" filterUnits="userSpaceOnUse" color-interpolation-filters="sRGB">
<feFlood flood-opacity="0" result="BackgroundImageFix"/>
<feColorMatrix in="SourceAlpha" type="matrix" values="0 0 0 0 0 0 0 0 0 0 0 0 0 0 0 0 0 0 127 0" result="hardAlpha"/>
<feOffset dy="-6"/>
<feGaussianBlur stdDeviation="3"/>
<feComposite in2="hardAlpha" operator="out"/>
<feColorMatrix type="matrix" values="0 0 0 0 0 0 0 0 0 0 0 0 0 0 0 0 0 0 0.1 0"/>
<feBlend mode="normal" in2="BackgroundImageFix" result="effect1_dropShadow_2759_2753"/>
<feBlend mode="normal" in="SourceGraphic" in2="effect1_dropShadow_2759_2753" result="shape"/>
</filter>
</defs>
</svg>
