<svg width="410" height="244" viewBox="0 0 410 244" fill="none" xmlns="http://www.w3.org/2000/svg">
<path d="M0 20C0 8.95431 8.95431 0 20 0H390C401.046 0 410 8.95431 410 20V224C410 235.046 401.046 244 390 244H20C8.95431 244 0 235.046 0 224V20Z" fill="white"/>
<path d="M390 242V244H20V242H390ZM408 224V20C408 10.0589 399.941 2 390 2H20C10.0589 2 2 10.0589 2 20V224C2 233.941 10.0589 242 20 242V244L19.4834 243.993C8.84814 243.724 0.276492 235.152 0.00683594 224.517L0 224V20C2.79059e-06 9.12703 8.67646 0.280844 19.4834 0.00683594L20 0H390L390.517 0.00683594C401.324 0.280847 410 9.12703 410 20V224L409.993 224.517C409.724 235.152 401.152 243.724 390.517 243.993L390 244V242C399.941 242 408 233.941 408 224Z" fill="#111111"/>
<path d="M390 1C400.493 1 409 9.50659 409 20V32H316C305.507 32 297 23.4934 297 13V1H390Z" fill="#ADE975" stroke="#111111" stroke-width="2"/>
<path d="M375.428 15.9077H376.548C377.434 15.9077 378.214 15.903 378.886 15.8937C379.567 15.875 380.197 15.8423 380.776 15.7957C381.364 15.749 381.956 15.679 382.554 15.5857L382.736 17.0417C382.12 17.135 381.508 17.2097 380.902 17.2657C380.304 17.3123 379.656 17.345 378.956 17.3637C378.256 17.373 377.453 17.3777 376.548 17.3777H375.428V15.9077ZM375.428 10.9797H381.672V12.4637H377.276V16.4957H375.428V10.9797ZM376.702 13.4437H381.294V14.8857H376.702V13.4437ZM383.632 10.0977H385.494V17.9377H383.632V10.0977ZM381.112 18.1337C382.026 18.1337 382.815 18.2317 383.478 18.4277C384.14 18.6237 384.649 18.9037 385.004 19.2677C385.368 19.6317 385.55 20.075 385.55 20.5977C385.55 21.3817 385.153 21.9883 384.36 22.4177C383.566 22.847 382.484 23.0617 381.112 23.0617C379.74 23.0617 378.657 22.847 377.864 22.4177C377.08 21.9883 376.688 21.3817 376.688 20.5977C376.688 19.823 377.08 19.221 377.864 18.7917C378.657 18.353 379.74 18.1337 381.112 18.1337ZM381.112 19.5477C380.552 19.5477 380.08 19.585 379.698 19.6597C379.315 19.7343 379.026 19.851 378.83 20.0097C378.634 20.1683 378.536 20.3643 378.536 20.5977C378.536 20.831 378.634 21.027 378.83 21.1857C379.026 21.335 379.315 21.447 379.698 21.5217C380.08 21.5963 380.552 21.6337 381.112 21.6337C381.681 21.6337 382.152 21.5963 382.526 21.5217C382.908 21.447 383.198 21.335 383.394 21.1857C383.599 21.027 383.702 20.831 383.702 20.5977C383.702 20.3643 383.599 20.1683 383.394 20.0097C383.198 19.851 382.908 19.7343 382.526 19.6597C382.152 19.585 381.681 19.5477 381.112 19.5477Z" fill="#111111"/>
<path d="M368.457 11.9877H371.649V13.4717H368.457V11.9877ZM370.823 10.0977H372.699V16.6777H370.823V10.0977ZM364.131 17.2097H372.699V20.7097H365.993V22.3337H364.145V19.3657H370.851V18.6517H364.131V17.2097ZM364.145 21.4657H373.063V22.9217H364.145V21.4657ZM364.803 10.5037H366.315V11.4417C366.315 12.2443 366.184 13.005 365.923 13.7237C365.671 14.4423 365.279 15.0677 364.747 15.5997C364.215 16.1223 363.534 16.5143 362.703 16.7757L361.751 15.3197C362.47 15.0957 363.053 14.7877 363.501 14.3957C363.949 13.9943 364.276 13.537 364.481 13.0237C364.696 12.5103 364.803 11.983 364.803 11.4417V10.5037ZM365.181 10.5037H366.679V11.4417C366.679 11.815 366.735 12.1883 366.847 12.5617C366.968 12.935 367.146 13.285 367.379 13.6117C367.612 13.9383 367.911 14.2277 368.275 14.4797C368.648 14.7317 369.087 14.937 369.591 15.0957L368.639 16.5237C367.855 16.2717 367.206 15.8937 366.693 15.3897C366.18 14.8857 365.797 14.293 365.545 13.6117C365.302 12.9303 365.181 12.207 365.181 11.4417V10.5037Z" fill="#111111"/>
<path d="M355.676 14.018H358.168V15.516H355.676V14.018ZM353.842 11.064H355.76C355.76 12.2867 355.573 13.374 355.2 14.326C354.827 15.278 354.211 16.1087 353.352 16.818C352.493 17.518 351.336 18.1013 349.88 18.568L349.152 17.126C350.067 16.8367 350.827 16.51 351.434 16.146C352.041 15.782 352.517 15.3807 352.862 14.942C353.217 14.494 353.469 14.0133 353.618 13.5C353.767 12.9773 353.842 12.4173 353.842 11.82V11.064ZM349.838 11.064H355.046V12.562H349.838V11.064ZM354.052 13.598V14.872L349.432 15.208L349.18 13.766L354.052 13.598ZM357.944 10.084H359.82V19.66H357.944V10.084ZM351.336 21.34H360.156V22.838H351.336V21.34ZM351.336 18.736H353.212V22.32H351.336V18.736Z" fill="#111111"/>
<path d="M333.285 11.036H340.887V12.38H333.285V11.036ZM337.079 12.688C337.732 12.688 338.297 12.7673 338.773 12.926C339.258 13.0847 339.636 13.3087 339.907 13.598C340.178 13.8873 340.313 14.228 340.313 14.62C340.313 15.0213 340.178 15.3667 339.907 15.656C339.636 15.9453 339.258 16.174 338.773 16.342C338.297 16.5007 337.732 16.58 337.079 16.58C336.435 16.58 335.87 16.5007 335.385 16.342C334.909 16.174 334.536 15.9453 334.265 15.656C334.004 15.3667 333.873 15.0213 333.873 14.62C333.873 14.228 334.004 13.8873 334.265 13.598C334.536 13.3087 334.909 13.0847 335.385 12.926C335.87 12.7673 336.435 12.688 337.079 12.688ZM337.079 13.92C336.65 13.92 336.3 13.9807 336.029 14.102C335.768 14.214 335.637 14.3867 335.637 14.62C335.637 14.8533 335.768 15.0353 336.029 15.166C336.3 15.2873 336.65 15.348 337.079 15.348C337.518 15.348 337.868 15.2873 338.129 15.166C338.4 15.0353 338.535 14.8533 338.535 14.62C338.535 14.3867 338.4 14.214 338.129 14.102C337.868 13.9807 337.518 13.92 337.079 13.92ZM336.155 10H338.031V11.722H336.155V10ZM336.155 15.88H338.031V17.686H336.155V15.88ZM341.783 10.098H343.645V18.89H341.783V10.098ZM334.685 19.38H343.645V23.062H341.783V20.822H334.685V19.38ZM333.131 18.624L332.921 17.21C333.705 17.21 334.55 17.2053 335.455 17.196C336.37 17.1867 337.303 17.1587 338.255 17.112C339.216 17.056 340.136 16.972 341.013 16.86L341.153 18.12C340.238 18.2693 339.31 18.3813 338.367 18.456C337.424 18.5307 336.505 18.5773 335.609 18.596C334.722 18.6147 333.896 18.624 333.131 18.624Z" fill="#111111"/>
<path d="M328.904 10.084H330.766V23.048H328.904V10.084ZM325.082 11.428H326.916C326.916 12.4173 326.818 13.3647 326.622 14.27C326.435 15.166 326.118 16.0107 325.67 16.804C325.231 17.5973 324.625 18.3347 323.85 19.016C323.085 19.688 322.128 20.304 320.98 20.864L320 19.394C321.251 18.7873 322.245 18.12 322.982 17.392C323.729 16.6547 324.265 15.824 324.592 14.9C324.919 13.9667 325.082 12.9213 325.082 11.764V11.428ZM320.7 11.428H325.95V12.912H320.7V11.428Z" fill="#111111"/>
<circle cx="33.5" cy="212.5" r="17.5" fill="#111111"/>
<path d="M26 220.5C26 218.291 27.7909 216.5 30 216.5H33.9999V220.5C33.9999 222.709 32.2091 224.5 30 224.5C27.7909 224.5 26 222.709 26 220.5Z" fill="#24CB71"/>
<path d="M34 200.5V208.5H38C40.2091 208.5 41.9999 206.709 41.9999 204.5C41.9999 202.291 40.2091 200.5 38 200.5H34Z" fill="#FF7237"/>
<path d="M37.9663 216.5C40.1754 216.5 41.9663 214.709 41.9663 212.5C41.9663 210.291 40.1754 208.5 37.9663 208.5C35.7572 208.5 33.9663 210.291 33.9663 212.5C33.9663 214.709 35.7572 216.5 37.9663 216.5Z" fill="#00B6FF"/>
<path d="M26 204.5C26 206.709 27.7909 208.5 30 208.5H33.9999V200.5H30C27.7909 200.5 26 202.291 26 204.5Z" fill="#FF3737"/>
<path d="M26 212.5C26 214.709 27.7909 216.5 30 216.5H33.9999V208.5H30C27.7909 208.5 26 210.291 26 212.5Z" fill="#874FFF"/>
<circle cx="60.5" cy="212.5" r="17.5" fill="#111111"/>
<path d="M52.6001 203.848L63.3272 203.056C64.6449 202.943 64.9834 203.019 65.812 203.621L69.2362 206.034C69.801 206.448 69.989 206.561 69.989 207.013V220.243C69.989 221.072 69.6879 221.563 68.6339 221.638L56.1769 222.392C55.3859 222.429 55.0092 222.316 54.595 221.789L52.0733 218.51C51.6211 217.906 51.4336 217.454 51.4336 216.926V205.166C51.4336 204.488 51.7347 203.923 52.6001 203.848Z" fill="white"/>
<path fill-rule="evenodd" clip-rule="evenodd" d="M63.3272 203.056L52.6001 203.848C51.7347 203.923 51.4336 204.489 51.4336 205.166V216.926C51.4336 217.454 51.6211 217.906 52.0733 218.51L54.595 221.788C55.0092 222.316 55.3859 222.429 56.1769 222.392L68.6341 221.638C69.6873 221.563 69.9892 221.072 69.9892 220.243V207.013C69.9892 206.585 69.82 206.461 69.3217 206.096L65.812 203.621C64.9836 203.019 64.6449 202.943 63.3272 203.056V203.056ZM56.4586 206.797C55.4414 206.865 55.2107 206.881 54.6329 206.411L53.1642 205.243C53.015 205.092 53.09 204.903 53.4661 204.865L63.7783 204.112C64.6443 204.036 65.0953 204.338 65.4339 204.602L67.2026 205.883C67.2782 205.921 67.4662 206.147 67.24 206.147L56.5904 206.788L56.4586 206.797ZM55.2727 220.13V208.899C55.2727 208.409 55.4233 208.182 55.8743 208.144L68.106 207.428C68.5209 207.391 68.7083 207.654 68.7083 208.144V219.3C68.7083 219.791 68.6327 220.206 67.9556 220.243L56.2506 220.922C55.5734 220.959 55.2729 220.734 55.2729 220.13H55.2727ZM66.8271 209.501C66.9021 209.84 66.8271 210.18 66.4878 210.218L65.9237 210.33V218.623C65.4338 218.886 64.9828 219.037 64.606 219.037C64.0036 219.037 63.8532 218.848 63.402 218.283L59.7128 212.479V218.095L60.8799 218.359C60.8799 218.359 60.8799 219.037 59.9383 219.037L57.3424 219.188C57.2668 219.037 57.3424 218.66 57.6055 218.585L58.2834 218.397V210.972L57.3426 210.896C57.267 210.557 57.455 210.067 57.9824 210.029L60.7676 209.841L64.6061 215.721V210.519L63.6277 210.407C63.5521 209.991 63.8532 209.689 64.2293 209.653L66.8271 209.501Z" fill="black"/>
<circle cx="87.5" cy="212.5" r="17.5" fill="#111111"/>
<mask id="mask0_2759_2788" style="mask-type:luminance" maskUnits="userSpaceOnUse" x="75" y="200" width="25" height="25">
<path d="M99.9999 200.483H75.4834V225H99.9999V200.483Z" fill="white"/>
</mask>
<g mask="url(#mask0_2759_2788)">
<path d="M94.3814 223.978H81.1016C80.255 223.978 79.5693 223.293 79.5693 222.446V203.037C79.5693 202.191 80.255 201.505 81.1016 201.505H90.2953L95.9137 207.123V222.446C95.9137 223.293 95.228 223.978 94.3814 223.978Z" fill="#00AC47"/>
<g filter="url(#filter0_d_2759_2788)">
<path d="M90.2954 201.505L95.9138 207.123H90.2954V201.505Z" fill="#00832D"/>
</g>
<path d="M91.5726 210.188H88.3803H87.1034H83.9112H82.6343V211.464V213.252V214.529V216.317V217.594H83.9112H87.1034H88.3803H91.5726H92.8495V216.317V214.529V213.252V211.464V210.188H91.5726ZM83.9112 211.464H87.1034V213.252H83.9112V211.464ZM83.9112 216.317V214.529H87.1034V216.317H83.9112ZM91.5726 216.317H88.3803V214.529H91.5726V216.317ZM91.5726 213.252H88.3803V211.464H91.5726V213.252Z" fill="white"/>
</g>
<defs>
<filter id="filter0_d_2759_2788" x="84.2954" y="189.505" width="17.6182" height="17.6182" filterUnits="userSpaceOnUse" color-interpolation-filters="sRGB">
<feFlood flood-opacity="0" result="BackgroundImageFix"/>
<feColorMatrix in="SourceAlpha" type="matrix" values="0 0 0 0 0 0 0 0 0 0 0 0 0 0 0 0 0 0 127 0" result="hardAlpha"/>
<feOffset dy="-6"/>
<feGaussianBlur stdDeviation="3"/>
<feComposite in2="hardAlpha" operator="out"/>
<feColorMatrix type="matrix" values="0 0 0 0 0 0 0 0 0 0 0 0 0 0 0 0 0 0 0.1 0"/>
<feBlend mode="normal" in2="BackgroundImageFix" result="effect1_dropShadow_2759_2788"/>
<feBlend mode="normal" in="SourceGraphic" in2="effect1_dropShadow_2759_2788" result="shape"/>
</filter>
</defs>
</svg>
