<svg width="410" height="244" viewBox="0 0 410 244" fill="none" xmlns="http://www.w3.org/2000/svg">
<path d="M0 20C0 8.95431 8.95431 0 20 0H390C401.046 0 410 8.95431 410 20V224C410 235.046 401.046 244 390 244H20C8.95431 244 0 235.046 0 224V20Z" fill="white"/>
<path d="M390 242V244H20V242H390ZM408 224V20C408 10.0589 399.941 2 390 2H20C10.0589 2 2 10.0589 2 20V224C2 233.941 10.0589 242 20 242V244L19.4834 243.993C8.84814 243.724 0.276492 235.152 0.00683594 224.517L0 224V20C2.79059e-06 9.12703 8.67646 0.280844 19.4834 0.00683594L20 0H390L390.517 0.00683594C401.324 0.280847 410 9.12703 410 20V224L409.993 224.517C409.724 235.152 401.152 243.724 390.517 243.993L390 244V242C399.941 242 408 233.941 408 224Z" fill="#111111"/>
<path d="M266 157.844H392V188.844H266V157.844Z" fill="white"/>
<path d="M266 63H392V95H266V63Z" fill="white"/>
<path d="M375.983 220.66V222H34.0171V220.66H375.983ZM390.398 208.6V34.4C390.398 27.7394 383.944 22.34 375.983 22.34H34.0171C26.0557 22.34 19.6017 27.7394 19.6017 34.4V208.6C19.6017 215.261 26.0557 220.66 34.0171 220.66V222L33.6034 221.995C25.0861 221.815 18.2214 216.072 18.0055 208.946L18 208.6V34.4C18 27.1151 24.9486 21.1882 33.6034 21.0046L34.0171 21H375.983L376.397 21.0046C385.051 21.1882 392 27.1151 392 34.4V208.6L391.995 208.946C391.779 216.072 384.914 221.815 376.397 221.995L375.983 222V220.66C383.944 220.66 390.398 215.261 390.398 208.6Z" fill="#111111"/>
<path d="M34.0171 220.66H375.983C383.944 220.66 390.398 215.261 390.398 208.6V34.4C390.398 27.7394 383.944 22.34 375.983 22.34H34.0171C26.0557 22.34 19.6017 27.7394 19.6017 34.4V208.6C19.6017 215.261 26.0557 220.66 34.0171 220.66Z" fill="white"/>
<path d="M60 62.2524V221.252H59V62.2524H60Z" fill="#111111"/>
<path d="M18 35C18 27.268 24.268 21 32 21H60V222H32C24.268 222 18 215.732 18 208V35Z" fill="#2C2D35"/>
<path d="M18 208V35C18 27.3888 24.0737 21.1965 31.6387 21.0049L32 21H60V222H32V220.5H58.5V22.5H32C25.0964 22.5 19.5 28.0964 19.5 35V208C19.5 214.904 25.0964 220.5 32 220.5V222L31.6387 221.995C24.1938 221.807 18.1935 215.806 18.0049 208.361L18 208Z" fill="#111111"/>
<path d="M46.2163 42.0086C46.2163 46.4316 42.81 50.0171 38.6081 50.0171C34.4063 50.0171 31 46.4316 31 42.0086C31 37.5856 34.4063 34 38.6081 34C42.81 34 46.2163 37.5856 46.2163 42.0086Z" fill="#FF554D"/>
<path d="M44.6146 42.0086C44.6146 38.3917 41.849 35.6017 38.6081 35.6017C35.3673 35.6017 32.6017 38.3917 32.6017 42.0086C32.6017 45.6254 35.3673 48.4154 38.6081 48.4154V50.0171C34.4063 50.0171 31 46.4316 31 42.0086C31 37.5856 34.4063 34 38.6081 34C42.81 34 46.2163 37.5856 46.2163 42.0086C46.2163 46.4316 42.81 50.0171 38.6081 50.0171V48.4154C41.849 48.4154 44.6146 45.6254 44.6146 42.0086Z" fill="#111111"/>
<path d="M46 65.5168C46 69.659 42.6421 73.0168 38.5 73.0168C34.3579 73.0168 31 69.659 31 65.5168C31 61.3747 34.3579 58.0168 38.5 58.0168C42.6421 58.0168 46 61.3747 46 65.5168Z" fill="#FEB42A"/>
<path d="M44.5 65.5168C44.5 62.2031 41.8137 59.5168 38.5 59.5168C35.1863 59.5168 32.5 62.2031 32.5 65.5168C32.5 68.8306 35.1863 71.5168 38.5 71.5168V73.0168C34.3579 73.0168 31 69.659 31 65.5168C31 61.3747 34.3579 58.0168 38.5 58.0168C42.6421 58.0168 46 61.3747 46 65.5168C46 69.659 42.6421 73.0168 38.5 73.0168V71.5168C41.8137 71.5168 44.5 68.8306 44.5 65.5168Z" fill="#111111"/>
<path d="M46.2163 89.0257C46.2163 93.4487 42.81 97.0342 38.6081 97.0342C34.4063 97.0342 31 93.4487 31 89.0257C31 84.6026 34.4063 81.0171 38.6081 81.0171C42.81 81.0171 46.2163 84.6026 46.2163 89.0257Z" fill="#25C138"/>
<path d="M44.6146 89.0257C44.6146 85.4088 41.849 82.6188 38.6081 82.6188C35.3673 82.6188 32.6017 85.4088 32.6017 89.0257C32.6017 92.6425 35.3673 95.4325 38.6081 95.4325V97.0342C34.4063 97.0342 31 93.4487 31 89.0257C31 84.6026 34.4063 81.0171 38.6081 81.0171C42.81 81.0171 46.2163 84.6026 46.2163 89.0257C46.2163 93.4487 42.81 97.0342 38.6081 97.0342V95.4325C41.849 95.4325 44.6146 92.6425 44.6146 89.0257Z" fill="#111111"/>
<path d="M150.828 191.828C149.266 190.266 149.266 187.733 150.828 186.171L170.171 166.828C171.733 165.266 174.266 165.266 175.828 166.828L195.171 186.171C196.733 187.733 196.733 190.266 195.171 191.828L175.828 211.171C174.266 212.733 171.733 212.733 170.171 211.171L150.828 191.828Z" fill="#FFE599"/>
<path d="M194.463 191.121L195.17 191.828L175.828 211.17L175.121 210.463L194.463 191.121ZM194.463 186.878L175.121 167.536C173.949 166.364 172.05 166.364 170.878 167.536L151.536 186.878C150.364 188.05 150.364 189.949 151.536 191.121L170.878 210.463C172.05 211.635 173.949 211.635 175.121 210.463L175.828 211.17L175.679 211.313C174.159 212.686 171.84 212.686 170.32 211.313L170.171 211.17L150.828 191.828C149.315 190.315 149.268 187.89 150.686 186.32L150.828 186.171L170.171 166.829L170.32 166.686C171.89 165.268 174.315 165.315 175.828 166.829L195.17 186.171L195.313 186.32C196.686 187.84 196.686 190.159 195.313 191.679L195.17 191.828L194.463 191.121C195.635 189.949 195.635 188.05 194.463 186.878Z" fill="#111111"/>
<path d="M165 65C165 63.3431 166.343 62 168 62H222C223.657 62 225 63.3431 225 65V99C225 100.657 223.657 102 222 102H168C166.343 102 165 100.657 165 99V65Z" fill="#1E1E1E"/>
<path d="M222 101V102H168V101H222ZM224 99V65C224 63.8954 223.105 63 222 63H168C166.895 63 166 63.8954 166 65V99C166 100.105 166.895 101 168 101V102L167.846 101.996C166.312 101.918 165.082 100.688 165.004 99.1543L165 99V65C165 63.3949 166.261 62.0842 167.846 62.0039L168 62H222L222.154 62.0039C223.739 62.0842 225 63.3949 225 65V99L224.996 99.1543C224.918 100.688 223.688 101.918 222.154 101.996L222 102V101C223.105 101 224 100.105 224 99Z" fill="#1E1E1E"/>
<path fill-rule="evenodd" clip-rule="evenodd" d="M213.199 70.4444L217.04 74L218 73.1113L214.639 70L218 66.8887L217.04 66L213.199 69.5556C213.072 69.6735 213 69.8333 213 70C213 70.1667 213.072 70.3265 213.199 70.4444Z" fill="white"/>
<path d="M74 127C74 125.343 75.3431 124 77 124H131C132.657 124 134 125.343 134 127V161C134 162.657 132.657 164 131 164H77C75.3431 164 74 162.657 74 161V127Z" fill="white"/>
<path d="M131 163V164H77V163H131ZM133 161V127C133 125.895 132.105 125 131 125H77C75.8954 125 75 125.895 75 127V161C75 162.105 75.8954 163 77 163V164L76.8457 163.996C75.3117 163.918 74.0816 162.688 74.0039 161.154L74 161V127C74 125.395 75.2606 124.084 76.8457 124.004L77 124H131L131.154 124.004C132.739 124.084 134 125.395 134 127V161L133.996 161.154C133.918 162.688 132.688 163.918 131.154 163.996L131 164V163C132.105 163 133 162.105 133 161Z" fill="#1E1E1E"/>
<path d="M74 126.9C74 125.298 75.5723 124 77.5118 124H130.5C132.44 124 134.012 125.298 134.012 126.9V136.5H74V126.9Z" fill="#1E1E1E"/>
<path d="M133.661 126.971C133.661 125.494 132.246 124.297 130.5 124.297H77.5118C75.7662 124.297 74.3512 125.494 74.3512 126.971V136H133.661V126.971ZM134.012 136.297H74V126.971C74 125.356 75.5235 124.042 77.4211 124.001L77.5118 124H130.5L130.591 124.001C132.488 124.042 134.012 125.356 134.012 126.971V136.297Z" fill="#111111"/>
<path d="M80.8479 129.756C80.8479 130.726 80.1011 131.512 79.1798 131.512C78.2586 131.512 77.5117 130.726 77.5117 129.756C77.5117 128.786 78.2586 128 79.1798 128C80.1011 128 80.8479 128.786 80.8479 129.756Z" fill="#FF554D"/>
<path d="M80.4967 129.756C80.4967 128.963 79.8904 128.351 79.1798 128.351C78.4693 128.351 77.8629 128.963 77.8629 129.756C77.8629 130.549 78.4693 131.161 79.1798 131.161V131.512C78.2586 131.512 77.5117 130.726 77.5117 129.756C77.5117 128.786 78.2586 128 79.1798 128C80.1011 128 80.8479 128.786 80.8479 129.756C80.8479 130.726 80.1011 131.512 79.1798 131.512V131.161C79.8904 131.161 80.4967 130.549 80.4967 129.756Z" fill="#111111"/>
<path d="M86.2921 129.756C86.2921 130.726 85.5059 131.512 84.5362 131.512C83.5664 131.512 82.7803 130.726 82.7803 129.756C82.7803 128.786 83.5664 128 84.5362 128C85.5059 128 86.2921 128.786 86.2921 129.756Z" fill="#FEB42A"/>
<path d="M85.9409 129.756C85.9409 128.98 85.312 128.351 84.5362 128.351C83.7604 128.351 83.1315 128.98 83.1315 129.756C83.1315 130.532 83.7604 131.161 84.5362 131.161V131.512C83.5664 131.512 82.7803 130.726 82.7803 129.756C82.7803 128.786 83.5664 128 84.5362 128C85.5059 128 86.2921 128.786 86.2921 129.756C86.2921 130.726 85.5059 131.512 84.5362 131.512V131.161C85.312 131.161 85.9409 130.532 85.9409 129.756Z" fill="#111111"/>
<path d="M91.5598 129.756C91.5598 130.726 90.813 131.512 89.8917 131.512C88.9705 131.512 88.2236 130.726 88.2236 129.756C88.2236 128.786 88.9705 128 89.8917 128C90.813 128 91.5598 128.786 91.5598 129.756Z" fill="#25C138"/>
<path d="M91.2086 129.756C91.2086 128.963 90.6023 128.351 89.8917 128.351C89.1812 128.351 88.5748 128.963 88.5748 129.756C88.5748 130.549 89.1812 131.161 89.8917 131.161V131.512C88.9705 131.512 88.2236 130.726 88.2236 129.756C88.2236 128.786 88.9705 128 89.8917 128C90.813 128 91.5598 128.786 91.5598 129.756C91.5598 130.726 90.813 131.512 89.8917 131.512V131.161C90.6023 131.161 91.2086 130.549 91.2086 129.756Z" fill="#111111"/>
<path d="M257 40C257 36.6863 259.686 34 263 34H368.25C371.564 34 374.25 36.6863 374.25 40V91C374.25 94.3137 371.564 97 368.25 97H263C259.686 97 257 94.3137 257 91V40Z" fill="#DDDDDD"/>
<path d="M368.25 95.5V97H263V95.5H368.25ZM372.75 91V40C372.75 37.5147 370.735 35.5 368.25 35.5H263C260.515 35.5 258.5 37.5147 258.5 40V91C258.5 93.4853 260.515 95.5 263 95.5V97L262.691 96.9919C259.623 96.8363 257.164 94.3768 257.008 91.3091L257 91V40C257 36.79 259.521 34.1689 262.691 34.0081L263 34H368.25L368.559 34.0081C371.729 34.1689 374.25 36.79 374.25 40V91L374.242 91.3091C374.086 94.3768 371.627 96.8363 368.559 96.9919L368.25 97V95.5C370.735 95.5 372.75 93.4853 372.75 91Z" fill="#111111"/>
<path d="M268.25 49.75C268.25 48.0931 269.593 46.75 271.25 46.75H344.375C346.032 46.75 347.375 48.0931 347.375 49.75V54.625C347.375 56.2819 346.032 57.625 344.375 57.625H271.25C269.593 57.625 268.25 56.2819 268.25 54.625V49.75Z" fill="#ABABAB"/>
<path d="M344.375 56.125V57.625H271.25V56.125H344.375ZM345.875 54.625V49.75C345.875 48.9216 345.203 48.25 344.375 48.25H271.25C270.422 48.25 269.75 48.9216 269.75 49.75V54.625C269.75 55.4534 270.422 56.125 271.25 56.125V57.625L271.095 57.6213C269.562 57.5435 268.331 56.3134 268.254 54.7795L268.25 54.625V49.75C268.25 48.145 269.51 46.8341 271.095 46.7537L271.25 46.75H344.375L344.53 46.7537C346.115 46.8341 347.375 48.145 347.375 49.75V54.625L347.371 54.7795C347.294 56.3134 346.063 57.5435 344.53 57.6213L344.375 57.625V56.125C345.203 56.125 345.875 55.4534 345.875 54.625Z" fill="#111111"/>
<path d="M268.25 79.25C268.25 77.5931 269.593 76.25 271.25 76.25H331.625C333.282 76.25 334.625 77.5931 334.625 79.25V81.5C334.625 83.1569 333.282 84.5 331.625 84.5H271.25C269.593 84.5 268.25 83.1569 268.25 81.5V79.25Z" fill="#F2F2F2"/>
<path d="M331.625 83V84.5H271.25V83H331.625ZM333.125 81.5V79.25C333.125 78.4216 332.453 77.75 331.625 77.75H271.25C270.422 77.75 269.75 78.4216 269.75 79.25V81.5C269.75 82.3284 270.422 83 271.25 83V84.5L271.095 84.4963C269.562 84.4185 268.331 83.1884 268.254 81.6545L268.25 81.5V79.25C268.25 77.645 269.51 76.3341 271.095 76.2537L271.25 76.25H331.625L331.78 76.2537C333.365 76.3341 334.625 77.645 334.625 79.25V81.5L334.621 81.6545C334.544 83.1884 333.313 84.4185 331.78 84.4963L331.625 84.5V83C332.453 83 333.125 82.3284 333.125 81.5Z" fill="#111111"/>
<path d="M268.25 67C268.25 65.3431 269.593 64 271.25 64H318.5C320.157 64 321.5 65.3431 321.5 67V69.25C321.5 70.9069 320.157 72.25 318.5 72.25H271.25C269.593 72.25 268.25 70.9069 268.25 69.25V67Z" fill="#F2F2F2"/>
<path d="M318.5 70.75V72.25H271.25V70.75H318.5ZM320 69.25V67C320 66.1716 319.328 65.5 318.5 65.5H271.25C270.422 65.5 269.75 66.1716 269.75 67V69.25C269.75 70.0784 270.422 70.75 271.25 70.75V72.25L271.095 72.2463C269.562 72.1685 268.331 70.9384 268.254 69.4045L268.25 69.25V67C268.25 65.395 269.51 64.0841 271.095 64.0037L271.25 64H318.5L318.655 64.0037C320.24 64.0841 321.5 65.395 321.5 67V69.25L321.496 69.4045C321.419 70.9384 320.188 72.1685 318.655 72.2463L318.5 72.25V70.75C319.328 70.75 320 70.0784 320 69.25Z" fill="#111111"/>
<path d="M145.5 139.744V86.5C145.5 82.9101 148.41 80 152 80H160.793L158.465 77.6718C158.27 77.4766 158.27 77.1601 158.465 76.9648C158.66 76.7695 158.977 76.7695 159.172 76.9648L162.354 80.1464C162.549 80.3417 162.549 80.6582 162.354 80.8535L159.172 84.0351C158.977 84.2304 158.66 84.2304 158.465 84.0351C158.27 83.8399 158.27 83.5233 158.465 83.3281L160.793 81H152C148.962 81 146.5 83.4624 146.5 86.5V139.744C146.5 143.334 143.59 146.244 140 146.244H136.822C136.588 147.478 135.506 148.411 134.204 148.411C132.731 148.411 131.537 147.217 131.537 145.744C131.537 144.271 132.731 143.077 134.204 143.077C135.506 143.077 136.588 144.01 136.822 145.244H140C143.038 145.244 145.5 142.782 145.5 139.744Z" fill="black"/>
<path d="M201 145.5L234.293 145.5L231.965 143.172C231.77 142.977 231.77 142.66 231.965 142.465C232.16 142.27 232.477 142.27 232.672 142.465L235.854 145.646C236.049 145.842 236.049 146.158 235.854 146.354L232.672 149.535C232.477 149.73 232.16 149.73 231.965 149.535C231.77 149.34 231.77 149.023 231.965 148.828L234.293 146.5L201 146.5C197.41 146.5 194.5 143.59 194.5 140L194.5 104.618C193.266 104.384 192.333 103.302 192.333 102C192.333 100.527 193.527 99.333 195 99.333C196.473 99.333 197.667 100.527 197.667 102C197.667 103.302 196.734 104.384 195.5 104.618L195.5 140C195.5 143.038 197.962 145.5 201 145.5Z" fill="black"/>
<path d="M241 137C241 134.791 242.791 133 245 133H303C305.209 133 307 134.791 307 137V156C307 158.209 305.209 160 303 160H245C242.791 160 241 158.209 241 156V137Z" fill="#8C3EFF"/>
<path d="M303 159V160H245V159H303ZM306 156V137C306 135.395 304.739 134.084 303.154 134.004L303 134H245C243.343 134 242 135.343 242 137V156C242 157.657 243.343 159 245 159V160L244.794 159.995C242.749 159.891 241.109 158.251 241.005 156.206L241 156V137C241 134.86 242.681 133.112 244.794 133.005L245 133H303L303.206 133.005C305.319 133.112 307 134.86 307 137V156L306.995 156.206C306.891 158.251 305.251 159.891 303.206 159.995L303 160V159C304.657 159 306 157.657 306 156Z" fill="#111111"/>
<path d="M273.5 162.887L270.613 160L273.5 157.113L276.387 160L273.5 162.887ZM273 165.785V163.471H274V165.785H273ZM274 170.146H273V168.099H274V170.146ZM273 173.707V171.927H274V173.707H273ZM273 177.269V175.487H274V177.269H273ZM273 180.829V179.049H274V180.829H273ZM273.992 183.823C273.976 184.144 273.937 184.46 273.876 184.768L272.896 184.574C272.964 184.227 273 183.868 273 183.5V182.609H274V183.5L273.992 183.823ZM271.112 188.905L270.834 188.489L270.556 188.074C271.156 187.673 271.673 187.156 272.074 186.556L272.489 186.834L272.905 187.112C272.431 187.821 271.821 188.431 271.112 188.905ZM203.5 192.387L198.5 189.5L203.5 186.613V189H203.573V190H203.5V192.387ZM266.485 190V189H267.5C267.868 189 268.227 188.964 268.574 188.896L268.768 189.876C268.357 189.957 267.933 190 267.5 190H266.485ZM262.427 190V189H264.456V190H262.427ZM258.367 190V189H260.397V190H258.367ZM254.309 190V189H256.338V190H254.309ZM250.25 190V189H252.279V190H250.25ZM246.191 190V189H248.221V190H246.191ZM242.133 190V189H244.162V190H242.133ZM238.073 190V189H240.103V190H238.073ZM234.015 190V189H236.044V190H234.015ZM229.956 190V189H231.985V190H229.956ZM225.897 190V189H227.927V190H225.897ZM221.838 190V189H223.867V190H221.838ZM217.779 190V189H219.809V190H217.779ZM213.721 190V189H215.75V190H213.721ZM209.662 190V189H211.691V190H209.662ZM205.603 190V189H207.633V190H205.603Z" fill="black"/>
<path d="M390 1C400.493 1 409 9.50659 409 20V32H316C305.507 32 297 23.4934 297 13V1H390Z" fill="#ADE975" stroke="#111111" stroke-width="2"/>
<path d="M375.428 15.9079H376.548C377.434 15.9079 378.214 15.9032 378.886 15.8939C379.567 15.8752 380.197 15.8426 380.776 15.7959C381.364 15.7492 381.956 15.6792 382.554 15.5859L382.736 17.0419C382.12 17.1352 381.508 17.2099 380.902 17.2659C380.304 17.3126 379.656 17.3452 378.956 17.3639C378.256 17.3732 377.453 17.3779 376.548 17.3779H375.428V15.9079ZM375.428 10.9799H381.672V12.4639H377.276V16.4959H375.428V10.9799ZM376.702 13.4439H381.294V14.8859H376.702V13.4439ZM383.632 10.0979H385.494V17.9379H383.632V10.0979ZM381.112 18.1339C382.026 18.1339 382.815 18.2319 383.478 18.4279C384.14 18.6239 384.649 18.9039 385.004 19.2679C385.368 19.6319 385.55 20.0752 385.55 20.5979C385.55 21.3819 385.153 21.9886 384.36 22.4179C383.566 22.8472 382.484 23.0619 381.112 23.0619C379.74 23.0619 378.657 22.8472 377.864 22.4179C377.08 21.9886 376.688 21.3819 376.688 20.5979C376.688 19.8232 377.08 19.2212 377.864 18.7919C378.657 18.3532 379.74 18.1339 381.112 18.1339ZM381.112 19.5479C380.552 19.5479 380.08 19.5852 379.698 19.6599C379.315 19.7346 379.026 19.8512 378.83 20.0099C378.634 20.1686 378.536 20.3646 378.536 20.5979C378.536 20.8312 378.634 21.0272 378.83 21.1859C379.026 21.3352 379.315 21.4472 379.698 21.5219C380.08 21.5966 380.552 21.6339 381.112 21.6339C381.681 21.6339 382.152 21.5966 382.526 21.5219C382.908 21.4472 383.198 21.3352 383.394 21.1859C383.599 21.0272 383.702 20.8312 383.702 20.5979C383.702 20.3646 383.599 20.1686 383.394 20.0099C383.198 19.8512 382.908 19.7346 382.526 19.6599C382.152 19.5852 381.681 19.5479 381.112 19.5479Z" fill="#111111"/>
<path d="M368.457 11.9879H371.649V13.4719H368.457V11.9879ZM370.823 10.0979H372.699V16.6779H370.823V10.0979ZM364.131 17.2099H372.699V20.7099H365.993V22.3339H364.145V19.3659H370.851V18.6519H364.131V17.2099ZM364.145 21.4659H373.063V22.9219H364.145V21.4659ZM364.803 10.5039H366.315V11.4419C366.315 12.2446 366.184 13.0052 365.923 13.7239C365.671 14.4426 365.279 15.0679 364.747 15.5999C364.215 16.1226 363.534 16.5146 362.703 16.7759L361.751 15.3199C362.47 15.0959 363.053 14.7879 363.501 14.3959C363.949 13.9946 364.276 13.5372 364.481 13.0239C364.696 12.5106 364.803 11.9832 364.803 11.4419V10.5039ZM365.181 10.5039H366.679V11.4419C366.679 11.8152 366.735 12.1886 366.847 12.5619C366.968 12.9352 367.146 13.2852 367.379 13.6119C367.612 13.9386 367.911 14.2279 368.275 14.4799C368.648 14.7319 369.087 14.9372 369.591 15.0959L368.639 16.5239C367.855 16.2719 367.206 15.8939 366.693 15.3899C366.18 14.8859 365.797 14.2932 365.545 13.6119C365.302 12.9306 365.181 12.2072 365.181 11.4419V10.5039Z" fill="#111111"/>
<path d="M355.676 14.018H358.168V15.516H355.676V14.018ZM353.842 11.064H355.76C355.76 12.2867 355.574 13.374 355.2 14.326C354.827 15.278 354.211 16.1087 353.352 16.818C352.494 17.518 351.336 18.1013 349.88 18.568L349.152 17.126C350.067 16.8367 350.828 16.51 351.434 16.146C352.041 15.782 352.517 15.3807 352.862 14.942C353.217 14.494 353.469 14.0133 353.618 13.5C353.768 12.9773 353.842 12.4173 353.842 11.82V11.064ZM349.838 11.064H355.046V12.562H349.838V11.064ZM354.052 13.598V14.872L349.432 15.208L349.18 13.766L354.052 13.598ZM357.944 10.084H359.82V19.66H357.944V10.084ZM351.336 21.34H360.156V22.838H351.336V21.34ZM351.336 18.736H353.212V22.32H351.336V18.736Z" fill="#111111"/>
<path d="M333.285 11.036H340.887V12.38H333.285V11.036ZM337.079 12.688C337.732 12.688 338.297 12.7673 338.773 12.926C339.258 13.0847 339.636 13.3087 339.907 13.598C340.178 13.8873 340.313 14.228 340.313 14.62C340.313 15.0213 340.178 15.3667 339.907 15.656C339.636 15.9453 339.258 16.174 338.773 16.342C338.297 16.5007 337.732 16.58 337.079 16.58C336.435 16.58 335.87 16.5007 335.385 16.342C334.909 16.174 334.536 15.9453 334.265 15.656C334.004 15.3667 333.873 15.0213 333.873 14.62C333.873 14.228 334.004 13.8873 334.265 13.598C334.536 13.3087 334.909 13.0847 335.385 12.926C335.87 12.7673 336.435 12.688 337.079 12.688ZM337.079 13.92C336.65 13.92 336.3 13.9807 336.029 14.102C335.768 14.214 335.637 14.3867 335.637 14.62C335.637 14.8533 335.768 15.0353 336.029 15.166C336.3 15.2873 336.65 15.348 337.079 15.348C337.518 15.348 337.868 15.2873 338.129 15.166C338.4 15.0353 338.535 14.8533 338.535 14.62C338.535 14.3867 338.4 14.214 338.129 14.102C337.868 13.9807 337.518 13.92 337.079 13.92ZM336.155 10H338.031V11.722H336.155V10ZM336.155 15.88H338.031V17.686H336.155V15.88ZM341.783 10.098H343.645V18.89H341.783V10.098ZM334.685 19.38H343.645V23.062H341.783V20.822H334.685V19.38ZM333.131 18.624L332.921 17.21C333.705 17.21 334.55 17.2053 335.455 17.196C336.37 17.1867 337.303 17.1587 338.255 17.112C339.216 17.056 340.136 16.972 341.013 16.86L341.153 18.12C340.238 18.2693 339.31 18.3813 338.367 18.456C337.424 18.5307 336.505 18.5773 335.609 18.596C334.722 18.6147 333.896 18.624 333.131 18.624Z" fill="#111111"/>
<path d="M328.904 10.084H330.766V23.048H328.904V10.084ZM325.082 11.428H326.916C326.916 12.4173 326.818 13.3647 326.622 14.27C326.435 15.166 326.118 16.0107 325.67 16.804C325.231 17.5973 324.625 18.3347 323.85 19.016C323.085 19.688 322.128 20.304 320.98 20.864L320 19.394C321.251 18.7873 322.245 18.12 322.982 17.392C323.729 16.6547 324.265 15.824 324.592 14.9C324.919 13.9667 325.082 12.9213 325.082 11.764V11.428ZM320.7 11.428H325.95V12.912H320.7V11.428Z" fill="#111111"/>
<circle cx="33.5" cy="212.5" r="17.5" fill="#111111"/>
<path d="M26 220.5C26 218.291 27.7909 216.5 30 216.5H33.9999V220.5C33.9999 222.709 32.2091 224.5 30 224.5C27.7909 224.5 26 222.709 26 220.5Z" fill="#24CB71"/>
<path d="M34 200.5V208.5H38C40.2091 208.5 41.9999 206.709 41.9999 204.5C41.9999 202.291 40.2091 200.5 38 200.5H34Z" fill="#FF7237"/>
<path d="M37.9668 216.5C40.1759 216.5 41.9667 214.709 41.9667 212.5C41.9667 210.291 40.1759 208.5 37.9668 208.5C35.7576 208.5 33.9668 210.291 33.9668 212.5C33.9668 214.709 35.7576 216.5 37.9668 216.5Z" fill="#00B6FF"/>
<path d="M26 204.5C26 206.709 27.7909 208.5 30 208.5H33.9999V200.5H30C27.7909 200.5 26 202.291 26 204.5Z" fill="#FF3737"/>
<path d="M26 212.5C26 214.709 27.7909 216.5 30 216.5H33.9999V208.5H30C27.7909 208.5 26 210.291 26 212.5Z" fill="#874FFF"/>
<circle cx="60.5" cy="212.5" r="17.5" fill="#111111"/>
<path d="M52.6001 203.848L63.3272 203.056C64.6449 202.943 64.9834 203.019 65.812 203.622L69.2362 206.034C69.801 206.449 69.989 206.562 69.989 207.013V220.243C69.989 221.072 69.6879 221.563 68.6339 221.638L56.1769 222.392C55.3859 222.43 55.0092 222.317 54.595 221.789L52.0733 218.51C51.6211 217.906 51.4336 217.455 51.4336 216.926V205.167C51.4336 204.489 51.7347 203.923 52.6001 203.848Z" fill="white"/>
<path fill-rule="evenodd" clip-rule="evenodd" d="M63.3272 203.056L52.6001 203.849C51.7347 203.923 51.4336 204.489 51.4336 205.167V216.926C51.4336 217.454 51.6211 217.906 52.0733 218.51L54.595 221.789C55.0092 222.317 55.3859 222.43 56.1769 222.392L68.6341 221.638C69.6873 221.563 69.9892 221.072 69.9892 220.244V207.014C69.9892 206.585 69.82 206.462 69.3217 206.096L65.812 203.622C64.9836 203.019 64.6449 202.943 63.3272 203.056V203.056ZM56.4586 206.797C55.4414 206.865 55.2107 206.881 54.6329 206.411L53.1642 205.243C53.015 205.092 53.09 204.903 53.4661 204.866L63.7783 204.112C64.6443 204.036 65.0953 204.338 65.4339 204.602L67.2026 205.883C67.2782 205.922 67.4662 206.147 67.24 206.147L56.5904 206.788L56.4586 206.797ZM55.2727 220.13V208.899C55.2727 208.409 55.4233 208.183 55.8743 208.145L68.106 207.428C68.5209 207.391 68.7083 207.655 68.7083 208.144V219.301C68.7083 219.791 68.6327 220.206 67.9556 220.244L56.2506 220.922C55.5734 220.959 55.2729 220.734 55.2729 220.13H55.2727ZM66.8271 209.501C66.9021 209.841 66.8271 210.18 66.4878 210.219L65.9237 210.331V218.623C65.4338 218.886 64.9828 219.037 64.606 219.037C64.0036 219.037 63.8532 218.848 63.402 218.284L59.7128 212.479V218.095L60.8799 218.359C60.8799 218.359 60.8799 219.038 59.9383 219.038L57.3424 219.188C57.2668 219.037 57.3424 218.66 57.6055 218.585L58.2834 218.397V210.972L57.3426 210.896C57.267 210.557 57.455 210.067 57.9824 210.029L60.7676 209.841L64.6061 215.721V210.519L63.6277 210.407C63.5521 209.992 63.8532 209.69 64.2293 209.653L66.8271 209.501Z" fill="black"/>
<circle cx="87.5" cy="212.5" r="17.5" fill="#111111"/>
<mask id="mask0_2759_2788" style="mask-type:luminance" maskUnits="userSpaceOnUse" x="75" y="200" width="25" height="25">
<path d="M99.9999 200.483H75.4834V225H99.9999V200.483Z" fill="white"/>
</mask>
<g mask="url(#mask0_2759_2788)">
<path d="M94.3814 223.978H81.1016C80.255 223.978 79.5693 223.293 79.5693 222.446V203.037C79.5693 202.191 80.255 201.505 81.1016 201.505H90.2953L95.9137 207.123V222.446C95.9137 223.293 95.228 223.978 94.3814 223.978Z" fill="#00AC47"/>
<g filter="url(#filter0_d_2759_2788)">
<path d="M90.2949 201.505L95.9133 207.123H90.2949V201.505Z" fill="#00832D"/>
</g>
<path d="M91.5721 210.188H88.3799H87.103H83.9107H82.6338V211.464V213.252V214.529V216.317V217.594H83.9107H87.103H88.3799H91.5721H92.849V216.317V214.529V213.252V211.464V210.188H91.5721ZM83.9107 211.464H87.103V213.252H83.9107V211.464ZM83.9107 216.317V214.529H87.103V216.317H83.9107ZM91.5721 216.317H88.3799V214.529H91.5721V216.317ZM91.5721 213.252H88.3799V211.464H91.5721V213.252Z" fill="white"/>
</g>
<defs>
<filter id="filter0_d_2759_2788" x="84.2949" y="189.505" width="17.6182" height="17.6184" filterUnits="userSpaceOnUse" color-interpolation-filters="sRGB">
<feFlood flood-opacity="0" result="BackgroundImageFix"/>
<feColorMatrix in="SourceAlpha" type="matrix" values="0 0 0 0 0 0 0 0 0 0 0 0 0 0 0 0 0 0 127 0" result="hardAlpha"/>
<feOffset dy="-6"/>
<feGaussianBlur stdDeviation="3"/>
<feComposite in2="hardAlpha" operator="out"/>
<feColorMatrix type="matrix" values="0 0 0 0 0 0 0 0 0 0 0 0 0 0 0 0 0 0 0.1 0"/>
<feBlend mode="normal" in2="BackgroundImageFix" result="effect1_dropShadow_2759_2788"/>
<feBlend mode="normal" in="SourceGraphic" in2="effect1_dropShadow_2759_2788" result="shape"/>
</filter>
</defs>
</svg>
