<svg width="410" height="244" viewBox="0 0 410 244" fill="none" xmlns="http://www.w3.org/2000/svg">
<rect x="2" y="2" width="406" height="240" rx="18" fill="white" stroke="black" stroke-width="4"/>
<path d="M18 158.687H392V189.687H18V158.687Z" fill="white"/>
<path d="M18 63.6523H392V95.6866H18V63.6523Z" fill="white"/>
<path d="M375.983 221.66V223H34.0171V221.66H375.983ZM390.398 209.6V35.4C390.398 28.7394 383.944 23.34 375.983 23.34H34.0171C26.0557 23.34 19.6017 28.7394 19.6017 35.4V209.6C19.6017 216.261 26.0557 221.66 34.0171 221.66V223L33.6034 222.995C25.0861 222.815 18.2214 217.072 18.0055 209.946L18 209.6V35.4C18 28.1151 24.9486 22.1882 33.6034 22.0046L34.0171 22H375.983L376.397 22.0046C385.051 22.1882 392 28.1151 392 35.4V209.6L391.995 209.946C391.779 217.072 384.914 222.815 376.397 222.995L375.983 223V221.66C383.944 221.66 390.398 216.261 390.398 209.6Z" fill="#111111"/>
<path d="M18 125.687H392V158.687H18V125.687Z" fill="white"/>
<path d="M392 126.687V158.687H18V126.687H392ZM19.6017 157.407H390.398V127.967H19.6017V157.407Z" fill="#111111"/>
<path d="M18 95.687H392V126.687H18V95.687Z" fill="white"/>
<path d="M392 95.687V127.687H18V95.687H392ZM19.6017 126.407H390.398V96.967H19.6017V126.407Z" fill="#111111"/>
<path d="M18 189.687H392V209.487C392 216.777 384.829 222.687 375.983 222.687H34.0171C25.1711 222.687 18 216.777 18 209.487V189.687Z" fill="white"/>
<path d="M375.983 221.6V223H34.0171V221.6H375.983ZM390.398 209V189.4H19.6017V209C19.6017 215.959 26.0557 221.6 34.0171 221.6V223L33.6034 222.995C25.0861 222.806 18.2214 216.806 18.0055 209.362L18 209V188H392V209L391.995 209.362C391.779 216.806 384.914 222.806 376.397 222.995L375.983 223V221.6C383.944 221.6 390.398 215.959 390.398 209Z" fill="#111111"/>
<path d="M18 35.2258C18 27.9214 25.1711 22 34.0171 22H375.983C384.829 22 392 27.9214 392 35.2258V63H18V35.2258Z" fill="#1E1E1E"/>
<path d="M390.398 35.5484C390.398 28.8141 383.944 23.3548 375.983 23.3548H34.0171C26.0557 23.3548 19.6017 28.8141 19.6017 35.5484V62.6452H390.398V35.5484ZM392 64H18V35.5484C18 28.1828 24.9486 22.1902 33.6034 22.0046L34.0171 22H375.983L376.397 22.0046C385.051 22.1902 392 28.1828 392 35.5484V64Z" fill="#111111"/>
<path d="M49.2334 46.8264C49.2334 51.2494 45.8271 54.835 41.6252 54.835C37.4234 54.835 34.0171 51.2494 34.0171 46.8264C34.0171 42.4034 37.4234 38.8179 41.6252 38.8179C45.8271 38.8179 49.2334 42.4034 49.2334 46.8264Z" fill="#FF554D"/>
<path d="M47.6317 46.8264C47.6317 43.2096 44.8661 40.4196 41.6252 40.4196C38.3844 40.4196 35.6188 43.2096 35.6188 46.8264C35.6188 50.4433 38.3844 53.2333 41.6252 53.2333V54.835C37.4234 54.835 34.0171 51.2494 34.0171 46.8264C34.0171 42.4034 37.4234 38.8179 41.6252 38.8179C45.8271 38.8179 49.2334 42.4034 49.2334 46.8264C49.2334 51.2494 45.8271 54.835 41.6252 54.835V53.2333C44.8661 53.2333 47.6317 50.4433 47.6317 46.8264Z" fill="#111111"/>
<path d="M74.0601 46.8264C74.0601 51.2494 70.4745 54.835 66.0515 54.835C61.6285 54.835 58.043 51.2494 58.043 46.8264C58.043 42.4034 61.6285 38.8179 66.0515 38.8179C70.4745 38.8179 74.0601 42.4034 74.0601 46.8264Z" fill="#FEB42A"/>
<path d="M72.4584 46.8264C72.4584 43.288 69.5899 40.4196 66.0515 40.4196C62.5131 40.4196 59.6447 43.288 59.6447 46.8264C59.6447 50.3648 62.5131 53.2333 66.0515 53.2333V54.835C61.6285 54.835 58.043 51.2494 58.043 46.8264C58.043 42.4034 61.6285 38.8179 66.0515 38.8179C70.4745 38.8179 74.0601 42.4034 74.0601 46.8264C74.0601 51.2494 70.4745 54.835 66.0515 54.835V53.2333C69.5899 53.2333 72.4584 50.3648 72.4584 46.8264Z" fill="#111111"/>
<path d="M98.0854 46.8264C98.0854 51.2494 94.6791 54.835 90.4773 54.835C86.2754 54.835 82.8691 51.2494 82.8691 46.8264C82.8691 42.4034 86.2754 38.8179 90.4773 38.8179C94.6791 38.8179 98.0854 42.4034 98.0854 46.8264Z" fill="#25C138"/>
<path d="M96.4837 46.8264C96.4837 43.2096 93.7181 40.4196 90.4773 40.4196C87.2364 40.4196 84.4709 43.2096 84.4709 46.8264C84.4709 50.4433 87.2364 53.2333 90.4773 53.2333V54.835C86.2754 54.835 82.8691 51.2494 82.8691 46.8264C82.8691 42.4034 86.2754 38.8179 90.4773 38.8179C94.6791 38.8179 98.0854 42.4034 98.0854 46.8264C98.0854 51.2494 94.6791 54.835 90.4773 54.835V53.2333C93.7181 53.2333 96.4837 50.4433 96.4837 46.8264Z" fill="#111111"/>
<path d="M60 63.2524V222.252H59V63.2524H60Z" fill="#111111"/>
<path d="M205.9 63.2524V222.252H204.9V63.2524H205.9Z" fill="#111111"/>
<path d="M298.9 63.2524V222.252H296.9V63.2524H298.9Z" fill="#111111"/>
<path d="M93.6683 84.5389H91.1376L91.0095 83.8662C90.4008 84.4428 89.5359 84.8112 88.5749 84.8112H88.2225C86.8931 84.8112 84.939 84.0904 84.939 81.4316C84.939 78.8528 86.7809 78.084 88.8632 78.084H90.5129C90.4809 76.6905 89.8082 76.4342 89.0394 76.4342C88.671 76.4342 88.3506 76.4983 87.9662 76.6104C87.7099 76.6905 87.5017 76.8026 87.2134 76.9308C86.6368 77.2191 85.7879 76.9948 85.4996 76.3541C85.1952 75.7135 85.4515 75.0568 86.0121 74.6403C86.861 74.0156 88.2065 73.7754 89.2956 73.7754C91.6181 73.7754 93.6683 74.5923 93.6683 78.5004V84.5389ZM90.5129 81.1753V80.4385H89.0554C88.4467 80.4385 88.1104 80.7428 88.1104 81.4156C88.1104 82.0883 88.4467 82.3446 89.0073 82.3446H89.2316C89.8242 82.3446 90.5129 81.9922 90.5129 81.1753Z" fill="black"/>
<path d="M84.3737 84.5391H80.8499L80.0971 81.7842H76.253L75.5002 84.5391H72.0405L76.1569 71.5653C76.4452 70.6683 77.3582 70.2358 78.2231 70.2358C79.04 70.2358 79.921 70.7003 80.1932 71.5653L84.3737 84.5391ZM78.1751 74.6886L76.9898 79.0773H79.3604L78.1751 74.6886Z" fill="black"/>
<path d="M95.0257 89.2803C95.468 89.2803 95.8266 89.6388 95.8266 90.0811C95.8266 90.5234 95.468 90.882 95.0257 90.882H71.8009C71.3586 90.882 71 90.5234 71 90.0811C71 89.6388 71.3586 89.2803 71.8009 89.2803H95.0257Z" fill="#111111"/>
<path d="M260.66 79.6699C260.66 85.4198 255.999 90.0811 250.249 90.0811C244.499 90.0811 239.838 85.4198 239.838 79.6699C239.838 73.92 244.499 69.2588 250.249 69.2588C255.999 69.2588 260.66 73.92 260.66 79.6699Z" fill="black"/>
<path d="M248.861 82.8735C249.478 83.9413 251.019 83.9413 251.635 82.8735L253.716 79.2696C254.333 78.2018 253.562 76.867 252.329 76.867H248.168C246.935 76.867 246.164 78.2018 246.78 79.2696L248.861 82.8735Z" fill="white"/>
<path d="M29 74.465C29 73.8015 29.5378 73.2637 30.2013 73.2637H47.0193C47.6827 73.2637 48.2206 73.8015 48.2206 74.465V74.465C48.2206 75.1284 47.6827 75.6662 47.0193 75.6662H30.2013C29.5378 75.6662 29 75.1284 29 74.465V74.465Z" fill="#111111"/>
<path d="M29 82.4733C29 81.8098 29.5378 81.272 30.2013 81.272H47.0193C47.6827 81.272 48.2206 81.8098 48.2206 82.4733V82.4733C48.2206 83.1367 47.6827 83.6745 47.0193 83.6745H30.2013C29.5378 83.6745 29 83.1367 29 82.4733V82.4733Z" fill="#111111"/>
<path d="M34.2057 88.48C33.5422 88.48 33.0044 87.9421 33.0044 87.2787L33.0044 70.4607C33.0044 69.7973 33.5422 69.2594 34.2057 69.2594V69.2594C34.8691 69.2594 35.407 69.7973 35.407 70.4607L35.407 87.2787C35.407 87.9421 34.8691 88.48 34.2057 88.48V88.48Z" fill="#111111"/>
<path d="M43.0148 88.48C42.3513 88.48 41.8135 87.9421 41.8135 87.2787L41.8135 70.4607C41.8135 69.7973 42.3513 69.2594 43.0148 69.2594V69.2594C43.6782 69.2594 44.216 69.7973 44.216 70.4607L44.216 87.2787C44.216 87.9421 43.6782 88.48 43.0148 88.48V88.48Z" fill="#111111"/>
<path d="M352.482 87.6789V89.2806H334.864V87.6789H352.482ZM354.084 86.0772V73.2635C354.084 72.4341 353.454 71.7523 352.646 71.6704L352.482 71.6618H334.864C334.034 71.6618 333.352 72.2922 333.27 73.1L333.262 73.2635V86.0772C333.262 86.9618 333.979 87.6789 334.864 87.6789V89.2806L334.699 89.2767C333.061 89.1936 331.747 87.8801 331.664 86.2422L331.66 86.0772V73.2635C331.66 71.5496 333.006 70.1498 334.699 70.064L334.864 70.0601H352.482L352.647 70.064C354.34 70.1498 355.686 71.5496 355.686 73.2635V86.0772L355.682 86.2422C355.599 87.8801 354.285 89.1936 352.647 89.2767L352.482 89.2806V87.6789C353.367 87.6789 354.084 86.9618 354.084 86.0772Z" fill="#111111"/>
<path d="M335.664 69.6594C335.664 68.5536 336.56 67.6572 337.666 67.6572V67.6572C338.772 67.6572 339.668 68.5536 339.668 69.6594V71.6615H335.664V69.6594Z" fill="#111111"/>
<path d="M336.465 76.8673C336.465 76.2038 337.003 75.666 337.666 75.666H349.679C350.342 75.666 350.88 76.2038 350.88 76.8673V76.8673C350.88 77.5308 350.342 78.0686 349.679 78.0686H337.666C337.003 78.0686 336.465 77.5308 336.465 76.8673V76.8673Z" fill="#111111"/>
<path d="M336.465 82.4733C336.465 81.8098 337.003 81.272 337.666 81.272H345.675C346.338 81.272 346.876 81.8098 346.876 82.4733V82.4733C346.876 83.1367 346.338 83.6745 345.675 83.6745H337.666C337.003 83.6745 336.465 83.1367 336.465 82.4733V82.4733Z" fill="#111111"/>
<path d="M347.676 69.6594C347.676 68.5536 348.573 67.6572 349.678 67.6572V67.6572C350.784 67.6572 351.681 68.5536 351.681 69.6594V71.6615H347.676V69.6594Z" fill="#111111"/>
<path d="M84 110L84.2041 110.011C85.2128 110.113 86 110.964 86 112C86 113.036 85.2128 113.887 84.2041 113.989L84 114H74C72.8954 114 72 113.105 72 112C72 110.895 72.8954 110 74 110H84Z" fill="black"/>
<path d="M84 140L84.2041 140.011C85.2128 140.113 86 140.964 86 142C86 143.036 85.2128 143.887 84.2041 143.989L84 144H74C72.8954 144 72 143.105 72 142C72 140.895 72.8954 140 74 140H84Z" fill="black"/>
<path d="M84 171L84.2041 171.011C85.2128 171.113 86 171.964 86 173C86 174.036 85.2128 174.887 84.2041 174.989L84 175H74C72.8954 175 72 174.105 72 173C72 171.895 72.8954 171 74 171H84Z" fill="black"/>
<path d="M84 203L84.2041 203.011C85.2128 203.113 86 203.964 86 205C86 206.036 85.2128 206.887 84.2041 206.989L84 207H74C72.8954 207 72 206.105 72 205C72 203.895 72.8954 203 74 203H84Z" fill="black"/>
<path d="M101.5 110L101.704 110.011C102.713 110.113 103.5 110.964 103.5 112C103.5 113.036 102.713 113.887 101.704 113.989L101.5 114H91.5C90.3954 114 89.5 113.105 89.5 112C89.5 110.895 90.3954 110 91.5 110H101.5Z" fill="black"/>
<path d="M340 110L340.204 110.011C341.213 110.113 342 110.964 342 112C342 113.036 341.213 113.887 340.204 113.989L340 114H330C328.895 114 328 113.105 328 112C328 110.895 328.895 110 330 110H340Z" fill="black"/>
<path d="M340 140L340.204 140.011C341.213 140.113 342 140.964 342 142C342 143.036 341.213 143.887 340.204 143.989L340 144H330C328.895 144 328 143.105 328 142C328 140.895 328.895 140 330 140H340Z" fill="black"/>
<path d="M340 171L340.204 171.011C341.213 171.113 342 171.964 342 173C342 174.036 341.213 174.887 340.204 174.989L340 175H330C328.895 175 328 174.105 328 173C328 171.895 328.895 171 330 171H340Z" fill="black"/>
<path d="M340 203L340.204 203.011C341.213 203.113 342 203.964 342 205C342 206.036 341.213 206.887 340.204 206.989L340 207H330C328.895 207 328 206.105 328 205C328 203.895 328.895 203 330 203H340Z" fill="black"/>
<path d="M101.5 140L101.704 140.011C102.713 140.113 103.5 140.964 103.5 142C103.5 143.036 102.713 143.887 101.704 143.989L101.5 144H91.5C90.3954 144 89.5 143.105 89.5 142C89.5 140.895 90.3954 140 91.5 140H101.5Z" fill="black"/>
<path d="M101.5 203L101.704 203.011C102.713 203.113 103.5 203.964 103.5 205C103.5 206.036 102.713 206.887 101.704 206.989L101.5 207H91.5C90.3954 207 89.5 206.105 89.5 205C89.5 203.895 90.3954 203 91.5 203H101.5Z" fill="black"/>
<path d="M357 110L357.204 110.011C358.213 110.113 359 110.964 359 112C359 113.036 358.213 113.887 357.204 113.989L357 114H347C345.895 114 345 113.105 345 112C345 110.895 345.895 110 347 110H357Z" fill="black"/>
<path d="M357 140L357.204 140.011C358.213 140.113 359 140.964 359 142C359 143.036 358.213 143.887 357.204 143.989L357 144H347C345.895 144 345 143.105 345 142C345 140.895 345.895 140 347 140H357Z" fill="black"/>
<path d="M357 171L357.204 171.011C358.213 171.113 359 171.964 359 173C359 174.036 358.213 174.887 357.204 174.989L357 175H347C345.895 175 345 174.105 345 173C345 171.895 345.895 171 347 171H357Z" fill="black"/>
<path d="M357 203L357.204 203.011C358.213 203.113 359 203.964 359 205C359 206.036 358.213 206.887 357.204 206.989L357 207H347C345.895 207 345 206.105 345 205C345 203.895 345.895 203 347 203H357Z" fill="black"/>
<path d="M118.5 140L118.704 140.011C119.713 140.113 120.5 140.964 120.5 142C120.5 143.036 119.713 143.887 118.704 143.989L118.5 144H108.5C107.395 144 106.5 143.105 106.5 142C106.5 140.895 107.395 140 108.5 140H118.5Z" fill="black"/>
<path d="M118.5 203L118.704 203.011C119.713 203.113 120.5 203.964 120.5 205C120.5 206.036 119.713 206.887 118.704 206.989L118.5 207H108.5C107.395 207 106.5 206.105 106.5 205C106.5 203.895 107.395 203 108.5 203H118.5Z" fill="black"/>
<path d="M220 105C220 102.791 221.791 101 224 101H275C277.209 101 279 102.791 279 105V118C279 120.209 277.209 122 275 122H224C221.791 122 220 120.209 220 118V105Z" fill="#12EB53"/>
<path d="M275 120V122H224V120H275ZM277 118V105C277 103.895 276.105 103 275 103H224C222.964 103 222.113 103.787 222.011 104.796L222 105V118C222 119.105 222.895 120 224 120V122L223.794 121.995C221.749 121.891 220.109 120.251 220.005 118.206L220 118V105C220 102.86 221.681 101.112 223.794 101.005L224 101H275L275.206 101.005C277.319 101.112 279 102.86 279 105V118L278.995 118.206C278.891 120.251 277.251 121.891 275.206 121.995L275 122V120C276.105 120 277 119.105 277 118Z" fill="#111111"/>
<path d="M220 136C220 133.791 221.791 132 224 132H275C277.209 132 279 133.791 279 136V149C279 151.209 277.209 153 275 153H224C221.791 153 220 151.209 220 149V136Z" fill="#48A8FC"/>
<path d="M275 151V153H224V151H275ZM277 149V136C277 134.895 276.105 134 275 134H224C222.964 134 222.113 134.787 222.011 135.796L222 136V149C222 150.105 222.895 151 224 151V153L223.794 152.995C221.749 152.891 220.109 151.251 220.005 149.206L220 149V136C220 133.86 221.681 132.112 223.794 132.005L224 132H275L275.206 132.005C277.319 132.112 279 133.86 279 136V149L278.995 149.206C278.891 151.251 277.251 152.891 275.206 152.995L275 153V151C276.105 151 277 150.105 277 149Z" fill="#111111"/>
<path d="M220 167C220 164.791 221.791 163 224 163H275C277.209 163 279 164.791 279 167V180C279 182.209 277.209 184 275 184H224C221.791 184 220 182.209 220 180V167Z" fill="#D9D9D9"/>
<path d="M275 182V184H224V182H275ZM277 180V167C277 165.895 276.105 165 275 165H224C222.964 165 222.113 165.787 222.011 166.796L222 167V180C222 181.105 222.895 182 224 182V184L223.794 183.995C221.749 183.891 220.109 182.251 220.005 180.206L220 180V167C220 164.86 221.681 163.112 223.794 163.005L224 163H275L275.206 163.005C277.319 163.112 279 164.86 279 167V180L278.995 180.206C278.891 182.251 277.251 183.891 275.206 183.995L275 184V182C276.105 182 277 181.105 277 180Z" fill="#111111"/>
<path d="M220 198C220 195.791 221.791 194 224 194H275C277.209 194 279 195.791 279 198V211C279 213.209 277.209 215 275 215H224C221.791 215 220 213.209 220 211V198Z" fill="#D9D9D9"/>
<path d="M275 213V215H224V213H275ZM277 211V198C277 196.895 276.105 196 275 196H224C222.964 196 222.113 196.787 222.011 197.796L222 198V211C222 212.105 222.895 213 224 213V215L223.794 214.995C221.749 214.891 220.109 213.251 220.005 211.206L220 211V198C220 195.86 221.681 194.112 223.794 194.005L224 194H275L275.206 194.005C277.319 194.112 279 195.86 279 198V211L278.995 211.206C278.891 213.251 277.251 214.891 275.206 214.995L275 215V213C276.105 213 277 212.105 277 211Z" fill="#111111"/>
<path d="M44.1823 105.93C44.4073 105.315 44.8723 105 45.5023 105C46.3723 105 47.0023 105.525 47.0023 106.515V118.395H44.0023V109.65H42.7423C41.9023 109.65 41.1973 109.215 41.1973 108.39C41.1973 107.7 41.6773 107.25 42.2773 107.16C43.0873 107.055 43.8973 106.725 44.1823 105.93Z" fill="black"/>
<path d="M35.875 114.585H34.09V118.395H31V107.61C31 105.885 31.54 105.24 33.34 105.24H35.875C38.545 105.24 40.45 106.53 40.45 109.665V110.16C40.45 113.295 38.545 114.585 35.875 114.585ZM34.09 108.285V111.975H35.725C36.805 111.975 37.375 111.225 37.375 110.085V109.74C37.375 108.6 36.805 107.85 35.725 107.85H34.525C34.18 107.85 34.09 107.925 34.09 108.285Z" fill="black"/>
<path d="M47.8076 169.97L45.4976 172.25C47.3126 172.46 48.7226 173.81 48.7226 176.03C48.7226 178.88 46.6376 180.395 43.9676 180.395C42.6326 180.395 41.1476 179.915 40.4426 178.97C40.0376 178.415 40.0976 177.635 40.6076 177.185C41.0276 176.81 41.4926 176.795 41.9276 176.945C42.2576 177.065 42.4976 177.26 42.7526 177.41C43.0226 177.56 43.4126 177.665 43.9526 177.665C45.0626 177.665 45.7826 177.005 45.7826 175.925C45.7826 174.785 44.9426 174.215 43.6976 174.215H42.8876C42.3026 174.215 41.8826 173.84 41.7776 173.42C41.6426 172.88 41.7626 172.46 42.2726 171.965L44.7626 169.505H41.6276C40.7426 169.505 40.3976 168.845 40.3976 168.26C40.3976 167.69 40.7576 167 41.6276 167H46.5926C48.2126 167 48.8276 168.98 47.8076 169.97Z" fill="black"/>
<path d="M34.7002 176.345H32.9152V180.155H29.8252V169.37C29.8252 167.645 30.3652 167 32.1652 167H34.7002C37.3702 167 39.2752 168.29 39.2752 171.425V171.92C39.2752 175.055 37.3702 176.345 34.7002 176.345ZM32.9152 170.045V173.735H34.5502C35.6302 173.735 36.2002 172.985 36.2002 171.845V171.5C36.2002 170.36 35.6302 169.61 34.5502 169.61H33.3502C33.0052 169.61 32.9152 169.685 32.9152 170.045Z" fill="black"/>
<path d="M47.9824 201.97L45.6724 204.25C47.4874 204.46 48.8974 205.81 48.8974 208.03C48.8974 210.88 46.8124 212.395 44.1424 212.395C42.8074 212.395 41.3224 211.915 40.6174 210.97C40.2124 210.415 40.2724 209.635 40.7824 209.185C41.2024 208.81 41.6674 208.795 42.1024 208.945C42.4324 209.065 42.6724 209.26 42.9274 209.41C43.1974 209.56 43.5874 209.665 44.1274 209.665C45.2374 209.665 45.9574 209.005 45.9574 207.925C45.9574 206.785 45.1174 206.215 43.8724 206.215H43.0624C42.4774 206.215 42.0574 205.84 41.9524 205.42C41.8174 204.88 41.9374 204.46 42.4474 203.965L44.9374 201.505H41.8024C40.9174 201.505 40.5724 200.845 40.5724 200.26C40.5724 199.69 40.9324 199 41.8024 199H46.7674C48.3874 199 49.0024 200.98 47.9824 201.97Z" fill="black"/>
<path d="M34.875 208.345H33.09V212.155H30V201.37C30 199.645 30.54 199 32.34 199H34.875C37.545 199 39.45 200.29 39.45 203.425V203.92C39.45 207.055 37.545 208.345 34.875 208.345ZM33.09 202.045V205.735H34.725C35.805 205.735 36.375 204.985 36.375 203.845V203.5C36.375 202.36 35.805 201.61 34.725 201.61H33.525C33.18 201.61 33.09 201.685 33.09 202.045Z" fill="black"/>
<path d="M48.7828 149.395H42.1828C41.0578 149.395 40.3228 148.75 40.3228 147.625V147.46C40.3228 145.45 40.9228 144.685 42.1828 143.53L44.6878 141.22C45.2878 140.68 45.6028 140.275 45.6028 139.705C45.6028 139.045 45.0328 138.73 44.4928 138.73C43.7578 138.73 43.3978 139.045 43.0978 139.375C42.8878 139.615 42.6028 139.9 42.3178 139.975C41.9128 140.095 41.3578 140.05 40.9228 139.69C40.3828 139.255 40.3828 138.445 40.7278 137.875C41.4928 136.63 42.8728 136 44.7328 136C46.8478 136 48.6628 137.17 48.6628 139.405C48.6628 141.085 47.7328 142.045 46.4878 143.26L44.5678 145.12C43.9228 145.75 43.4878 145.915 43.4878 146.47V146.575C43.4878 146.725 43.5478 146.8 43.7128 146.8H48.7828V149.395Z" fill="black"/>
<path d="M34.7002 145.585H32.9152V149.395H29.8252V138.61C29.8252 136.885 30.3652 136.24 32.1652 136.24H34.7002C37.3702 136.24 39.2752 137.53 39.2752 140.665V141.16C39.2752 144.295 37.3702 145.585 34.7002 145.585ZM32.9152 139.285V142.975H34.5502C35.6302 142.975 36.2002 142.225 36.2002 141.085V140.74C36.2002 139.6 35.6302 138.85 34.5502 138.85H33.3502C33.0052 138.85 32.9152 138.925 32.9152 139.285Z" fill="black"/>
<path d="M201 112C201 117.523 196.523 122 191 122C185.477 122 181 117.523 181 112C181 106.477 185.477 102 191 102C196.523 102 201 106.477 201 112Z" fill="#F9CE95"/>
<path d="M199 112C199 107.582 195.418 104 191 104C186.582 104 183 107.582 183 112C183 116.418 186.582 120 191 120V122C185.477 122 181 117.523 181 112C181 106.477 185.477 102 191 102C196.523 102 201 106.477 201 112C201 117.523 196.523 122 191 122V120C195.418 120 199 116.418 199 112Z" fill="#111111"/>
<path d="M187.5 110L187.505 109.897C187.556 109.393 187.982 109 188.5 109C189.018 109 189.444 109.393 189.495 109.897L189.5 110L189.5 111C189.5 111.552 189.052 112 188.5 112C187.948 112 187.5 111.552 187.5 111L187.5 110Z" fill="black"/>
<path d="M192.5 110L192.505 109.897C192.556 109.393 192.982 109 193.5 109C194.018 109 194.444 109.393 194.495 109.897L194.5 110L194.5 111C194.5 111.552 194.052 112 193.5 112C192.948 112 192.5 111.552 192.5 111L192.5 110Z" fill="black"/>
<path d="M201 142C201 147.523 196.523 152 191 152C185.477 152 181 147.523 181 142C181 136.477 185.477 132 191 132C196.523 132 201 136.477 201 142Z" fill="#F9CE95"/>
<path d="M199 142C199 137.582 195.418 134 191 134C186.582 134 183 137.582 183 142C183 146.418 186.582 150 191 150V152C185.477 152 181 147.523 181 142C181 136.477 185.477 132 191 132C196.523 132 201 136.477 201 142C201 147.523 196.523 152 191 152V150C195.418 150 199 146.418 199 142Z" fill="#111111"/>
<path d="M187.5 140L187.505 139.897C187.556 139.393 187.982 139 188.5 139C189.018 139 189.444 139.393 189.495 139.897L189.5 140L189.5 141C189.5 141.552 189.052 142 188.5 142C187.948 142 187.5 141.552 187.5 141L187.5 140Z" fill="black"/>
<path d="M192.5 140L192.505 139.897C192.556 139.393 192.982 139 193.5 139C194.018 139 194.444 139.393 194.495 139.897L194.5 140L194.5 141C194.5 141.552 194.052 142 193.5 142C192.948 142 192.5 141.552 192.5 141L192.5 140Z" fill="black"/>
<path d="M201 173C201 178.523 196.523 183 191 183C185.477 183 181 178.523 181 173C181 167.477 185.477 163 191 163C196.523 163 201 167.477 201 173Z" fill="#F9CE95"/>
<path d="M199 173C199 168.582 195.418 165 191 165C186.582 165 183 168.582 183 173C183 177.418 186.582 181 191 181V183C185.477 183 181 178.523 181 173C181 167.477 185.477 163 191 163C196.523 163 201 167.477 201 173C201 178.523 196.523 183 191 183V181C195.418 181 199 177.418 199 173Z" fill="#111111"/>
<path d="M187.5 171L187.505 170.897C187.556 170.393 187.982 170 188.5 170C189.018 170 189.444 170.393 189.495 170.897L189.5 171L189.5 172C189.5 172.552 189.052 173 188.5 173C187.948 173 187.5 172.552 187.5 172L187.5 171Z" fill="black"/>
<path d="M192.5 171L192.505 170.897C192.556 170.393 192.982 170 193.5 170C194.018 170 194.444 170.393 194.495 170.897L194.5 171L194.5 172C194.5 172.552 194.052 173 193.5 173C192.948 173 192.5 172.552 192.5 172L192.5 171Z" fill="black"/>
<path d="M201 205C201 210.523 196.523 215 191 215C185.477 215 181 210.523 181 205C181 199.477 185.477 195 191 195C196.523 195 201 199.477 201 205Z" fill="#F9CE95"/>
<path d="M199 205C199 200.582 195.418 197 191 197C186.582 197 183 200.582 183 205C183 209.418 186.582 213 191 213V215C185.477 215 181 210.523 181 205C181 199.477 185.477 195 191 195C196.523 195 201 199.477 201 205C201 210.523 196.523 215 191 215V213C195.418 213 199 209.418 199 205Z" fill="#111111"/>
<path d="M187.5 203L187.505 202.897C187.556 202.393 187.982 202 188.5 202C189.018 202 189.444 202.393 189.495 202.897L189.5 203L189.5 204C189.5 204.552 189.052 205 188.5 205C187.948 205 187.5 204.552 187.5 204L187.5 203Z" fill="black"/>
<path d="M192.5 203L192.505 202.897C192.556 202.393 192.982 202 193.5 202C194.018 202 194.444 202.393 194.495 202.897L194.5 203L194.5 204C194.5 204.552 194.052 205 193.5 205C192.948 205 192.5 204.552 192.5 204L192.5 203Z" fill="black"/>
<path d="M0 161V161C45.8396 161 83 198.16 83 244V244H20C8.95431 244 0 235.046 0 224V161Z" fill="black"/>
<path d="M14.3976 187.009L39.8362 185.13C42.9611 184.862 43.7638 185.042 45.7287 186.471L53.849 192.191C55.1882 193.175 55.6342 193.443 55.6342 194.514V225.888C55.6342 227.855 54.9202 229.018 52.4206 229.195L22.8797 230.984C21.004 231.073 20.1107 230.805 19.1283 229.553L13.1485 221.777C12.0759 220.346 11.6313 219.275 11.6313 218.023V190.135C11.6313 188.527 12.3453 187.187 14.3976 187.009Z" fill="white"/>
<path fill-rule="evenodd" clip-rule="evenodd" d="M39.8362 185.13L14.3976 187.009C12.3453 187.187 11.6313 188.528 11.6313 190.135V218.023C11.6313 219.275 12.0759 220.346 13.1485 221.777L19.1283 229.553C20.1107 230.805 21.004 231.073 22.8797 230.984L52.4211 229.196C54.9188 229.018 55.6346 227.855 55.6346 225.889V194.515C55.6346 193.499 55.2333 193.206 54.0518 192.339L45.7287 186.471C43.7642 185.042 42.9611 184.862 39.8362 185.13V185.13ZM23.5477 194.001C21.1355 194.164 20.5884 194.2 19.2184 193.087L15.7354 190.316C15.3814 189.958 15.5593 189.51 16.4512 189.421L40.906 187.634C42.9597 187.455 44.029 188.171 44.8322 188.796L49.0264 191.835C49.2057 191.925 49.6516 192.46 49.1151 192.46L23.8604 193.98L23.5477 194.001ZM20.7355 225.621V198.987C20.7355 197.824 21.0927 197.287 22.1621 197.197L51.1687 195.499C52.1526 195.41 52.5971 196.035 52.5971 197.197V223.653C52.5971 224.816 52.4178 225.8 50.812 225.889L23.0544 227.498C21.4486 227.587 20.736 227.052 20.736 225.621H20.7355ZM48.1359 200.415C48.3138 201.219 48.1359 202.024 47.3313 202.116L45.9935 202.381V222.045C44.8317 222.671 43.7624 223.028 42.8686 223.028C41.4402 223.028 41.0835 222.58 40.0137 221.241L31.2649 207.476V220.793L34.0325 221.42C34.0325 221.42 34.0325 223.029 31.7996 223.029L25.6437 223.386C25.4644 223.028 25.6437 222.135 26.2675 221.957L27.8752 221.511V203.903L25.6441 203.722C25.4648 202.918 25.9108 201.756 27.1613 201.666L33.7663 201.221L42.8691 215.164V202.829L40.5488 202.562C40.3695 201.577 41.0835 200.861 41.9754 200.774L48.1359 200.415Z" fill="black"/>
</svg>
