<svg width="410" height="244" viewBox="0 0 410 244" fill="none" xmlns="http://www.w3.org/2000/svg">
<rect x="2" y="2" width="406" height="240" rx="18" fill="white" stroke="#00832D" stroke-width="4"/>
<path d="M18 155.042L392 155.042V188.042L18 188.042L18 155.042Z" fill="white"/>
<path d="M18 89.2021L392 89.2021V122.202L18 122.202L18 89.2021Z" fill="#F2F2F2"/>
<path d="M18 122.042L392 122.042V155.042L18 155.042L18 122.042Z" fill="white"/>
<path d="M18 188.042L392 188.042V208.442C392 215.953 384.829 222.042 375.983 222.042L34.0171 222.042C25.1711 222.042 18 215.953 18 208.442L18 188.042Z" fill="white"/>
<path d="M18 35.2258C18 27.9214 25.1711 22 34.0171 22L375.983 22C384.829 22 392 27.9214 392 35.2258V63L18 63L18 35.2258Z" fill="#00AC47"/>
<path d="M390.398 35.2258C390.398 28.6518 383.944 23.3226 375.983 23.3226L34.0171 23.3226C26.0557 23.3226 19.6017 28.6518 19.6017 35.2258L19.6017 61.6774L390.398 61.6774V35.2258ZM392 63L18 63L18 35.2258C18 28.0356 24.9486 22.1857 33.6034 22.0045L34.0171 22L375.983 22L376.397 22.0045C385.051 22.1857 392 28.0356 392 35.2258V63Z" fill="#111111"/>
<path d="M18 63L392 63V89L18 89L18 63Z" fill="#DDDDDD"/>
<path d="M19.6017 63L19.6017 87.6316L390.398 87.6316V63H392V89L18 89L18 63H19.6017Z" fill="#111111"/>
<path d="M43.9724 42.8465C43.9724 46.5245 41.1399 49.5061 37.6459 49.5061C34.1518 49.5061 31.3193 46.5245 31.3193 42.8465C31.3193 39.1686 34.1518 36.187 37.6459 36.187C41.1399 36.187 43.9724 39.1686 43.9724 42.8465Z" fill="#FF554D"/>
<path d="M42.6405 42.8465C42.6405 39.839 40.3408 37.5189 37.6459 37.5189C34.951 37.5189 32.6512 39.839 32.6512 42.8465C32.6512 45.8541 34.951 48.1742 37.6459 48.1742V49.5061C34.1518 49.5061 31.3193 46.5245 31.3193 42.8465C31.3193 39.1686 34.1518 36.187 37.6459 36.187C41.1399 36.187 43.9724 39.1686 43.9724 42.8465C43.9724 46.5245 41.1399 49.5061 37.6459 49.5061V48.1742C40.3408 48.1742 42.6405 45.8541 42.6405 42.8465Z" fill="#111111"/>
<path d="M64.6169 42.8465C64.6169 46.5245 61.6353 49.5061 57.9574 49.5061C54.2794 49.5061 51.2979 46.5245 51.2979 42.8465C51.2979 39.1686 54.2794 36.187 57.9574 36.187C61.6353 36.187 64.6169 39.1686 64.6169 42.8465Z" fill="#FEB42A"/>
<path d="M63.285 42.8465C63.285 39.9042 60.8997 37.5189 57.9574 37.5189C55.015 37.5189 52.6298 39.9042 52.6298 42.8465C52.6298 45.7889 55.015 48.1742 57.9574 48.1742V49.5061C54.2794 49.5061 51.2979 46.5245 51.2979 42.8465C51.2979 39.1686 54.2794 36.187 57.9574 36.187C61.6353 36.187 64.6169 39.1686 64.6169 42.8465C64.6169 46.5245 61.6353 49.5061 57.9574 49.5061V48.1742C60.8997 48.1742 63.285 45.7889 63.285 42.8465Z" fill="#111111"/>
<path d="M84.596 42.8465C84.596 46.5245 81.7635 49.5061 78.2694 49.5061C74.7754 49.5061 71.9429 46.5245 71.9429 42.8465C71.9429 39.1686 74.7754 36.187 78.2694 36.187C81.7635 36.187 84.596 39.1686 84.596 42.8465Z" fill="#25C138"/>
<path d="M83.264 42.8465C83.264 39.839 80.9643 37.5189 78.2694 37.5189C75.5745 37.5189 73.2748 39.839 73.2748 42.8465C73.2748 45.8541 75.5745 48.1742 78.2694 48.1742V49.5061C74.7754 49.5061 71.9429 46.5245 71.9429 42.8465C71.9429 39.1686 74.7754 36.187 78.2694 36.187C81.7635 36.187 84.596 39.1686 84.596 42.8465C84.596 46.5245 81.7635 49.5061 78.2694 49.5061V48.1742C80.9643 48.1742 83.264 45.8541 83.264 42.8465Z" fill="#111111"/>
<path d="M19.332 123.427H50.6318L50.6318 154.061H19.332L19.332 123.427Z" fill="#F2F2F2"/>
<path d="M19.3359 155.394H50.6326L50.6326 188.639H19.3359L19.3359 155.394Z" fill="#F2F2F2"/>
<path d="M34.9819 106.344L45.9701 95.457L45.9701 116.768H23.9937L34.9819 106.344Z" fill="#DDDDDD"/>
<path d="M45.9701 116.768H23.9937L34.9819 106.344L45.9701 95.457L45.9701 116.768ZM35.919 107.29L35.9092 107.3L35.8982 107.31L27.3325 115.436H44.6381L44.6381 98.6509L35.919 107.29Z" fill="#111111"/>
<path d="M19.332 190.022H50.6318L50.6318 220.656H31.3192C24.6989 220.656 19.332 215.289 19.332 208.669L19.332 190.022Z" fill="#F2F2F2"/>
<path d="M34.3624 131.212C34.6621 130.393 35.2815 129.973 36.1206 129.973C37.2793 129.973 38.1184 130.672 38.1184 131.991L38.1184 147.814H34.1227L34.1227 136.166H32.4445C31.3257 136.166 30.3867 135.587 30.3867 134.488C30.3867 133.569 31.026 132.97 31.8252 132.85C32.904 132.71 33.9829 132.271 34.3624 131.212Z" fill="#111111"/>
<path d="M110.544 105.9H97.9019C95.7949 105.9 95.4167 105.288 95.4167 103.253V100.209C95.4167 98.1743 95.7949 97.562 97.9019 97.562H108.059C110.166 97.562 110.544 98.1743 110.544 100.209V105.9ZM99.0004 100.858V102.586C99.0004 102.875 99.0905 103.055 99.4867 103.055H106.96V100.858C106.96 100.606 106.888 100.407 106.546 100.407H99.4146C99.0545 100.407 99.0004 100.606 99.0004 100.858ZM96.065 107.107H109.896C110.976 107.107 111.409 107.845 111.409 108.583C111.409 109.34 110.958 110.06 109.896 110.06H104.817V114.202H101.143V110.06H96.065C95.0025 110.06 94.5522 109.34 94.5522 108.583C94.5522 107.845 94.9845 107.107 96.065 107.107Z" fill="#111111"/>
<path d="M82.0182 106.207C79.1007 106.207 77.0117 104.856 77.0117 102.245V101.362C77.0117 98.7689 79.0827 97.4002 82.0002 97.4002C84.5754 97.4002 86.4844 98.4448 86.8986 100.498H89.2938V98.985C89.2938 97.8144 90.1402 97.2021 91.0947 97.2021C92.0491 97.2021 92.8955 97.8144 92.8955 98.985V106.369H89.2938V103.307H86.8626C86.3583 105.216 84.5034 106.207 82.0182 106.207ZM80.4694 101.362V102.245C80.4694 103.073 81.1357 103.577 82.0002 103.577C82.8466 103.577 83.5309 103.073 83.5309 102.245V101.362C83.5309 100.534 82.8466 100.012 82.0002 100.03C81.1357 100.048 80.4694 100.552 80.4694 101.362ZM91.1307 106.891C92.1752 106.891 92.9136 107.413 92.9136 108.584V114.112H80.2893C78.3084 114.112 77.7681 113.41 77.7681 111.573V108.584C77.7681 107.395 78.5425 106.891 79.587 106.891C80.5595 106.891 81.2798 107.341 81.3699 108.368H89.3298C89.4018 107.341 90.1582 106.891 91.1307 106.891ZM81.8201 111.753H89.3118V110.619H81.3699V111.339C81.3699 111.699 81.4599 111.753 81.8201 111.753Z" fill="#111111"/>
<path d="M40.7225 180.446H31.9319C30.4335 180.446 29.4546 179.587 29.4546 178.088V177.869C29.4546 175.191 30.2537 174.173 31.9319 172.634L35.2683 169.558C36.0675 168.838 36.487 168.299 36.487 167.54C36.487 166.661 35.7279 166.241 35.0086 166.241C34.0297 166.241 33.5502 166.661 33.1506 167.1C32.8709 167.42 32.4913 167.799 32.1117 167.899C31.5723 168.059 30.8331 167.999 30.2537 167.52C29.5345 166.94 29.5345 165.861 29.994 165.102C31.0129 163.444 32.8509 162.605 35.3283 162.605C38.1453 162.605 40.5627 164.163 40.5627 167.14C40.5627 169.378 39.324 170.656 37.6658 172.275L35.1085 174.752C34.2494 175.591 33.6701 175.811 33.6701 176.55V176.69C33.6701 176.89 33.75 176.99 33.9697 176.99H40.7225L40.7225 180.446Z" fill="#111111"/>
<path d="M39.4238 200.844L36.3471 203.881C38.7645 204.16 40.6424 205.958 40.6424 208.915C40.6424 212.711 37.8654 214.729 34.3092 214.729C32.5312 214.729 30.5533 214.09 29.6143 212.831C29.0749 212.092 29.1548 211.053 29.834 210.454C30.3934 209.954 31.0128 209.934 31.5922 210.134C32.0317 210.294 32.3513 210.554 32.691 210.753C33.0506 210.953 33.57 211.093 34.2893 211.093C35.7677 211.093 36.7266 210.214 36.7266 208.775C36.7266 207.257 35.6078 206.498 33.9496 206.498H32.8708C32.0916 206.498 31.5322 205.998 31.3924 205.439C31.2126 204.72 31.3724 204.16 32.0517 203.501L35.3681 200.225H31.1926C30.0139 200.225 29.5543 199.346 29.5543 198.566C29.5543 197.807 30.0338 196.888 31.1926 196.888H37.8055C39.9632 196.888 40.7823 199.525 39.4238 200.844Z" fill="#111111"/>
<path d="M375.983 220.682V222.042L34.0171 222.042V220.682L375.983 220.682ZM390.398 208.442V189.402L19.6017 189.402L19.6017 208.442C19.6017 215.201 26.0557 220.682 34.0171 220.682V222.042L33.6034 222.037C25.0861 221.853 18.2214 216.025 18.0055 208.793L18 208.442L18 188.042L392 188.042V208.442L391.995 208.793C391.779 216.025 384.914 221.853 376.397 222.037L375.983 222.042V220.682C383.944 220.682 390.398 215.201 390.398 208.442Z" fill="#111111"/>
<path d="M51.9642 88.4639L51.9642 221.654H50.6323L50.6323 88.4639H51.9642Z" fill="#111111"/>
<path d="M137.2 88.4648L137.2 221.655H136.2L136.2 88.4648H137.2Z" fill="#111111"/>
<path d="M79 154.202L79 221.202H78L78 154.202H79Z" fill="#111111"/>
<path d="M308 88.4648L308 221.655H307L307 88.4648H308Z" fill="#111111"/>
<path d="M222.332 88.4639L222.332 221.654H221L221 88.4639H222.332Z" fill="#111111"/>
<path d="M392 122.042V155.042L18 155.042L18 122.042L392 122.042ZM19.6058 153.692L390.394 153.692V123.375L19.6058 123.375L19.6058 153.692Z" fill="#111111"/>
<path d="M392 87.2021V123.202L18 123.202L18 87.2021L392 87.2021ZM19.6058 121.838L390.394 121.838V88.5507L19.6058 88.5507L19.6058 121.838Z" fill="#111111"/>
<path d="M392 154.042V190.042L18 190.042L18 154.042L392 154.042ZM19.6058 188.679L390.394 188.679V155.389L19.6058 155.389L19.6058 188.679Z" fill="#111111"/>
<path d="M203.778 103.497H204.425C205.522 103.497 205.846 104.342 205.846 105.062C205.846 105.799 205.504 106.627 204.425 106.627H203.778V114.091H200.18V98.9827C200.18 97.8137 201.026 97.2021 201.979 97.2021C202.932 97.2021 203.778 97.8137 203.778 98.9827V103.497ZM197.411 100.961H195.073V103.425C195.073 104.055 195.037 104.648 194.965 105.224C197.429 106.087 199.083 108.083 198.868 113.065H195.432C195.684 110.637 195.234 109.181 194.191 108.443C192.968 111.591 190.738 113.209 189.299 113.209C188.238 113.209 187.645 112.58 187.645 111.77C187.645 111.177 187.896 110.781 188.436 110.422C190.504 109.055 191.619 106.842 191.619 102.94V100.961H189.263C188.184 100.961 187.734 100.17 187.734 99.4324C187.734 98.7129 188.166 97.9036 189.263 97.9036H197.411C198.508 97.9036 198.904 98.7129 198.904 99.4324C198.904 100.17 198.49 100.961 197.411 100.961Z" fill="#111111"/>
<path d="M185.881 100.26H186.439C187.536 100.26 187.86 101.105 187.86 101.824C187.86 102.562 187.518 103.389 186.439 103.389H185.881V106.537H182.284V98.9827C182.284 97.8137 183.13 97.2021 184.083 97.2021C185.036 97.2021 185.881 97.8137 185.881 98.9827V100.26ZM179.82 106.087H172.572C171.043 106.087 170.558 105.494 170.558 104.109V99.7021C170.558 98.3173 171.043 97.7417 172.572 97.7417H179.047C180.09 97.7417 180.396 98.4611 180.396 99.1266C180.396 99.7921 180.072 100.529 179.047 100.529H174.353C174.101 100.529 173.993 100.637 173.993 100.871V102.994C173.993 103.227 174.101 103.335 174.353 103.335H179.82C180.863 103.335 181.133 104.073 181.133 104.72C181.133 105.404 180.845 106.087 179.82 106.087ZM175.054 107.094H182.212C184.82 107.094 186.169 108.551 186.169 110.619C186.169 112.688 184.82 114.145 182.212 114.145H175.054C172.41 114.145 171.097 112.652 171.097 110.619C171.097 108.587 172.41 107.094 175.054 107.094ZM175.971 111.663H181.295C182.14 111.663 182.518 111.195 182.518 110.619C182.518 110.044 182.14 109.558 181.295 109.558H175.971C175.126 109.558 174.748 110.044 174.748 110.619C174.748 111.195 175.126 111.663 175.971 111.663Z" fill="#111111"/>
<path d="M167.896 100.26H168.454C169.551 100.26 169.874 101.105 169.874 101.824C169.874 102.562 169.533 103.389 168.454 103.389H167.896V106.537H164.299V98.9827C164.299 97.8137 165.144 97.2021 166.097 97.2021C167.051 97.2021 167.896 97.8137 167.896 98.9827V100.26ZM161.835 106.087H154.587C153.058 106.087 152.572 105.494 152.572 104.109V99.7021C152.572 98.3173 153.058 97.7417 154.587 97.7417H161.061C162.105 97.7417 162.41 98.4611 162.41 99.1266C162.41 99.7921 162.087 100.529 161.061 100.529H156.367C156.115 100.529 156.008 100.637 156.008 100.871V102.994C156.008 103.227 156.115 103.335 156.367 103.335H161.835C162.878 103.335 163.148 104.073 163.148 104.72C163.148 105.404 162.86 106.087 161.835 106.087ZM155.792 107.166H165.486C167.608 107.166 168.004 107.814 168.004 109.81V114.091H155.792C153.615 114.091 153.22 113.443 153.22 111.393V109.864C153.22 107.814 153.615 107.166 155.792 107.166ZM157.177 111.591H164.461V110.08C164.461 109.72 164.371 109.63 164.047 109.63H157.177C156.853 109.63 156.763 109.72 156.763 110.08V111.141C156.763 111.537 156.853 111.591 157.177 111.591Z" fill="#111111"/>
<path d="M290.336 105.906H286.739V98.9824C286.739 97.8135 287.585 97.2021 288.538 97.2021C289.491 97.2021 290.336 97.8135 290.336 98.9824V105.906ZM274.476 101.878V101.266C274.476 98.6587 276.633 97.31 279.583 97.31C282.532 97.31 284.707 98.6407 284.707 101.266V101.878C284.707 104.503 282.532 105.834 279.601 105.834C276.651 105.834 274.476 104.503 274.476 101.878ZM277.982 101.302V101.842C277.982 102.687 278.683 103.19 279.583 103.19C280.482 103.19 281.219 102.687 281.219 101.842V101.302C281.219 100.457 280.482 99.9354 279.583 99.9534C278.683 99.9714 277.982 100.475 277.982 101.302ZM289.796 114.087H277.622C275.986 114.087 275.105 113.026 275.105 111.768V111.336C275.105 110.113 275.986 109.286 277.622 109.286H286.703V108.855C286.703 108.639 286.65 108.549 286.416 108.549H276.292C275.59 108.549 275.303 108.045 275.303 107.506C275.303 107.002 275.608 106.445 276.292 106.445H288.214C289.796 106.445 290.354 106.913 290.354 108.297V111.21H279.295C279.043 111.21 278.917 111.354 278.917 111.534V111.624C278.917 111.786 279.043 111.93 279.295 111.93H289.796C290.516 111.93 290.821 112.505 290.821 113.044C290.821 113.548 290.534 114.087 289.796 114.087Z" fill="#111111"/>
<path d="M271.905 100.259H272.462C273.559 100.259 273.883 101.104 273.883 101.824C273.883 102.561 273.541 103.388 272.462 103.388H271.905V106.535H268.309V98.9824C268.309 97.8135 269.154 97.2021 270.107 97.2021C271.06 97.2021 271.905 97.8135 271.905 98.9824V100.259ZM266.366 100.007V101.068C266.366 104.917 262.734 106.931 257.915 106.589C257.088 106.535 256.422 105.959 256.476 105.006C256.53 104.161 257.16 103.712 258.023 103.748C261.206 103.874 262.824 102.813 262.824 101.14V100.871C262.824 100.619 262.698 100.511 262.464 100.511H258.256C257.213 100.511 256.782 99.8096 256.782 99.1083C256.782 98.407 257.195 97.6877 258.256 97.6877H263.849C265.701 97.6877 266.366 98.4609 266.366 100.007ZM259.803 107.164H269.495C271.617 107.164 272.013 107.812 272.013 109.808V114.087H259.803C257.627 114.087 257.231 113.44 257.231 111.39V109.862C257.231 107.812 257.627 107.164 259.803 107.164ZM261.188 111.588H268.47V110.077C268.47 109.718 268.38 109.628 268.057 109.628H261.188C260.864 109.628 260.774 109.718 260.774 110.077V111.138C260.774 111.534 260.864 111.588 261.188 111.588Z" fill="#111111"/>
<path d="M253.833 103.496H254.48C255.577 103.496 255.901 104.341 255.901 105.06C255.901 105.798 255.559 106.625 254.48 106.625H253.833V114.087H250.236V98.9824C250.236 97.8135 251.081 97.2021 252.035 97.2021C252.988 97.2021 253.833 97.8135 253.833 98.9824V103.496ZM241.299 97.7956H245.579C247.899 97.7956 248.33 98.4969 248.33 100.763V113.404H241.299C238.979 113.404 238.548 112.703 238.548 110.437V100.763C238.548 98.4969 238.979 97.7956 241.299 97.7956ZM242.612 110.581H244.86V101.212C244.86 100.853 244.77 100.619 244.374 100.619H242.486C242.09 100.619 242.018 100.853 242.018 101.212V109.97C242.018 110.365 242.144 110.581 242.612 110.581Z" fill="#111111"/>
<path d="M369.656 110.892H374.728C375.808 110.892 376.24 111.63 376.24 112.367C376.24 113.141 375.79 113.842 374.728 113.842H360.913C359.852 113.842 359.402 113.141 359.402 112.367C359.402 111.63 359.834 110.892 360.913 110.892H365.986V107.474H363.216C361.075 107.474 360.337 106.719 360.337 104.65V100.693C360.337 98.6418 361.075 97.8862 363.216 97.8862H373.649C374.675 97.8862 375.034 98.6957 375.034 99.3793C375.034 100.063 374.657 100.872 373.649 100.872H364.511C364.133 100.872 364.007 100.962 364.007 101.34V104.002C364.007 104.38 364.133 104.506 364.511 104.506H373.937C374.926 104.506 375.34 105.316 375.34 105.981C375.34 106.665 374.908 107.474 373.937 107.474H369.656V110.892Z" fill="#111111"/>
<path d="M343.104 107.276C342.205 107.294 341.539 106.754 341.539 105.945C341.539 105.153 342.007 104.668 342.69 104.578C344.291 104.38 345.245 103.372 345.245 101.807V101.609H342.942C342.097 101.609 341.629 100.872 341.629 100.224C341.629 99.5767 342.025 98.8032 342.942 98.8032H345.173V98.7852C345.173 97.7058 345.766 97.2021 346.882 97.2021C347.997 97.2021 348.627 97.7238 348.627 98.7852V98.8032H350.911C351.829 98.8032 352.225 99.5767 352.225 100.224C352.225 100.872 351.757 101.609 350.911 101.609H348.591V101.843C348.591 102.113 348.573 102.365 348.537 102.617C351.127 102.689 352.458 104.002 352.386 107.06H349.058C349.202 105.747 348.555 105.009 347.583 105.063C346.558 106.484 344.831 107.258 343.104 107.276ZM351.739 102.743C351.739 101.915 352.314 101.322 353.232 101.322H354.149V99.091C354.149 97.9217 354.995 97.3101 355.948 97.3101C356.902 97.3101 357.747 97.9217 357.747 99.091V107.366H354.149V104.128H353.232C352.332 104.128 351.739 103.588 351.739 102.743ZM344.04 108.014H355.193C357.441 108.014 357.855 108.625 357.855 110.784V114.202H354.221V111.234C354.221 110.964 354.077 110.802 353.79 110.802H344.04C343.05 110.802 342.492 110.262 342.492 109.417C342.492 108.571 343.05 108.014 344.04 108.014Z" fill="#111111"/>
<path d="M339.758 99.0915V110.065H336.16V99.0915C336.16 97.9222 337.006 97.3105 337.959 97.3105C338.912 97.3105 339.758 97.9222 339.758 99.0915ZM329.828 104.776C328.749 106.539 326.86 107.528 325.205 107.528C324.323 107.528 323.55 107.007 323.55 106.071C323.55 105.352 323.928 104.83 324.647 104.704C326.302 104.398 327.292 103.121 327.292 101.52V100.8H324.989C324.143 100.8 323.676 100.009 323.676 99.3613C323.676 98.7137 324.071 97.8862 324.989 97.8862H333.318C334.235 97.8862 334.631 98.7137 334.631 99.3613C334.631 100.009 334.163 100.8 333.318 100.8H330.727V101.52C330.727 101.736 330.709 101.952 330.691 102.168C333.48 102.365 334.829 104.002 334.757 107.366H331.393C331.519 105.927 330.853 104.794 329.828 104.776ZM328.911 111.432H338.751C339.83 111.432 340.244 112.08 340.244 112.799C340.244 113.537 339.812 114.202 338.751 114.202H327.381C325.367 114.202 324.827 113.501 324.827 111.576V109.777C324.827 108.608 325.673 108.05 326.68 108.05C327.687 108.05 328.479 108.626 328.479 109.777V111.036C328.479 111.378 328.569 111.432 328.911 111.432Z" fill="#111111"/>
<path d="M79 136.202L79.2041 136.213C80.2128 136.315 81 137.166 81 138.202C81 139.238 80.2128 140.089 79.2041 140.191L79 140.202H69C67.8954 140.202 67 139.307 67 138.202C67 137.098 67.8954 136.202 69 136.202H79Z" fill="black"/>
<path d="M96.5 136.202L96.7041 136.213C97.7128 136.315 98.5 137.166 98.5 138.202C98.5 139.238 97.7128 140.089 96.7041 140.191L96.5 140.202H86.5C85.3954 140.202 84.5 139.307 84.5 138.202C84.5 137.098 85.3954 136.202 86.5 136.202H96.5Z" fill="black"/>
<path d="M259 136.202L259.204 136.213C260.213 136.315 261 137.166 261 138.202C261 139.238 260.213 140.089 259.204 140.191L259 140.202H249C247.895 140.202 247 139.307 247 138.202C247 137.098 247.895 136.202 249 136.202H259Z" fill="black"/>
<path d="M259 169.202L259.204 169.213C260.213 169.315 261 170.166 261 171.202C261 172.238 260.213 173.089 259.204 173.191L259 173.202H249C247.895 173.202 247 172.307 247 171.202C247 170.098 247.895 169.202 249 169.202H259Z" fill="black"/>
<path d="M259 203.202L259.204 203.213C260.213 203.315 261 204.166 261 205.202C261 206.238 260.213 207.089 259.204 207.191L259 207.202H249C247.895 207.202 247 206.307 247 205.202C247 204.098 247.895 203.202 249 203.202H259Z" fill="black"/>
<path d="M96.5 169.202L96.7041 169.213C97.7128 169.315 98.5 170.166 98.5 171.202C98.5 172.238 97.7128 173.089 96.7041 173.191L96.5 173.202H86.5C85.3954 173.202 84.5 172.307 84.5 171.202C84.5 170.098 85.3954 169.202 86.5 169.202H96.5Z" fill="black"/>
<path d="M96.5 203.202L96.7041 203.213C97.7128 203.315 98.5 204.166 98.5 205.202C98.5 206.238 97.7128 207.089 96.7041 207.191L96.5 207.202H86.5C85.3954 207.202 84.5 206.307 84.5 205.202C84.5 204.098 85.3954 203.202 86.5 203.202H96.5Z" fill="black"/>
<path d="M113.5 136.202L113.704 136.213C114.713 136.315 115.5 137.166 115.5 138.202C115.5 139.238 114.713 140.089 113.704 140.191L113.5 140.202H103.5C102.395 140.202 101.5 139.307 101.5 138.202C101.5 137.098 102.395 136.202 103.5 136.202H113.5Z" fill="black"/>
<path d="M276 136.202L276.204 136.213C277.213 136.315 278 137.166 278 138.202C278 139.238 277.213 140.089 276.204 140.191L276 140.202H266C264.895 140.202 264 139.307 264 138.202C264 137.098 264.895 136.202 266 136.202H276Z" fill="black"/>
<path d="M276 169.202L276.204 169.213C277.213 169.315 278 170.166 278 171.202C278 172.238 277.213 173.089 276.204 173.191L276 173.202H266C264.895 173.202 264 172.307 264 171.202C264 170.098 264.895 169.202 266 169.202H276Z" fill="black"/>
<path d="M276 203.202L276.204 203.213C277.213 203.315 278 204.166 278 205.202C278 206.238 277.213 207.089 276.204 207.191L276 207.202H266C264.895 207.202 264 206.307 264 205.202C264 204.098 264.895 203.202 266 203.202H276Z" fill="black"/>
<path d="M113.5 169.202L113.704 169.213C114.713 169.315 115.5 170.166 115.5 171.202C115.5 172.238 114.713 173.089 113.704 173.191L113.5 173.202H103.5C102.395 173.202 101.5 172.307 101.5 171.202C101.5 170.098 102.395 169.202 103.5 169.202H113.5Z" fill="black"/>
<path d="M113.5 203.202L113.704 203.213C114.713 203.315 115.5 204.166 115.5 205.202C115.5 206.238 114.713 207.089 113.704 207.191L113.5 207.202H103.5C102.395 207.202 101.5 206.307 101.5 205.202C101.5 204.098 102.395 203.202 103.5 203.202H113.5Z" fill="black"/>
<path d="M187 138.202C187 143.725 182.523 148.202 177 148.202C171.477 148.202 167 143.725 167 138.202C167 132.679 171.477 128.202 177 128.202C182.523 128.202 187 132.679 187 138.202Z" fill="#F9CE95"/>
<path d="M185 138.202C185 133.784 181.418 130.202 177 130.202C172.582 130.202 169 133.784 169 138.202C169 142.62 172.582 146.202 177 146.202V148.202C171.477 148.202 167 143.725 167 138.202C167 132.679 171.477 128.202 177 128.202C182.523 128.202 187 132.679 187 138.202C187 143.725 182.523 148.202 177 148.202V146.202C181.418 146.202 185 142.62 185 138.202Z" fill="#111111"/>
<path d="M173.5 136.202L173.505 136.1C173.556 135.595 173.982 135.202 174.5 135.202C175.018 135.202 175.444 135.595 175.495 136.1L175.5 136.202L175.5 137.202C175.5 137.754 175.052 138.202 174.5 138.202C173.948 138.202 173.5 137.754 173.5 137.202L173.5 136.202Z" fill="black"/>
<path d="M178.5 136.202L178.505 136.1C178.556 135.595 178.982 135.202 179.5 135.202C180.018 135.202 180.444 135.595 180.495 136.1L180.5 136.202L180.5 137.202C180.5 137.754 180.052 138.202 179.5 138.202C178.948 138.202 178.5 137.754 178.5 137.202L178.5 136.202Z" fill="black"/>
<path d="M187 171.202C187 176.725 182.523 181.202 177 181.202C171.477 181.202 167 176.725 167 171.202C167 165.679 171.477 161.202 177 161.202C182.523 161.202 187 165.679 187 171.202Z" fill="#F9CE95"/>
<path d="M185 171.202C185 166.784 181.418 163.202 177 163.202C172.582 163.202 169 166.784 169 171.202C169 175.62 172.582 179.202 177 179.202V181.202C171.477 181.202 167 176.725 167 171.202C167 165.679 171.477 161.202 177 161.202C182.523 161.202 187 165.679 187 171.202C187 176.725 182.523 181.202 177 181.202V179.202C181.418 179.202 185 175.62 185 171.202Z" fill="#111111"/>
<path d="M173.5 169.202L173.505 169.1C173.556 168.595 173.982 168.202 174.5 168.202C175.018 168.202 175.444 168.595 175.495 169.1L175.5 169.202L175.5 170.202C175.5 170.754 175.052 171.202 174.5 171.202C173.948 171.202 173.5 170.754 173.5 170.202L173.5 169.202Z" fill="black"/>
<path d="M178.5 169.202L178.505 169.1C178.556 168.595 178.982 168.202 179.5 168.202C180.018 168.202 180.444 168.595 180.495 169.1L180.5 169.202L180.5 170.202C180.5 170.754 180.052 171.202 179.5 171.202C178.948 171.202 178.5 170.754 178.5 170.202L178.5 169.202Z" fill="black"/>
<path d="M187 205.202C187 210.725 182.523 215.202 177 215.202C171.477 215.202 167 210.725 167 205.202C167 199.679 171.477 195.202 177 195.202C182.523 195.202 187 199.679 187 205.202Z" fill="#F9CE95"/>
<path d="M185 205.202C185 200.784 181.418 197.202 177 197.202C172.582 197.202 169 200.784 169 205.202C169 209.62 172.582 213.202 177 213.202V215.202C171.477 215.202 167 210.725 167 205.202C167 199.679 171.477 195.202 177 195.202C182.523 195.202 187 199.679 187 205.202C187 210.725 182.523 215.202 177 215.202V213.202C181.418 213.202 185 209.62 185 205.202Z" fill="#111111"/>
<path d="M173.5 203.202L173.505 203.1C173.556 202.595 173.982 202.202 174.5 202.202C175.018 202.202 175.444 202.595 175.495 203.1L175.5 203.202L175.5 204.202C175.5 204.754 175.052 205.202 174.5 205.202C173.948 205.202 173.5 204.754 173.5 204.202L173.5 203.202Z" fill="black"/>
<path d="M178.5 203.202L178.505 203.1C178.556 202.595 178.982 202.202 179.5 202.202C180.018 202.202 180.444 202.595 180.495 203.1L180.5 203.202L180.5 204.202C180.5 204.754 180.052 205.202 179.5 205.202C178.948 205.202 178.5 204.754 178.5 204.202L178.5 203.202Z" fill="black"/>
<path d="M318 137.202C318 134.993 319.791 133.202 322 133.202H373C375.209 133.202 377 134.993 377 137.202V140.202C377 142.411 375.209 144.202 373 144.202H322C319.791 144.202 318 142.411 318 140.202V137.202Z" fill="white"/>
<path d="M373 142.202V144.202H322V142.202H373ZM375 140.202V137.202C375 136.098 374.105 135.202 373 135.202H322C320.895 135.202 320 136.098 320 137.202V140.202C320 141.307 320.895 142.202 322 142.202V144.202L321.794 144.197C319.749 144.093 318.109 142.453 318.005 140.408L318 140.202V137.202C318 135.062 319.681 133.314 321.794 133.207L322 133.202H373L373.206 133.207C375.319 133.314 377 135.062 377 137.202V140.202L376.995 140.408C376.891 142.453 375.251 144.093 373.206 144.197L373 144.202V142.202C374.105 142.202 375 141.307 375 140.202Z" fill="#111111"/>
<path d="M320 137.202C320 136.098 320.895 135.202 322 135.202H347V142.202H322C320.895 142.202 320 141.307 320 140.202V137.202Z" fill="#FC0E0E"/>
<path d="M347 142.202H345V135.202H347V142.202Z" fill="#111111"/>
<path d="M318 169.202C318 166.993 319.791 165.202 322 165.202H373C375.209 165.202 377 166.993 377 169.202V172.202C377 174.411 375.209 176.202 373 176.202H322C319.791 176.202 318 174.411 318 172.202V169.202Z" fill="white"/>
<path d="M373 174.202V176.202H322V174.202H373ZM375 172.202V169.202C375 168.098 374.105 167.202 373 167.202H322C320.895 167.202 320 168.098 320 169.202V172.202C320 173.307 320.895 174.202 322 174.202V176.202L321.794 176.197C319.749 176.093 318.109 174.453 318.005 172.408L318 172.202V169.202C318 167.062 319.681 165.314 321.794 165.207L322 165.202H373L373.206 165.207C375.319 165.314 377 167.062 377 169.202V172.202L376.995 172.408C376.891 174.453 375.251 176.093 373.206 176.197L373 176.202V174.202C374.105 174.202 375 173.307 375 172.202Z" fill="#111111"/>
<path d="M320 169.202C320 168.098 320.895 167.202 322 167.202H369V174.202H322C320.895 174.202 320 173.307 320 172.202V169.202Z" fill="#00AC47"/>
<path d="M369 174.202H367V167.202H369V174.202Z" fill="#111111"/>
<path d="M318 204.202C318 201.993 319.791 200.202 322 200.202H373C375.209 200.202 377 201.993 377 204.202V207.202C377 209.411 375.209 211.202 373 211.202H322C319.791 211.202 318 209.411 318 207.202V204.202Z" fill="#999999"/>
<path d="M373 209.202V211.202H322V209.202H373ZM375 207.202V204.202C375 203.098 374.105 202.202 373 202.202H322C320.895 202.202 320 203.098 320 204.202V207.202C320 208.307 320.895 209.202 322 209.202V211.202L321.794 211.197C319.749 211.093 318.109 209.453 318.005 207.408L318 207.202V204.202C318 202.062 319.681 200.314 321.794 200.207L322 200.202H373L373.206 200.207C375.319 200.314 377 202.062 377 204.202V207.202L376.995 207.408C376.891 209.453 375.251 211.093 373.206 211.197L373 211.202V209.202C374.105 209.202 375 208.307 375 207.202Z" fill="#111111"/>
<path d="M0 161V161C45.8396 161 83 198.16 83 244V244H20C8.95431 244 0 235.046 0 224V161Z" fill="#00832D"/>
<mask id="mask0_2744_1602" style="mask-type:luminance" maskUnits="userSpaceOnUse" x="8" y="182" width="51" height="51">
<path d="M59.0001 182.483H8.4834V233H59.0001V182.483Z" fill="white"/>
</mask>
<g mask="url(#mask0_2744_1602)">
<path d="M47.4228 230.896H20.0596C18.3152 230.896 16.9023 229.483 16.9023 227.739V187.746C16.9023 186.002 18.3152 184.589 20.0596 184.589H39.0034L50.5801 196.166V227.739C50.5801 229.483 49.1672 230.896 47.4228 230.896Z" fill="#00AC47"/>
<g filter="url(#filter0_d_2744_1602)">
<path d="M39.0034 184.589L50.5802 196.166H39.0034V184.589Z" fill="#00832D"/>
</g>
<path d="M41.6348 202.479H35.0571H32.4261H25.8483H23.2173V205.111V208.794V211.425V215.109V217.74H25.8483H32.4261H35.0571H41.6348H44.2659V215.109V211.425V208.794V205.111V202.479H41.6348ZM25.8483 205.111H32.4261V208.794H25.8483V205.111ZM25.8483 215.109V211.425H32.4261V215.109H25.8483ZM41.6348 215.109H35.0571V211.425H41.6348V215.109ZM41.6348 208.794H35.0571V205.111H41.6348V208.794Z" fill="white"/>
</g>
<defs>
<filter id="filter0_d_2744_1602" x="33.0034" y="172.589" width="23.5767" height="23.5767" filterUnits="userSpaceOnUse" color-interpolation-filters="sRGB">
<feFlood flood-opacity="0" result="BackgroundImageFix"/>
<feColorMatrix in="SourceAlpha" type="matrix" values="0 0 0 0 0 0 0 0 0 0 0 0 0 0 0 0 0 0 127 0" result="hardAlpha"/>
<feOffset dy="-6"/>
<feGaussianBlur stdDeviation="3"/>
<feComposite in2="hardAlpha" operator="out"/>
<feColorMatrix type="matrix" values="0 0 0 0 0 0 0 0 0 0 0 0 0 0 0 0 0 0 0.1 0"/>
<feBlend mode="normal" in2="BackgroundImageFix" result="effect1_dropShadow_2744_1602"/>
<feBlend mode="normal" in="SourceGraphic" in2="effect1_dropShadow_2744_1602" result="shape"/>
</filter>
</defs>
</svg>
