<svg width="410" height="244" viewBox="0 0 410 244" fill="none" xmlns="http://www.w3.org/2000/svg">
<rect x="2" y="2" width="406" height="240" rx="18" fill="white" stroke="#00832D" stroke-width="4"/>
<path d="M18 155.042L392 155.042V188.042L18 188.042L18 155.042Z" fill="white"/>
<path d="M18 89.2021L392 89.2021V122.202L18 122.202L18 89.2021Z" fill="#F2F2F2"/>
<path d="M18 122.042L392 122.042V155.042L18 155.042L18 122.042Z" fill="white"/>
<path d="M18 188.042L392 188.042V208.442C392 215.953 384.829 222.042 375.983 222.042L34.0171 222.042C25.1711 222.042 18 215.953 18 208.442L18 188.042Z" fill="white"/>
<path d="M18 35.2256C18 27.9212 25.1711 21.9998 34.0171 21.9998L375.983 21.9998C384.829 21.9998 392 27.9212 392 35.2256V62.9998L18 62.9998L18 35.2256Z" fill="#00AC47"/>
<path d="M390.398 35.2256C390.398 28.6516 383.944 23.3223 375.983 23.3223L34.0171 23.3223C26.0557 23.3223 19.6017 28.6516 19.6017 35.2256L19.6017 61.6772L390.398 61.6772V35.2256ZM392 62.9998L18 62.9998L18 35.2256C18 28.0354 24.9486 22.1855 33.6034 22.0043L34.0171 21.9998L375.983 21.9998L376.397 22.0043C385.051 22.1855 392 28.0354 392 35.2256V62.9998Z" fill="#111111"/>
<path d="M18 62.9998L392 62.9998V88.9998L18 88.9998L18 62.9998Z" fill="#DDDDDD"/>
<path d="M19.6017 62.9998L19.6017 87.6313L390.398 87.6313V62.9998H392V88.9998L18 88.9998L18 62.9998H19.6017Z" fill="#111111"/>
<path d="M43.9724 42.8468C43.9724 46.5247 41.1399 49.5063 37.6459 49.5063C34.1518 49.5063 31.3193 46.5247 31.3193 42.8468C31.3193 39.1688 34.1518 36.1873 37.6459 36.1873C41.1399 36.1873 43.9724 39.1688 43.9724 42.8468Z" fill="#FF554D"/>
<path d="M42.6405 42.8468C42.6405 39.8392 40.3408 37.5192 37.6459 37.5192C34.951 37.5192 32.6512 39.8392 32.6512 42.8468C32.6512 45.8543 34.951 48.1744 37.6459 48.1744V49.5063C34.1518 49.5063 31.3193 46.5247 31.3193 42.8468C31.3193 39.1688 34.1518 36.1873 37.6459 36.1873C41.1399 36.1873 43.9724 39.1688 43.9724 42.8468C43.9724 46.5247 41.1399 49.5063 37.6459 49.5063V48.1744C40.3408 48.1744 42.6405 45.8543 42.6405 42.8468Z" fill="#111111"/>
<path d="M64.6169 42.8468C64.6169 46.5247 61.6353 49.5063 57.9574 49.5063C54.2794 49.5063 51.2979 46.5247 51.2979 42.8468C51.2979 39.1688 54.2794 36.1873 57.9574 36.1873C61.6353 36.1873 64.6169 39.1688 64.6169 42.8468Z" fill="#FEB42A"/>
<path d="M63.285 42.8468C63.285 39.9044 60.8997 37.5192 57.9574 37.5192C55.015 37.5192 52.6298 39.9044 52.6298 42.8468C52.6298 45.7891 55.015 48.1744 57.9574 48.1744V49.5063C54.2794 49.5063 51.2979 46.5247 51.2979 42.8468C51.2979 39.1688 54.2794 36.1873 57.9574 36.1873C61.6353 36.1873 64.6169 39.1688 64.6169 42.8468C64.6169 46.5247 61.6353 49.5063 57.9574 49.5063V48.1744C60.8997 48.1744 63.285 45.7891 63.285 42.8468Z" fill="#111111"/>
<path d="M84.5964 42.8468C84.5964 46.5247 81.764 49.5063 78.2699 49.5063C74.7758 49.5063 71.9434 46.5247 71.9434 42.8468C71.9434 39.1688 74.7758 36.1873 78.2699 36.1873C81.764 36.1873 84.5964 39.1688 84.5964 42.8468Z" fill="#25C138"/>
<path d="M83.2645 42.8468C83.2645 39.8392 80.9648 37.5192 78.2699 37.5192C75.575 37.5192 73.2753 39.8392 73.2753 42.8468C73.2753 45.8543 75.575 48.1744 78.2699 48.1744V49.5063C74.7758 49.5063 71.9434 46.5247 71.9434 42.8468C71.9434 39.1688 74.7758 36.1873 78.2699 36.1873C81.764 36.1873 84.5964 39.1688 84.5964 42.8468C84.5964 46.5247 81.764 49.5063 78.2699 49.5063V48.1744C80.9648 48.1744 83.2645 45.8543 83.2645 42.8468Z" fill="#111111"/>
<path d="M19.332 123.427H50.6318L50.6318 154.061H19.332L19.332 123.427Z" fill="#F2F2F2"/>
<path d="M19.3359 155.394H50.6326L50.6326 188.639H19.3359L19.3359 155.394Z" fill="#F2F2F2"/>
<path d="M34.9823 106.344L45.9705 95.4568L45.9705 116.767H23.9941L34.9823 106.344Z" fill="#DDDDDD"/>
<path d="M45.9705 116.767H23.9941L34.9823 106.344L45.9705 95.4568L45.9705 116.767ZM35.9195 107.29L35.9097 107.3L35.8987 107.31L27.333 115.435H44.6386L44.6386 98.6506L35.9195 107.29Z" fill="#111111"/>
<path d="M19.332 190.022H50.6318L50.6318 220.656H31.3192C24.6989 220.656 19.332 215.289 19.332 208.669L19.332 190.022Z" fill="#F2F2F2"/>
<path d="M34.3624 131.212C34.6621 130.392 35.2815 129.973 36.1206 129.973C37.2793 129.973 38.1184 130.672 38.1184 131.991L38.1184 147.814H34.1227L34.1227 136.166H32.4445C31.3257 136.166 30.3867 135.587 30.3867 134.488C30.3867 133.569 31.026 132.97 31.8252 132.85C32.904 132.71 33.9829 132.27 34.3624 131.212Z" fill="#111111"/>
<path d="M110.544 105.9H97.9014C95.7944 105.9 95.4162 105.288 95.4162 103.253V100.209C95.4162 98.1741 95.7944 97.5618 97.9014 97.5618H108.058C110.165 97.5618 110.544 98.1741 110.544 100.209V105.9ZM99 100.857V102.586C99 102.874 99.09 103.054 99.4862 103.054H106.96V100.857C106.96 100.605 106.888 100.407 106.546 100.407H99.4142C99.054 100.407 99 100.605 99 100.857ZM96.0645 107.106H109.895C110.976 107.106 111.408 107.845 111.408 108.583C111.408 109.34 110.958 110.06 109.895 110.06H104.817V114.202H101.143V110.06H96.0645C95.002 110.06 94.5518 109.34 94.5518 108.583C94.5518 107.845 94.984 107.106 96.0645 107.106Z" fill="#111111"/>
<path d="M82.0182 106.207C79.1007 106.207 77.0117 104.856 77.0117 102.245V101.362C77.0117 98.7689 79.0827 97.4002 82.0002 97.4002C84.5754 97.4002 86.4844 98.4448 86.8986 100.498H89.2938V98.985C89.2938 97.8144 90.1402 97.2021 91.0947 97.2021C92.0491 97.2021 92.8955 97.8144 92.8955 98.985V106.369H89.2938V103.307H86.8626C86.3583 105.216 84.5034 106.207 82.0182 106.207ZM80.4694 101.362V102.245C80.4694 103.073 81.1357 103.577 82.0002 103.577C82.8466 103.577 83.5309 103.073 83.5309 102.245V101.362C83.5309 100.534 82.8466 100.012 82.0002 100.03C81.1357 100.048 80.4694 100.552 80.4694 101.362ZM91.1307 106.891C92.1752 106.891 92.9136 107.413 92.9136 108.584V114.112H80.2893C78.3084 114.112 77.7681 113.41 77.7681 111.573V108.584C77.7681 107.395 78.5425 106.891 79.587 106.891C80.5595 106.891 81.2798 107.341 81.3699 108.368H89.3298C89.4018 107.341 90.1582 106.891 91.1307 106.891ZM81.8201 111.753H89.3118V110.619H81.3699V111.339C81.3699 111.699 81.4599 111.753 81.8201 111.753Z" fill="#111111"/>
<path d="M40.722 180.446H31.9314C30.4331 180.446 29.4541 179.587 29.4541 178.089V177.869C29.4541 175.192 30.2532 174.173 31.9314 172.634L35.2679 169.558C36.067 168.839 36.4865 168.299 36.4865 167.54C36.4865 166.661 35.7274 166.241 35.0081 166.241C34.0292 166.241 33.5497 166.661 33.1501 167.1C32.8704 167.42 32.4908 167.8 32.1112 167.9C31.5718 168.059 30.8326 167.999 30.2532 167.52C29.534 166.941 29.534 165.862 29.9935 165.103C31.0124 163.444 32.8505 162.605 35.3278 162.605C38.1448 162.605 40.5622 164.164 40.5622 167.14C40.5622 169.378 39.3235 170.657 37.6653 172.275L35.108 174.752C34.249 175.591 33.6696 175.811 33.6696 176.55V176.69C33.6696 176.89 33.7495 176.99 33.9693 176.99H40.722L40.722 180.446Z" fill="#111111"/>
<path d="M39.4242 200.844L36.3475 203.881C38.7649 204.16 40.6429 205.958 40.6429 208.915C40.6429 212.711 37.8659 214.729 34.3097 214.729C32.5316 214.729 30.5538 214.09 29.6148 212.831C29.0754 212.092 29.1553 211.053 29.8345 210.454C30.3939 209.954 31.0133 209.934 31.5926 210.134C32.0322 210.294 32.3518 210.554 32.6915 210.753C33.0511 210.953 33.5705 211.093 34.2898 211.093C35.7682 211.093 36.7271 210.214 36.7271 208.775C36.7271 207.257 35.6083 206.498 33.9501 206.498H32.8713C32.0921 206.498 31.5327 205.998 31.3929 205.439C31.2131 204.72 31.3729 204.16 32.0522 203.501L35.3686 200.225H31.1931C30.0143 200.225 29.5548 199.346 29.5548 198.566C29.5548 197.807 30.0343 196.888 31.1931 196.888H37.806C39.9637 196.888 40.7828 199.525 39.4242 200.844Z" fill="#111111"/>
<path d="M375.983 220.682V222.042L34.0171 222.042V220.682L375.983 220.682ZM390.398 208.442V189.402L19.6017 189.402L19.6017 208.442C19.6017 215.201 26.0557 220.682 34.0171 220.682V222.042L33.6034 222.037C25.0861 221.853 18.2214 216.025 18.0055 208.793L18 208.442L18 188.042L392 188.042V208.442L391.995 208.793C391.779 216.025 384.914 221.853 376.397 222.037L375.983 222.042V220.682C383.944 220.682 390.398 215.201 390.398 208.442Z" fill="#111111"/>
<path d="M51.9637 88.4641L51.9637 221.655H50.6318L50.6318 88.4641H51.9637Z" fill="#111111"/>
<path d="M137.199 88.4648L137.199 221.655H136.199L136.199 88.4648H137.199Z" fill="#111111"/>
<path d="M79 154.202L79 221.202H78L78 154.202H79Z" fill="#111111"/>
<path d="M308 88.4648L308 221.655H307L307 88.4648H308Z" fill="#111111"/>
<path d="M222.332 88.4639L222.332 221.654H221L221 88.4639H222.332Z" fill="#111111"/>
<path d="M392 122.042V155.042L18 155.042L18 122.042L392 122.042ZM19.6058 153.692L390.394 153.692V123.375L19.6058 123.375L19.6058 153.692Z" fill="#111111"/>
<path d="M392 87.2021V123.202L18 123.202L18 87.2021L392 87.2021ZM19.6058 121.838L390.394 121.838V88.5507L19.6058 88.5507L19.6058 121.838Z" fill="#111111"/>
<path d="M392 154.042V190.042L18 190.042L18 154.042L392 154.042ZM19.6058 188.679L390.394 188.679V155.389L19.6058 155.389L19.6058 188.679Z" fill="#111111"/>
<path d="M290.336 105.906H286.739V98.9824C286.739 97.8135 287.585 97.2021 288.538 97.2021C289.491 97.2021 290.336 97.8135 290.336 98.9824V105.906ZM274.476 101.878V101.266C274.476 98.6587 276.633 97.31 279.583 97.31C282.532 97.31 284.707 98.6407 284.707 101.266V101.878C284.707 104.503 282.532 105.834 279.601 105.834C276.651 105.834 274.476 104.503 274.476 101.878ZM277.982 101.302V101.842C277.982 102.687 278.683 103.19 279.583 103.19C280.482 103.19 281.219 102.687 281.219 101.842V101.302C281.219 100.457 280.482 99.9354 279.583 99.9534C278.683 99.9714 277.982 100.475 277.982 101.302ZM289.796 114.087H277.622C275.986 114.087 275.105 113.026 275.105 111.768V111.336C275.105 110.113 275.986 109.286 277.622 109.286H286.703V108.855C286.703 108.639 286.65 108.549 286.416 108.549H276.292C275.59 108.549 275.303 108.045 275.303 107.506C275.303 107.002 275.608 106.445 276.292 106.445H288.214C289.796 106.445 290.354 106.913 290.354 108.297V111.21H279.295C279.043 111.21 278.917 111.354 278.917 111.534V111.624C278.917 111.786 279.043 111.93 279.295 111.93H289.796C290.516 111.93 290.821 112.505 290.821 113.044C290.821 113.548 290.534 114.087 289.796 114.087Z" fill="#111111"/>
<path d="M271.904 100.259H272.462C273.559 100.259 273.883 101.104 273.883 101.824C273.883 102.561 273.541 103.388 272.462 103.388H271.904V106.535H268.308V98.9824C268.308 97.8135 269.153 97.2021 270.106 97.2021C271.059 97.2021 271.904 97.8135 271.904 98.9824V100.259ZM266.366 100.007V101.068C266.366 104.917 262.734 106.931 257.914 106.589C257.087 106.535 256.422 105.959 256.476 105.006C256.53 104.161 257.159 103.712 258.022 103.748C261.205 103.874 262.823 102.813 262.823 101.14V100.871C262.823 100.619 262.698 100.511 262.464 100.511H258.256C257.213 100.511 256.781 99.8096 256.781 99.1083C256.781 98.407 257.195 97.6877 258.256 97.6877H263.848C265.701 97.6877 266.366 98.4609 266.366 100.007ZM259.802 107.164H269.495C271.617 107.164 272.012 107.812 272.012 109.808V114.087H259.802C257.627 114.087 257.231 113.44 257.231 111.39V109.862C257.231 107.812 257.627 107.164 259.802 107.164ZM261.187 111.588H268.47V110.077C268.47 109.718 268.38 109.628 268.056 109.628H261.187C260.863 109.628 260.773 109.718 260.773 110.077V111.138C260.773 111.534 260.863 111.588 261.187 111.588Z" fill="#111111"/>
<path d="M253.833 103.496H254.48C255.577 103.496 255.901 104.341 255.901 105.06C255.901 105.798 255.559 106.625 254.48 106.625H253.833V114.087H250.236V98.9824C250.236 97.8135 251.081 97.2021 252.035 97.2021C252.988 97.2021 253.833 97.8135 253.833 98.9824V103.496ZM241.299 97.7956H245.579C247.899 97.7956 248.33 98.4969 248.33 100.763V113.404H241.299C238.979 113.404 238.548 112.703 238.548 110.437V100.763C238.548 98.4969 238.979 97.7956 241.299 97.7956ZM242.612 110.581H244.86V101.212C244.86 100.853 244.77 100.619 244.374 100.619H242.486C242.09 100.619 242.018 100.853 242.018 101.212V109.97C242.018 110.365 242.144 110.581 242.612 110.581Z" fill="#111111"/>
<path d="M369.655 110.892H374.728C375.807 110.892 376.239 111.63 376.239 112.367C376.239 113.141 375.789 113.842 374.728 113.842H360.912C359.851 113.842 359.401 113.141 359.401 112.367C359.401 111.63 359.833 110.892 360.912 110.892H365.985V107.474H363.215C361.074 107.474 360.337 106.719 360.337 104.65V100.692C360.337 98.6415 361.074 97.886 363.215 97.886H373.649C374.674 97.886 375.034 98.6955 375.034 99.3791C375.034 100.063 374.656 100.872 373.649 100.872H364.51C364.132 100.872 364.007 100.962 364.007 101.34V104.002C364.007 104.38 364.132 104.506 364.51 104.506H373.936C374.926 104.506 375.34 105.315 375.34 105.981C375.34 106.665 374.908 107.474 373.936 107.474H369.655V110.892Z" fill="#111111"/>
<path d="M343.104 107.276C342.205 107.294 341.539 106.754 341.539 105.945C341.539 105.153 342.007 104.668 342.69 104.578C344.291 104.38 345.245 103.372 345.245 101.807V101.609H342.942C342.097 101.609 341.629 100.872 341.629 100.224C341.629 99.5767 342.025 98.8032 342.942 98.8032H345.173V98.7852C345.173 97.7058 345.766 97.2021 346.882 97.2021C347.997 97.2021 348.627 97.7238 348.627 98.7852V98.8032H350.911C351.829 98.8032 352.225 99.5767 352.225 100.224C352.225 100.872 351.757 101.609 350.911 101.609H348.591V101.843C348.591 102.113 348.573 102.365 348.537 102.617C351.127 102.689 352.458 104.002 352.386 107.06H349.058C349.202 105.747 348.555 105.009 347.583 105.063C346.558 106.484 344.831 107.258 343.104 107.276ZM351.739 102.743C351.739 101.915 352.314 101.322 353.232 101.322H354.149V99.091C354.149 97.9217 354.995 97.3101 355.948 97.3101C356.902 97.3101 357.747 97.9217 357.747 99.091V107.366H354.149V104.128H353.232C352.332 104.128 351.739 103.588 351.739 102.743ZM344.04 108.014H355.193C357.441 108.014 357.855 108.625 357.855 110.784V114.202H354.221V111.234C354.221 110.964 354.077 110.802 353.79 110.802H344.04C343.05 110.802 342.492 110.262 342.492 109.417C342.492 108.571 343.05 108.014 344.04 108.014Z" fill="#111111"/>
<path d="M339.758 99.0915V110.065H336.16V99.0915C336.16 97.9222 337.006 97.3105 337.959 97.3105C338.912 97.3105 339.758 97.9222 339.758 99.0915ZM329.828 104.776C328.749 106.539 326.86 107.528 325.205 107.528C324.323 107.528 323.55 107.007 323.55 106.071C323.55 105.352 323.928 104.83 324.647 104.704C326.302 104.398 327.292 103.121 327.292 101.52V100.8H324.989C324.143 100.8 323.676 100.009 323.676 99.3613C323.676 98.7137 324.071 97.8862 324.989 97.8862H333.318C334.235 97.8862 334.631 98.7137 334.631 99.3613C334.631 100.009 334.163 100.8 333.318 100.8H330.727V101.52C330.727 101.736 330.709 101.952 330.691 102.168C333.48 102.365 334.829 104.002 334.757 107.366H331.393C331.519 105.927 330.853 104.794 329.828 104.776ZM328.911 111.432H338.751C339.83 111.432 340.244 112.08 340.244 112.799C340.244 113.537 339.812 114.202 338.751 114.202H327.381C325.367 114.202 324.827 113.501 324.827 111.576V109.777C324.827 108.608 325.673 108.05 326.68 108.05C327.687 108.05 328.479 108.626 328.479 109.777V111.036C328.479 111.378 328.569 111.432 328.911 111.432Z" fill="#111111"/>
<path d="M79 136.202L79.2041 136.213C80.2128 136.315 81 137.166 81 138.202C81 139.238 80.2128 140.089 79.2041 140.191L79 140.202H69C67.8954 140.202 67 139.307 67 138.202C67 137.098 67.8954 136.202 69 136.202H79Z" fill="black"/>
<path d="M212.001 97.0889C212.948 97.0889 213.787 97.696 213.787 98.8568V113.857H210.215V98.8568C210.215 97.696 211.055 97.0889 212.001 97.0889ZM205.501 104.678H201.287C198.965 104.678 197.769 103.125 197.769 101.196V101.143C197.769 99.2139 198.965 97.6603 201.287 97.6603H205.501C207.822 97.6603 209.019 99.2139 209.019 101.143V101.196C209.019 103.125 207.822 104.678 205.501 104.678ZM201.251 101.143V101.214C201.251 101.768 201.608 102.071 202.251 102.071H204.572C205.197 102.071 205.537 101.768 205.537 101.214V101.143C205.537 100.589 205.197 100.267 204.572 100.267H202.251C201.608 100.267 201.251 100.589 201.251 101.143ZM199.108 105.66H208.144C209.251 105.66 209.68 106.446 209.68 107.178C209.68 107.928 209.233 108.678 208.144 108.678H205.662V109.357C205.662 112.428 203.144 114 200.626 114C199.447 114 198.697 113.446 198.679 112.589C198.662 111.803 199.108 111.286 199.929 111.196C201.037 111.071 202.019 110.5 202.019 109.357V108.678H199.108C198.019 108.678 197.572 107.928 197.572 107.178C197.572 106.446 198.001 105.66 199.108 105.66Z" fill="#111111"/>
<path d="M181.751 104.429C180.715 104.393 180.143 103.786 180.108 102.982C180.09 102.161 180.643 101.518 181.626 101.482C183.84 101.357 185.786 100.089 186.197 98.3572C186.429 97.4643 187.09 97 188.054 97C189.072 97 189.858 97.5893 189.822 98.7857C189.822 98.9643 189.804 99.1429 189.769 99.3036C192.697 99.2322 195.412 100.804 196.001 104.375H192.376C191.804 102.714 190.269 101.768 188.269 101.964C186.715 103.5 184.179 104.536 181.751 104.429ZM181.197 104.947H194.947C196.001 104.947 196.429 105.643 196.429 106.375C196.429 107.125 195.983 107.786 194.947 107.786H190.072V110.107H186.429V107.786H181.197C180.161 107.786 179.715 107.125 179.715 106.375C179.715 105.643 180.143 104.947 181.197 104.947ZM184.751 111.107H194.376C195.465 111.107 195.876 111.768 195.876 112.482C195.876 113.215 195.447 113.857 194.376 113.857H183.161C181.143 113.857 180.608 113.197 180.608 111.304V110.054C180.608 108.857 181.465 108.411 182.465 108.411C183.465 108.411 184.268 108.875 184.268 110.054V110.679C184.268 111.054 184.358 111.107 184.751 111.107Z" fill="#111111"/>
<path d="M174.502 102.339H173.216C172.269 102.339 171.662 101.768 171.662 100.875C171.662 99.9996 172.252 99.3746 173.216 99.3746H174.502V98.8568C174.502 97.696 175.341 97.0889 176.287 97.0889C177.234 97.0889 178.073 97.696 178.073 98.8568V109.75H174.502V102.339ZM167.966 103.714C166.805 105.803 164.859 106.91 163.376 106.91C162.466 106.91 161.787 106.393 161.787 105.375C161.787 104.696 162.18 104.214 162.876 103.946C164.501 103.268 165.376 102.107 165.43 99.6246V98.9282C165.466 97.8746 166.287 97.3389 167.269 97.3567C168.216 97.3746 168.966 97.9639 168.966 98.9818V99.6425C168.966 100.107 168.93 100.553 168.877 100.982C171.484 101.303 173.002 103.089 172.859 106.66H169.412C169.555 104.964 169.037 104 167.966 103.714ZM167.305 111.107H177.073C178.145 111.107 178.555 111.75 178.555 112.464C178.555 113.196 178.127 113.857 177.073 113.857H165.787C163.787 113.857 163.251 113.161 163.251 111.25V109.375C163.251 108.214 164.091 107.66 165.091 107.66C166.091 107.66 166.876 108.232 166.876 109.375V110.696C166.876 111.036 166.966 111.107 167.305 111.107Z" fill="#111111"/>
<path d="M155.857 105.75H148.839C146.125 105.75 144.554 103.965 144.554 101.75V101.447C144.554 99.2323 146.125 97.4465 148.839 97.4465H155.857C158.572 97.4465 160.161 99.2323 160.161 101.447V101.75C160.161 103.965 158.572 105.75 155.857 105.75ZM148.232 101.429V101.768C148.232 102.518 148.822 103.072 149.768 103.072H154.947C155.875 103.072 156.482 102.518 156.482 101.768V101.429C156.482 100.679 155.875 100.125 154.947 100.125H149.768C148.822 100.125 148.232 100.679 148.232 101.429ZM145.5 106.911H159.215C160.286 106.911 160.715 107.643 160.715 108.375C160.715 109.125 160.268 109.84 159.215 109.84H154.179V113.947H150.536V109.84H145.5C144.446 109.84 144 109.125 144 108.375C144 107.643 144.429 106.911 145.5 106.911Z" fill="#111111"/>
<path d="M96.5 136.202L96.7041 136.213C97.7128 136.315 98.5 137.166 98.5 138.202C98.5 139.238 97.7128 140.089 96.7041 140.191L96.5 140.202H86.5C85.3954 140.202 84.5 139.307 84.5 138.202C84.5 137.098 85.3954 136.202 86.5 136.202H96.5Z" fill="black"/>
<path d="M259 136.202L259.204 136.213C260.213 136.315 261 137.166 261 138.202C261 139.238 260.213 140.089 259.204 140.191L259 140.202H249C247.895 140.202 247 139.307 247 138.202C247 137.098 247.895 136.202 249 136.202H259Z" fill="black"/>
<path d="M259 169.202L259.204 169.213C260.213 169.315 261 170.166 261 171.202C261 172.238 260.213 173.089 259.204 173.191L259 173.202H249C247.895 173.202 247 172.307 247 171.202C247 170.098 247.895 169.202 249 169.202H259Z" fill="black"/>
<path d="M259 203.202L259.204 203.213C260.213 203.315 261 204.166 261 205.202C261 206.238 260.213 207.089 259.204 207.191L259 207.202H249C247.895 207.202 247 206.307 247 205.202C247 204.098 247.895 203.202 249 203.202H259Z" fill="black"/>
<path d="M96.5 169.202L96.7041 169.213C97.7128 169.315 98.5 170.166 98.5 171.202C98.5 172.238 97.7128 173.089 96.7041 173.191L96.5 173.202H86.5C85.3954 173.202 84.5 172.307 84.5 171.202C84.5 170.098 85.3954 169.202 86.5 169.202H96.5Z" fill="black"/>
<path d="M96.5 203.202L96.7041 203.213C97.7128 203.315 98.5 204.166 98.5 205.202C98.5 206.238 97.7128 207.089 96.7041 207.191L96.5 207.202H86.5C85.3954 207.202 84.5 206.307 84.5 205.202C84.5 204.098 85.3954 203.202 86.5 203.202H96.5Z" fill="black"/>
<path d="M113.5 136.202L113.704 136.213C114.713 136.315 115.5 137.166 115.5 138.202C115.5 139.238 114.713 140.089 113.704 140.191L113.5 140.202H103.5C102.395 140.202 101.5 139.307 101.5 138.202C101.5 137.098 102.395 136.202 103.5 136.202H113.5Z" fill="black"/>
<path d="M276 136.202L276.204 136.213C277.213 136.315 278 137.166 278 138.202C278 139.238 277.213 140.089 276.204 140.191L276 140.202H266C264.895 140.202 264 139.307 264 138.202C264 137.098 264.895 136.202 266 136.202H276Z" fill="black"/>
<path d="M276 169.202L276.204 169.213C277.213 169.315 278 170.166 278 171.202C278 172.238 277.213 173.089 276.204 173.191L276 173.202H266C264.895 173.202 264 172.307 264 171.202C264 170.098 264.895 169.202 266 169.202H276Z" fill="black"/>
<path d="M276 203.202L276.204 203.213C277.213 203.315 278 204.166 278 205.202C278 206.238 277.213 207.089 276.204 207.191L276 207.202H266C264.895 207.202 264 206.307 264 205.202C264 204.098 264.895 203.202 266 203.202H276Z" fill="black"/>
<path d="M113.5 169.202L113.704 169.213C114.713 169.315 115.5 170.166 115.5 171.202C115.5 172.238 114.713 173.089 113.704 173.191L113.5 173.202H103.5C102.395 173.202 101.5 172.307 101.5 171.202C101.5 170.098 102.395 169.202 103.5 169.202H113.5Z" fill="black"/>
<path d="M113.5 203.202L113.704 203.213C114.713 203.315 115.5 204.166 115.5 205.202C115.5 206.238 114.713 207.089 113.704 207.191L113.5 207.202H103.5C102.395 207.202 101.5 206.307 101.5 205.202C101.5 204.098 102.395 203.202 103.5 203.202H113.5Z" fill="black"/>
<path d="M318 137.202C318 134.993 319.791 133.202 322 133.202H373C375.209 133.202 377 134.993 377 137.202V140.202C377 142.411 375.209 144.202 373 144.202H322C319.791 144.202 318 142.411 318 140.202V137.202Z" fill="white"/>
<path d="M373 142.202V144.202H322V142.202H373ZM375 140.202V137.202C375 136.098 374.105 135.202 373 135.202H322C320.895 135.202 320 136.098 320 137.202V140.202C320 141.307 320.895 142.202 322 142.202V144.202L321.794 144.197C319.749 144.093 318.109 142.453 318.005 140.408L318 140.202V137.202C318 135.062 319.681 133.314 321.794 133.207L322 133.202H373L373.206 133.207C375.319 133.314 377 135.062 377 137.202V140.202L376.995 140.408C376.891 142.453 375.251 144.093 373.206 144.197L373 144.202V142.202C374.105 142.202 375 141.307 375 140.202Z" fill="#111111"/>
<path d="M320 137.202C320 136.098 320.895 135.202 322 135.202H347V142.202H322C320.895 142.202 320 141.307 320 140.202V137.202Z" fill="#FC0E0E"/>
<path d="M347 142.202H345V135.202H347V142.202Z" fill="#111111"/>
<path d="M318 169.202C318 166.993 319.791 165.202 322 165.202H373C375.209 165.202 377 166.993 377 169.202V172.202C377 174.411 375.209 176.202 373 176.202H322C319.791 176.202 318 174.411 318 172.202V169.202Z" fill="white"/>
<path d="M373 174.202V176.202H322V174.202H373ZM375 172.202V169.202C375 168.098 374.105 167.202 373 167.202H322C320.895 167.202 320 168.098 320 169.202V172.202C320 173.307 320.895 174.202 322 174.202V176.202L321.794 176.197C319.749 176.093 318.109 174.453 318.005 172.408L318 172.202V169.202C318 167.062 319.681 165.314 321.794 165.207L322 165.202H373L373.206 165.207C375.319 165.314 377 167.062 377 169.202V172.202L376.995 172.408C376.891 174.453 375.251 176.093 373.206 176.197L373 176.202V174.202C374.105 174.202 375 173.307 375 172.202Z" fill="#111111"/>
<path d="M320 169.202C320 168.098 320.895 167.202 322 167.202H369V174.202H322C320.895 174.202 320 173.307 320 172.202V169.202Z" fill="#00AC47"/>
<path d="M369 174.202H367V167.202H369V174.202Z" fill="#111111"/>
<path d="M318 204.202C318 201.993 319.791 200.202 322 200.202H373C375.209 200.202 377 201.993 377 204.202V207.202C377 209.411 375.209 211.202 373 211.202H322C319.791 211.202 318 209.411 318 207.202V204.202Z" fill="#999999"/>
<path d="M373 209.202V211.202H322V209.202H373ZM375 207.202V204.202C375 203.098 374.105 202.202 373 202.202H322C320.895 202.202 320 203.098 320 204.202V207.202C320 208.307 320.895 209.202 322 209.202V211.202L321.794 211.197C319.749 211.093 318.109 209.453 318.005 207.408L318 207.202V204.202C318 202.062 319.681 200.314 321.794 200.207L322 200.202H373L373.206 200.207C375.319 200.314 377 202.062 377 204.202V207.202L376.995 207.408C376.891 209.453 375.251 211.093 373.206 211.197L373 211.202V209.202C374.105 209.202 375 208.307 375 207.202Z" fill="#111111"/>
<path d="M149 132C149 129.791 150.791 128 153 128H204C206.209 128 208 129.791 208 132V145C208 147.209 206.209 149 204 149H153C150.791 149 149 147.209 149 145V132Z" fill="#FF3E48"/>
<path d="M182.937 143.799C180.882 143.799 179.433 142.718 179.433 140.615V136.184C179.433 134.093 180.882 133 182.937 133C184.993 133 186.442 134.093 186.442 136.184V140.615C186.442 142.718 184.993 143.799 182.937 143.799ZM182.937 141.78C183.531 141.78 184.054 141.483 184.054 140.722V136.077C184.054 135.34 183.531 135.02 182.937 135.02C182.343 135.02 181.821 135.34 181.821 136.077V140.722C181.821 141.483 182.343 141.78 182.937 141.78Z" fill="white"/>
<path d="M174.861 140.592H173.447V143.609H171V135.067C171 133.701 171.428 133.19 172.853 133.19H174.861C176.976 133.19 178.485 134.212 178.485 136.695V137.087C178.485 139.57 176.976 140.592 174.861 140.592ZM173.447 135.602V138.525H174.742C175.598 138.525 176.049 137.931 176.049 137.028V136.754C176.049 135.851 175.598 135.257 174.742 135.257H173.792C173.519 135.257 173.447 135.317 173.447 135.602Z" fill="white"/>
<path d="M204 147V149H153V147H204ZM206 145V132C206 130.895 205.105 130 204 130H153C151.964 130 151.113 130.787 151.011 131.796L151 132V145C151 146.105 151.895 147 153 147V149L152.794 148.995C150.749 148.891 149.109 147.251 149.005 145.206L149 145V132C149 129.86 150.681 128.112 152.794 128.005L153 128H204L204.206 128.005C206.319 128.112 208 129.86 208 132V145L207.995 145.206C207.891 147.251 206.251 148.891 204.206 148.995L204 149V147C205.105 147 206 146.105 206 145Z" fill="#111111"/>
<path d="M149 165C149 162.791 150.791 161 153 161H204C206.209 161 208 162.791 208 165V178C208 180.209 206.209 182 204 182H153C150.791 182 149 180.209 149 178V165Z" fill="#FF804C"/>
<path d="M182.441 166.737C182.62 166.249 182.988 166 183.487 166C184.176 166 184.675 166.416 184.675 167.2V176.609H182.299V169.683H181.301C180.636 169.683 180.077 169.338 180.077 168.685C180.077 168.139 180.457 167.782 180.933 167.711C181.574 167.628 182.216 167.366 182.441 166.737Z" fill="white"/>
<path d="M175.861 173.592H174.447V176.609H172V168.067C172 166.701 172.428 166.19 173.853 166.19H175.861C177.976 166.19 179.485 167.212 179.485 169.695V170.087C179.485 172.57 177.976 173.592 175.861 173.592ZM174.447 168.602V171.525H175.742C176.598 171.525 177.049 170.931 177.049 170.028V169.754C177.049 168.851 176.598 168.257 175.742 168.257H174.792C174.519 168.257 174.447 168.317 174.447 168.602Z" fill="white"/>
<path d="M204 180V182H153V180H204ZM206 178V165C206 163.895 205.105 163 204 163H153C151.964 163 151.113 163.787 151.011 164.796L151 165V178C151 179.105 151.895 180 153 180V182L152.794 181.995C150.749 181.891 149.109 180.251 149.005 178.206L149 178V165C149 162.86 150.681 161.112 152.794 161.005L153 161H204L204.206 161.005C206.319 161.112 208 162.86 208 165V178L207.995 178.206C207.891 180.251 206.251 181.891 204.206 181.995L204 182V180C205.105 180 206 179.105 206 178Z" fill="#111111"/>
<path d="M149 197C149 194.791 150.791 193 153 193H204C206.209 193 208 194.791 208 197V210C208 212.209 206.209 214 204 214H153C150.791 214 149 212.209 149 210V197Z" fill="#FFB42E"/>
<path d="M186.014 208.609H180.787C179.896 208.609 179.313 208.098 179.313 207.207V207.077C179.313 205.485 179.789 204.879 180.787 203.964L182.771 202.134C183.246 201.707 183.495 201.386 183.495 200.934C183.495 200.412 183.044 200.162 182.616 200.162C182.034 200.162 181.749 200.412 181.511 200.673C181.345 200.863 181.119 201.089 180.894 201.148C180.573 201.243 180.133 201.208 179.789 200.923C179.361 200.578 179.361 199.937 179.634 199.485C180.24 198.499 181.333 198 182.806 198C184.482 198 185.919 198.927 185.919 200.697C185.919 202.028 185.182 202.788 184.196 203.75L182.676 205.223C182.165 205.722 181.82 205.853 181.82 206.293V206.376C181.82 206.495 181.868 206.554 181.998 206.554H186.014V208.609Z" fill="white"/>
<path d="M174.861 205.592H173.447V208.609H171V200.067C171 198.701 171.428 198.19 172.853 198.19H174.861C176.976 198.19 178.485 199.212 178.485 201.695V202.087C178.485 204.57 176.976 205.592 174.861 205.592ZM173.447 200.602V203.524H174.742C175.598 203.524 176.049 202.93 176.049 202.027V201.754C176.049 200.851 175.598 200.257 174.742 200.257H173.792C173.519 200.257 173.447 200.317 173.447 200.602Z" fill="white"/>
<path d="M204 212V214H153V212H204ZM206 210V197C206 195.895 205.105 195 204 195H153C151.964 195 151.113 195.787 151.011 196.796L151 197V210C151 211.105 151.895 212 153 212V214L152.794 213.995C150.749 213.891 149.109 212.251 149.005 210.206L149 210V197C149 194.86 150.681 193.112 152.794 193.005L153 193H204L204.206 193.005C206.319 193.112 208 194.86 208 197V210L207.995 210.206C207.891 212.251 206.251 213.891 204.206 213.995L204 214V212C205.105 212 206 211.105 206 210Z" fill="#111111"/>
<path d="M0 161V161C45.8396 161 83 198.16 83 244V244H20C8.95431 244 0 235.046 0 224V161Z" fill="#00832D"/>
<mask id="mask0_2932_3720" style="mask-type:luminance" maskUnits="userSpaceOnUse" x="8" y="182" width="51" height="51">
<path d="M59.0001 182.483H8.4834V233H59.0001V182.483Z" fill="white"/>
</mask>
<g mask="url(#mask0_2932_3720)">
<path d="M47.4228 230.896H20.0596C18.3152 230.896 16.9023 229.483 16.9023 227.739V187.746C16.9023 186.002 18.3152 184.589 20.0596 184.589H39.0034L50.5801 196.166V227.739C50.5801 229.483 49.1672 230.896 47.4228 230.896Z" fill="#00AC47"/>
<g filter="url(#filter0_d_2932_3720)">
<path d="M39.0039 184.588L50.5807 196.165H39.0039V184.588Z" fill="#00832D"/>
</g>
<path d="M41.6343 202.479H35.0566H32.4256H25.8479H23.2168V205.11V208.794V211.425V215.108V217.739H25.8479H32.4256H35.0566H41.6343H44.2654V215.108V211.425V208.794V205.11V202.479H41.6343ZM25.8479 205.11H32.4256V208.794H25.8479V205.11ZM25.8479 215.108V211.425H32.4256V215.108H25.8479ZM41.6343 215.108H35.0566V211.425H41.6343V215.108ZM41.6343 208.794H35.0566V205.11H41.6343V208.794Z" fill="white"/>
</g>
<defs>
<filter id="filter0_d_2932_3720" x="33.0039" y="172.588" width="23.5771" height="23.5767" filterUnits="userSpaceOnUse" color-interpolation-filters="sRGB">
<feFlood flood-opacity="0" result="BackgroundImageFix"/>
<feColorMatrix in="SourceAlpha" type="matrix" values="0 0 0 0 0 0 0 0 0 0 0 0 0 0 0 0 0 0 127 0" result="hardAlpha"/>
<feOffset dy="-6"/>
<feGaussianBlur stdDeviation="3"/>
<feComposite in2="hardAlpha" operator="out"/>
<feColorMatrix type="matrix" values="0 0 0 0 0 0 0 0 0 0 0 0 0 0 0 0 0 0 0.1 0"/>
<feBlend mode="normal" in2="BackgroundImageFix" result="effect1_dropShadow_2932_3720"/>
<feBlend mode="normal" in="SourceGraphic" in2="effect1_dropShadow_2932_3720" result="shape"/>
</filter>
</defs>
</svg>
