<svg width="410" height="244" viewBox="0 0 410 244" fill="none" xmlns="http://www.w3.org/2000/svg">
<rect x="2" y="2" width="406" height="240" rx="18" fill="white" stroke="#2C2D35" stroke-width="4"/>
<path d="M266 158.844H392V189.844H266V158.844Z" fill="white"/>
<path d="M266 64H392V96H266V64Z" fill="white"/>
<path d="M375.983 221.66V223H34.0171V221.66H375.983ZM390.398 209.6V35.4C390.398 28.7394 383.944 23.34 375.983 23.34H34.0171C26.0557 23.34 19.6017 28.7394 19.6017 35.4V209.6C19.6017 216.261 26.0557 221.66 34.0171 221.66V223L33.6034 222.995C25.0861 222.815 18.2214 217.072 18.0055 209.946L18 209.6V35.4C18 28.1151 24.9486 22.1882 33.6034 22.0046L34.0171 22H375.983L376.397 22.0046C385.051 22.1882 392 28.1151 392 35.4V209.6L391.995 209.946C391.779 217.072 384.914 222.815 376.397 222.995L375.983 223V221.66C383.944 221.66 390.398 216.261 390.398 209.6Z" fill="#111111"/>
<path d="M34.0171 221.66H375.983C383.944 221.66 390.398 216.261 390.398 209.6V35.4C390.398 28.7394 383.944 23.34 375.983 23.34H34.0171C26.0557 23.34 19.6017 28.7394 19.6017 35.4V209.6C19.6017 216.261 26.0557 221.66 34.0171 221.66Z" fill="white"/>
<path d="M392 126.687V158.687H288V126.687H392ZM288.445 157.407H391.555V127.967H288.445V157.407Z" fill="#111111"/>
<path d="M392 84V106H288V84H392ZM288.445 105.12H391.555V84.88H288.445V105.12Z" fill="#111111"/>
<path d="M392 179V201H288V179H392ZM288.445 200.12H391.555V179.88H288.445V200.12Z" fill="#111111"/>
<path d="M18 35.2258C18 27.9214 25.1711 22 34.0171 22H375.983C384.829 22 392 27.9214 392 35.2258V63H18V35.2258Z" fill="white"/>
<path d="M390.398 35.5484C390.398 28.8141 383.944 23.3548 375.983 23.3548H34.0171C26.0557 23.3548 19.6017 28.8141 19.6017 35.5484V62.6452H390.398V35.5484ZM392 64H18V35.5484C18 28.1828 24.9486 22.1902 33.6034 22.0046L34.0171 22H375.983L376.397 22.0046C385.051 22.1902 392 28.1828 392 35.5484V64Z" fill="#111111"/>
<path d="M60 63.2524V222.252H59V63.2524H60Z" fill="#111111"/>
<path d="M290 23V222H288V23H290Z" fill="#111111"/>
<path d="M18 36C18 28.268 24.268 22 32 22H60V223H32C24.268 223 18 216.732 18 209V36Z" fill="#2C2D35"/>
<path d="M18 209V36C18 28.3888 24.0737 22.1965 31.6387 22.0049L32 22H60V223H32V221.5H58.5V23.5H32C25.0964 23.5 19.5 29.0964 19.5 36V209C19.5 215.904 25.0964 221.5 32 221.5V223L31.6387 222.995C24.1938 222.807 18.1935 216.806 18.0049 209.361L18 209Z" fill="#111111"/>
<path d="M46.2163 43.0086C46.2163 47.4316 42.81 51.0171 38.6081 51.0171C34.4063 51.0171 31 47.4316 31 43.0086C31 38.5856 34.4063 35 38.6081 35C42.81 35 46.2163 38.5856 46.2163 43.0086Z" fill="#FF554D"/>
<path d="M44.6146 43.0086C44.6146 39.3917 41.849 36.6017 38.6081 36.6017C35.3673 36.6017 32.6017 39.3917 32.6017 43.0086C32.6017 46.6254 35.3673 49.4154 38.6081 49.4154V51.0171C34.4063 51.0171 31 47.4316 31 43.0086C31 38.5856 34.4063 35 38.6081 35C42.81 35 46.2163 38.5856 46.2163 43.0086C46.2163 47.4316 42.81 51.0171 38.6081 51.0171V49.4154C41.849 49.4154 44.6146 46.6254 44.6146 43.0086Z" fill="#111111"/>
<path d="M46 66.5171C46 70.6592 42.6421 74.0171 38.5 74.0171C34.3579 74.0171 31 70.6592 31 66.5171C31 62.375 34.3579 59.0171 38.5 59.0171C42.6421 59.0171 46 62.375 46 66.5171Z" fill="#FEB42A"/>
<path d="M44.5 66.5171C44.5 63.2034 41.8137 60.5171 38.5 60.5171C35.1863 60.5171 32.5 63.2034 32.5 66.5171C32.5 69.8308 35.1863 72.5171 38.5 72.5171V74.0171C34.3579 74.0171 31 70.6592 31 66.5171C31 62.375 34.3579 59.0171 38.5 59.0171C42.6421 59.0171 46 62.375 46 66.5171C46 70.6592 42.6421 74.0171 38.5 74.0171V72.5171C41.8137 72.5171 44.5 69.8308 44.5 66.5171Z" fill="#111111"/>
<path d="M46.2163 90.0257C46.2163 94.4487 42.81 98.0342 38.6081 98.0342C34.4063 98.0342 31 94.4487 31 90.0257C31 85.6026 34.4063 82.0171 38.6081 82.0171C42.81 82.0171 46.2163 85.6026 46.2163 90.0257Z" fill="#25C138"/>
<path d="M44.6146 90.0257C44.6146 86.4088 41.849 83.6188 38.6081 83.6188C35.3673 83.6188 32.6017 86.4088 32.6017 90.0257C32.6017 93.6425 35.3673 96.4325 38.6081 96.4325V98.0342C34.4063 98.0342 31 94.4487 31 90.0257C31 85.6026 34.4063 82.0171 38.6081 82.0171C42.81 82.0171 46.2163 85.6026 46.2163 90.0257C46.2163 94.4487 42.81 98.0342 38.6081 98.0342V96.4325C41.849 96.4325 44.6146 93.6425 44.6146 90.0257Z" fill="#111111"/>
<path d="M83.4872 34.3198H86.4672C89.9272 34.3198 93.5672 36.1598 93.5672 41.7198V44.4598C93.5672 50.0198 89.9272 51.8598 86.4672 51.8598H83.4872C81.0872 51.8598 80.3672 50.9998 80.3672 48.6998V37.4798C80.3672 35.1798 81.0872 34.3198 83.4872 34.3198ZM89.4872 44.7798V41.3998C89.4872 39.0598 88.2272 37.7798 86.3472 37.7798H85.0272C84.5672 37.7798 84.4472 37.8798 84.4472 38.3598V47.8198C84.4472 48.2998 84.5672 48.3998 85.0272 48.3998H86.3472C88.2272 48.3998 89.4872 47.1198 89.4872 44.7798Z" fill="black"/>
<path d="M74 51.86V36C74 34.62 74.96 34 76.08 34C77.2 34 78.16 34.62 78.16 36V51.86H74Z" fill="black"/>
<path d="M120 41L120.204 41.0107C121.213 41.113 122 41.9643 122 43C122 44.0357 121.213 44.887 120.204 44.9893L120 45H110C108.895 45 108 44.1046 108 43C108 41.8954 108.895 41 110 41H120Z" fill="black"/>
<path d="M137.5 41L137.704 41.0107C138.713 41.113 139.5 41.9643 139.5 43C139.5 44.0357 138.713 44.887 137.704 44.9893L137.5 45H127.5C126.395 45 125.5 44.1046 125.5 43C125.5 41.8954 126.395 41 127.5 41H137.5Z" fill="black"/>
<path d="M154.5 41L154.704 41.0107C155.713 41.113 156.5 41.9643 156.5 43C156.5 44.0357 155.713 44.887 154.704 44.9893L154.5 45H144.5C143.395 45 142.5 44.1046 142.5 43C142.5 41.8954 143.395 41 144.5 41H154.5Z" fill="black"/>
<path d="M59 63H290V223H59V63Z" fill="#ECECEC"/>
<path d="M290 63V223H59V63H290ZM60 221.5H288V64H60V221.5Z" fill="#111111"/>
<path d="M76 88.3512C76 83.7389 79.7389 80 84.3512 80H262.649C267.261 80 271 83.739 271 88.3512V196.916C271 201.529 267.261 205.268 262.649 205.268H84.3512C79.7389 205.268 76 201.529 76 196.916V88.3512Z" fill="white"/>
<path d="M262.649 204.433V205.268H84.3512V204.433H262.649ZM270.165 196.916V88.3512C270.165 84.2002 266.8 80.8351 262.649 80.8351H84.3512C80.2002 80.8351 76.8351 84.2002 76.8351 88.3512V196.916C76.8351 201.068 80.2002 204.433 84.3512 204.433V205.268L84.1355 205.265C79.6946 205.152 76.1155 201.573 76.0029 197.132L76 196.916V88.3512C76 83.8111 79.6229 80.1173 84.1355 80.0029L84.3512 80H262.649L262.865 80.0029C267.377 80.1173 271 83.8111 271 88.3512V196.916L270.997 197.132C270.885 201.573 267.305 205.152 262.865 205.265L262.649 205.268V204.433C266.8 204.433 270.165 201.067 270.165 196.916Z" fill="#111111"/>
<path d="M76 88.3512C76 83.7389 79.7389 80 84.3512 80H262.649C267.261 80 271 83.7389 271 88.3512V105.889H76V88.3512Z" fill="#676564"/>
<path d="M270.165 88.3512C270.165 84.2002 266.8 80.8351 262.649 80.8351H84.3512C80.2002 80.8351 76.8351 84.2002 76.8351 88.3512V105.054H270.165V88.3512ZM271 105.889H76V88.3512C76 83.8111 79.6229 80.1173 84.1355 80.0029L84.3512 80H262.649L262.865 80.0029C267.377 80.1173 271 83.8111 271 88.3512V105.889Z" fill="#111111"/>
<path d="M188.323 126.766C188.323 122.154 192.062 118.415 196.674 118.415H248.452C253.064 118.415 256.803 122.154 256.803 126.766V184.389C256.803 189.002 253.064 192.741 248.452 192.741H196.674C192.062 192.741 188.323 189.002 188.323 184.389V126.766Z" fill="#DDDDDD"/>
<path d="M248.452 191.905V192.741H196.674V191.905H248.452ZM255.968 184.389V126.766C255.968 122.615 252.603 119.25 248.452 119.25H196.674C192.523 119.25 189.158 122.615 189.158 126.766V184.389C189.158 188.54 192.523 191.905 196.674 191.905V192.741L196.459 192.738C192.018 192.625 188.439 189.046 188.326 184.605L188.323 184.389V126.766C188.323 122.226 191.946 118.532 196.459 118.418L196.674 118.415H248.452L248.667 118.418C253.18 118.532 256.803 122.226 256.803 126.766V184.389L256.8 184.605C256.687 189.046 253.108 192.625 248.667 192.738L248.452 192.741V191.905C252.603 191.905 255.968 188.54 255.968 184.389Z" fill="#111111"/>
<path d="M88.5269 124.261C88.5269 123.339 89.2746 122.591 90.1971 122.591H157.842C158.764 122.591 159.512 123.339 159.512 124.261V133.03C159.512 133.952 158.764 134.7 157.842 134.7H90.1971C89.2746 134.7 88.5269 133.952 88.5269 133.03V124.261Z" fill="#5E5E5E"/>
<path d="M157.842 133.865V134.7H90.1971V133.865H157.842ZM158.677 133.03V124.261C158.677 123.829 158.348 123.473 157.927 123.43L157.842 123.426H90.1971C89.7359 123.426 89.362 123.8 89.362 124.261V133.03C89.362 133.491 89.7359 133.865 90.1971 133.865V134.7L90.1111 134.698C89.2571 134.655 88.5722 133.97 88.5289 133.116L88.5269 133.03V124.261C88.5269 123.367 89.2286 122.638 90.1111 122.593L90.1971 122.591H157.842L157.928 122.593C158.81 122.638 159.512 123.367 159.512 124.261V133.03L159.51 133.116C159.466 133.97 158.782 134.655 157.928 134.698L157.842 134.7V133.865C158.303 133.865 158.677 133.491 158.677 133.03Z" fill="#111111"/>
<path d="M88.5269 144.304C88.5269 143.382 89.2746 142.634 90.1971 142.634H172.874C173.796 142.634 174.544 143.382 174.544 144.304V147.644C174.544 148.567 173.796 149.315 172.874 149.315H90.1971C89.2746 149.315 88.5269 148.567 88.5269 147.644V144.304Z" fill="#DDDDDD"/>
<path d="M172.874 148.48V149.315H90.1971V148.48H172.874ZM173.709 147.644V144.304C173.709 143.843 173.335 143.469 172.874 143.469H90.1971C89.7359 143.469 89.362 143.843 89.362 144.304V147.644C89.362 148.106 89.7359 148.48 90.1971 148.48V149.315L90.1111 149.313C89.2286 149.268 88.5269 148.538 88.5269 147.644V144.304C88.5269 143.41 89.2286 142.681 90.1111 142.636L90.1971 142.634H172.874L172.96 142.636C173.842 142.681 174.544 143.41 174.544 144.304V147.644L174.542 147.731C174.499 148.585 173.814 149.269 172.96 149.313L172.874 149.315V148.48C173.335 148.48 173.709 148.106 173.709 147.644Z" fill="#111111"/>
<path d="M88.5269 155.996C88.5269 155.073 89.2746 154.326 90.1971 154.326H120.261C121.184 154.326 121.932 155.073 121.932 155.996V159.336C121.932 160.259 121.184 161.007 120.261 161.007H90.1971C89.2746 161.007 88.5269 160.259 88.5269 159.336V155.996Z" fill="#DDDDDD"/>
<path d="M88.5269 167.67C88.5269 166.748 89.2746 166 90.1971 166H132.5C133.422 166 134.17 166.748 134.17 167.67V171.011C134.17 171.933 133.422 172.681 132.5 172.681H90.1971C89.2746 172.681 88.5269 171.933 88.5269 171.011V167.67Z" fill="#DDDDDD"/>
<path d="M120.261 160.172V161.007H90.1971V160.172H120.261ZM121.096 159.336V155.996C121.096 155.535 120.723 155.161 120.261 155.161H90.1971C89.7359 155.161 89.362 155.535 89.362 155.996V159.336C89.362 159.798 89.7359 160.172 90.1971 160.172V161.007L90.1111 161.005C89.2286 160.96 88.5269 160.23 88.5269 159.336V155.996C88.5269 155.102 89.2286 154.372 90.1111 154.328L90.1971 154.326H120.261L120.347 154.328C121.23 154.372 121.932 155.102 121.932 155.996V159.336L121.93 159.422C121.886 160.276 121.201 160.961 120.347 161.005L120.261 161.007V160.172C120.723 160.172 121.096 159.798 121.096 159.336Z" fill="#111111"/>
<path d="M132.5 171.846V172.681H90.1971V171.846H132.5ZM133.335 171.011V167.67C133.335 167.209 132.961 166.835 132.5 166.835H90.1971C89.7359 166.835 89.362 167.209 89.362 167.67V171.011C89.362 171.472 89.7359 171.846 90.1971 171.846V172.681L90.1111 172.679C89.2286 172.634 88.5269 171.904 88.5269 171.011V167.67C88.5269 166.777 89.2286 166.047 90.1111 166.002L90.1971 166H132.5L132.586 166.002C133.469 166.047 134.17 166.777 134.17 167.67V171.011L134.168 171.097C134.125 171.951 133.44 172.636 132.586 172.679L132.5 172.681V171.846C132.961 171.846 133.335 171.472 133.335 171.011Z" fill="#111111"/>
<path d="M288 63H392V85H288V63Z" fill="#ECECEC"/>
<path d="M392 63V85H288V63H392ZM290 83.5H390.5V64H290V83.5Z" fill="#111111"/>
<path d="M288 158H392V180H288V158Z" fill="#ECECEC"/>
<path d="M392 158V180H288V158H392ZM290 178.5H390.5V159H290V178.5Z" fill="#111111"/>
<path d="M288 84H392V106H288V84Z" fill="#ECECEC"/>
<path d="M392 84V106H288V84H392ZM290 104.5H390.5V85H290V104.5Z" fill="#111111"/>
<path d="M288 179H392V201H288V179Z" fill="#ECECEC"/>
<path d="M392 179V201H288V179H392ZM290 199.5H390.5V180H290V199.5Z" fill="#111111"/>
<path d="M288 105H392V128H288V105Z" fill="#ECECEC"/>
<path d="M392 105V128H288V105H392ZM290 126.5H390.5V106H290V126.5Z" fill="#111111"/>
<path d="M288 200H392V209C392 216.732 385.732 223 378 223H288V200Z" fill="#ECECEC"/>
<path d="M392 209C392 216.732 385.732 223 378 223H288L290 221.5H378C384.904 221.5 390.5 215.904 390.5 209V201H290V221.5L288 223V200H392V209Z" fill="#111111"/>
<path d="M315 63V128H313V63H315Z" fill="#111111"/>
<path d="M315 158V223H313V158H315Z" fill="#111111"/>
<path d="M328.821 46.6399V43.9399C328.821 39.6399 331.901 38.3999 334.621 38.3999C337.281 38.3999 340.421 39.6399 340.421 43.9399V46.6399C340.421 50.9399 337.281 52.1799 334.621 52.1799C331.961 52.1799 328.821 50.9399 328.821 46.6399ZM336.401 46.8199V43.7599C336.401 42.3399 335.481 41.7799 334.621 41.7799C333.761 41.7799 332.841 42.3399 332.841 43.7599V46.8199C332.841 48.2399 333.761 48.7999 334.621 48.7999C335.481 48.7999 336.401 48.2399 336.401 46.8199Z" fill="black"/>
<path d="M325.325 51.86H321.245V42.44H320.565C319.305 42.44 318.805 41.66 318.805 40.8C318.805 39.96 319.285 39.12 320.565 39.12H321.245V38.34C321.245 35.12 322.805 34 325.685 34C326.465 34 327.345 34.16 327.985 34.56C328.665 34.98 328.845 35.66 328.665 36.42C328.485 37.02 327.965 37.56 327.305 37.56C326.985 37.56 326.825 37.52 326.485 37.46C326.245 37.42 326.105 37.4 325.925 37.4C325.525 37.4 325.325 37.6 325.325 38.22V39.12H326.465C327.745 39.12 328.225 39.96 328.225 40.8C328.225 41.66 327.725 42.44 326.465 42.44H325.325V51.86Z" fill="black"/>
<path d="M310.408 51.8599H306.348V40.3999C306.348 39.0799 307.308 38.3999 308.368 38.3999C309.148 38.3999 309.888 38.7799 310.228 39.4999C311.008 38.7799 312.088 38.3999 313.148 38.3999C315.688 38.3999 317.708 39.6599 317.708 43.8799V51.8599H313.588V43.6399C313.588 42.2799 312.688 41.8199 312.008 41.8199C311.328 41.8199 310.408 42.2799 310.408 43.6399V51.8599Z" fill="black"/>
<path d="M300 35.84C300 34.52 300.96 34 302.08 34C303.2 34 304.16 34.52 304.16 35.84C304.16 37.16 303.2 37.68 302.08 37.68C300.96 37.68 300 37.16 300 35.84ZM300.02 51.86V40.54C300.02 39.16 300.96 38.54 302.08 38.54C303.2 38.54 304.14 39.16 304.14 40.54V51.86H300.02Z" fill="black"/>
<path d="M370.769 150.86V135C370.769 133.62 371.709 133 372.829 133C373.949 133 374.889 133.62 374.889 135V150.86H370.769Z" fill="black"/>
<path d="M357.266 145.64V142.94C357.266 138.64 360.346 137.4 363.066 137.4C365.726 137.4 368.866 138.64 368.866 142.94V145.64C368.866 149.94 365.726 151.18 363.066 151.18C360.406 151.18 357.266 149.94 357.266 145.64ZM364.846 145.82V142.76C364.846 141.34 363.926 140.78 363.066 140.78C362.206 140.78 361.286 141.34 361.286 142.76V145.82C361.286 147.24 362.206 147.8 363.066 147.8C363.926 147.8 364.846 147.24 364.846 145.82Z" fill="black"/>
<path d="M351.958 150.86H347.898V139.4C347.898 138.08 348.858 137.4 349.918 137.4C350.698 137.4 351.438 137.78 351.778 138.52C352.518 137.82 353.458 137.4 354.438 137.4C354.738 137.4 355.078 137.44 355.378 137.56C356.138 137.88 356.578 138.68 356.438 139.62C356.298 140.56 355.578 141.16 354.698 141.16C354.418 141.16 354.058 141.14 353.778 141.16C352.678 141.24 352.018 141.86 351.958 142.86V150.86Z" fill="black"/>
<path d="M339.806 147.08V141.44H339.146C337.886 141.44 337.386 140.64 337.386 139.8C337.386 138.98 337.866 138.12 339.146 138.12H339.806V135.7C339.806 134.34 340.786 133.72 341.786 133.72C342.786 133.72 343.766 134.34 343.766 135.7V138.12H344.946C346.226 138.12 346.706 138.98 346.706 139.8C346.706 140.64 346.206 141.44 344.946 141.44H343.766V147C343.766 147.6 344.066 147.74 344.406 147.76C344.706 147.78 344.886 147.68 345.286 147.68C345.946 147.68 346.506 148.12 346.646 148.78C346.826 149.6 346.486 150.32 345.926 150.68C345.466 150.98 344.686 151.18 344.006 151.18C341.346 151.18 339.806 150.1 339.806 147.08Z" fill="black"/>
<path d="M329.38 150.86H325.32V139.4C325.32 138.08 326.28 137.4 327.34 137.4C328.12 137.4 328.86 137.78 329.2 138.5C329.98 137.78 331.06 137.4 332.12 137.4C334.66 137.4 336.68 138.66 336.68 142.88V150.86H332.56V142.64C332.56 141.28 331.66 140.82 330.98 140.82C330.3 140.82 329.38 141.28 329.38 142.64V150.86Z" fill="black"/>
<path d="M311.816 145.64V142.94C311.816 138.64 314.896 137.4 317.616 137.4C320.276 137.4 323.416 138.64 323.416 142.94V145.64C323.416 149.94 320.276 151.18 317.616 151.18C314.956 151.18 311.816 149.94 311.816 145.64ZM319.396 145.82V142.76C319.396 141.34 318.476 140.78 317.616 140.78C316.756 140.78 315.836 141.34 315.836 142.76V145.82C315.836 147.24 316.756 147.8 317.616 147.8C318.476 147.8 319.396 147.24 319.396 145.82Z" fill="black"/>
<path d="M304.12 142.92V145.66C304.12 147.36 305.16 147.76 306.08 147.76C306.74 147.76 307.16 147.68 307.68 147.44C307.96 147.3 308.28 147.1 308.66 147.04C309.24 146.94 309.84 147.14 310.18 147.7C310.74 148.62 310.24 149.72 309.3 150.3C308.56 150.76 307.42 151.18 306.08 151.18C303.18 151.18 300 149.94 300 145.64V142.94C300 138.74 303.18 137.4 305.94 137.4C307.36 137.4 308.42 137.78 309.06 138.18C310 138.76 310.5 139.8 309.98 140.7C309.6 141.36 309 141.5 308.36 141.42C308 141.38 307.7 141.22 307.4 141.08C307 140.9 306.7 140.82 306.08 140.82C305.2 140.82 304.12 141.22 304.12 142.92Z" fill="black"/>
<path d="M195.784 187.834C195.784 192.712 192.027 196.667 187.392 196.667C182.757 196.667 179 192.712 179 187.834C179 182.955 182.757 179 187.392 179C192.027 179 195.784 182.955 195.784 187.834Z" fill="#E90C01"/>
<path d="M194.017 187.834C194.017 183.844 190.967 180.767 187.392 180.767C183.817 180.767 180.767 183.844 180.767 187.834C180.767 191.823 183.817 194.9 187.392 194.9V196.667C182.757 196.667 179 192.712 179 187.834C179 182.955 182.757 179 187.392 179C192.027 179 195.784 182.955 195.784 187.834C195.784 192.712 192.027 196.667 187.392 196.667V194.9C190.967 194.9 194.017 191.823 194.017 187.834Z" fill="#111111"/>
<path d="M190 191.5H186.099C185.434 191.5 185 191.115 185 190.443V190.344C185 189.144 185.355 188.687 186.099 187.997L187.58 186.618C187.934 186.295 188.121 186.053 188.121 185.713C188.121 185.319 187.784 185.13 187.465 185.13C187.03 185.13 186.817 185.319 186.64 185.516C186.516 185.659 186.348 185.829 186.179 185.874C185.94 185.946 185.612 185.919 185.355 185.704C185.035 185.444 185.035 184.96 185.239 184.62C185.691 183.876 186.507 183.5 187.606 183.5C188.856 183.5 189.929 184.199 189.929 185.534C189.929 186.537 189.379 187.11 188.644 187.836L187.509 188.947C187.128 189.323 186.871 189.422 186.871 189.753V189.816C186.871 189.905 186.906 189.95 187.004 189.95H190V191.5Z" fill="white"/>
<path d="M96.7837 120.834C96.7837 125.712 93.0266 129.667 88.3919 129.667C83.7572 129.667 80 125.712 80 120.834C80 115.955 83.7572 112 88.3919 112C93.0266 112 96.7837 115.955 96.7837 120.834Z" fill="#E90C01"/>
<path d="M95.017 120.834C95.017 116.844 91.9665 113.767 88.3919 113.767C84.8172 113.767 81.7667 116.844 81.7667 120.834C81.7667 124.823 84.8172 127.9 88.3919 127.9V129.667C83.7572 129.667 80 125.712 80 120.834C80 115.955 83.7572 112 88.3919 112C93.0266 112 96.7837 115.955 96.7837 120.834C96.7837 125.712 93.0266 129.667 88.3919 129.667V127.9C91.9665 127.9 95.017 124.823 95.017 120.834Z" fill="#111111"/>
<path d="M87.8405 116.519C87.9956 116.06 88.316 115.825 88.7501 115.825C89.3496 115.825 89.7837 116.217 89.7837 116.956V125.825H87.7165V119.297H86.8483C86.2695 119.297 85.7837 118.972 85.7837 118.356C85.7837 117.841 86.1144 117.505 86.5279 117.438C87.086 117.359 87.6442 117.113 87.8405 116.519Z" fill="white"/>
<path d="M0 161V161C45.8396 161 83 198.16 83 244V244H20C8.95431 244 0 235.046 0 224V161Z" fill="#2C2D35"/>
<path d="M18.3335 223.167C18.3335 218.841 21.8406 215.333 26.1668 215.333H34.0002V223.167C34.0002 227.493 30.493 231 26.1668 231C21.8406 231 18.3335 227.493 18.3335 223.167Z" fill="#24CB71"/>
<path d="M34 184V199.667H41.8333C46.1595 199.667 49.6667 196.16 49.6667 191.833C49.6667 187.507 46.1595 184 41.8333 184H34Z" fill="#FF7237"/>
<path d="M41.7679 215.333C46.0941 215.333 49.6012 211.826 49.6012 207.5C49.6012 203.174 46.0941 199.667 41.7679 199.667C37.4417 199.667 33.9346 203.174 33.9346 207.5C33.9346 211.826 37.4417 215.333 41.7679 215.333Z" fill="#00B6FF"/>
<path d="M18.3335 191.833C18.3335 196.16 21.8406 199.667 26.1668 199.667H34.0002V184H26.1668C21.8406 184 18.3335 187.507 18.3335 191.833Z" fill="#FF3737"/>
<path d="M18.3335 207.5C18.3335 211.826 21.8406 215.333 26.1668 215.333H34.0002V199.667H26.1668C21.8406 199.667 18.3335 203.174 18.3335 207.5Z" fill="#874FFF"/>
</svg>
