<svg width="410" height="244" viewBox="0 0 410 244" fill="none" xmlns="http://www.w3.org/2000/svg">
<rect x="2" y="2" width="406" height="240" rx="18" fill="white" stroke="black" stroke-width="4"/>
<path d="M185.444 43H125.556C120.837 43 117 46.887 117 51.6667V112.333C117 117.113 120.837 121 125.556 121H159.778C160.912 121 162 120.543 162.802 119.73L192.747 89.397C193.098 89.0274 193.382 88.5975 193.585 88.1273C193.645 87.9973 193.679 87.863 193.726 87.7243C193.848 87.3616 193.921 86.9842 193.944 86.602C193.953 86.511 194 86.4243 194 86.3333V51.6667C194 46.887 190.163 43 185.444 43ZM125.556 51.6667H185.444V82H159.778C158.643 82 157.555 82.4565 156.753 83.2692C155.951 84.0819 155.5 85.1841 155.5 86.3333V112.333H125.556V51.6667ZM164.056 106.206V90.6667H179.396L164.056 106.206Z" fill="black"/>
<path d="M125.556 51.6667H185.444V82H159.778C158.643 82 157.555 82.4565 156.753 83.2692C155.951 84.0819 155.5 85.1841 155.5 86.3333V112.333H125.556V51.6667Z" fill="#FFCE2E"/>
<path d="M164.056 106.206V90.6667H179.396L164.056 106.206Z" fill="#E59B13"/>
<path d="M0 161V161C45.8396 161 83 198.16 83 244V244H20C8.95431 244 0 235.046 0 224V161Z" fill="black"/>
<ellipse cx="274.397" cy="168.679" rx="12.2931" ry="12.3214" fill="#FFCE2E"/>
<path d="M251.232 157.465C261.675 156.91 272.46 162.717 276.661 175.54C280.312 176.287 283.66 178.162 286.214 180.934C289.254 184.234 290.949 188.558 290.965 193.052C290.982 197.546 289.318 201.882 286.303 205.203C283.477 208.317 279.654 210.328 275.514 210.895L274.679 210.988C274.59 210.996 274.501 211 274.412 211H232.964C232.828 211 232.692 210.991 232.557 210.973C221.011 209.4 214.414 200.101 214.019 190.713C213.821 186.009 215.167 181.197 218.268 177.262C221.143 173.613 225.411 170.873 230.994 169.613C232.972 166.289 235.695 163.465 238.955 161.373C242.635 159.011 246.869 157.664 251.232 157.465ZM251.535 163.565H251.509C248.212 163.716 245.012 164.734 242.232 166.519C239.451 168.304 237.185 170.794 235.665 173.736C235.227 174.584 234.419 175.179 233.481 175.341C228.502 176.2 225.137 178.393 223.04 181.054C220.925 183.739 219.96 187.08 220.101 190.454C220.384 197.174 225.002 203.686 233.187 204.89H274.251C277.149 204.603 279.841 203.252 281.805 201.089C283.793 198.899 284.891 196.037 284.88 193.073C284.869 190.11 283.752 187.259 281.748 185.084C279.744 182.908 276.997 181.567 274.055 181.325C272.768 181.219 271.688 180.309 271.36 179.055C268.428 167.815 259.79 163.12 251.535 163.565Z" fill="black"/>
<path d="M251.535 163.565H251.509C248.212 163.716 245.012 164.734 242.232 166.519C239.451 168.304 237.185 170.794 235.665 173.736C235.227 174.584 234.419 175.179 233.481 175.341C228.502 176.2 225.137 178.393 223.04 181.054C220.925 183.739 219.96 187.08 220.101 190.454C220.384 197.174 225.002 203.686 233.187 204.89H274.251C277.149 204.603 279.841 203.252 281.805 201.089C283.793 198.899 284.891 196.037 284.88 193.073C284.869 190.11 283.752 187.259 281.748 185.084C279.744 182.908 276.997 181.567 274.055 181.325C272.768 181.219 271.688 180.309 271.36 179.055C268.428 167.815 259.79 163.12 251.535 163.565Z" fill="#58ADFE"/>
<path d="M287.407 181.154C288.537 180.038 290.329 179.965 291.546 180.937L291.782 181.145L297.259 186.513L297.474 186.744C298.467 187.938 298.399 189.703 297.268 190.819C296.138 191.935 294.346 192.008 293.129 191.036L292.893 190.828L287.416 185.457L287.201 185.229C286.208 184.035 286.276 182.27 287.407 181.154ZM282.615 182.904C281.12 183.717 279.236 183.186 278.409 181.715C277.583 180.244 278.126 178.391 279.621 177.578L282.615 182.904ZM271.642 152.3C274.225 151.855 276.879 152.013 279.388 152.763C281.897 153.513 284.192 154.835 286.086 156.618C287.981 158.402 289.423 160.599 290.295 163.032C291.168 165.465 291.446 168.067 291.108 170.626C290.77 173.185 289.825 175.629 288.349 177.762C286.874 179.895 284.91 181.656 282.615 182.904L279.621 177.578C281.067 176.792 282.305 175.682 283.234 174.338C284.164 172.994 284.759 171.454 284.972 169.841C285.184 168.23 285.01 166.592 284.461 165.059C283.911 163.526 283.002 162.141 281.808 161.017C280.614 159.893 279.169 159.061 277.588 158.589C276.007 158.116 274.335 158.014 272.708 158.294C271.08 158.575 269.542 159.23 268.219 160.203C266.895 161.175 265.82 162.441 265.085 163.897L259.544 161.189C260.711 158.878 262.413 156.869 264.514 155.325C266.616 153.781 269.058 152.744 271.642 152.3ZM303.906 165.428C305.615 165.428 307 166.79 307 168.471C307 170.152 305.615 171.515 303.906 171.515H296.172C294.463 171.515 293.078 170.152 293.078 168.471C293.078 166.79 294.463 165.428 296.172 165.428H303.906ZM265.085 163.897C264.325 165.402 262.47 166.014 260.94 165.267C259.41 164.52 258.785 162.695 259.544 161.189L265.085 163.897ZM293.984 146.061C295.192 144.873 297.151 144.873 298.359 146.061C299.567 147.249 299.567 149.179 298.359 150.368L292.881 155.756C291.673 156.945 289.715 156.944 288.507 155.756C287.298 154.568 287.298 152.641 288.507 151.452L293.984 146.061ZM251.251 145.556C252.384 144.442 254.175 144.373 255.39 145.348L255.626 145.556L261.103 150.947L261.318 151.176C262.309 152.371 262.236 154.137 261.103 155.251C259.971 156.364 258.179 156.434 256.964 155.459L256.729 155.251L251.251 149.859L251.039 149.631C250.047 148.435 250.118 146.67 251.251 145.556ZM271.763 146.652V139.044C271.763 137.363 273.148 136 274.856 136C276.564 136.001 277.95 137.363 277.95 139.044V146.652C277.95 148.333 276.564 149.695 274.856 149.696C273.148 149.696 271.763 148.333 271.763 146.652Z" fill="black"/>
<path d="M14.3971 187.009L39.8357 185.13C42.9606 184.862 43.7633 185.042 45.7282 186.471L53.8485 192.191C55.1877 193.175 55.6337 193.443 55.6337 194.514V225.888C55.6337 227.855 54.9197 229.018 52.4201 229.195L22.8792 230.984C21.0035 231.073 20.1103 230.805 19.1278 229.553L13.148 221.777C12.0754 220.346 11.6309 219.275 11.6309 218.023V190.135C11.6309 188.527 12.3448 187.187 14.3971 187.009Z" fill="white"/>
<path fill-rule="evenodd" clip-rule="evenodd" d="M39.8357 185.13L14.3971 187.009C12.3448 187.187 11.6309 188.528 11.6309 190.135V218.023C11.6309 219.275 12.0754 220.346 13.148 221.777L19.1278 229.553C20.1103 230.805 21.0035 231.073 22.8792 230.984L52.4206 229.196C54.9183 229.018 55.6341 227.855 55.6341 225.889V194.515C55.6341 193.499 55.2328 193.206 54.0513 192.339L45.7282 186.471C43.7637 185.042 42.9606 184.862 39.8357 185.13V185.13ZM23.5472 194.001C21.135 194.164 20.5879 194.2 19.2179 193.087L15.7349 190.316C15.3809 189.958 15.5589 189.51 16.4507 189.421L40.9055 187.634C42.9592 187.455 44.0285 188.171 44.8317 188.796L49.0259 191.835C49.2052 191.925 49.6511 192.46 49.1146 192.46L23.8599 193.98L23.5472 194.001ZM20.735 225.621V198.987C20.735 197.824 21.0923 197.287 22.1616 197.197L51.1683 195.499C52.1521 195.41 52.5967 196.035 52.5967 197.197V223.653C52.5967 224.816 52.4174 225.8 50.8115 225.889L23.0539 227.498C21.4481 227.587 20.7355 227.052 20.7355 225.621H20.735ZM48.1354 200.415C48.3133 201.219 48.1354 202.024 47.3308 202.116L45.993 202.381V222.045C44.8312 222.671 43.7619 223.028 42.8682 223.028C41.4398 223.028 41.083 222.58 40.0132 221.241L31.2644 207.476V220.793L34.032 221.42C34.032 221.42 34.032 223.029 31.7991 223.029L25.6432 223.386C25.4639 223.028 25.6432 222.135 26.2671 221.957L27.8748 221.511V203.903L25.6436 203.722C25.4644 202.918 25.9103 201.756 27.1608 201.666L33.7658 201.221L42.8686 215.164V202.829L40.5483 202.562C40.369 201.577 41.083 200.861 41.9749 200.774L48.1354 200.415Z" fill="black"/>
<path fill-rule="evenodd" clip-rule="evenodd" d="M222.667 43C220.368 43 218.164 43.9131 216.538 45.5384C214.913 47.1637 214 49.3681 214 51.6667V112.333C214 114.632 214.913 116.836 216.538 118.462C218.164 120.087 220.368 121 222.667 121H283.333C285.632 121 287.836 120.087 289.462 118.462C291.087 116.836 292 114.632 292 112.333V51.6667C292 49.3681 291.087 47.1637 289.462 45.5384C287.836 43.9131 285.632 43 283.333 43H222.667ZM274.45 72.4493C275.263 71.6368 275.72 70.5345 275.721 69.385C275.721 68.2355 275.265 67.1329 274.452 66.3198C273.64 65.5067 272.537 65.0497 271.388 65.0493C270.238 65.0489 269.136 65.5051 268.323 66.3177L246.873 87.7677L237.682 78.5767C237.279 78.1741 236.802 77.8546 236.276 77.6366C235.75 77.4186 235.187 77.3063 234.617 77.3061C233.468 77.3057 232.365 77.762 231.552 78.5745C230.739 79.387 230.282 80.4893 230.282 81.6388C230.281 82.7883 230.737 83.8909 231.55 84.704L243.501 96.6553C243.944 97.0982 244.47 97.4495 245.048 97.6892C245.626 97.9289 246.247 98.0522 246.873 98.0522C247.499 98.0522 248.119 97.9289 248.697 97.6892C249.276 97.4495 249.801 97.0982 250.244 96.6553L274.45 72.4493Z" fill="#2EB966"/>
<path d="M274.45 72.4493C275.263 71.6368 275.72 70.5345 275.721 69.385C275.721 68.2355 275.265 67.1329 274.452 66.3198C273.64 65.5067 272.537 65.0497 271.388 65.0493C270.238 65.0489 269.136 65.5051 268.323 66.3177L246.873 87.7677L237.682 78.5767C237.279 78.1741 236.802 77.8546 236.276 77.6366C235.75 77.4186 235.187 77.3063 234.617 77.3061C233.468 77.3057 232.365 77.762 231.552 78.5745C230.739 79.387 230.282 80.4893 230.282 81.6388C230.281 82.7883 230.737 83.8909 231.55 84.704L243.501 96.6553C243.944 97.0982 244.47 97.4495 245.048 97.6892C245.626 97.9289 246.247 98.0522 246.873 98.0522C247.499 98.0522 248.119 97.9289 248.697 97.6892C249.276 97.4495 249.801 97.0982 250.244 96.6553L274.45 72.4493Z" fill="black"/>
<path d="M283.648 112.333V121H222.981V112.333H283.648ZM283.648 51.6667H222.981V121L222.097 120.953C218.017 120.54 214.775 117.298 214.361 113.218L214.314 112.333V51.6667C214.314 47.1788 217.726 43.4897 222.097 43.0465L222.981 43H283.648L284.532 43.0465C288.903 43.4897 292.314 47.1788 292.314 51.6667V112.333L292.268 113.218C291.854 117.298 288.612 120.54 284.532 120.953L283.648 121V51.6667Z" fill="black"/>
<path d="M194.135 133.687H184.109C183.867 133.687 183.635 133.591 183.464 133.421C183.293 133.25 183.197 133.018 183.197 132.776V126.396C183.197 125.429 182.813 124.502 182.129 123.818C181.446 123.134 180.518 122.75 179.551 122.75C178.584 122.75 177.657 123.134 176.973 123.818C176.29 124.502 175.906 125.429 175.906 126.396V143.714C175.906 144.439 175.618 145.134 175.105 145.647C174.592 146.16 173.896 146.448 173.171 146.448C172.446 146.448 171.751 146.16 171.238 145.647C170.725 145.134 170.437 144.439 170.437 143.714V135.51C170.437 135.027 170.245 134.563 169.903 134.221C169.561 133.88 169.097 133.687 168.614 133.687H145.827C145.586 133.687 145.354 133.591 145.183 133.421C145.012 133.25 144.916 133.018 144.916 132.776V126.396C144.916 125.429 144.532 124.502 143.848 123.818C143.164 123.134 142.237 122.75 141.27 122.75C140.303 122.75 139.376 123.134 138.692 123.818C138.008 124.502 137.624 125.429 137.624 126.396V143.714C137.624 144.439 137.336 145.134 136.823 145.647C136.311 146.16 135.615 146.448 134.89 146.448C134.165 146.448 133.469 146.16 132.956 145.647C132.444 145.134 132.156 144.439 132.156 143.714V135.51C132.156 135.027 131.964 134.563 131.622 134.221C131.28 133.88 130.816 133.687 130.333 133.687H124.864C122.93 133.687 121.075 134.456 119.708 135.823C118.34 137.191 117.572 139.045 117.572 140.979V202.958C117.572 204.892 118.34 206.747 119.708 208.114C121.075 209.482 122.93 210.25 124.864 210.25H194.135C196.069 210.25 197.923 209.482 199.291 208.114C200.658 206.747 201.426 204.892 201.426 202.958V140.979C201.426 139.045 200.658 137.191 199.291 135.823C197.923 134.456 196.069 133.687 194.135 133.687ZM194.135 201.135C194.135 201.619 193.943 202.083 193.601 202.424C193.259 202.766 192.795 202.958 192.312 202.958H126.687C126.203 202.958 125.74 202.766 125.398 202.424C125.056 202.083 124.864 201.619 124.864 201.135V157.385C124.864 156.902 125.056 156.438 125.398 156.096C125.74 155.755 126.203 155.562 126.687 155.562H192.312C192.795 155.562 193.259 155.755 193.601 156.096C193.943 156.438 194.135 156.902 194.135 157.385V201.135Z" fill="black"/>
<path d="M160.047 163.401C159.117 162.956 158.08 162.782 157.055 162.898C156.03 163.014 155.058 163.416 154.25 164.057L148.089 168.979C147.369 169.594 146.916 170.466 146.827 171.409C146.738 172.352 147.019 173.292 147.611 174.032C148.204 174.771 149.06 175.25 150 175.369C150.94 175.488 151.889 175.236 152.646 174.667L155.855 172.115V192.021C155.855 192.988 156.239 193.915 156.922 194.599C157.606 195.283 158.533 195.667 159.5 195.667C160.467 195.667 161.395 195.283 162.078 194.599C162.762 193.915 163.146 192.988 163.146 192.021V168.323C163.145 167.294 162.853 166.287 162.305 165.416C161.757 164.545 160.974 163.847 160.047 163.401Z" fill="black"/>
</svg>
