<svg width="410" height="244" viewBox="0 0 410 244" fill="none" xmlns="http://www.w3.org/2000/svg">
<rect x="2" y="2" width="406" height="240" rx="18" fill="white" stroke="black" stroke-width="4"/>
<path d="M141.6 48.175L148.368 54.943ZM163.632 54.943L170.4 48.175ZM145.2 66.643V63.043C145.134 61.5841 145.365 60.1271 145.879 58.7599C146.392 57.3928 147.177 56.1438 148.186 55.0883C149.196 54.0328 150.408 53.1928 151.751 52.6189C153.094 52.045 154.539 51.7491 156 51.7491C157.46 51.7491 158.905 52.045 160.248 52.6189C161.591 53.1928 162.804 54.0328 163.813 55.0883C164.822 56.1438 165.607 57.3928 166.121 58.7599C166.634 60.1271 166.865 61.5841 166.8 63.043V66.643" fill="#FF432E"/>
<path d="M141.6 48.175L148.368 54.943M163.632 54.943L170.4 48.175M145.2 66.643V63.043C145.134 61.5841 145.365 60.1271 145.879 58.7599C146.392 57.3928 147.177 56.1438 148.186 55.0883C149.196 54.0328 150.408 53.1928 151.751 52.6189C153.094 52.045 154.539 51.7491 156 51.7491C157.46 51.7491 158.905 52.045 160.248 52.6189C161.591 53.1928 162.804 54.0328 163.813 55.0883C164.822 56.1438 165.607 57.3928 166.121 58.7599C166.634 60.1271 166.865 61.5841 166.8 63.043V66.643" stroke="black" stroke-width="7" stroke-linecap="round" stroke-linejoin="round"/>
<path d="M156 112.975C144.12 112.975 134.4 103.255 134.4 91.375V80.575C134.4 76.7559 135.918 73.0932 138.618 70.3927C141.319 67.6922 144.981 66.175 148.8 66.175H163.2C167.02 66.175 170.682 67.6922 173.383 70.3927C176.083 73.0932 177.6 76.7559 177.6 80.575V91.375C177.6 103.255 167.88 112.975 156 112.975Z" fill="#FF432E"/>
<path d="M156 112.975C144.12 112.975 134.4 103.255 134.4 91.375V80.575C134.4 76.7559 135.918 73.0932 138.618 70.3927C141.319 67.6922 144.981 66.175 148.8 66.175H163.2C167.02 66.175 170.682 67.6922 173.383 70.3927C176.083 73.0932 177.6 76.7559 177.6 80.575V91.375C177.6 103.255 167.88 112.975 156 112.975ZM156 112.975V80.575" stroke="black" stroke-width="7" stroke-linecap="round" stroke-linejoin="round"/>
<path d="M136.308 73.3751C129.36 72.6551 123.6 66.5351 123.6 58.9751ZM134.4 87.7751H120ZM123.6 116.575C123.6 109.015 129.72 102.535 137.28 102.175ZM188.292 58.9751C188.292 66.5351 182.532 72.6551 175.692 73.3751ZM192 87.7751H177.6ZM174.72 102.175C182.28 102.535 188.4 109.015 188.4 116.575Z" fill="#FF432E"/>
<path d="M136.308 73.3751C129.36 72.6551 123.6 66.5351 123.6 58.9751M134.4 87.7751H120M123.6 116.575C123.6 109.015 129.72 102.535 137.28 102.175M188.292 58.9751C188.292 66.5351 182.532 72.6551 175.692 73.3751M192 87.7751H177.6M174.72 102.175C182.28 102.535 188.4 109.015 188.4 116.575" stroke="black" stroke-width="7" stroke-linecap="round" stroke-linejoin="round"/>
<path d="M0 161V161C45.8396 161 83 198.16 83 244V244H20C8.95431 244 0 235.046 0 224V161Z" fill="black"/>
<path d="M14.3971 187.009L39.8357 185.13C42.9606 184.862 43.7633 185.042 45.7282 186.471L53.8485 192.191C55.1877 193.175 55.6337 193.443 55.6337 194.514V225.888C55.6337 227.855 54.9197 229.018 52.4201 229.195L22.8792 230.984C21.0035 231.073 20.1103 230.805 19.1278 229.553L13.148 221.777C12.0754 220.346 11.6309 219.275 11.6309 218.023V190.135C11.6309 188.527 12.3448 187.187 14.3971 187.009Z" fill="white"/>
<path fill-rule="evenodd" clip-rule="evenodd" d="M39.8357 185.13L14.3971 187.009C12.3448 187.187 11.6309 188.528 11.6309 190.135V218.023C11.6309 219.275 12.0754 220.346 13.148 221.777L19.1278 229.553C20.1103 230.805 21.0035 231.073 22.8792 230.984L52.4206 229.196C54.9183 229.018 55.6341 227.855 55.6341 225.889V194.515C55.6341 193.499 55.2328 193.206 54.0513 192.339L45.7282 186.471C43.7637 185.042 42.9606 184.862 39.8357 185.13V185.13ZM23.5472 194.001C21.135 194.164 20.5879 194.2 19.2179 193.087L15.7349 190.316C15.3809 189.958 15.5589 189.51 16.4507 189.421L40.9055 187.634C42.9592 187.455 44.0285 188.171 44.8317 188.796L49.0259 191.835C49.2052 191.925 49.6511 192.46 49.1146 192.46L23.8599 193.98L23.5472 194.001ZM20.735 225.621V198.987C20.735 197.824 21.0923 197.287 22.1616 197.197L51.1683 195.499C52.1521 195.41 52.5967 196.035 52.5967 197.197V223.653C52.5967 224.816 52.4174 225.8 50.8115 225.889L23.0539 227.498C21.4481 227.587 20.7355 227.052 20.7355 225.621H20.735ZM48.1354 200.415C48.3133 201.219 48.1354 202.024 47.3308 202.116L45.993 202.381V222.045C44.8312 222.671 43.7619 223.028 42.8682 223.028C41.4398 223.028 41.083 222.58 40.0132 221.241L31.2644 207.476V220.793L34.032 221.42C34.032 221.42 34.032 223.029 31.7991 223.029L25.6432 223.386C25.4639 223.028 25.6432 222.135 26.2671 221.957L27.8748 221.511V203.903L25.6436 203.722C25.4644 202.918 25.9103 201.756 27.1608 201.666L33.7658 201.221L42.8686 215.164V202.829L40.5483 202.562C40.369 201.577 41.083 200.861 41.9749 200.774L48.1354 200.415Z" fill="black"/>
<path fill-rule="evenodd" clip-rule="evenodd" d="M222.667 43C220.368 43 218.164 43.9131 216.538 45.5384C214.913 47.1637 214 49.3681 214 51.6667V112.333C214 114.632 214.913 116.836 216.538 118.462C218.164 120.087 220.368 121 222.667 121H283.333C285.632 121 287.836 120.087 289.462 118.462C291.087 116.836 292 114.632 292 112.333V51.6667C292 49.3681 291.087 47.1637 289.462 45.5384C287.836 43.9131 285.632 43 283.333 43H222.667ZM274.45 72.4493C275.263 71.6368 275.72 70.5345 275.721 69.385C275.721 68.2355 275.265 67.1329 274.452 66.3198C273.64 65.5067 272.537 65.0497 271.388 65.0493C270.238 65.0489 269.136 65.5051 268.323 66.3177L246.873 87.7677L237.682 78.5767C237.279 78.1741 236.802 77.8546 236.276 77.6366C235.75 77.4186 235.187 77.3063 234.617 77.3061C233.468 77.3057 232.365 77.762 231.552 78.5745C230.739 79.387 230.282 80.4893 230.282 81.6388C230.281 82.7883 230.737 83.8909 231.55 84.704L243.501 96.6553C243.944 97.0982 244.47 97.4495 245.048 97.6892C245.626 97.9289 246.247 98.0522 246.873 98.0522C247.499 98.0522 248.119 97.9289 248.697 97.6892C249.276 97.4495 249.801 97.0982 250.244 96.6553L274.45 72.4493Z" fill="#2EB966"/>
<path d="M274.45 72.4493C275.263 71.6368 275.72 70.5345 275.721 69.385C275.721 68.2355 275.265 67.1329 274.452 66.3198C273.64 65.5067 272.537 65.0497 271.388 65.0493C270.238 65.0489 269.136 65.5051 268.323 66.3177L246.873 87.7677L237.682 78.5767C237.279 78.1741 236.802 77.8546 236.276 77.6366C235.75 77.4186 235.187 77.3063 234.617 77.3061C233.468 77.3057 232.365 77.762 231.552 78.5745C230.739 79.387 230.282 80.4893 230.282 81.6388C230.281 82.7883 230.737 83.8909 231.55 84.704L243.501 96.6553C243.944 97.0982 244.47 97.4495 245.048 97.6892C245.626 97.9289 246.247 98.0522 246.873 98.0522C247.499 98.0522 248.119 97.9289 248.697 97.6892C249.276 97.4495 249.801 97.0982 250.244 96.6553L274.45 72.4493Z" fill="black"/>
<path d="M283.648 112.333V121H222.981V112.333H283.648ZM283.648 51.6667H222.981V121L222.097 120.953C218.017 120.54 214.775 117.298 214.361 113.218L214.314 112.333V51.6667C214.314 47.1788 217.726 43.4897 222.097 43.0465L222.981 43H283.648L284.532 43.0465C288.903 43.4897 292.314 47.1788 292.314 51.6667V112.333L292.268 113.218C291.854 117.298 288.612 120.54 284.532 120.953L283.648 121V51.6667Z" fill="black"/>
<path d="M194.135 133.687H184.109C183.867 133.687 183.635 133.591 183.464 133.421C183.293 133.25 183.197 133.018 183.197 132.776V126.396C183.197 125.429 182.813 124.502 182.129 123.818C181.446 123.134 180.518 122.75 179.551 122.75C178.584 122.75 177.657 123.134 176.973 123.818C176.29 124.502 175.906 125.429 175.906 126.396V143.714C175.906 144.439 175.618 145.134 175.105 145.647C174.592 146.16 173.896 146.448 173.171 146.448C172.446 146.448 171.751 146.16 171.238 145.647C170.725 145.134 170.437 144.439 170.437 143.714V135.51C170.437 135.027 170.245 134.563 169.903 134.221C169.561 133.88 169.097 133.687 168.614 133.687H145.827C145.586 133.687 145.354 133.591 145.183 133.421C145.012 133.25 144.916 133.018 144.916 132.776V126.396C144.916 125.429 144.532 124.502 143.848 123.818C143.164 123.134 142.237 122.75 141.27 122.75C140.303 122.75 139.376 123.134 138.692 123.818C138.008 124.502 137.624 125.429 137.624 126.396V143.714C137.624 144.439 137.336 145.134 136.823 145.647C136.311 146.16 135.615 146.448 134.89 146.448C134.165 146.448 133.469 146.16 132.956 145.647C132.444 145.134 132.156 144.439 132.156 143.714V135.51C132.156 135.027 131.964 134.563 131.622 134.221C131.28 133.88 130.816 133.687 130.333 133.687H124.864C122.93 133.687 121.075 134.456 119.708 135.823C118.34 137.191 117.572 139.045 117.572 140.979V202.958C117.572 204.892 118.34 206.747 119.708 208.114C121.075 209.482 122.93 210.25 124.864 210.25H194.135C196.069 210.25 197.923 209.482 199.291 208.114C200.658 206.747 201.426 204.892 201.426 202.958V140.979C201.426 139.045 200.658 137.191 199.291 135.823C197.923 134.456 196.069 133.687 194.135 133.687ZM194.135 201.135C194.135 201.619 193.943 202.083 193.601 202.424C193.259 202.766 192.795 202.958 192.312 202.958H126.687C126.203 202.958 125.74 202.766 125.398 202.424C125.056 202.083 124.864 201.619 124.864 201.135V157.385C124.864 156.902 125.056 156.438 125.398 156.096C125.74 155.755 126.203 155.562 126.687 155.562H192.312C192.795 155.562 193.259 155.755 193.601 156.096C193.943 156.438 194.135 156.902 194.135 157.385V201.135Z" fill="black"/>
<path d="M160.047 163.401C159.117 162.956 158.08 162.782 157.055 162.898C156.03 163.014 155.058 163.416 154.25 164.057L148.089 168.979C147.369 169.594 146.916 170.466 146.827 171.409C146.738 172.352 147.019 173.292 147.611 174.032C148.204 174.771 149.06 175.25 150 175.369C150.94 175.488 151.889 175.236 152.646 174.667L155.855 172.115V192.021C155.855 192.988 156.239 193.915 156.922 194.599C157.606 195.283 158.533 195.667 159.5 195.667C160.467 195.667 161.395 195.283 162.078 194.599C162.762 193.915 163.146 192.988 163.146 192.021V168.323C163.145 167.294 162.853 166.287 162.305 165.416C161.757 164.545 160.974 163.847 160.047 163.401Z" fill="black"/>
<path d="M290 172.75C290 193.323 273.323 210 252.75 210C232.177 210 215.5 193.323 215.5 172.75C215.5 152.177 232.177 135.5 252.75 135.5C273.323 135.5 290 152.177 290 172.75Z" fill="#FFCE2E" stroke="black" stroke-width="7" stroke-linecap="round" stroke-linejoin="round"/>
<path d="M252.75 195.1C265.094 195.1 275.1 185.093 275.1 172.75C275.1 160.406 265.094 150.4 252.75 150.4C240.407 150.4 230.4 160.406 230.4 172.75C230.4 185.093 240.407 195.1 252.75 195.1Z" stroke="black" stroke-width="7" stroke-linecap="round" stroke-linejoin="round"/>
<path d="M252.75 180.2C256.864 180.2 260.2 176.865 260.2 172.75C260.2 168.636 256.864 165.3 252.75 165.3C248.635 165.3 245.3 168.636 245.3 172.75C245.3 176.865 248.635 180.2 252.75 180.2Z" stroke="black" stroke-width="7" stroke-linecap="round" stroke-linejoin="round"/>
</svg>
