<svg width="24" height="24" viewBox="0 0 24 24" fill="none" xmlns="http://www.w3.org/2000/svg">
<path d="M3 13V4C3 3.73478 3.10536 3.48043 3.29289 3.29289C3.48043 3.10536 3.73478 3 4 3H20C20.2652 3 20.5196 3.10536 20.7071 3.29289C20.8946 3.48043 21 3.73478 21 4V13H3Z" fill="white"/>
<path d="M0 4C0 1.79086 1.79086 0 4 0H20C22.2091 0 24 1.79086 24 4V20C24 22.2091 22.2091 24 20 24H4C1.79086 24 0 22.2091 0 20V4Z" fill="#8AB5FF"/>
<path d="M4 4V12H20V4H4ZM16.293 16.293C16.6835 15.9024 17.3165 15.9024 17.707 16.293C18.0976 16.6835 18.0976 17.3165 17.707 17.707L16.4141 19L17.707 20.293L17.7754 20.3691C18.0957 20.7619 18.0731 21.3409 17.707 21.707C17.3409 22.0731 16.7619 22.0957 16.3691 21.7754L16.293 21.707L14.293 19.707C13.9024 19.3165 13.9024 18.6835 14.293 18.293L16.293 16.293ZM19.293 16.293C19.6591 15.9269 20.2381 15.9043 20.6309 16.2246L20.707 16.293L22.707 18.293C23.0976 18.6835 23.0976 19.3165 22.707 19.707L20.707 21.707C20.3165 22.0976 19.6835 22.0976 19.293 21.707C18.9024 21.3165 18.9024 20.6835 19.293 20.293L20.5859 19L19.293 17.707L19.2246 17.6309C18.9043 17.2381 18.9269 16.6591 19.293 16.293ZM22 13C22 13.5523 21.5523 14 21 14H4V16H11.5C12.0523 16 12.5 16.4477 12.5 17C12.5 17.5523 12.0523 18 11.5 18H10.8828L10.6328 20H11.5C12.0523 20 12.5 20.4477 12.5 21C12.5 21.5523 12.0523 22 11.5 22H8C7.44772 22 7 21.5523 7 21C7 20.4477 7.44772 20 8 20H8.61719L8.86719 18H4C3.46957 18 2.96101 17.7891 2.58594 17.4141C2.25765 17.0858 2.05515 16.6553 2.00977 16.1973L2 16V4C2 3.46957 2.21086 2.96101 2.58594 2.58594C2.96101 2.21086 3.46957 2 4 2H20C20.5304 2 21.039 2.21086 21.4141 2.58594C21.7891 2.96101 22 3.46957 22 4V13Z" fill="#111111"/>
<path d="M4 4V12H20V4H4Z" fill="white"/>
</svg>
