<svg width="24" height="24" viewBox="0 0 24 24" fill="none" xmlns="http://www.w3.org/2000/svg">
<rect width="24" height="24" rx="4" fill="#2A292B"/>
<path d="M6.0293 17.9729C6.0293 16.3235 7.36638 14.9865 9.01572 14.9865H12.0021V17.9729C12.0021 19.6222 10.6651 20.9593 9.01572 20.9593C7.36638 20.9593 6.0293 19.6222 6.0293 17.9729Z" fill="#24CB71"/>
<path d="M12.0273 3.04077V9.01362H15.0138C16.6631 9.01362 18.0002 7.67654 18.0002 6.0272C18.0002 4.37785 16.6631 3.04077 15.0138 3.04077H12.0273Z" fill="#FF7237"/>
<path d="M14.9884 14.9864C16.6377 14.9864 17.9748 13.6493 17.9748 12C17.9748 10.3506 16.6377 9.01355 14.9884 9.01355C13.339 9.01355 12.002 10.3506 12.002 12C12.002 13.6493 13.339 14.9864 14.9884 14.9864Z" fill="#00B6FF"/>
<path d="M6.0293 6.0272C6.0293 7.67654 7.36638 9.01362 9.01572 9.01362H12.0021V3.04077H9.01572C7.36638 3.04077 6.0293 4.37785 6.0293 6.0272Z" fill="#FF3737"/>
<path d="M6.0293 12C6.0293 13.6493 7.36638 14.9864 9.01572 14.9864H12.0021V9.01355H9.01572C7.36638 9.01355 6.0293 10.3506 6.0293 12Z" fill="#874FFF"/>
</svg>
