<svg width="722" height="722" viewBox="0 0 722 722" fill="none" xmlns="http://www.w3.org/2000/svg">
<path d="M161 561C161 505.772 205.772 461 261 461H361V561C361 616.228 316.228 661 261 661C205.772 661 161 616.228 161 561Z" fill="#24CB71"/>
<path d="M361 61V261H461C516.228 261 561 216.228 561 161C561 105.772 516.228 61 461 61H361Z" fill="#FF7237"/>
<path d="M460.167 461C515.395 461 560.167 416.228 560.167 361C560.167 305.772 515.395 261 460.167 261C404.939 261 360.167 305.772 360.167 361C360.167 416.228 404.939 461 460.167 461Z" fill="#00B6FF"/>
<path d="M161 161C161 216.228 205.772 261 261 261H361V61H261C205.772 61 161 105.772 161 161Z" fill="#FF3737"/>
<path d="M161 361C161 416.228 205.772 461 261 461H361V261H261C205.772 261 161 305.772 161 361Z" fill="#874FFF"/>
</svg>
