<svg width="722" height="722" viewBox="0 0 722 722" fill="none" xmlns="http://www.w3.org/2000/svg">
<g clip-path="url(#clip0_2632_314)">
<mask id="mask0_2632_314" style="mask-type:luminance" maskUnits="userSpaceOnUse" x="33" y="33" width="656" height="656">
<path d="M689 33H33V689H689V33Z" fill="white"/>
</mask>
<g mask="url(#mask0_2632_314)">
<path d="M538.666 661.669H183.332C160.68 661.669 142.332 643.321 142.332 620.669V101.336C142.332 78.683 160.68 60.3354 183.332 60.3354H429.332L579.666 210.669V620.669C579.666 643.321 561.318 661.669 538.666 661.669Z" fill="#00AC47"/>
<path d="M429.332 60.3354L579.666 210.669H429.332V60.3354Z" fill="#00832D"/>
<path d="M463.499 292.665H378.082H343.916H258.499H224.332V326.831V374.665V408.831V456.665V490.831H258.499H343.916H378.082H463.499H497.666V456.665V408.831V374.665V326.831V292.665H463.499ZM258.499 326.831H343.916V374.665H258.499V326.831ZM258.499 456.665V408.831H343.916V456.665H258.499ZM463.499 456.665H378.082V408.831H463.499V456.665ZM463.499 374.665H378.082V326.831H463.499V374.665Z" fill="white"/>
</g>
</g>
<defs>
<clipPath id="clip0_2632_314">
<rect width="656" height="656" fill="white" transform="translate(33 33)"/>
</clipPath>
</defs>
</svg>
