<svg width="410" height="244" viewBox="0 0 410 244" fill="none" xmlns="http://www.w3.org/2000/svg">
<path d="M0 20C0 8.95431 8.95431 0 20 0H390C401.046 0 410 8.95431 410 20V224C410 235.046 401.046 244 390 244H20C8.95431 244 0 235.046 0 224V20Z" fill="#EFEEEB"/>
<path d="M390 242V244H20V242H390ZM408 224V20C408 10.0589 399.941 2 390 2H20C10.0589 2 2 10.0589 2 20V224C2 233.941 10.0589 242 20 242V244L19.4834 243.993C8.84814 243.724 0.276492 235.152 0.00683594 224.517L0 224V20C2.79059e-06 9.12703 8.67646 0.280844 19.4834 0.00683594L20 0H390L390.517 0.00683594C401.324 0.280847 410 9.12703 410 20V224L409.993 224.517C409.724 235.152 401.152 243.724 390.517 243.993L390 244V242C399.941 242 408 233.941 408 224Z" fill="#111111"/>
<path d="M258.945 22.853C258.211 20.876 257.844 19.8875 258.063 19.2469C258.253 18.6902 258.69 18.2529 259.247 18.0628C259.888 17.844 260.876 18.211 262.853 18.9449L286.301 27.6495C288.627 28.513 289.79 28.9448 290.129 29.5801C290.423 30.1306 290.428 30.7905 290.143 31.3454C289.813 31.9857 288.656 32.4349 286.343 33.3333L283.214 34.5488C280.915 35.4418 279.766 35.8883 278.798 36.5784C277.94 37.19 277.19 37.9401 276.578 38.7979C275.888 39.7658 275.442 40.9152 274.549 43.2142L273.333 46.3434C272.435 48.6563 271.986 49.8128 271.345 50.1426C270.79 50.4284 270.131 50.4234 269.58 50.1293C268.945 49.7899 268.513 48.6269 267.649 46.3007L258.945 22.853Z" fill="#FFCE2E"/>
<path d="M258.774 16.117C259.636 15.8787 260.475 16.0539 261.073 16.2167C261.756 16.4022 262.598 16.7171 263.549 17.0702L286.997 25.7743L288.558 26.3622C289.032 26.5468 289.455 26.7217 289.816 26.8924C290.419 27.1779 291.275 27.6332 291.794 28.4657L291.894 28.6376L292 28.8524C292.463 29.864 292.472 31.0263 292.024 32.0448L291.921 32.2606C291.432 33.2109 290.508 33.7228 289.869 34.037C289.511 34.213 289.091 34.3942 288.62 34.5858L287.068 35.1971L283.939 36.4129C281.844 37.2266 280.917 37.5987 280.238 38.0213L279.959 38.2069C279.367 38.6294 278.839 39.1352 278.393 39.7088L278.207 39.9588C277.824 40.4962 277.529 41.1194 277.014 42.4071L276.413 43.9383L275.197 47.0672C274.762 48.1872 274.39 49.1528 274.037 49.869C273.743 50.4679 273.275 51.317 272.435 51.8241L272.261 51.9208C271.193 52.4704 269.937 52.4959 268.853 51.9999L268.638 51.8934C267.695 51.3897 267.197 50.4588 266.893 49.8153C266.722 49.4545 266.547 49.0313 266.363 48.5575L265.775 46.9969L257.071 23.5487C256.717 22.5976 256.403 21.7555 256.217 21.0731C256.043 20.4346 255.855 19.5232 256.17 18.6004L256.249 18.3895C256.674 17.3477 257.529 16.5356 258.601 16.1698L258.774 16.117ZM262.853 18.9452C260.876 18.2114 259.888 17.8438 259.247 18.0624C258.691 18.2525 258.253 18.6902 258.063 19.2469C257.844 19.8875 258.212 20.8758 258.946 22.8524L267.65 46.3006C268.513 48.6265 268.945 49.7893 269.58 50.1288C270.062 50.3861 270.627 50.4227 271.133 50.2362L271.346 50.1424C271.826 49.895 272.198 49.1823 272.734 47.8661L273.333 46.3436L274.549 43.2137C275.33 41.202 275.77 40.0706 276.33 39.1708L276.578 38.7977C277.114 38.0472 277.755 37.3794 278.482 36.8143L278.798 36.578C279.524 36.0604 280.352 35.68 281.691 35.1454L283.214 34.5487L286.344 33.3329C288.513 32.4905 289.665 32.0432 290.072 31.4627L290.143 31.3456C290.429 30.7907 290.423 30.1305 290.129 29.5799C289.875 29.1036 289.157 28.7418 287.833 28.2264L286.301 27.6493L262.853 18.9452Z" fill="#111111"/>
<path d="M287.229 50.7539C287.229 48.5448 289.02 46.7539 291.229 46.7539H372.732C383.226 46.7539 391.733 55.2608 391.733 65.7545V65.7545C391.733 76.2482 383.226 84.7551 372.732 84.7551H307.229C296.184 84.7551 287.229 75.8008 287.229 64.7551V50.7539Z" fill="#FFCE2E"/>
<path d="M287.229 64.755V50.7539C287.229 48.6139 288.91 46.866 291.023 46.7588L291.23 46.7539H372.733L373.223 46.7598C383.49 47.02 391.733 55.4252 391.733 65.755L391.727 66.2452C391.471 76.3492 383.327 84.4931 373.223 84.7492L372.733 84.7551V82.7551C382.122 82.7549 389.732 75.1439 389.733 65.755C389.733 56.5125 382.357 48.9925 373.171 48.7598L372.733 48.7539H291.23C290.125 48.7539 289.23 49.6493 289.229 50.7539V64.755C289.229 74.6961 297.288 82.7551 307.23 82.7551V84.7551L306.713 84.7482C296.078 84.4786 287.506 75.907 287.236 65.2716L287.229 64.755ZM372.733 82.7551V84.7551H307.23V82.7551H372.733Z" fill="#111111"/>
<path d="M374.005 71.5385C372.85 71.5385 371.824 71.2953 370.927 70.8089C370.046 70.3225 369.354 69.6384 368.853 68.7568C368.351 67.8752 368.1 66.8643 368.1 65.7243C368.1 64.5387 368.343 63.4974 368.83 62.6006C369.331 61.6886 370.023 60.9742 370.905 60.4574C371.801 59.9405 372.835 59.6821 374.005 59.6821C375.146 59.6821 376.141 59.9253 376.992 60.4118C377.844 60.8982 378.512 61.567 378.999 62.4182C379.485 63.2542 379.728 64.2043 379.728 65.2683C379.728 65.4203 379.721 65.5951 379.706 65.7927C379.706 65.9751 379.698 66.1651 379.683 66.3627H370.289V64.4703H376.605C376.559 63.7559 376.293 63.1858 375.807 62.7602C375.336 62.3346 374.743 62.1218 374.028 62.1218C373.496 62.1218 373.01 62.2434 372.569 62.4866C372.128 62.7146 371.779 63.0718 371.52 63.5582C371.262 64.0295 371.133 64.6299 371.133 65.3595V66.0207C371.133 66.6439 371.254 67.1836 371.497 67.6396C371.741 68.0804 372.075 68.4224 372.501 68.6656C372.941 68.9088 373.435 69.0304 373.983 69.0304C374.545 69.0304 375.016 68.9088 375.396 68.6656C375.776 68.4072 376.065 68.0804 376.263 67.6852H379.386C379.174 68.3996 378.816 69.0532 378.315 69.646C377.813 70.2236 377.198 70.6873 376.468 71.0369C375.738 71.3713 374.918 71.5385 374.005 71.5385Z" fill="#111111"/>
<path d="M361.358 71.5385C360.203 71.5385 359.177 71.2953 358.28 70.8089C357.398 70.3225 356.707 69.6384 356.205 68.7568C355.703 67.8752 355.453 66.8643 355.453 65.7243C355.453 64.5387 355.696 63.4974 356.182 62.6006C356.684 61.6886 357.375 60.9742 358.257 60.4574C359.154 59.9405 360.188 59.6821 361.358 59.6821C362.498 59.6821 363.494 59.9253 364.345 60.4118C365.196 60.8982 365.865 61.567 366.351 62.4182C366.838 63.2542 367.081 64.2043 367.081 65.2683C367.081 65.4203 367.073 65.5951 367.058 65.7927C367.058 65.9751 367.051 66.1651 367.035 66.3627H357.642V64.4703H363.957C363.912 63.7559 363.646 63.1858 363.159 62.7602C362.688 62.3346 362.095 62.1218 361.381 62.1218C360.849 62.1218 360.362 62.2434 359.922 62.4866C359.481 62.7146 359.131 63.0718 358.873 63.5582C358.614 64.0295 358.485 64.6299 358.485 65.3595V66.0207C358.485 66.6439 358.607 67.1836 358.85 67.6396C359.093 68.0804 359.428 68.4224 359.853 68.6656C360.294 68.9088 360.788 69.0304 361.335 69.0304C361.898 69.0304 362.369 68.9088 362.749 68.6656C363.129 68.4072 363.418 68.0804 363.615 67.6852H366.739C366.526 68.3996 366.169 69.0532 365.667 69.646C365.166 70.2236 364.55 70.6873 363.82 71.0369C363.091 71.3713 362.27 71.5385 361.358 71.5385Z" fill="#111111"/>
<path d="M350.788 71.2647V55.3042H353.866V71.2647H350.788Z" fill="#111111"/>
<path d="M343.049 76.0986C341.97 76.0986 341.02 75.9694 340.199 75.711C339.394 75.4526 338.763 75.065 338.307 74.5482C337.866 74.0466 337.646 73.4385 337.646 72.7241C337.646 72.1921 337.782 71.7057 338.056 71.2649C338.33 70.8089 338.732 70.3985 339.264 70.0336C339.796 69.6536 340.45 69.3268 341.225 69.0532L342.342 70.5809C341.674 70.8089 341.187 71.0825 340.883 71.4017C340.579 71.7209 340.427 72.0857 340.427 72.4961C340.427 72.8001 340.534 73.0585 340.746 73.2713C340.974 73.4841 341.286 73.6438 341.681 73.7502C342.076 73.8718 342.532 73.9326 343.049 73.9326C343.566 73.9326 343.999 73.8718 344.349 73.7502C344.699 73.6286 344.965 73.4537 345.147 73.2257C345.329 73.0129 345.421 72.7621 345.421 72.4733C345.421 72.0629 345.276 71.7437 344.987 71.5157C344.699 71.3029 344.136 71.1661 343.3 71.1053C342.525 71.0445 341.841 70.9609 341.248 70.8545C340.655 70.7329 340.131 70.5961 339.675 70.4441C339.234 70.2768 338.854 70.0944 338.535 69.8968C338.216 69.6992 337.957 69.5016 337.76 69.304V68.7796L340.199 66.2715L342 66.9556L339.538 69.6916L340.359 68.3236C340.511 68.3844 340.67 68.4452 340.838 68.506C341.005 68.5668 341.21 68.6276 341.453 68.6884C341.712 68.7492 342.031 68.81 342.411 68.8708C342.806 68.9164 343.3 68.9696 343.893 69.0304C344.896 69.1064 345.717 69.2812 346.355 69.5548C346.994 69.8284 347.465 70.2008 347.769 70.6721C348.073 71.1433 348.225 71.7209 348.225 72.4049C348.225 72.9977 348.035 73.5754 347.655 74.1378C347.29 74.7154 346.728 75.1866 345.968 75.5514C345.208 75.9162 344.235 76.0986 343.049 76.0986ZM343.072 67.9132C342.114 67.9132 341.286 67.7308 340.587 67.366C339.903 67.0012 339.371 66.5071 338.991 65.8839C338.626 65.2607 338.444 64.5691 338.444 63.8091C338.444 63.049 338.626 62.3574 338.991 61.7342C339.371 61.111 339.903 60.617 340.587 60.2521C341.286 59.8721 342.114 59.6821 343.072 59.6821C344.03 59.6821 344.851 59.8721 345.535 60.2521C346.234 60.617 346.766 61.111 347.131 61.7342C347.495 62.3574 347.678 63.049 347.678 63.8091C347.678 64.5691 347.495 65.2607 347.131 65.8839C346.766 66.5071 346.234 67.0012 345.535 67.366C344.851 67.7308 344.03 67.9132 343.072 67.9132ZM343.049 65.6787C343.657 65.6787 344.144 65.5267 344.509 65.2227C344.889 64.9035 345.079 64.4323 345.079 63.8091C345.079 63.1858 344.889 62.7222 344.509 62.4182C344.144 62.099 343.665 61.9394 343.072 61.9394C342.464 61.9394 341.97 62.099 341.59 62.4182C341.225 62.7222 341.043 63.1858 341.043 63.8091C341.043 64.4323 341.225 64.9035 341.59 65.2227C341.97 65.5267 342.456 65.6787 343.049 65.6787ZM344.919 62.0306L344.417 59.9557H349.16V61.6202L344.919 62.0306Z" fill="#111111"/>
<path d="M330.113 76.0986C329.034 76.0986 328.083 75.9694 327.263 75.711C326.457 75.4526 325.826 75.065 325.37 74.5482C324.929 74.0466 324.709 73.4385 324.709 72.7241C324.709 72.1921 324.846 71.7057 325.119 71.2649C325.393 70.8089 325.796 70.3985 326.328 70.0336C326.86 69.6536 327.513 69.3268 328.289 69.0532L329.406 70.5809C328.737 70.8089 328.251 71.0825 327.947 71.4017C327.643 71.7209 327.491 72.0857 327.491 72.4961C327.491 72.8001 327.597 73.0585 327.81 73.2713C328.038 73.4841 328.349 73.6438 328.745 73.7502C329.14 73.8718 329.596 73.9326 330.113 73.9326C330.63 73.9326 331.063 73.8718 331.412 73.7502C331.762 73.6286 332.028 73.4537 332.21 73.2257C332.393 73.0129 332.484 72.7621 332.484 72.4733C332.484 72.0629 332.34 71.7437 332.051 71.5157C331.762 71.3029 331.2 71.1661 330.364 71.1053C329.588 71.0445 328.904 70.9609 328.311 70.8545C327.719 70.7329 327.194 70.5961 326.738 70.4441C326.297 70.2768 325.917 70.0944 325.598 69.8968C325.279 69.6992 325.021 69.5016 324.823 69.304V68.7796L327.263 66.2715L329.064 66.9556L326.601 69.6916L327.422 68.3236C327.574 68.3844 327.734 68.4452 327.901 68.506C328.068 68.5668 328.273 68.6276 328.517 68.6884C328.775 68.7492 329.094 68.81 329.474 68.8708C329.87 68.9164 330.364 68.9696 330.956 69.0304C331.96 69.1064 332.78 69.2812 333.419 69.5548C334.057 69.8284 334.528 70.2008 334.832 70.6721C335.136 71.1433 335.289 71.7209 335.289 72.4049C335.289 72.9977 335.098 73.5754 334.718 74.1378C334.354 74.7154 333.791 75.1866 333.031 75.5514C332.271 75.9162 331.298 76.0986 330.113 76.0986ZM330.136 67.9132C329.178 67.9132 328.349 67.7308 327.65 67.366C326.966 67.0012 326.434 66.5071 326.054 65.8839C325.689 65.2607 325.507 64.5691 325.507 63.8091C325.507 63.049 325.689 62.3574 326.054 61.7342C326.434 61.111 326.966 60.617 327.65 60.2521C328.349 59.8721 329.178 59.6821 330.136 59.6821C331.093 59.6821 331.914 59.8721 332.598 60.2521C333.297 60.617 333.829 61.111 334.194 61.7342C334.559 62.3574 334.741 63.049 334.741 63.8091C334.741 64.5691 334.559 65.2607 334.194 65.8839C333.829 66.5071 333.297 67.0012 332.598 67.366C331.914 67.7308 331.093 67.9132 330.136 67.9132ZM330.113 65.6787C330.721 65.6787 331.207 65.5267 331.572 65.2227C331.952 64.9035 332.142 64.4323 332.142 63.8091C332.142 63.1858 331.952 62.7222 331.572 62.4182C331.207 62.099 330.728 61.9394 330.136 61.9394C329.528 61.9394 329.034 62.099 328.654 62.4182C328.289 62.7222 328.106 63.1858 328.106 63.8091C328.106 64.4323 328.289 64.9035 328.654 65.2227C329.034 65.5267 329.52 65.6787 330.113 65.6787ZM331.982 62.0306L331.481 59.9557H336.223V61.6202L331.982 62.0306Z" fill="#111111"/>
<path d="M317.513 71.5385C316.419 71.5385 315.431 71.2877 314.549 70.7861C313.668 70.2845 312.968 69.5852 312.452 68.6884C311.95 67.7916 311.699 66.7655 311.699 65.6103C311.699 64.4399 311.958 63.4138 312.474 62.5322C312.991 61.6354 313.69 60.9362 314.572 60.4346C315.454 59.9329 316.434 59.6821 317.513 59.6821C318.608 59.6821 319.596 59.9329 320.477 60.4346C321.359 60.9362 322.051 61.6354 322.552 62.5322C323.069 63.4138 323.328 64.4399 323.328 65.6103C323.328 66.7807 323.069 67.8144 322.552 68.7112C322.036 69.5928 321.336 70.2845 320.455 70.7861C319.588 71.2877 318.608 71.5385 317.513 71.5385ZM317.491 68.9392C317.992 68.9392 318.441 68.8176 318.836 68.5744C319.246 68.3312 319.573 67.9664 319.816 67.48C320.059 66.9783 320.181 66.3551 320.181 65.6103C320.181 64.8655 320.059 64.2499 319.816 63.7635C319.573 63.2618 319.246 62.8894 318.836 62.6462C318.441 62.403 318.007 62.2814 317.536 62.2814C317.05 62.2814 316.601 62.403 316.191 62.6462C315.781 62.8894 315.454 63.2618 315.211 63.7635C314.967 64.2499 314.846 64.8655 314.846 65.6103C314.846 66.3551 314.967 66.9783 315.211 67.48C315.454 67.9664 315.773 68.3312 316.168 68.5744C316.579 68.8176 317.019 68.9392 317.491 68.9392Z" fill="#111111"/>
<path d="M299.104 71.2649V59.9557H301.727L302 61.8026H302.091C302.456 61.1338 302.95 60.617 303.573 60.2521C304.197 59.8721 304.979 59.6821 305.922 59.6821C306.864 59.6821 307.662 59.8873 308.316 60.2977C308.97 60.693 309.464 61.2782 309.798 62.0534C310.148 62.8286 310.322 63.7863 310.322 64.9263V71.2649H307.244V65.1999C307.244 64.2575 307.054 63.5354 306.674 63.0338C306.294 62.5322 305.694 62.2814 304.873 62.2814C304.356 62.2814 303.893 62.4106 303.482 62.669C303.072 62.9122 302.753 63.2694 302.525 63.7407C302.297 64.1967 302.183 64.7591 302.183 65.4279V71.2649H299.104Z" fill="#111111"/>
<g clip-path="url(#clip0_2715_530)">
<path d="M191.996 -6.97075L-83.6704 78.6258L-92.835 49.1113L182.831 -36.4854L191.996 -6.97075Z" fill="white"/>
<path d="M210.325 52.0581L-65.3413 137.655L-74.5059 108.14L201.16 22.5435L210.325 52.0581Z" fill="#F2F2F2"/>
<path d="M201.16 22.5434L-74.5059 108.14L-83.6704 78.6254L191.996 -6.97119L201.16 22.5434Z" fill="white"/>
<path d="M182.831 -36.4855L-92.8351 49.1112L-98.3339 31.4024C-100.358 24.8823 -96.7141 17.9554 -90.1939 15.9308L161.861 -62.3342C168.381 -64.3588 175.308 -60.7144 177.332 -54.1942L182.831 -36.4855Z" fill="white"/>
<path d="M224.988 99.2816C227.013 105.802 223.368 112.729 216.848 114.753L-35.2067 193.018C-41.7269 195.043 -48.6538 191.398 -50.6783 184.878L-58.3765 160.086L217.29 74.4893L224.988 99.2816Z" fill="#00AC47"/>
<path d="M-49.4978 184.512C-47.6756 190.38 -41.4414 193.66 -35.5733 191.838L216.481 113.573C222.35 111.751 225.63 105.516 223.807 99.6481L216.476 76.0365L-56.8294 160.9L-49.4978 184.512ZM-58.3765 160.086L217.29 74.4893L224.988 99.2816C226.981 105.7 223.481 112.512 217.152 114.654L216.848 114.753L-35.2067 193.018L-35.5129 193.109C-41.9424 194.928 -48.6854 191.296 -50.6783 184.878L-58.3765 160.086Z" fill="#111111"/>
<path d="M217.29 74.4892L-58.3768 160.086L-65.3418 137.655L210.325 52.0581L217.29 74.4892Z" fill="#DDDDDD"/>
<path d="M216.109 74.8557L209.511 53.6052L-63.7947 138.469L-57.1962 159.719L-58.3768 160.086L-65.3418 137.655L210.325 52.0581L217.29 74.4892L216.109 74.8557Z" fill="#111111"/>
<path d="M199.95 99.9363C198.938 96.6762 200.628 93.2538 203.725 92.2922C206.822 91.3305 210.153 93.1937 211.166 96.4538C212.178 99.7139 210.488 103.137 207.391 104.098C204.294 105.06 200.962 103.197 199.95 99.9363Z" fill="#FF554D"/>
<path d="M201.131 99.5698C201.958 102.236 204.635 103.659 207.024 102.918C209.413 102.176 210.813 99.4863 209.985 96.8204C209.157 94.1545 206.48 92.731 204.092 93.4727L203.725 92.2922C206.822 91.3305 210.153 93.1937 211.166 96.4538C212.178 99.7139 210.488 103.137 207.391 104.098C204.294 105.06 200.962 103.197 199.95 99.9363C198.938 96.6762 200.628 93.2538 203.725 92.2922L204.092 93.4727C201.703 94.2145 200.303 96.9039 201.131 99.5698Z" fill="#111111"/>
<path d="M181.651 105.619C180.639 102.359 182.461 98.8955 185.721 97.8832C188.981 96.8709 192.445 98.6931 193.457 101.953C194.469 105.213 192.647 108.677 189.387 109.689C186.127 110.701 182.664 108.879 181.651 105.619Z" fill="#FEB42A"/>
<path d="M182.832 105.252C183.642 107.86 186.412 109.318 189.021 108.508C191.629 107.698 193.086 104.928 192.277 102.32C191.467 99.7117 188.696 98.254 186.088 99.0638L185.721 97.8832C188.981 96.8709 192.445 98.6931 193.457 101.953C194.469 105.213 192.647 108.677 189.387 109.689C186.127 110.701 182.664 108.879 181.651 105.619C180.639 102.359 182.461 98.8955 185.721 97.8832L186.088 99.0638C183.48 99.8736 182.022 102.644 182.832 105.252Z" fill="#111111"/>
<path d="M163.942 111.118C162.93 107.858 164.62 104.435 167.717 103.474C170.814 102.512 174.145 104.375 175.157 107.635C176.17 110.895 174.48 114.318 171.382 115.279C168.285 116.241 164.954 114.378 163.942 111.118Z" fill="#25C138"/>
<path d="M165.122 110.751C165.95 113.417 168.627 114.84 171.016 114.099C173.405 113.357 174.805 110.668 173.977 108.002C173.149 105.336 170.472 103.912 168.083 104.654L167.717 103.474C170.814 102.512 174.145 104.375 175.157 107.635C176.17 110.895 174.48 114.318 171.382 115.279C168.285 116.241 164.954 114.378 163.942 111.118C162.93 107.858 164.62 104.435 167.717 103.474L168.083 104.654C165.694 105.396 164.295 108.085 165.122 110.751Z" fill="#111111"/>
<path d="M199.613 21.7296L171.87 30.3442L163.438 3.19082L191.182 -5.42383L199.613 21.7296Z" fill="#F2F2F2"/>
<path d="M190.812 -6.60436L163.071 2.00944L153.921 -27.4585L181.662 -36.0723L190.812 -6.60436Z" fill="#F2F2F2"/>
<path d="M190.443 41.1797L183.7 53.854L177.834 34.9646L197.314 28.916L190.443 41.1797Z" fill="#DDDDDD"/>
<path d="M177.834 34.9646L197.314 28.916L190.443 41.1798L183.7 53.854L177.834 34.9646ZM189.352 40.599L189.358 40.5871L189.365 40.5754L194.721 31.0156L179.381 35.7786L184.001 50.6564L189.352 40.599Z" fill="#111111"/>
<path d="M184.147 18.9665C184.107 19.7751 183.674 20.3174 182.93 20.5483C181.903 20.8673 180.966 20.4784 180.604 19.3096L176.249 5.28431L179.79 4.18457L182.996 14.5088L184.484 14.0469C185.475 13.7389 186.467 13.9941 186.769 14.968C187.022 15.7826 186.621 16.4899 185.945 16.8161C185.028 17.237 184.192 17.9235 184.147 18.9665Z" fill="black"/>
<path d="M126.071 53.8722L129.967 52.6625L131.745 55.45L135.995 54.1303L135.881 50.826L139.706 49.6382L139.609 65.3955C139.598 66.4862 138.737 67.2777 137.781 67.5747C136.878 67.8551 135.745 67.644 135.147 66.7812L126.071 53.8722ZM136.306 62.6351L136.109 57.376L133.489 58.1898L136.306 62.6351Z" fill="black"/>
<path d="M49.0142 90.0118L48.9482 89.7993C48.5248 88.4357 48.7658 87.2735 49.7012 86.2841C47.9913 86.1549 46.9378 85.2006 46.4319 83.5714L46.3824 83.412C45.3706 80.1536 47.3618 78.312 50.5139 77.3332L53.5952 76.3765C55.7203 75.7167 56.5942 76.2802 57.2266 78.3167L60.3114 88.2512C60.9437 90.2877 60.5427 91.2472 58.4176 91.907L55.8321 92.7099C52.5914 93.7162 49.9159 92.916 49.0142 90.0118ZM54.7203 89.7544L56.137 89.3145C56.5443 89.1881 56.623 89.0665 56.4911 88.6415L55.6223 85.8434L53.692 86.4429C52.5232 86.8058 52.2186 87.6381 52.4881 88.5058L52.5595 88.7361C52.84 89.6393 53.5515 90.1173 54.7203 89.7544ZM52.2645 83.7213L54.726 82.957L53.8572 80.1589C53.7252 79.7339 53.5915 79.6785 53.1842 79.8049L51.2362 80.4097C50.0674 80.7726 49.7518 81.5697 50.0267 82.4551L50.1092 82.7207C50.3842 83.6062 51.0957 84.0842 52.2645 83.7213Z" fill="black"/>
<path d="M-89.8274 17.1113L-90.194 15.9307L161.861 -62.3343L162.227 -61.1537L-89.8274 17.1113ZM-97.1534 31.0358L-92.0213 47.5639L181.284 -37.2996L176.152 -53.8277C174.33 -59.6959 168.095 -62.9759 162.227 -61.1537L161.861 -62.3343L162.167 -62.425C168.494 -64.2152 175.125 -60.7265 177.234 -54.498L177.332 -54.1943L182.831 -36.4856L-92.8353 49.1111L-98.3341 31.4023L-98.4251 31.0961C-100.215 24.7688 -96.7261 18.1379 -90.4977 16.0294L-90.194 15.9307L-89.8274 17.1113C-95.6956 18.9334 -98.9751 25.1676 -97.1534 31.0358Z" fill="#111111"/>
<path d="M180.311 61.7013L143.653 -56.357L144.834 -56.7236L181.492 61.3348L180.311 61.7013Z" fill="#111111"/>
<path d="M98.2602 87.1788L61.6021 -30.8796L62.7826 -31.2461L99.4408 86.8122L98.2602 87.1788Z" fill="#111111"/>
<path d="M16.2094 112.656L-20.4487 -5.40246L-19.2682 -5.76904L17.3899 112.29L16.2094 112.656Z" fill="#111111"/>
<path d="M-74.5059 108.14L-83.6704 78.6254L191.996 -6.97119L201.16 22.5435L-74.5059 108.14ZM191.187 -5.39677L-82.1121 79.4648L-73.6928 106.58L199.606 21.7179L191.187 -5.39677Z" fill="#111111"/>
<path d="M-64.9871 138.796L-74.8765 106.947L200.79 21.3506L210.679 53.1996L-64.9871 138.796ZM199.981 22.925L-73.3182 107.787L-64.174 137.236L209.125 52.3741L199.981 22.925Z" fill="#111111"/>
<path d="M-83.2957 79.8325L-93.1953 47.9507L182.471 -37.646L192.371 -5.76416L-83.2957 79.8325ZM181.662 -36.0716L-91.637 48.7901L-82.4826 78.2719L190.817 -6.58968L181.662 -36.0716Z" fill="#111111"/>
</g>
<g clip-path="url(#clip1_2715_530)">
<path d="M80.6582 297.655L356.325 212.059L365.489 241.573L89.8227 327.17L80.6582 297.655Z" fill="white"/>
<path d="M55.3643 216.195L331.031 130.598L338.362 154.21L62.6959 239.807L55.3643 216.195Z" fill="white"/>
<path d="M362.481 273.573L362.848 274.753L110.793 353.019L110.426 351.838L362.481 273.573ZM369.807 259.648L322.152 106.172C320.33 100.304 314.095 97.0241 308.227 98.8462L56.1724 177.111C50.3042 178.933 47.0242 185.168 48.8464 191.036L96.502 344.512C98.3241 350.38 104.558 353.66 110.426 351.838L110.793 353.019L110.487 353.109C104.159 354.899 97.5286 351.411 95.4201 345.182L95.3214 344.879L47.6658 191.402C45.6729 184.984 49.1731 178.172 55.5022 176.029L55.8058 175.931L307.861 97.6656L308.167 97.575C314.596 95.7559 321.339 99.3874 323.332 105.806L370.988 259.282L371.079 259.588C372.869 265.915 369.38 272.546 363.152 274.655L362.848 274.753L362.481 273.573C368.349 271.751 371.629 265.517 369.807 259.648Z" fill="#111111"/>
<path d="M71.4937 268.141L347.16 182.544L356.325 212.059L80.6582 297.655L71.4937 268.141Z" fill="white"/>
<path d="M347.16 182.544L356.325 212.059L80.6582 297.655L71.4937 268.141L347.16 182.544ZM81.4722 296.108L354.778 211.245L346.346 184.091L73.0408 268.955L81.4722 296.108Z" fill="#111111"/>
<path d="M62.6958 239.807L338.362 154.21L347.527 183.725L71.8603 269.321L62.6958 239.807Z" fill="white"/>
<path d="M338.362 154.21L347.527 183.725L71.8603 269.321L62.6958 239.807L338.362 154.21ZM72.6743 267.774L345.98 182.911L337.548 155.757L64.243 240.621L72.6743 267.774Z" fill="#111111"/>
<path d="M89.8228 327.17L365.489 241.573L370.988 259.282C373.013 265.802 369.368 272.729 362.848 274.754L110.793 353.019C104.273 355.043 97.346 351.399 95.3215 344.879L89.8228 327.17Z" fill="white"/>
<path d="M362.481 273.573L362.848 274.754L110.793 353.019L110.426 351.838L362.481 273.573ZM369.807 259.649L364.675 243.12L91.3699 327.984L96.5021 344.512C98.3242 350.38 104.558 353.66 110.426 351.838L110.793 353.019L110.487 353.109C104.16 354.9 97.5287 351.411 95.4202 345.182L95.3215 344.879L89.8228 327.17L365.489 241.573L370.988 259.282L371.079 259.588C372.869 265.916 369.38 272.546 363.152 274.655L362.848 274.754L362.481 273.573C368.35 271.751 371.63 265.517 369.807 259.649Z" fill="#111111"/>
<path d="M47.6658 191.403C45.6412 184.882 49.2856 177.955 55.8058 175.931L307.861 97.6658C314.381 95.6412 321.308 99.2856 323.332 105.806L331.031 130.598L55.364 216.195L47.6658 191.403Z" fill="#1E1E1E"/>
<path d="M322.152 106.172C320.33 100.304 314.095 97.0241 308.227 98.8462L56.1724 177.111C50.3042 178.933 47.0242 185.168 48.8464 191.036L56.178 214.648L329.483 129.784L322.152 106.172ZM331.031 130.598L55.364 216.195L47.6658 191.402C45.6729 184.984 49.1731 178.172 55.5022 176.029L55.8058 175.931L307.861 97.6656L308.167 97.575C314.596 95.7559 321.339 99.3874 323.332 105.806L331.031 130.598Z" fill="#111111"/>
<path d="M72.7034 190.748C73.7157 194.008 72.0257 197.43 68.9286 198.392C65.8315 199.353 62.5002 197.49 61.4879 194.23C60.4756 190.97 62.1657 187.548 65.2628 186.586C68.3599 185.624 71.6912 187.488 72.7034 190.748Z" fill="#FF554D"/>
<path d="M71.5229 191.114C70.6951 188.448 68.0181 187.025 65.6293 187.767C63.2406 188.508 61.8407 191.198 62.6685 193.864C63.4963 196.529 66.1733 197.953 68.562 197.211L68.9286 198.392C65.8315 199.353 62.5002 197.49 61.4879 194.23C60.4756 190.97 62.1657 187.548 65.2628 186.586C68.3599 185.624 71.6912 187.488 72.7034 190.748C73.7157 194.008 72.0257 197.43 68.9286 198.392L68.562 197.211C70.9507 196.469 72.3506 193.78 71.5229 191.114Z" fill="#111111"/>
<path d="M91.0025 185.065C92.0148 188.325 90.1926 191.789 86.9325 192.801C83.6724 193.813 80.209 191.991 79.1967 188.731C78.1844 185.471 80.0066 182.007 83.2667 180.995C86.5268 179.983 89.9902 181.805 91.0025 185.065Z" fill="#FEB42A"/>
<path d="M89.8219 185.432C89.0121 182.824 86.2413 181.366 83.6333 182.176C81.0252 182.985 79.5674 185.756 80.3773 188.364C81.1871 190.972 83.9578 192.43 86.5659 191.62L86.9325 192.801C83.6724 193.813 80.209 191.991 79.1967 188.731C78.1844 185.471 80.0066 182.007 83.2667 180.995C86.5268 179.983 89.9902 181.805 91.0025 185.065C92.0148 188.325 90.1926 191.789 86.9325 192.801L86.5659 191.62C89.174 190.811 90.6318 188.04 89.8219 185.432Z" fill="#111111"/>
<path d="M108.711 179.567C109.723 182.827 108.033 186.25 104.936 187.211C101.839 188.173 98.508 186.31 97.4957 183.05C96.4834 179.789 98.1735 176.367 101.271 175.405C104.368 174.444 107.699 176.307 108.711 179.567Z" fill="#25C138"/>
<path d="M107.531 179.934C106.703 177.268 104.026 175.844 101.637 176.586C99.2484 177.328 97.8485 180.017 98.6763 182.683C99.5041 185.349 102.181 186.772 104.57 186.031L104.936 187.211C101.839 188.173 98.508 186.31 97.4957 183.05C96.4834 179.789 98.1735 176.367 101.271 175.405C104.368 174.444 107.699 176.307 108.711 179.567C109.723 182.827 108.033 186.25 104.936 187.211L104.57 186.031C106.958 185.289 108.358 182.599 107.531 179.934Z" fill="#111111"/>
<path d="M125.517 194.088L169.14 334.578L167.96 334.944L124.336 194.455L125.517 194.088Z" fill="#111111"/>
<path d="M193.991 172.826L237.614 313.316L236.434 313.682L192.811 173.193L193.991 172.826Z" fill="#111111"/>
<path d="M262.465 151.564L306.088 292.054L304.907 292.421L261.284 151.931L262.465 151.564Z" fill="#111111"/>
<path d="M102.53 218.428L100.665 219.008L100.416 218.541C100.099 219.105 99.5463 219.575 98.838 219.795L98.5783 219.875C97.5984 220.18 95.9931 220.096 95.3846 218.136C94.7944 216.235 95.9761 215.247 97.5109 214.77L98.7269 214.393C98.3843 213.373 97.8298 213.338 97.2631 213.514C96.9916 213.598 96.7702 213.719 96.5125 213.889C96.3419 214.007 96.2141 214.137 96.0309 214.298C95.6719 214.642 94.9949 214.671 94.6357 214.265C94.2648 213.863 94.3034 213.32 94.6213 212.885C95.104 212.23 96.0407 211.745 96.8435 211.496C98.5554 210.964 100.253 211.097 101.148 213.978L102.53 218.428ZM99.4344 216.671L99.2657 216.128L98.1914 216.462C97.7428 216.601 97.5645 216.902 97.7185 217.398C97.8724 217.894 98.179 218.006 98.5922 217.878L98.7575 217.826C99.1943 217.691 99.6213 217.273 99.4344 216.671Z" fill="black"/>
<path d="M95.6794 220.555L93.0821 221.362L91.8967 219.504L89.0633 220.383L89.139 222.586L86.5889 223.378L86.6537 212.873C86.6609 212.146 87.2349 211.618 87.8724 211.42C88.4745 211.233 89.2301 211.374 89.6288 211.949L95.6794 220.555ZM88.8561 214.713L88.9869 218.22L90.7341 217.677L88.8561 214.713Z" fill="black"/>
<path d="M104.615 221.613C104.941 221.511 105.288 221.694 105.389 222.02C105.49 222.346 105.308 222.692 104.982 222.793L87.8636 228.109C87.5376 228.21 87.1913 228.028 87.09 227.702C86.9888 227.376 87.171 227.029 87.497 226.928L104.615 221.613Z" fill="#111111"/>
<path d="M170.595 193.359C171.911 197.597 169.542 202.1 165.304 203.416C161.066 204.731 156.563 202.363 155.248 198.124C153.932 193.886 156.3 189.384 160.539 188.068C164.777 186.752 169.279 189.121 170.595 193.359Z" fill="black"/>
<path d="M162.632 198.42C163.331 199.066 164.467 198.714 164.677 197.786L165.385 194.653C165.596 193.725 164.722 192.917 163.813 193.2L160.746 194.152C159.837 194.434 159.575 195.594 160.273 196.24L162.632 198.42Z" fill="white"/>
<path d="M291.889 151.489C291.737 151 292.011 150.481 292.5 150.329L304.896 146.48C305.385 146.328 305.904 146.601 306.056 147.09C306.208 147.579 305.935 148.099 305.446 148.251L293.05 152.1C292.561 152.252 292.041 151.978 291.889 151.489Z" fill="#111111"/>
<path d="M293.722 157.392C293.57 156.903 293.844 156.384 294.333 156.232L306.729 152.383C307.218 152.231 307.737 152.504 307.889 152.993C308.041 153.482 307.768 154.002 307.279 154.154L294.883 158.003C294.394 158.155 293.874 157.881 293.722 157.392Z" fill="#111111"/>
<path d="M298.934 160.628C298.445 160.78 297.925 160.506 297.773 160.017L293.924 147.621C293.772 147.132 294.046 146.613 294.535 146.461C295.024 146.309 295.543 146.582 295.695 147.071L299.544 159.468C299.696 159.957 299.423 160.476 298.934 160.628Z" fill="#111111"/>
<path d="M305.427 158.612C304.938 158.764 304.418 158.49 304.267 158.001L300.417 145.605C300.266 145.116 300.539 144.597 301.028 144.445C301.517 144.293 302.036 144.566 302.188 145.055L306.037 157.451C306.189 157.94 305.916 158.46 305.427 158.612Z" fill="#111111"/>
<path d="M239.722 178.367L240.088 179.548L227.102 183.58L226.735 182.399L239.722 178.367ZM240.536 176.82L237.603 167.375C237.413 166.764 236.793 166.406 236.178 166.53L236.056 166.561L223.07 170.594C222.458 170.783 222.1 171.404 222.224 172.018L222.256 172.141L225.188 181.585C225.391 182.237 226.083 182.602 226.735 182.399L227.102 183.58L226.979 183.615C225.753 183.928 224.484 183.261 224.048 182.073L224.008 181.952L221.075 172.507C220.683 171.244 221.354 169.904 222.582 169.454L222.703 169.413L235.689 165.381L235.812 165.346C237.079 165.022 238.391 165.745 238.784 167.009L241.716 176.453L241.751 176.576C242.065 177.802 241.397 179.071 240.209 179.507L240.088 179.548L239.722 178.367C240.374 178.165 240.738 177.472 240.536 176.82Z" fill="#111111"/>
<path d="M223.201 168.934C222.948 168.119 223.404 167.253 224.219 167C225.034 166.747 225.9 167.203 226.153 168.018L226.611 169.493L223.66 170.41L223.201 168.934Z" fill="#111111"/>
<path d="M225.441 174.064C225.29 173.574 225.563 173.055 226.052 172.903L234.906 170.154C235.395 170.002 235.915 170.275 236.067 170.764C236.219 171.253 235.945 171.773 235.456 171.925L226.602 174.674C226.113 174.826 225.593 174.553 225.441 174.064Z" fill="#111111"/>
<path d="M226.724 178.196C226.572 177.707 226.846 177.187 227.335 177.035L233.238 175.203C233.727 175.051 234.246 175.324 234.398 175.813C234.55 176.302 234.276 176.822 233.787 176.973L227.885 178.806C227.396 178.958 226.876 178.685 226.724 178.196Z" fill="#111111"/>
<path d="M232.056 166.185C231.803 165.37 232.258 164.504 233.073 164.251C233.888 163.998 234.754 164.454 235.007 165.269L235.466 166.744L232.514 167.661L232.056 166.185Z" fill="#111111"/>
</g>
<defs>
<clipPath id="clip0_2715_530">
<path d="M2 20C2 10.0589 10.0589 2 20 2H229V197H2V20Z" fill="white"/>
</clipPath>
<clipPath id="clip1_2715_530">
<rect width="331" height="148" fill="white" transform="translate(44 94)"/>
</clipPath>
</defs>
</svg>
