<svg width="410" height="244" viewBox="0 0 410 244" fill="none" xmlns="http://www.w3.org/2000/svg">
<path d="M0 20C0 8.95431 8.95431 0 20 0H390C401.046 0 410 8.95431 410 20V224C410 235.046 401.046 244 390 244H20C8.95431 244 0 235.046 0 224V20Z" fill="#EFEEEB"/>
<path d="M390 242V244H20V242H390ZM408 224V20C408 10.0589 399.941 2 390 2H20C10.0589 2 2 10.0589 2 20V224C2 233.941 10.0589 242 20 242V244L19.4834 243.993C8.84814 243.724 0.276492 235.152 0.00683594 224.517L0 224V20C2.79059e-06 9.12703 8.67646 0.280844 19.4834 0.00683594L20 0H390L390.517 0.00683594C401.324 0.280847 410 9.12703 410 20V224L409.993 224.517C409.724 235.152 401.152 243.724 390.517 243.993L390 244V242C399.941 242 408 233.941 408 224Z" fill="#111111"/>
<path d="M34 36.306C34 29.707 39.3496 24.3574 45.9486 24.3574H301.051C307.65 24.3574 313 29.707 313 36.306V191.638C313 198.237 307.65 203.587 301.051 203.587H45.9486C39.3496 203.587 34 198.237 34 191.638V36.306Z" fill="white"/>
<path d="M301.051 202.392V203.587H45.9486V202.392H301.051ZM311.805 191.638V36.306C311.805 30.3669 306.991 25.5523 301.051 25.5523H45.9486C40.0095 25.5523 35.1949 30.3669 35.1949 36.306V191.638C35.1949 197.577 40.0095 202.392 45.9486 202.392V203.587L45.64 203.582C39.2861 203.421 34.1652 198.3 34.0041 191.947L34 191.638V36.306C34 29.8102 39.1836 24.5252 45.64 24.3615L45.9486 24.3574H301.051L301.36 24.3615C307.816 24.5252 313 29.8102 313 36.306V191.638L312.996 191.947C312.835 198.3 307.714 203.421 301.36 203.582L301.051 203.587V202.392C306.991 202.392 311.805 197.577 311.805 191.638Z" fill="#111111"/>
<path d="M34 36.306C34 29.707 39.3496 24.3574 45.9486 24.3574H301.051C307.65 24.3574 313 29.707 313 36.306V61.3981H34V36.306Z" fill="#676564"/>
<path d="M311.805 36.306C311.805 30.3669 306.991 25.5523 301.051 25.5523H45.9486C40.0095 25.5523 35.1949 30.3669 35.1949 36.306V60.2032H311.805V36.306ZM313 61.3981H34V36.306C34 29.8102 39.1836 24.5252 45.64 24.3615L45.9486 24.3574H301.051L301.36 24.3615C307.816 24.5252 313 29.8102 313 36.306V61.3981Z" fill="#111111"/>
<path d="M57.2999 42.8776C57.2999 46.1771 54.7589 48.8519 51.6243 48.8519C48.4898 48.8519 45.9487 46.1771 45.9487 42.8776C45.9487 39.5781 48.4898 36.9033 51.6243 36.9033C54.7589 36.9033 57.2999 39.5781 57.2999 42.8776Z" fill="#FF554D"/>
<path d="M56.105 42.8776C56.105 40.1795 54.0419 38.0982 51.6243 38.0982C49.2067 38.0982 47.1436 40.1795 47.1436 42.8776C47.1436 45.5757 49.2067 47.6571 51.6243 47.6571V48.8519C48.4898 48.8519 45.9487 46.1771 45.9487 42.8776C45.9487 39.5781 48.4898 36.9033 51.6243 36.9033C54.7589 36.9033 57.2999 39.5781 57.2999 42.8776C57.2999 46.1771 54.7589 48.8519 51.6243 48.8519V47.6571C54.0419 47.6571 56.105 45.5757 56.105 42.8776Z" fill="#111111"/>
<path d="M75.8202 42.8776C75.8202 46.1771 73.1454 48.8519 69.8459 48.8519C66.5464 48.8519 63.8716 46.1771 63.8716 42.8776C63.8716 39.5781 66.5464 36.9033 69.8459 36.9033C73.1454 36.9033 75.8202 39.5781 75.8202 42.8776Z" fill="#FEB42A"/>
<path d="M74.6253 42.8776C74.6253 40.238 72.4855 38.0982 69.8459 38.0982C67.2063 38.0982 65.0664 40.238 65.0664 42.8776C65.0664 45.5172 67.2063 47.6571 69.8459 47.6571V48.8519C66.5464 48.8519 63.8716 46.1771 63.8716 42.8776C63.8716 39.5781 66.5464 36.9033 69.8459 36.9033C73.1454 36.9033 75.8202 39.5781 75.8202 42.8776C75.8202 46.1771 73.1454 48.8519 69.8459 48.8519V47.6571C72.4855 47.6571 74.6253 45.5172 74.6253 42.8776Z" fill="#111111"/>
<path d="M93.7428 42.8776C93.7428 46.1771 91.2017 48.8519 88.0672 48.8519C84.9326 48.8519 82.3916 46.1771 82.3916 42.8776C82.3916 39.5781 84.9326 36.9033 88.0672 36.9033C91.2017 36.9033 93.7428 39.5781 93.7428 42.8776Z" fill="#25C138"/>
<path d="M92.5479 42.8776C92.5479 40.1795 90.4848 38.0982 88.0672 38.0982C85.6496 38.0982 83.5865 40.1795 83.5865 42.8776C83.5865 45.5757 85.6496 47.6571 88.0672 47.6571V48.8519C84.9326 48.8519 82.3916 46.1771 82.3916 42.8776C82.3916 39.5781 84.9326 36.9033 88.0672 36.9033C91.2017 36.9033 93.7428 39.5781 93.7428 42.8776C93.7428 46.1771 91.2017 48.8519 88.0672 48.8519V47.6571C90.4848 47.6571 92.5479 45.5757 92.5479 42.8776Z" fill="#111111"/>
<path d="M194.709 91.2699C194.709 84.6709 200.059 79.3213 206.658 79.3213H280.739C287.338 79.3213 292.688 84.6709 292.688 91.2699V173.715C292.688 180.314 287.338 185.664 280.739 185.664H206.658C200.059 185.664 194.709 180.314 194.709 173.715V91.2699Z" fill="#DDDDDD"/>
<path d="M280.739 184.469V185.664H206.658V184.469H280.739ZM291.493 173.715V91.2699C291.493 85.3308 286.678 80.5162 280.739 80.5161H206.658C200.718 80.5162 195.904 85.3308 195.904 91.2699V173.715C195.904 179.654 200.718 184.469 206.658 184.469V185.664L206.349 185.66C199.995 185.499 194.874 180.378 194.713 174.024L194.709 173.715V91.2699C194.709 84.7741 199.893 79.4891 206.349 79.3254L206.658 79.3213H280.739L281.048 79.3254C287.504 79.4891 292.688 84.7741 292.688 91.2699V173.715L292.683 174.024C292.522 180.378 287.401 185.499 281.048 185.66L280.739 185.664V184.469C286.678 184.469 291.493 179.654 291.493 173.715Z" fill="#111111"/>
<path d="M51.9233 87.6856C51.9233 86.3658 52.9933 85.2959 54.3131 85.2959H151.097C152.417 85.2959 153.487 86.3658 153.487 87.6856V100.232C153.487 101.551 152.417 102.621 151.097 102.621H54.3131C52.9933 102.621 51.9233 101.551 51.9233 100.232V87.6856Z" fill="#5E5E5E"/>
<path d="M151.097 101.427V102.621H54.3131V101.427H151.097ZM152.292 100.232V87.6856C152.292 87.0669 151.821 86.5583 151.219 86.4972L151.097 86.4908H54.3131C53.6532 86.4908 53.1182 87.0257 53.1182 87.6856V100.232C53.1182 100.892 53.6532 101.427 54.3131 101.427V102.621L54.19 102.618C52.9681 102.556 51.9883 101.577 51.9263 100.355L51.9233 100.232V87.6856C51.9233 86.4071 52.9274 85.3629 54.19 85.2988L54.3131 85.2959H151.097L151.22 85.2988C152.482 85.3629 153.487 86.4071 153.487 87.6856V100.232L153.484 100.355C153.422 101.577 152.442 102.556 151.22 102.618L151.097 102.621V101.427C151.757 101.427 152.292 100.892 152.292 100.232Z" fill="#111111"/>
<path d="M51.9233 116.362C51.9233 115.042 52.9933 113.972 54.3131 113.972H172.604C173.924 113.972 174.994 115.042 174.994 116.362V121.141C174.994 122.461 173.924 123.531 172.604 123.531H54.3131C52.9933 123.531 51.9233 122.461 51.9233 121.141V116.362Z" fill="#DDDDDD"/>
<path d="M172.604 122.336V123.531H54.3131V122.336H172.604ZM173.799 121.141V116.362C173.799 115.702 173.264 115.167 172.604 115.167H54.3131C53.6532 115.167 53.1182 115.702 53.1182 116.362V121.141C53.1182 121.801 53.6532 122.336 54.3131 122.336V123.531L54.19 123.528C52.9274 123.464 51.9233 122.42 51.9233 121.141V116.362C51.9233 115.083 52.9274 114.039 54.19 113.975L54.3131 113.972H172.604L172.727 113.975C173.99 114.039 174.994 115.083 174.994 116.362V121.141L174.991 121.264C174.929 122.486 173.949 123.466 172.727 123.528L172.604 123.531V122.336C173.264 122.336 173.799 121.801 173.799 121.141Z" fill="#111111"/>
<path d="M51.9233 133.09C51.9233 131.77 52.9933 130.7 54.3131 130.7H97.3281C98.6479 130.7 99.7178 131.77 99.7178 133.09V137.869C99.7178 139.189 98.6479 140.259 97.3281 140.259H54.3131C52.9933 140.259 51.9233 139.189 51.9233 137.869V133.09Z" fill="#DDDDDD"/>
<path d="M97.3281 139.064V140.259H54.3131V139.064H97.3281ZM98.5229 137.869V133.09C98.5229 132.43 97.988 131.895 97.3281 131.895H54.3131C53.6532 131.895 53.1182 132.43 53.1182 133.09V137.869C53.1182 138.529 53.6532 139.064 54.3131 139.064V140.259L54.19 140.256C52.9274 140.192 51.9233 139.148 51.9233 137.869V133.09C51.9233 131.811 52.9274 130.767 54.19 130.703L54.3131 130.7H97.3281L97.4512 130.703C98.7138 130.767 99.7178 131.811 99.7178 133.09V137.869L99.7149 137.992C99.6529 139.214 98.673 140.194 97.4512 140.256L97.3281 140.259V139.064C97.988 139.064 98.5229 138.529 98.5229 137.869Z" fill="#111111"/>
<path d="M51.9233 168.936C51.9233 163.326 56.4705 158.779 62.0797 158.779H126.602C132.211 158.779 136.758 163.326 136.758 168.936V168.936C136.758 174.545 132.211 179.092 126.602 179.092H62.0797C56.4705 179.092 51.9233 174.545 51.9233 168.936V168.936Z" fill="#FFCE2E"/>
<path d="M126.602 177.897V179.092H62.0797V177.897H126.602ZM135.564 168.936C135.564 163.986 131.551 159.974 126.602 159.974H62.0797C57.1304 159.974 53.1182 163.986 53.1182 168.936C53.1182 173.885 57.1304 177.897 62.0797 177.897V179.092L61.8177 179.088C56.3296 178.949 51.9233 174.457 51.9233 168.936C51.9233 163.414 56.3296 158.922 61.8177 158.783L62.0797 158.779H126.602L126.864 158.783C132.352 158.922 136.758 163.414 136.758 168.936C136.758 174.457 132.352 178.949 126.864 179.088L126.602 179.092V177.897C131.551 177.897 135.564 173.885 135.564 168.936Z" fill="#111111"/>
<path d="M70.4434 167.741C70.4434 167.081 70.9783 166.546 71.6382 166.546H117.043C117.703 166.546 118.238 167.081 118.238 167.741V170.13C118.238 170.79 117.703 171.325 117.043 171.325H71.6382C70.9783 171.325 70.4434 170.79 70.4434 170.13V167.741Z" fill="white" fill-opacity="0.5"/>
<g clip-path="url(#clip0_2718_680)">
<path fill-rule="evenodd" clip-rule="evenodd" d="M269.711 110.403C269.711 107.26 272.259 104.711 275.403 104.711H368.597C371.741 104.711 374.289 107.259 374.289 110.403V315.827C374.289 318.97 371.741 321.518 368.597 321.518H275.403C272.259 321.518 269.711 318.97 269.711 315.827V110.403Z" fill="#676564"/>
<path d="M373.577 110.403C373.577 107.652 371.348 105.423 368.597 105.423H275.403C272.652 105.423 270.423 107.652 270.423 110.403V315.826C270.423 318.577 272.652 320.806 275.403 320.806H368.597C371.348 320.806 373.577 318.577 373.577 315.826V110.403ZM375 315.826C375 319.362 372.133 322.229 368.597 322.229H275.403C271.867 322.229 269 319.362 269 315.826V110.403C269 106.867 271.867 104 275.403 104H368.597C372.133 104 375 106.867 375 110.403V315.826Z" fill="#111111"/>
<path fill-rule="evenodd" clip-rule="evenodd" d="M273.537 127.814C273.537 127.029 274.174 126.392 274.96 126.392H369.039C369.825 126.392 370.462 127.029 370.462 127.814V298.414C370.462 299.2 369.825 299.837 369.039 299.837H274.96C274.174 299.837 273.537 299.2 273.537 298.414V127.814Z" fill="white"/>
<path d="M369.751 127.814C369.751 127.422 369.432 127.103 369.04 127.103H274.96C274.567 127.103 274.249 127.421 274.249 127.814V298.414C274.249 298.807 274.567 299.125 274.96 299.125H369.04C369.432 299.125 369.751 298.807 369.751 298.414V127.814ZM371.174 298.414C371.174 299.592 370.218 300.548 369.04 300.548H274.96C273.781 300.548 272.826 299.592 272.826 298.414V127.814C272.826 126.636 273.781 125.68 274.96 125.68H369.04C370.218 125.68 371.174 126.636 371.174 127.814V298.414Z" fill="#111111"/>
<path d="M303.147 135.302C303.147 133.73 304.421 132.456 305.993 132.456H350.1C351.672 132.456 352.946 133.73 352.946 135.302V136.724C352.946 138.296 351.672 139.57 350.1 139.57H305.993C304.421 139.57 303.147 138.296 303.147 136.724V135.302Z" fill="#DDDDDD"/>
<path d="M350.1 138.147V139.57H305.993V138.147H350.1ZM351.523 136.724V135.302C351.523 134.516 350.886 133.879 350.1 133.879H305.993C305.207 133.879 304.57 134.516 304.57 135.302V136.724C304.57 137.51 305.207 138.147 305.993 138.147V139.57L305.846 139.567C304.392 139.493 303.225 138.326 303.151 136.871L303.147 136.724V135.302C303.147 133.779 304.343 132.536 305.846 132.459L305.993 132.456H350.1L350.247 132.459C351.751 132.536 352.946 133.779 352.946 135.302V136.724L352.943 136.871C352.869 138.326 351.702 139.493 350.247 139.567L350.1 139.57V138.147C350.886 138.147 351.523 137.51 351.523 136.724Z" fill="#111111"/>
<path d="M303.147 145.261C303.147 143.69 304.421 142.416 305.993 142.416H328.758C330.33 142.416 331.604 143.69 331.604 145.261V146.684C331.604 148.256 330.33 149.53 328.758 149.53H305.993C304.421 149.53 303.147 148.256 303.147 146.684V145.261Z" fill="#DDDDDD"/>
<path d="M328.758 148.107V149.53H305.993V148.107H328.758ZM330.181 146.684V145.261C330.181 144.475 329.544 143.838 328.758 143.838H305.993C305.207 143.838 304.57 144.475 304.57 145.261V146.684C304.57 147.47 305.207 148.107 305.993 148.107V149.53L305.846 149.526C304.392 149.452 303.225 148.286 303.151 146.831L303.147 146.684V145.261C303.147 143.739 304.343 142.495 305.846 142.419L305.993 142.416H328.758L328.905 142.419C330.408 142.495 331.604 143.739 331.604 145.261V146.684L331.6 146.831C331.526 148.286 330.36 149.452 328.905 149.526L328.758 149.53V148.107C329.544 148.107 330.181 147.47 330.181 146.684Z" fill="#111111"/>
<path fill-rule="evenodd" clip-rule="evenodd" d="M322 220.393C331.157 220.393 338.579 212.971 338.579 203.814C338.579 194.658 331.157 187.235 322 187.235C312.844 187.235 305.421 194.658 305.421 203.814C305.421 212.971 312.844 220.393 322 220.393Z" fill="#FFCE2E"/>
<path d="M322 187.235C331.156 187.235 338.579 194.658 338.579 203.814C338.579 212.971 331.157 220.393 322 220.393C312.844 220.393 305.421 212.97 305.421 203.814C305.421 194.658 312.844 187.235 322 187.235ZM322 188.658C313.629 188.658 306.844 195.443 306.844 203.814C306.844 212.185 313.629 218.97 322 218.97C330.371 218.97 337.156 212.185 337.156 203.814C337.156 195.443 330.371 188.658 322 188.658Z" fill="#111111"/>
<path fill-rule="evenodd" clip-rule="evenodd" d="M319.449 210.186L328.377 203.805L319.449 197.438V210.186Z" fill="white" fill-opacity="0.5"/>
<path opacity="0.2" fill-rule="evenodd" clip-rule="evenodd" d="M314.348 115.27C314.348 115.073 314.507 114.914 314.704 114.914H329.296C329.493 114.914 329.652 115.073 329.652 115.27V115.834C329.652 116.03 329.493 116.189 329.296 116.189H314.704C314.507 116.189 314.348 116.03 314.348 115.834V115.27Z" fill="#2C3238"/>
<path opacity="0.2" d="M314.704 115.27V115.834H329.296V115.27H314.704ZM330.008 115.834C330.008 116.226 329.689 116.545 329.296 116.545H314.704C314.311 116.545 313.993 116.226 313.993 115.834V115.27C313.993 114.877 314.311 114.558 314.704 114.558H329.296C329.689 114.558 330.008 114.877 330.008 115.27V115.834Z" fill="black"/>
<path opacity="0.2" fill-rule="evenodd" clip-rule="evenodd" d="M307.334 117.464C308.39 117.464 309.247 116.608 309.247 115.551C309.247 114.495 308.39 113.638 307.334 113.638C306.277 113.638 305.421 114.495 305.421 115.551C305.421 116.608 306.277 117.464 307.334 117.464Z" fill="#2C3238"/>
<path opacity="0.2" d="M308.891 115.552C308.891 114.692 308.194 113.994 307.334 113.994C306.474 113.994 305.776 114.692 305.776 115.552C305.777 116.412 306.474 117.109 307.334 117.109C308.194 117.109 308.891 116.412 308.891 115.552ZM309.602 115.552C309.602 116.804 308.587 117.82 307.334 117.82C306.081 117.82 305.065 116.805 305.065 115.552C305.065 114.299 306.081 113.283 307.334 113.283C308.587 113.283 309.602 114.299 309.602 115.552Z" fill="black"/>
<path d="M278.959 140.993C278.959 136.278 282.782 132.456 287.496 132.456C292.211 132.456 296.033 136.278 296.033 140.993C296.033 145.708 292.211 149.53 287.496 149.53C282.782 149.53 278.959 145.708 278.959 140.993Z" fill="#DDDDDD"/>
<path d="M294.611 140.993C294.611 137.064 291.425 133.879 287.496 133.879C283.567 133.879 280.382 137.064 280.382 140.993C280.382 144.922 283.567 148.107 287.496 148.107V149.53C282.782 149.53 278.959 145.708 278.959 140.993C278.959 136.278 282.782 132.456 287.496 132.456C292.211 132.456 296.033 136.278 296.033 140.993C296.033 145.708 292.211 149.53 287.496 149.53V148.107C291.425 148.107 294.611 144.922 294.611 140.993Z" fill="#111111"/>
</g>
<defs>
<clipPath id="clip0_2718_680">
<rect width="106" height="138" fill="white" transform="translate(269 104)"/>
</clipPath>
</defs>
</svg>
