<svg width="410" height="244" viewBox="0 0 410 244" fill="none" xmlns="http://www.w3.org/2000/svg">
<path d="M20 1H390C400.493 1 409 9.50659 409 20V224C409 234.493 400.493 243 390 243H20C9.50659 243 1 234.493 1 224V20C1 9.50659 9.50659 1 20 1Z" fill="#EFEEEB" stroke="#111111" stroke-width="2"/>
<path d="M393 1C397.167 1 401.174 3.09054 404.161 6.1377C407.157 9.19383 409 13.0806 409 16.5V191.624H119.075C111.302 191.624 105 185.322 105 177.549V1H393Z" fill="white" stroke="#111111" stroke-width="2"/>
<path d="M292.299 76.2795C289.355 73.3359 289.355 68.5635 292.299 65.6199L336.232 21.6866C339.176 18.743 343.948 18.743 346.892 21.6866L390.825 65.6199C393.769 68.5635 393.769 73.3359 390.825 76.2795L346.892 120.213C343.948 123.156 339.176 123.156 336.232 120.213L292.299 76.2795Z" fill="#FFE599"/>
<path d="M389.759 75.2135L390.825 76.2795L346.892 120.213L345.826 119.147L389.759 75.2135ZM389.759 66.6859L345.826 22.7525C343.471 20.3977 339.653 20.3977 337.298 22.7525L293.365 66.6859C291.01 69.0407 291.01 72.8587 293.365 75.2135L337.298 119.147C339.653 121.502 343.471 121.502 345.826 119.147L346.892 120.213L346.611 120.48C343.748 123.067 339.377 123.067 336.513 120.48L336.232 120.213L292.299 76.2795C289.355 73.3359 289.355 68.5635 292.299 65.6199L336.232 21.6866L336.513 21.419C339.472 18.7457 344.04 18.835 346.892 21.6866L390.825 65.6199L391.093 65.901C393.68 68.7644 393.68 73.135 391.093 75.9984L390.825 76.2795L389.759 75.2135C392.114 72.8587 392.114 69.0407 389.759 66.6859Z" fill="#111111"/>
<path d="M106 42.1133H214.54C222.865 42.1133 229.615 48.8626 229.615 57.1882V83.5694C229.615 91.895 222.865 98.6443 214.54 98.6443H106V42.1133Z" fill="#FFC626"/>
<path d="M214.925 42.1133C223.251 42.1133 230 48.8626 230 57.1882V83.5694C230 91.895 223.251 98.6443 214.925 98.6443H104V97.1368H214.925C222.418 97.1368 228.493 91.0625 228.493 83.5694V57.1882C228.493 49.6951 222.418 43.6208 214.925 43.6208H104V42.1133H214.925Z" fill="#111111"/>
<path d="M117.075 135.578C117.075 127.253 123.824 120.503 132.15 120.503H255.01C263.336 120.503 270.085 127.253 270.085 135.578V161.96C270.085 170.285 263.336 177.034 255.01 177.034H132.15C123.824 177.034 117.075 170.285 117.075 161.96V135.578Z" fill="#8C3EFF"/>
<path d="M255.01 175.527V177.034H132.15V175.527H255.01ZM268.578 161.96V135.578C268.578 128.085 262.504 122.011 255.01 122.011H132.15C124.657 122.011 118.582 128.085 118.582 135.578V161.96C118.582 169.453 124.657 175.527 132.15 175.527V177.034L131.76 177.029C123.615 176.823 117.075 170.155 117.075 161.96V135.578C117.075 127.253 123.824 120.503 132.15 120.503H255.01C263.336 120.503 270.085 127.253 270.085 135.578V161.96C270.085 170.285 263.336 177.034 255.01 177.034V175.527C262.504 175.527 268.578 169.453 268.578 161.96Z" fill="#111111"/>
<path d="M274.7 149.9L279.965 155.165C280.406 155.606 280.406 156.323 279.964 156.764C279.523 157.205 278.807 157.205 278.366 156.763L271.17 149.568C270.729 149.127 270.729 148.411 271.171 147.969L278.366 140.774C278.807 140.333 279.523 140.333 279.964 140.774C280.406 141.216 280.406 141.932 279.964 142.373L274.7 147.638L339.808 147.639L339.808 128.687C337.883 128.318 336.174 127.019 335.367 125.073C334.093 121.996 335.554 118.469 338.63 117.194C341.707 115.919 345.234 117.38 346.509 120.457C347.784 123.534 346.323 127.061 343.246 128.336C342.859 128.496 342.465 128.612 342.07 128.688L342.069 149.9L274.7 149.9Z" fill="#111111"/>
<path d="M224.814 76.594C227.891 77.8687 231.418 76.4078 232.693 73.3311C232.853 72.9441 232.97 72.5499 233.046 72.154L285.068 72.154L279.804 77.4189C279.363 77.8604 279.362 78.5763 279.804 79.0178C280.245 79.4593 280.961 79.4595 281.403 79.0181L288.598 71.8228C289.039 71.3813 289.039 70.6654 288.598 70.2239L281.403 63.0283C280.961 62.5868 280.245 62.5871 279.804 63.0286C279.362 63.4702 279.363 64.1863 279.804 64.6278L285.068 69.893L233.044 69.8929C232.675 67.9675 231.376 66.2589 229.43 65.4524C226.353 64.1778 222.826 65.6386 221.551 68.7153C220.276 71.792 221.737 75.3194 224.814 76.594Z" fill="#111111"/>
<path d="M173.18 141.853C173.914 139.876 174.28 138.888 174.062 138.247C173.872 137.69 173.434 137.253 172.878 137.063C172.237 136.844 171.249 137.211 169.272 137.945L145.824 146.649C143.498 147.513 142.335 147.945 141.995 148.58C141.701 149.131 141.696 149.79 141.982 150.345C142.312 150.986 143.468 151.435 145.781 152.333L148.91 153.549C151.209 154.442 152.359 154.888 153.327 155.578C154.184 156.19 154.934 156.94 155.546 157.798C156.236 158.766 156.683 159.915 157.576 162.214L158.791 165.343C159.69 167.656 160.139 168.813 160.779 169.143C161.334 169.428 161.994 169.423 162.544 169.129C163.18 168.79 163.612 167.627 164.475 165.301L173.18 141.853Z" fill="#FFCE2E"/>
<path d="M173.351 135.117C172.488 134.879 171.65 135.054 171.051 135.217C170.369 135.402 169.527 135.717 168.575 136.07L145.127 144.774L143.567 145.362C143.093 145.547 142.67 145.722 142.309 145.892C141.706 146.178 140.85 146.633 140.33 147.466L140.231 147.638L140.124 147.852C139.661 148.864 139.653 150.026 140.101 151.045L140.203 151.261C140.693 152.211 141.616 152.723 142.255 153.037C142.613 153.213 143.033 153.394 143.504 153.586L145.057 154.197L148.186 155.413C150.281 156.227 151.208 156.599 151.887 157.021L152.165 157.207C152.758 157.629 153.286 158.135 153.732 158.709L153.917 158.959C154.3 159.496 154.595 160.119 155.111 161.407L155.711 162.938L156.927 166.067C157.362 167.187 157.735 168.153 158.087 168.869C158.382 169.468 158.849 170.317 159.69 170.824L159.864 170.921C160.931 171.47 162.188 171.496 163.272 171L163.487 170.893C164.429 170.39 164.927 169.459 165.232 168.815C165.402 168.455 165.577 168.031 165.762 167.557L166.35 165.997L175.054 142.549C175.407 141.598 175.722 140.755 175.907 140.073C176.081 139.435 176.269 138.523 175.954 137.6L175.875 137.39C175.451 136.348 174.595 135.536 173.524 135.17L173.351 135.117ZM169.272 137.945C171.248 137.211 172.237 136.844 172.877 137.062C173.434 137.252 173.872 137.69 174.062 138.247C174.28 138.888 173.913 139.876 173.179 141.852L164.475 165.301C163.611 167.627 163.179 168.789 162.544 169.129C162.063 169.386 161.497 169.423 160.991 169.236L160.779 169.142C160.298 168.895 159.926 168.182 159.391 166.866L158.791 165.344L157.575 162.214C156.794 160.202 156.354 159.071 155.794 158.171L155.546 157.798C155.011 157.047 154.369 156.379 153.643 155.814L153.326 155.578C152.601 155.06 151.772 154.68 150.434 154.145L148.91 153.549L145.781 152.333C143.612 151.49 142.46 151.043 142.053 150.463L141.982 150.346C141.696 149.791 141.701 149.13 141.995 148.58C142.25 148.104 142.967 147.742 144.291 147.226L145.824 146.649L169.272 137.945Z" fill="#111111"/>
<path d="M37 184.754C37 174.261 45.5068 165.754 56.0006 165.754H137.503C139.712 165.754 141.503 167.545 141.503 169.754V183.755C141.503 194.801 132.549 203.755 121.503 203.755H56.0006C45.5068 203.755 37 195.248 37 184.754V184.754Z" fill="#FFCE2E"/>
<path d="M121.503 201.755V203.755H56.001V201.755H121.503ZM139.503 183.755V169.754C139.503 168.719 138.717 167.867 137.708 167.765L137.503 167.754H56.001C46.6118 167.754 39 175.366 39 184.755C39.0002 194.144 46.612 201.755 56.001 201.755V203.755L55.5098 203.749C45.4059 203.493 37.262 195.349 37.0059 185.245L37 184.755C37 174.425 45.2429 166.02 55.5098 165.76L56.001 165.754H137.503L137.709 165.759C139.823 165.866 141.503 167.614 141.503 169.754V183.755L141.497 184.272C141.228 194.907 132.655 203.479 122.02 203.748L121.503 203.755V201.755C131.444 201.755 139.503 193.696 139.503 183.755Z" fill="#111111"/>
<path d="M123.776 190.538C122.621 190.538 121.595 190.295 120.698 189.809C119.816 189.322 119.125 188.638 118.623 187.757C118.121 186.875 117.871 185.864 117.871 184.724C117.871 183.539 118.114 182.497 118.6 181.601C119.102 180.689 119.793 179.974 120.675 179.457C121.572 178.941 122.606 178.682 123.776 178.682C124.916 178.682 125.912 178.925 126.763 179.412C127.614 179.898 128.283 180.567 128.769 181.418C129.256 182.254 129.499 183.204 129.499 184.268C129.499 184.42 129.491 184.595 129.476 184.793C129.476 184.975 129.469 185.165 129.453 185.363H120.059V183.47H126.375C126.33 182.756 126.064 182.186 125.577 181.76C125.106 181.335 124.513 181.122 123.799 181.122C123.267 181.122 122.78 181.243 122.34 181.487C121.899 181.715 121.549 182.072 121.291 182.558C121.032 183.029 120.903 183.63 120.903 184.36V185.021C120.903 185.644 121.025 186.184 121.268 186.64C121.511 187.08 121.846 187.422 122.271 187.666C122.712 187.909 123.206 188.03 123.753 188.03C124.316 188.03 124.787 187.909 125.167 187.666C125.547 187.407 125.836 187.08 126.033 186.685H129.157C128.944 187.4 128.587 188.053 128.085 188.646C127.584 189.224 126.968 189.687 126.238 190.037C125.509 190.371 124.688 190.538 123.776 190.538Z" fill="#111111"/>
<path d="M111.129 190.538C109.974 190.538 108.948 190.295 108.051 189.809C107.169 189.322 106.478 188.638 105.976 187.757C105.474 186.875 105.224 185.864 105.224 184.724C105.224 183.539 105.467 182.497 105.953 181.601C106.455 180.689 107.146 179.974 108.028 179.457C108.925 178.941 109.959 178.682 111.129 178.682C112.269 178.682 113.265 178.925 114.116 179.412C114.967 179.898 115.636 180.567 116.122 181.418C116.609 182.254 116.852 183.204 116.852 184.268C116.852 184.42 116.844 184.595 116.829 184.793C116.829 184.975 116.822 185.165 116.806 185.363H107.412V183.47H113.728C113.683 182.756 113.417 182.186 112.93 181.76C112.459 181.335 111.866 181.122 111.152 181.122C110.62 181.122 110.133 181.243 109.693 181.487C109.252 181.715 108.902 182.072 108.644 182.558C108.385 183.029 108.256 183.63 108.256 184.36V185.021C108.256 185.644 108.378 186.184 108.621 186.64C108.864 187.08 109.199 187.422 109.624 187.666C110.065 187.909 110.559 188.03 111.106 188.03C111.669 188.03 112.14 187.909 112.52 187.666C112.9 187.407 113.189 187.08 113.386 186.685H116.51C116.297 187.4 115.94 188.053 115.438 188.646C114.937 189.224 114.321 189.687 113.591 190.037C112.862 190.371 112.041 190.538 111.129 190.538Z" fill="#111111"/>
<path d="M100.558 190.265V174.304H103.636V190.265H100.558Z" fill="#111111"/>
<path d="M92.8203 195.099C91.741 195.099 90.791 194.969 89.9702 194.711C89.1646 194.453 88.5337 194.065 88.0777 193.548C87.6369 193.047 87.4165 192.439 87.4165 191.724C87.4165 191.192 87.5533 190.706 87.8269 190.265C88.1005 189.809 88.5033 189.398 89.0354 189.034C89.5674 188.654 90.221 188.327 90.9962 188.053L92.1134 189.581C91.4446 189.809 90.9582 190.082 90.6542 190.402C90.3502 190.721 90.1982 191.086 90.1982 191.496C90.1982 191.8 90.3046 192.059 90.5174 192.271C90.7454 192.484 91.057 192.644 91.4522 192.75C91.8474 192.872 92.3035 192.933 92.8203 192.933C93.3371 192.933 93.7703 192.872 94.1199 192.75C94.4695 192.629 94.7355 192.454 94.9179 192.226C95.1003 192.013 95.1915 191.762 95.1915 191.473C95.1915 191.063 95.0471 190.744 94.7583 190.516C94.4695 190.303 93.9071 190.166 93.0711 190.105C92.2959 190.044 91.6118 189.961 91.019 189.854C90.4262 189.733 89.9018 189.596 89.4458 189.444C89.005 189.277 88.6249 189.094 88.3057 188.897C87.9865 188.699 87.7281 188.502 87.5305 188.304V187.78L89.9702 185.272L91.7714 185.956L89.309 188.692L90.1298 187.324C90.2818 187.384 90.4414 187.445 90.6086 187.506C90.7758 187.567 90.981 187.628 91.2242 187.688C91.4826 187.749 91.8018 187.81 92.1819 187.871C92.5771 187.916 93.0711 187.97 93.6639 188.03C94.6671 188.106 95.488 188.281 96.1264 188.555C96.7648 188.828 97.236 189.201 97.54 189.672C97.844 190.143 97.996 190.721 97.996 191.405C97.996 191.998 97.806 192.575 97.426 193.138C97.0612 193.715 96.4988 194.187 95.7388 194.551C94.9787 194.916 94.0059 195.099 92.8203 195.099ZM92.8431 186.913C91.8854 186.913 91.057 186.731 90.3578 186.366C89.6738 186.001 89.1418 185.507 88.7617 184.884C88.3969 184.261 88.2145 183.569 88.2145 182.809C88.2145 182.049 88.3969 181.357 88.7617 180.734C89.1418 180.111 89.6738 179.617 90.3578 179.252C91.057 178.872 91.8854 178.682 92.8431 178.682C93.8007 178.682 94.6215 178.872 95.3055 179.252C96.0048 179.617 96.5368 180.111 96.9016 180.734C97.2664 181.357 97.4488 182.049 97.4488 182.809C97.4488 183.569 97.2664 184.261 96.9016 184.884C96.5368 185.507 96.0048 186.001 95.3055 186.366C94.6215 186.731 93.8007 186.913 92.8431 186.913ZM92.8203 184.679C93.4283 184.679 93.9147 184.527 94.2795 184.223C94.6595 183.903 94.8495 183.432 94.8495 182.809C94.8495 182.186 94.6595 181.722 94.2795 181.418C93.9147 181.099 93.4359 180.939 92.8431 180.939C92.2351 180.939 91.741 181.099 91.361 181.418C90.9962 181.722 90.8138 182.186 90.8138 182.809C90.8138 183.432 90.9962 183.903 91.361 184.223C91.741 184.527 92.2275 184.679 92.8203 184.679ZM94.6899 181.031L94.1883 178.956H98.9309V180.62L94.6899 181.031Z" fill="#111111"/>
<path d="M79.8833 195.099C78.804 195.099 77.854 194.969 77.0332 194.711C76.2275 194.453 75.5967 194.065 75.1407 193.548C74.6999 193.047 74.4795 192.439 74.4795 191.724C74.4795 191.192 74.6163 190.706 74.8899 190.265C75.1635 189.809 75.5663 189.398 76.0983 189.034C76.6304 188.654 77.284 188.327 78.0592 188.053L79.1764 189.581C78.5076 189.809 78.0212 190.082 77.7172 190.402C77.4132 190.721 77.2612 191.086 77.2612 191.496C77.2612 191.8 77.3676 192.059 77.5804 192.271C77.8084 192.484 78.12 192.644 78.5152 192.75C78.9104 192.872 79.3664 192.933 79.8833 192.933C80.4001 192.933 80.8333 192.872 81.1829 192.75C81.5325 192.629 81.7985 192.454 81.9809 192.226C82.1633 192.013 82.2545 191.762 82.2545 191.473C82.2545 191.063 82.1101 190.744 81.8213 190.516C81.5325 190.303 80.9701 190.166 80.1341 190.105C79.3588 190.044 78.6748 189.961 78.082 189.854C77.4892 189.733 76.9648 189.596 76.5088 189.444C76.0679 189.277 75.6879 189.094 75.3687 188.897C75.0495 188.699 74.7911 188.502 74.5935 188.304V187.78L77.0332 185.272L78.8344 185.956L76.3719 188.692L77.1928 187.324C77.3448 187.384 77.5044 187.445 77.6716 187.506C77.8388 187.567 78.044 187.628 78.2872 187.688C78.5456 187.749 78.8648 187.81 79.2448 187.871C79.64 187.916 80.1341 187.97 80.7269 188.03C81.7301 188.106 82.5509 188.281 83.1894 188.555C83.8278 188.828 84.299 189.201 84.603 189.672C84.907 190.143 85.059 190.721 85.059 191.405C85.059 191.998 84.869 192.575 84.489 193.138C84.1242 193.715 83.5618 194.187 82.8017 194.551C82.0417 194.916 81.0689 195.099 79.8833 195.099ZM79.9061 186.913C78.9484 186.913 78.12 186.731 77.4208 186.366C76.7368 186.001 76.2047 185.507 75.8247 184.884C75.4599 184.261 75.2775 183.569 75.2775 182.809C75.2775 182.049 75.4599 181.357 75.8247 180.734C76.2047 180.111 76.7368 179.617 77.4208 179.252C78.12 178.872 78.9484 178.682 79.9061 178.682C80.8637 178.682 81.6845 178.872 82.3685 179.252C83.0678 179.617 83.5998 180.111 83.9646 180.734C84.3294 181.357 84.5118 182.049 84.5118 182.809C84.5118 183.569 84.3294 184.261 83.9646 184.884C83.5998 185.507 83.0678 186.001 82.3685 186.366C81.6845 186.731 80.8637 186.913 79.9061 186.913ZM79.8833 184.679C80.4913 184.679 80.9777 184.527 81.3425 184.223C81.7225 183.903 81.9125 183.432 81.9125 182.809C81.9125 182.186 81.7225 181.722 81.3425 181.418C80.9777 181.099 80.4989 180.939 79.9061 180.939C79.298 180.939 78.804 181.099 78.424 181.418C78.0592 181.722 77.8768 182.186 77.8768 182.809C77.8768 183.432 78.0592 183.903 78.424 184.223C78.804 184.527 79.2904 184.679 79.8833 184.679ZM81.7529 181.031L81.2513 178.956H85.9938V180.62L81.7529 181.031Z" fill="#111111"/>
<path d="M67.2844 190.538C66.19 190.538 65.2019 190.288 64.3203 189.786C63.4387 189.284 62.7395 188.585 62.2226 187.688C61.721 186.792 61.4702 185.766 61.4702 184.61C61.4702 183.44 61.7286 182.414 62.2454 181.532C62.7623 180.635 63.4615 179.936 64.3431 179.435C65.2247 178.933 66.2052 178.682 67.2844 178.682C68.3788 178.682 69.3669 178.933 70.2485 179.435C71.1301 179.936 71.8217 180.635 72.3233 181.532C72.8402 182.414 73.0986 183.44 73.0986 184.61C73.0986 185.781 72.8402 186.814 72.3233 187.711C71.8065 188.593 71.1073 189.284 70.2257 189.786C69.3593 190.288 68.3788 190.538 67.2844 190.538ZM67.2616 187.939C67.7632 187.939 68.2116 187.818 68.6068 187.574C69.0172 187.331 69.3441 186.966 69.5873 186.48C69.8305 185.978 69.9521 185.355 69.9521 184.61C69.9521 183.865 69.8305 183.25 69.5873 182.763C69.3441 182.262 69.0172 181.889 68.6068 181.646C68.2116 181.403 67.7784 181.281 67.3072 181.281C66.8208 181.281 66.3724 181.403 65.962 181.646C65.5515 181.889 65.2247 182.262 64.9815 182.763C64.7383 183.25 64.6167 183.865 64.6167 184.61C64.6167 185.355 64.7383 185.978 64.9815 186.48C65.2247 186.966 65.5439 187.331 65.9392 187.574C66.3496 187.818 66.7904 187.939 67.2616 187.939Z" fill="#111111"/>
<path d="M48.8755 190.265V178.956H51.4976L51.7712 180.803H51.8624C52.2272 180.134 52.7212 179.617 53.3444 179.252C53.9676 178.872 54.7505 178.682 55.6929 178.682C56.6353 178.682 57.4333 178.887 58.087 179.298C58.7406 179.693 59.2346 180.278 59.569 181.053C59.9186 181.829 60.0934 182.786 60.0934 183.926V190.265H57.0153V184.2C57.0153 183.257 56.8253 182.535 56.4453 182.034C56.0653 181.532 55.4649 181.281 54.6441 181.281C54.1272 181.281 53.6636 181.411 53.2532 181.669C52.8428 181.912 52.5236 182.269 52.2956 182.741C52.0676 183.197 51.9536 183.759 51.9536 184.428V190.265H48.8755Z" fill="#111111"/>
</svg>
