<svg width="24" height="24" viewBox="0 0 24 24" fill="none" xmlns="http://www.w3.org/2000/svg">
<rect width="24" height="24" rx="4" fill="#464646"/>
<g clip-path="url(#clip0_2790_5755)">
<path d="M4.14323 3.77619L14.6565 3.04053C15.9479 2.93559 16.2797 3.00633 17.0917 3.56559L20.4477 5.80533C21.0012 6.19053 21.1855 6.29547 21.1855 6.71487V18.9986C21.1855 19.7685 20.8904 20.2239 19.8574 20.2933L7.64873 20.9939C6.87353 21.0287 6.50436 20.9237 6.09833 20.4336L3.627 17.3891C3.18373 16.8287 3 16.4093 3 15.919V5.00019C3 4.37073 3.29507 3.84585 4.14323 3.77619Z" fill="white"/>
<path fill-rule="evenodd" clip-rule="evenodd" d="M14.6565 3.04071L4.14323 3.77637C3.29507 3.84585 3 4.37091 3 5.00019V15.919C3 16.4091 3.18373 16.8285 3.627 17.389L6.09833 20.4334C6.50436 20.9235 6.87353 21.0286 7.64873 20.9937L19.8576 20.2935C20.8898 20.2239 21.1857 19.7685 21.1857 18.9988V6.71505C21.1857 6.31725 21.0198 6.20259 20.5315 5.86311L17.0917 3.56559C16.2799 3.00633 15.9479 2.93559 14.6565 3.04053V3.04071ZM7.9248 6.51399C6.92787 6.57753 6.70177 6.59193 6.13557 6.15579L4.69613 5.07111C4.54983 4.93071 4.62336 4.75557 4.99196 4.72065L15.0986 4.02099C15.9474 3.95079 16.3893 4.23105 16.7212 4.47585L18.4546 5.66565C18.5287 5.70111 18.713 5.91045 18.4913 5.91045L8.054 6.50571L7.9248 6.51399ZM6.76257 18.8938V8.46591C6.76257 8.01051 6.9102 7.80045 7.35214 7.76517L19.34 7.10025C19.7466 7.06551 19.9303 7.31031 19.9303 7.76499V18.1234C19.9303 18.5788 19.8562 18.964 19.1926 18.9988L7.72093 19.6288C7.05726 19.6635 6.76276 19.4542 6.76276 18.8938H6.76257ZM18.0866 9.02499C18.1601 9.33999 18.0866 9.65499 17.7541 9.69099L17.2012 9.79485V17.494C16.721 17.7388 16.2791 17.8786 15.9097 17.8786C15.3194 17.8786 15.172 17.7035 14.7298 17.179L11.1141 11.7898V17.0038L12.2579 17.2492C12.2579 17.2492 12.2579 17.8792 11.3351 17.8792L8.79101 18.019C8.71691 17.8786 8.79101 17.5289 9.04884 17.4592L9.71327 17.2846V10.3906L8.7912 10.3199C8.7171 10.0049 8.9014 9.55005 9.4182 9.51477L12.1479 9.34071L15.9099 14.7996V9.97017L14.951 9.86577C14.8769 9.48003 15.172 9.19977 15.5406 9.16557L18.0866 9.02499Z" fill="black"/>
</g>
<defs>
<clipPath id="clip0_2790_5755">
<rect width="19" height="18" fill="white" transform="translate(3 3)"/>
</clipPath>
</defs>
</svg>
