<svg width="722" height="722" viewBox="0 0 722 722" fill="none" xmlns="http://www.w3.org/2000/svg">
<g clip-path="url(#clip0_2632_328)">
<path d="M125.251 116.118L421.836 94.2114C458.268 91.0865 467.626 93.193 490.535 109.847L585.209 176.541C600.823 188.011 606.022 191.136 606.022 203.625V569.408C606.022 592.332 597.698 605.893 568.555 607.962L224.143 628.823C202.274 629.858 191.86 626.733 180.406 612.137L110.688 521.478C98.1831 504.793 93 492.304 93 477.703V152.566C93 133.822 101.324 118.192 125.251 116.118Z" fill="white"/>
<path fill-rule="evenodd" clip-rule="evenodd" d="M421.836 94.2168L125.251 116.123C101.324 118.192 93 133.827 93 152.566V477.703C93 492.299 98.1831 504.787 110.688 521.478L180.406 612.132C191.86 626.727 202.274 629.858 224.143 628.818L568.561 607.967C597.682 605.893 606.027 592.332 606.027 569.413V203.63C606.027 191.785 601.348 188.371 587.573 178.262L490.535 109.847C467.632 93.193 458.268 91.0865 421.836 94.2114V94.2168ZM231.931 197.643C203.807 199.535 197.429 199.964 181.456 186.977L140.849 154.678C136.722 150.497 138.796 145.281 149.194 144.242L434.309 123.407C458.252 121.317 470.719 129.662 480.083 136.952L528.982 172.382C531.073 173.438 536.272 179.671 530.017 179.671L235.576 197.397L231.931 197.643ZM199.144 566.288V255.767C199.144 242.206 203.309 235.951 215.776 234.901L553.96 215.101C565.43 214.066 570.614 221.356 570.614 234.895V543.347C570.614 556.908 568.523 568.378 549.801 569.413L226.18 588.173C207.457 589.207 199.149 582.974 199.149 566.288H199.144ZM518.6 272.415C520.674 281.795 518.6 291.175 509.22 292.247L493.622 295.34V524.603C480.078 531.893 467.61 536.058 457.191 536.058C440.537 536.058 436.378 530.842 423.905 515.223L321.904 354.745V510.008L354.171 517.314C354.171 517.314 354.171 536.074 328.138 536.074L256.367 540.238C254.277 536.058 256.367 525.643 263.641 523.569L282.385 518.37V313.082L256.373 310.975C254.282 301.595 259.482 288.05 274.061 287L351.068 281.817L457.196 444.369V300.561L430.144 297.452C428.054 285.965 436.378 277.62 446.776 276.601L518.6 272.415Z" fill="black"/>
</g>
<defs>
<clipPath id="clip0_2632_328">
<rect width="536" height="536" fill="white" transform="translate(93 93)"/>
</clipPath>
</defs>
</svg>
