<svg width="24" height="24" viewBox="0 0 24 24" fill="none" xmlns="http://www.w3.org/2000/svg">
<path d="M0 4C0 1.79086 1.79086 0 4 0H20C22.2091 0 24 1.79086 24 4V20C24 22.2091 22.2091 24 20 24H4C1.79086 24 0 22.2091 0 20V4Z" fill="#ADE975"/>
<path d="M3 3V2C2.73478 2 2.48043 2.10536 2.29289 2.29289C2.10536 2.48043 2 2.73478 2 3H3ZM18.293 14.293L17.382 13.881C17.2983 14.0662 17.273 14.2724 17.3094 14.4723C17.3459 14.6722 17.4423 14.8563 17.586 15L18.293 14.293ZM21 17L21.707 17.707C21.8945 17.5195 21.9998 17.2652 21.9998 17C21.9998 16.7348 21.8945 16.4805 21.707 16.293L21 17ZM17 21L16.293 21.707C16.4805 21.8945 16.7348 21.9998 17 21.9998C17.2652 21.9998 17.5195 21.8945 17.707 21.707L17 21ZM14.293 18.293L15 17.586C14.8562 17.4421 14.672 17.3455 14.4719 17.3091C14.2717 17.2726 14.0653 17.2981 13.88 17.382L14.293 18.293ZM11 2H3V4H4H11V2ZM20 11C20 9.8181 19.7672 8.64778 19.3149 7.55585C18.8626 6.46392 18.1997 5.47177 17.364 4.63604C16.5282 3.80031 15.5361 3.13738 14.4442 2.68508C13.3522 2.23279 12.1819 2 11 2V4C12.8565 4 14.637 4.7375 15.9497 6.05025C17.2625 7.36301 18 9.14348 18 11H20ZM19.204 14.705C19.7293 13.5405 20.0006 12.2775 20 11H18C18.0006 11.993 17.7899 12.9757 17.382 13.881L19.204 14.705ZM17.586 15L19.586 17L20.293 17.707L21 17L21.707 16.293L19 13.586L17.586 15ZM20.293 16.293L19.586 17L17 19.586L16.293 20.293L17.707 21.707L21.707 17.707L21 17L20.293 16.293ZM17.707 20.293L17 19.586L15 17.586L13.586 19L16.293 21.707L17.707 20.293ZM11 20C12.2775 20.0006 13.5405 19.7293 14.705 19.204L13.88 17.382C12.9744 17.7901 11.9933 18.0007 11 18V20ZM2 11C2 13.3869 2.94821 15.6761 4.63604 17.364C6.32387 19.0518 8.61305 20 11 20V18C9.14348 18 7.36301 17.2625 6.05025 15.9497C4.7375 14.637 4 12.8565 4 11H2ZM2 3V11H4V4V3H2Z" fill="#111111"/>
<path d="M17.3094 14.4723C17.273 14.2724 17.2983 14.0662 17.382 13.881C17.7899 12.9757 18.0006 11.993 18 11C18 9.14348 17.2625 7.36301 15.9497 6.05025C14.637 4.7375 12.8565 4 11 4H4V11C4 12.8565 4.7375 14.637 6.05025 15.9497C7.36301 17.2625 9.14348 18 11 18C11.9933 18.0007 12.9744 17.7901 13.88 17.382C14.0653 17.2981 14.2717 17.2726 14.4719 17.3091C14.672 17.3455 14.8562 17.4421 15 17.586L17 19.586L19.586 17L17.586 15C17.4423 14.8563 17.3459 14.6722 17.3094 14.4723Z" fill="white"/>
<path d="M11 9C9.89543 9 9 9.89543 9 11C9 12.1046 9.89543 13 11 13C12.1046 13 13 12.1046 13 11C13 9.89543 12.1046 9 11 9Z" fill="#111111"/>
<path d="M2.29273 2.29298C2.65885 1.92686 3.23785 1.90427 3.63063 2.22462L3.7068 2.29298L11.7068 10.293L11.7752 10.3692C12.0955 10.7619 12.0729 11.3409 11.7068 11.707C11.3407 12.0732 10.7617 12.0958 10.3689 11.7754L10.2927 11.707L2.29273 3.70704L2.22437 3.63087C1.90402 3.2381 1.92662 2.65909 2.29273 2.29298Z" fill="#111111"/>
</svg>
