<svg width="24" height="24" viewBox="0 0 24 24" fill="none" xmlns="http://www.w3.org/2000/svg">
<rect width="24" height="24" rx="4" fill="#145327"/>
<path d="M16.8264 20.3471H6.65682C6.00851 20.3471 5.4834 19.822 5.4834 19.1737V4.31038C5.4834 3.66207 6.00851 3.13696 6.65682 3.13696H13.6973L17.9998 7.4395V19.1737C17.9998 19.822 17.4747 20.3471 16.8264 20.3471Z" fill="#00AC47"/>
<path d="M13.6978 3.13696L18.0003 7.4395H13.6978V3.13696Z" fill="#00832D"/>
<path d="M14.675 9.78613H12.2304H11.2525H8.80792H7.83008V10.764V12.133V13.1108V14.4798V15.4576H8.80792H11.2525H12.2304H14.675H15.6529V14.4798V13.1108V12.133V10.764V9.78613H14.675ZM8.80792 10.764H11.2525V12.133H8.80792V10.764ZM8.80792 14.4798V13.1108H11.2525V14.4798H8.80792ZM14.675 14.4798H12.2304V13.1108H14.675V14.4798ZM14.675 12.133H12.2304V10.764H14.675V12.133Z" fill="white"/>
</svg>
