<svg width="24" height="24" viewBox="0 0 24 24" fill="none" xmlns="http://www.w3.org/2000/svg">
<path d="M0 4C0 1.79086 1.79086 0 4 0H20C22.2091 0 24 1.79086 24 4V20C24 22.2091 22.2091 24 20 24H4C1.79086 24 0 22.2091 0 20V4Z" fill="#FFCE2E"/>
<path fill-rule="evenodd" clip-rule="evenodd" d="M19.0489 17.6338L15.5129 14.0978L14.0989 15.5118L17.6349 19.0478L19.0489 17.6338Z" fill="#111111"/>
<path d="M19.0489 20.4618L20.4629 19.0478L19.0489 17.6338L17.6349 19.0478L19.0489 20.4618Z" fill="#111111"/>
<path d="M10.8536 1.10817C9.3159 0.860365 7.73963 1.03976 6.29689 1.62676L5.67289 1.88076L5.67489 3.55276L9.50289 7.38076L7.38089 9.50176L3.55289 5.67376L1.88089 5.67176L1.62689 6.29576C1.03988 7.7385 0.860487 9.31478 1.10829 10.8525C1.35609 12.3903 2.02157 13.8304 3.03208 15.0157C4.04258 16.201 5.35929 17.0859 6.83847 17.5739C8.31764 18.0619 9.90245 18.1341 11.4199 17.7828L15.8668 22.2288C16.2573 22.6193 16.8904 22.6192 17.2809 22.2287L17.9879 21.5218L19.0489 20.4618L17.6349 19.0478L16.5744 20.1083L11.9999 15.5338L11.4249 15.7118C10.2943 16.0614 9.08981 16.0958 7.94118 15.8112C6.79255 15.5266 5.7434 14.9338 4.90689 14.0968C4.13445 13.3251 3.56886 12.3712 3.26231 11.3233C2.95575 10.2754 2.91812 9.16708 3.15289 8.10076L7.38089 12.3308L12.3309 7.38076L8.10289 3.15276C9.16912 2.91787 10.2774 2.95535 11.3253 3.26172C12.3732 3.5681 13.3271 4.13351 14.0989 4.90576C14.9359 5.74228 15.5287 6.79143 15.8133 7.94006C16.0979 9.08869 16.0635 10.2932 15.7139 11.4238L15.5359 11.9998L20.1094 16.5733L19.0489 17.6338L20.4629 19.0478L21.5229 17.9868L22.2302 17.2799C22.621 16.8894 22.6211 16.256 22.2304 15.8654L17.7839 11.4198C18.1352 9.90232 18.063 8.31752 17.575 6.83834C17.0871 5.35917 16.2021 4.04246 15.0168 3.03195C13.8315 2.02145 12.3914 1.35597 10.8536 1.10817Z" fill="#111111"/>
<path d="M15.5359 11.9998L15.7139 11.4238C16.0635 10.2932 16.0979 9.08869 15.8133 7.94006C15.5287 6.79143 14.9359 5.74228 14.0989 4.90576C13.3271 4.13351 12.3732 3.5681 11.3253 3.26172C10.2774 2.95535 9.16912 2.91787 8.10289 3.15276L12.3309 7.38076L7.38089 12.3308L3.15289 8.10076C2.91812 9.16708 2.95575 10.2754 3.26231 11.3233C3.56886 12.3712 4.13445 13.3251 4.90689 14.0968C5.7434 14.9338 6.79255 15.5266 7.94118 15.8112C9.08981 16.0958 10.2943 16.0614 11.4249 15.7118L11.9999 15.5338L16.5744 20.1083L17.6349 19.0478L14.0989 15.5118L15.5129 14.0978L19.0489 17.6338L20.1094 16.5733L15.5359 11.9998Z" fill="white"/>
</svg>
